<svg xmlns="http://www.w3.org/2000/svg" viewBox="0 0 3376.4 2262.5"><defs><style>      .cls-1 {        fill: #00a39a;      }      .cls-2 {        opacity: .9;      }      .cls-3 {        opacity: .8;      }      .cls-4 {        opacity: .4;      }      .cls-5 {        opacity: .2;      }      .cls-6 {        fill: #00837f;      }    </style></defs><g><g id="Artwork_HERE"><g class="cls-3"><g><g class="cls-4"><path class="cls-6" d="M133,749.9h0l-80.2,80.2c-70.3,70.3-70.3,185.4,0,255.7h0c70.3,70.3,185.4,70.3,255.7,0l178.8-178.8v.3c7-5.8,16-9.2,25.8-9.2s18.8,3.4,25.8,9.2h.3l-154-154c-69.4-69.4-181.3-70.6-252.1-3.5"></path><path class="cls-1" d="M973.3,830.1l-332.2-332.3-.2-.2c-4.4-4.4-9-8.5-13.7-12.4-70.8-57.7-176.1-53.6-242,12.3-1.2,1.1-2.3,2.3-3.4,3.5l-10,10-238.9,238.8h0c70.8-67.1,182.7-66,252.1,3.5l154,154,178.4,178.4c70.3,70.3,185.4,70.3,255.8,0,70.3-70.3,70.3-185.4,0-255.7"></path></g><g><g class="cls-5"><path class="cls-6" d="M2483.3,1873.8h0l-80.2,80.2c-70.3,70.3-70.4,185.4,0,255.7h0c70.3,70.4,185.4,70.4,255.7,0l178.8-178.8v.3c7-5.7,16.1-9.2,25.8-9.2s18.8,3.4,25.8,9.2h.3l-154-154c-69.4-69.4-181.3-70.6-252.1-3.5"></path><path class="cls-1" d="M3323.7,1954l-332.2-332.2-.2-.2c-4.4-4.4-9-8.5-13.7-12.4-70.8-57.7-176.1-53.6-242,12.3-1.2,1.2-2.3,2.3-3.4,3.5l-10,10-238.9,238.8h0c70.8-67.1,182.7-66,252.1,3.5l154,154,178.4,178.4c70.4,70.3,185.4,70.3,255.8,0,70.3-70.3,70.3-185.4,0-255.7"></path></g><g class="cls-2"><path class="cls-6" d="M2483.3,1089.7h0l-80.2,80.2c-70.3,70.3-70.4,185.4,0,255.7h0c70.3,70.3,185.4,70.3,255.7,0l178.8-178.8v.3c7-5.8,16.1-9.2,25.8-9.2s18.8,3.4,25.8,9.2h.3l-154-154c-69.4-69.4-181.3-70.6-252.1-3.4"></path><path class="cls-1" d="M3323.7,1169.8l-332.2-332.2-.2-.2c-4.4-4.4-9-8.5-13.7-12.4-70.8-57.7-176.1-53.6-242,12.3-1.2,1.2-2.3,2.3-3.4,3.5l-10,10-238.9,238.8h0c70.8-67.1,182.7-66,252.1,3.5l154,154,178.4,178.4c70.4,70.3,185.4,70.3,255.8,0,70.3-70.3,70.3-185.4,0-255.7"></path></g><g class="cls-4"><path class="cls-6" d="M2483.3,305.5h0l-80.2,80.2c-70.3,70.3-70.4,185.4,0,255.7h0c70.3,70.3,185.4,70.3,255.7,0l178.8-178.8v.3c7-5.8,16.1-9.2,25.8-9.2s18.8,3.4,25.8,9.2h.3l-154-154c-69.4-69.4-181.3-70.6-252.1-3.5"></path><path class="cls-1" d="M3323.7,385.7l-332.2-332.2-.2-.2c-4.4-4.4-9-8.5-13.7-12.4-70.8-57.7-176.1-53.6-242,12.3-1.2,1.2-2.3,2.3-3.4,3.5l-10,10-238.9,238.8h0c70.8-67.1,182.7-66,252.1,3.5l154,154,178.4,178.4c70.4,70.3,185.4,70.3,255.8,0,70.3-70.3,70.3-185.4,0-255.7"></path></g></g><g><g class="cls-5"><path class="cls-6" d="M1308.2,1089.2h0l-80.2,80.2c-70.3,70.3-70.3,185.4,0,255.7h0c70.3,70.3,185.4,70.3,255.7,0l178.8-178.8v.3c7-5.8,16.1-9.2,25.8-9.2s18.8,3.4,25.8,9.2h.3l-154-154c-69.4-69.4-181.3-70.6-252.1-3.4"></path><path class="cls-1" d="M2148.5,1169.4l-332.2-332.2-.2-.2c-4.4-4.4-9-8.5-13.7-12.4-70.8-57.7-176.1-53.6-242,12.3-1.2,1.2-2.3,2.3-3.4,3.5l-10,10-238.9,238.8h0c70.8-67.1,182.7-66,252.1,3.5l154,154,178.4,178.4c70.3,70.3,185.4,70.3,255.8,0,70.3-70.3,70.3-185.4,0-255.7"></path></g><g class="cls-5"><path class="cls-6" d="M1308.2,305h0l-80.2,80.2c-70.3,70.3-70.3,185.4,0,255.7h0c70.3,70.3,185.4,70.3,255.7,0l178.8-178.8v.3c7-5.8,16.1-9.2,25.8-9.2s18.8,3.4,25.8,9.2h.3l-154-154c-69.4-69.4-181.3-70.6-252.1-3.5"></path><path class="cls-1" d="M2148.5,385.2L1816.3,53l-.2-.2c-4.4-4.4-9-8.5-13.7-12.4-70.8-57.7-176.1-53.6-242,12.3-1.2,1.2-2.3,2.3-3.4,3.5l-10,10-238.9,238.8h0c70.8-67.1,182.7-66,252.1,3.5l154,154,178.4,178.4c70.3,70.3,185.4,70.3,255.8,0,70.3-70.3,70.3-185.4,0-255.7"></path></g></g></g></g></g></g></svg>