<svg width="18" height="18" viewBox="0 0 18 18" fill="none" xmlns="http://www.w3.org/2000/svg">
<path d="M11.3625 12.2062C11.475 12.3187 11.6062 12.375 11.7562 12.375C11.9062 12.375 12.0437 12.3125 12.1687 12.1875C12.2937 12.0625 12.3594 11.9187 12.3656 11.7562C12.3719 11.5937 12.3125 11.4562 12.1875 11.3437L9.61875 8.775V5.55C9.61875 5.4 9.56562 5.27187 9.45937 5.16562C9.35312 5.05937 9.21875 5.00625 9.05625 5.00625C8.89375 5.00625 8.75937 5.05937 8.65312 5.16562C8.54687 5.27187 8.49375 5.40625 8.49375 5.56875V9C8.49375 9.075 8.50625 9.14375 8.53125 9.20625C8.55625 9.26875 8.59375 9.33125 8.64375 9.39375L11.3625 12.2062ZM9 16.5C7.975 16.5 7.00625 16.3031 6.09375 15.9094C5.18125 15.5156 4.38437 14.9781 3.70312 14.2969C3.02187 13.6156 2.48437 12.8187 2.09062 11.9062C1.69687 10.9937 1.5 10.025 1.5 9C1.5 7.975 1.69687 7.00625 2.09062 6.09375C2.48437 5.18125 3.02187 4.38437 3.70312 3.70312C4.38437 3.02187 5.18125 2.48437 6.09375 2.09062C7.00625 1.69687 7.975 1.5 9 1.5C10.025 1.5 10.9937 1.69687 11.9062 2.09062C12.8187 2.48437 13.6156 3.02187 14.2969 3.70312C14.9781 4.38437 15.5156 5.18125 15.9094 6.09375C16.3031 7.00625 16.5 7.975 16.5 9C16.5 10.025 16.3031 10.9937 15.9094 11.9062C15.5156 12.8187 14.9781 13.6156 14.2969 14.2969C13.6156 14.9781 12.8187 15.5156 11.9062 15.9094C10.9937 16.3031 10.025 16.5 9 16.5ZM9 15.375C10.75 15.375 12.25 14.75 13.5 13.5C14.75 12.25 15.375 10.75 15.375 9C15.375 7.25 14.75 5.75 13.5 4.5C12.25 3.25 10.75 2.625 9 2.625C7.25 2.625 5.75 3.25 4.5 4.5C3.25 5.75 2.625 7.25 2.625 9C2.625 10.75 3.25 12.25 4.5 13.5C5.75 14.75 7.25 15.375 9 15.375Z" fill="#6E6E6E"/>
</svg>
