<svg width="16" height="16" viewBox="0 0 16 16" fill="none" xmlns="http://www.w3.org/2000/svg">
<path fill-rule="evenodd" clip-rule="evenodd" d="M5.00787 4.77586C5.00787 3.02391 6.35188 1.59893 8.00385 1.59893C9.65581 1.59893 10.9998 3.02391 10.9998 4.77586V6.71167H5.00787V4.77586ZM12.5076 6.71166V4.88417C12.5076 2.21248 10.4459 -0.0445012 7.92639 0.000666426C5.47869 0.0446349 3.50009 2.16991 3.50009 4.77584V6.71166H2.6039C2.18756 6.71166 1.85001 7.0694 1.85001 7.51108V15.2006C1.85001 15.6421 2.18756 16 2.6039 16H13.4038C13.8201 16 14.1577 15.6421 14.1577 15.2006V7.51108C14.1577 7.0694 13.8201 6.71166 13.4038 6.71166H12.5076Z" fill="#6E6E6E"/>
</svg>
