<svg xmlns="http://www.w3.org/2000/svg" xmlns:xlink="http://www.w3.org/1999/xlink" x="0px" y="0px" viewBox="0 0 761 520" style="enable-background:new 0 0 761 520;" xml:space="preserve"> <style type="text/css"> .st0{fill:none;} .st1{fill:url(#SVGID_1_);} .st2{fill:#C2C2C2;} .st3{display:none;} .st4{display:inline;} .st5{fill:#EFFAFB;} .st6{fill-rule:evenodd;clip-rule:evenodd;fill:#00807B;} .st7{fill-rule:evenodd;clip-rule:evenodd;fill:#00B1AC;} .st8{display:inline;fill:none;stroke:#C2C2C2;stroke-width:4;stroke-linejoin:round;} .st9{display:inline;fill:#00807B;} .st10{display:inline;fill:#00403E;} .st11{display:inline;fill:#FFFFFF;} .st12{display:inline;fill:#EFFAFB;} .st13{display:inline;fill-rule:evenodd;clip-rule:evenodd;fill:#00807B;} .st14{display:inline;fill-rule:evenodd;clip-rule:evenodd;fill:#00B1AC;} .st15{display:inline;fill:none;stroke:#00807B;stroke-width:1.3002;} .st16{display:inline;fill:none;stroke:#00807B;stroke-width:1.6918;stroke-linecap:round;} .st17{display:inline;fill:#00B1AC;} </style> <g id="Layer_2"> <rect x="0.5" y="0.1" class="st0" width="760.5" height="519.9"></rect> </g> <g id="Layer_4"> <linearGradient id="SVGID_1_" gradientUnits="userSpaceOnUse" x1="383.5" y1="215.85" x2="383.5" y2="0.35" gradientTransform="matrix(1 0 0 -1 0 520)"> <stop offset="0.1094" style="stop-color:#D9D9D9"></stop> <stop offset="1" style="stop-color:#D9D9D9;stop-opacity:0"></stop> </linearGradient> <path class="st1" d="M640,304.1l-570.5,215l301,0.5l327-215.5H640z"></path> <path class="st2" d="M715,186.6l-74.5,117.5h56L743,186.6h17.5L743,154.1l-42,32.5H715z"></path> </g> <g id="Layer_5" class="st3"> <g class="st4"> <circle class="st5" cx="335" cy="448.6" r="47.5"></circle> <path class="st6" d="M340.9,434.2h-11.3c-0.6,0-1,0.5-1,1s0.5,1,1,1h11.3c0.6,0,1-0.5,1-1S341.4,434.2,340.9,434.2z"></path> <path class="st6" d="M340.9,438.3h-11.3c-0.6,0-1,0.5-1,1s0.5,1,1,1h11.3c0.6,0,1-0.5,1-1S341.4,438.3,340.9,438.3z"></path> <path class="st7" d="M314,440.2h9.9v-3.9H314V440.2z M325,434.2h-12c-0.6,0-1,0.5-1,1v6c0,0.6,0.5,1,1,1h12c0.6,0,1-0.5,1-1v-6 C326,434.6,325.5,434.2,325,434.2z"></path> <path class="st6" d="M311,451.3c-0.8,0-1.4-0.6-1.4-1.4v-18.6h35v13.8h-22.3c-1.9,0-3.5,1.6-3.5,3.5v2.7H311z M309.6,428 c0-0.8,0.6-1.4,1.4-1.4h32.1c0.8,0,1.4,0.6,1.4,1.4v1.2h-35V428z M356.8,452.9c-0.6,0-1,0.5-1,1v16.6c0,0.8-0.6,1.4-1.4,1.4h-32.1 c-0.8,0-1.4-0.6-1.4-1.4v-18.6h32.7c0.6,0,1-0.5,1-1s-0.5-1-1-1h-32.7v-1.2c0-0.8,0.6-1.4,1.4-1.4h27.8c0.6,0,1-0.5,1-1 c0-0.6-0.5-1-1-1h-3.5V428c0-1.9-1.6-3.5-3.5-3.5H311c-1.9,0-3.5,1.6-3.5,3.5v21.9c0,1.9,1.6,3.5,3.5,3.5h7.7v17.1 c0,1.9,1.6,3.5,3.5,3.5h32.1c1.9,0,3.5-1.6,3.5-3.5v-16.6C357.9,453.3,357.4,452.9,356.8,452.9z"></path> <path class="st6" d="M352.1,454.8h-11.3c-0.6,0-1,0.5-1,1s0.5,1,1,1h11.3c0.6,0,1-0.5,1-1S352.7,454.8,352.1,454.8z"></path> <path class="st6" d="M352.1,458.9h-11.3c-0.6,0-1,0.5-1,1c0,0.6,0.5,1,1,1h11.3c0.6,0,1-0.5,1-1 C353.2,459.3,352.7,458.9,352.1,458.9z"></path> <path class="st6" d="M352.1,462.9h-11.3c-0.6,0-1,0.5-1,1s0.5,1,1,1h11.3c0.6,0,1-0.5,1-1S352.7,462.9,352.1,462.9z"></path> <path class="st6" d="M352.1,467h-11.3c-0.6,0-1,0.5-1,1c0,0.6,0.5,1,1,1h11.3c0.6,0,1-0.5,1-1C353.2,467.4,352.7,467,352.1,467z"></path> <path class="st7" d="M325.3,460.8h9.9v-3.9h-9.9V460.8z M324.2,454.8c-0.6,0-1,0.5-1,1v6c0,0.6,0.5,1,1,1h12c0.6,0,1-0.5,1-1v-6 c0-0.6-0.5-1-1-1H324.2z"></path> <path class="st7" d="M360,445.2l-3.3,4.6c-0.1,0.2-0.3,0.3-0.5,0.3h0c-0.2,0-0.4-0.1-0.5-0.2l-1.9-2.4c-0.2-0.3-0.2-0.7,0.1-1 c0.3-0.2,0.7-0.2,0.9,0.1l1.4,1.7l2.8-3.9c0.2-0.3,0.6-0.4,0.9-0.2C360.1,444.5,360.2,444.9,360,445.2z M356.8,440.4 c-3.7,0-6.7,3-6.7,6.8s3,6.8,6.7,6.8c3.7,0,6.7-3,6.7-6.8S360.5,440.4,356.8,440.4z"></path> </g> <path class="st8" d="M301,397.6l-32.5-32.5H59"></path> <path class="st9" d="M60.4,348.1v-14h5.8c1.2,0,2.3,0.2,3.2,0.6c0.9,0.4,1.6,1,2.1,1.7c0.5,0.7,0.7,1.6,0.7,2.7s-0.2,1.9-0.7,2.7 c-0.5,0.7-1.2,1.3-2.1,1.7c-0.9,0.4-1.9,0.6-3.2,0.6h-4.3l1.2-1.2v5.3H60.4z M69.5,348.1l-3.5-5.1h2.8l3.6,5.1H69.5z M63,343.2 l-1.2-1.2H66c1.1,0,2-0.2,2.6-0.7c0.6-0.5,0.9-1.2,0.9-2.1c0-0.9-0.3-1.6-0.9-2.1c-0.6-0.5-1.4-0.7-2.6-0.7h-4.2l1.2-1.3V343.2z M79.8,348.3c-1.2,0-2.2-0.2-3.1-0.7c-0.9-0.5-1.6-1.1-2.1-2c-0.5-0.8-0.7-1.8-0.7-2.8c0-1.1,0.2-2,0.7-2.8c0.5-0.8,1.1-1.5,2-1.9 c0.8-0.5,1.8-0.7,2.9-0.7c1,0,2,0.2,2.8,0.7c0.8,0.5,1.5,1.1,1.9,1.9c0.5,0.8,0.7,1.8,0.7,2.9c0,0.1,0,0.2,0,0.4c0,0.1,0,0.3,0,0.4 h-8.9V342h7.6l-1,0.5c0-0.6-0.1-1.2-0.4-1.6c-0.3-0.5-0.6-0.8-1.1-1.1c-0.5-0.3-1-0.4-1.6-0.4c-0.6,0-1.2,0.1-1.6,0.4 c-0.5,0.3-0.8,0.6-1.1,1.1c-0.3,0.5-0.4,1-0.4,1.7v0.4c0,0.6,0.1,1.2,0.4,1.7c0.3,0.5,0.7,0.9,1.2,1.1c0.5,0.3,1.1,0.4,1.8,0.4 c0.6,0,1.1-0.1,1.6-0.3c0.5-0.2,0.9-0.5,1.3-0.9l1.3,1.5c-0.5,0.6-1.1,1-1.8,1.3C81.5,348.1,80.7,348.3,79.8,348.3z M89.9,348.1 l-4.6-10.7h2.6l3.9,9.4h-1.3l4.1-9.4H97l-4.6,10.7H89.9z M98.6,348.1v-10.7h2.5v10.7H98.6z M99.8,335.7c-0.5,0-0.9-0.1-1.2-0.4 c-0.3-0.3-0.4-0.6-0.4-1.1c0-0.4,0.1-0.8,0.4-1.1c0.3-0.3,0.7-0.4,1.2-0.4c0.5,0,0.8,0.1,1.1,0.4c0.3,0.3,0.5,0.6,0.5,1 c0,0.4-0.1,0.8-0.4,1.1C100.7,335.6,100.3,335.7,99.8,335.7z M109.4,348.3c-1.2,0-2.2-0.2-3.1-0.7c-0.9-0.5-1.6-1.1-2.1-2 c-0.5-0.8-0.7-1.8-0.7-2.8c0-1.1,0.2-2,0.7-2.8c0.5-0.8,1.1-1.5,2-1.9c0.8-0.5,1.8-0.7,2.9-0.7c1,0,2,0.2,2.8,0.7 c0.8,0.5,1.5,1.1,1.9,1.9c0.5,0.8,0.7,1.8,0.7,2.9c0,0.1,0,0.2,0,0.4c0,0.1,0,0.3,0,0.4h-8.9V342h7.6l-1,0.5c0-0.6-0.1-1.2-0.4-1.6 c-0.3-0.5-0.6-0.8-1.1-1.1c-0.5-0.3-1-0.4-1.6-0.4c-0.6,0-1.2,0.1-1.6,0.4c-0.5,0.3-0.8,0.6-1.1,1.1c-0.3,0.5-0.4,1-0.4,1.7v0.4 c0,0.6,0.1,1.2,0.4,1.7c0.3,0.5,0.7,0.9,1.2,1.1c0.5,0.3,1.1,0.4,1.8,0.4c0.6,0,1.1-0.1,1.6-0.3c0.5-0.2,0.9-0.5,1.3-0.9l1.3,1.5 c-0.5,0.6-1.1,1-1.8,1.3C111.1,348.1,110.3,348.3,109.4,348.3z M119,348.1l-3.9-10.7h2.4l3.4,9.4h-1.1l3.5-9.4h2.1l3.4,9.4h-1.1 l3.5-9.4h2.2l-3.9,10.7h-2.4l-3.1-8.3h0.7l-3.2,8.3H119z M145.3,348.3c-1.1,0-2.1-0.2-2.9-0.7c-0.9-0.5-1.5-1.1-2-2 s-0.7-1.8-0.7-2.8c0-1.1,0.2-2,0.7-2.8c0.5-0.8,1.2-1.5,2-1.9c0.9-0.5,1.8-0.7,2.9-0.7c1.1,0,2.1,0.2,2.9,0.7 c0.9,0.5,1.5,1.1,2,1.9c0.5,0.8,0.7,1.8,0.7,2.8c0,1.1-0.2,2-0.7,2.8c-0.5,0.8-1.2,1.5-2,2C147.4,348.1,146.4,348.3,145.3,348.3z M145.3,346.1c0.6,0,1.2-0.1,1.6-0.4c0.5-0.3,0.9-0.7,1.1-1.2c0.3-0.5,0.4-1.1,0.4-1.8c0-0.7-0.1-1.3-0.4-1.8 c-0.3-0.5-0.6-0.9-1.1-1.2c-0.5-0.3-1-0.4-1.6-0.4c-0.6,0-1.2,0.1-1.6,0.4c-0.5,0.3-0.8,0.7-1.1,1.2c-0.3,0.5-0.4,1.1-0.4,1.8 c0,0.7,0.1,1.3,0.4,1.8s0.7,0.9,1.1,1.2C144.2,346,144.7,346.1,145.3,346.1z M153.7,348.1v-11.3c0-1.1,0.3-2,1-2.7 c0.7-0.7,1.6-1,2.8-1c0.4,0,0.9,0,1.2,0.1c0.4,0.1,0.7,0.2,1,0.4l-0.7,1.9c-0.2-0.1-0.4-0.3-0.6-0.3c-0.2-0.1-0.5-0.1-0.7-0.1 c-0.5,0-0.9,0.1-1.2,0.4c-0.3,0.3-0.4,0.7-0.4,1.3v1.2l0.1,1.1v8.9H153.7z M152,339.5v-2h7.1v2H152z M171.2,348.3 c-1.1,0-2.1-0.2-3-0.7c-0.9-0.5-1.5-1.1-2-2s-0.7-1.8-0.7-2.8c0-1.1,0.2-2,0.7-2.8c0.5-0.8,1.2-1.5,2-1.9c0.9-0.5,1.9-0.7,3-0.7 c1,0,2,0.2,2.7,0.6c0.8,0.4,1.4,1,1.8,1.8l-1.9,1.1c-0.3-0.5-0.7-0.9-1.2-1.1c-0.5-0.2-0.9-0.4-1.5-0.4c-0.6,0-1.2,0.1-1.7,0.4 s-0.9,0.7-1.2,1.2c-0.3,0.5-0.4,1.1-0.4,1.8s0.1,1.3,0.4,1.8c0.3,0.5,0.7,0.9,1.2,1.1s1,0.4,1.7,0.4c0.5,0,1-0.1,1.5-0.4 c0.5-0.2,0.9-0.6,1.2-1.1l1.9,1.1c-0.4,0.8-1,1.4-1.8,1.9C173.2,348.1,172.3,348.3,171.2,348.3z M183.9,337.4 c0.9,0,1.6,0.2,2.3,0.5c0.7,0.3,1.2,0.8,1.6,1.5c0.4,0.7,0.6,1.6,0.6,2.6v6.1h-2.5v-5.8c0-0.9-0.2-1.7-0.7-2.1 c-0.4-0.5-1.1-0.7-1.9-0.7c-0.6,0-1.1,0.1-1.6,0.4c-0.5,0.2-0.8,0.6-1.1,1.1c-0.2,0.5-0.4,1.1-0.4,1.8v5.4h-2.5v-14.8h2.5v7 l-0.5-0.9c0.4-0.7,0.9-1.2,1.6-1.6C182.1,337.5,183,337.4,183.9,337.4z M198.1,348.1V346l-0.1-0.5v-3.8c0-0.7-0.2-1.3-0.7-1.7 c-0.4-0.4-1.1-0.6-2-0.6c-0.6,0-1.2,0.1-1.8,0.3c-0.6,0.2-1.1,0.4-1.5,0.8l-1-1.8c0.6-0.4,1.3-0.8,2-1c0.8-0.2,1.6-0.3,2.5-0.3 c1.5,0,2.7,0.4,3.6,1.1c0.9,0.7,1.3,1.9,1.3,3.4v6.3H198.1z M194.7,348.3c-0.8,0-1.5-0.1-2.1-0.4c-0.6-0.3-1.1-0.7-1.4-1.1 c-0.3-0.5-0.5-1-0.5-1.7c0-0.6,0.1-1.1,0.4-1.6c0.3-0.5,0.8-0.9,1.4-1.1c0.7-0.3,1.5-0.4,2.6-0.4h3.1v1.7h-2.9 c-0.9,0-1.4,0.1-1.7,0.4c-0.3,0.3-0.4,0.6-0.4,1c0,0.5,0.2,0.8,0.5,1.1s0.9,0.4,1.5,0.4c0.6,0,1.2-0.1,1.6-0.4 c0.5-0.3,0.8-0.7,1.1-1.2l0.4,1.5c-0.2,0.6-0.7,1.1-1.3,1.5C196.5,348.1,195.7,348.3,194.7,348.3z M209.7,337.4 c0.9,0,1.6,0.2,2.3,0.5c0.7,0.3,1.2,0.8,1.6,1.5c0.4,0.7,0.6,1.6,0.6,2.6v6.1h-2.5v-5.8c0-0.9-0.2-1.7-0.7-2.1 c-0.4-0.5-1.1-0.7-1.9-0.7c-0.6,0-1.1,0.1-1.6,0.4c-0.5,0.2-0.8,0.6-1.1,1.1c-0.2,0.5-0.4,1.1-0.4,1.8v5.4h-2.5v-10.7h2.4v2.9 l-0.4-0.9c0.4-0.7,0.9-1.2,1.6-1.6C208,337.5,208.8,337.4,209.7,337.4z M222.2,352.2c-1,0-2-0.1-2.9-0.4c-0.9-0.3-1.7-0.6-2.3-1.1 l1.1-1.9c0.5,0.4,1.1,0.7,1.8,0.9c0.7,0.2,1.4,0.4,2.2,0.4c1.2,0,2-0.3,2.6-0.8c0.5-0.5,0.8-1.3,0.8-2.4v-1.9l0.2-2.4l-0.1-2.4 v-2.6h2.4v9.1c0,1.9-0.5,3.4-1.5,4.3C225.5,351.7,224.1,352.2,222.2,352.2z M221.9,347.7c-1,0-1.9-0.2-2.8-0.6 c-0.8-0.4-1.5-1-1.9-1.8c-0.5-0.8-0.7-1.7-0.7-2.7c0-1,0.2-1.9,0.7-2.7c0.5-0.8,1.1-1.4,1.9-1.8c0.8-0.4,1.7-0.6,2.8-0.6 c0.9,0,1.7,0.2,2.4,0.5c0.7,0.4,1.3,0.9,1.7,1.7c0.4,0.8,0.7,1.7,0.7,2.9c0,1.2-0.2,2.2-0.7,2.9c-0.4,0.8-1,1.3-1.7,1.7 C223.6,347.5,222.8,347.7,221.9,347.7z M222.3,345.5c0.6,0,1.2-0.1,1.7-0.4c0.5-0.3,0.9-0.6,1.1-1.1c0.3-0.5,0.4-1,0.4-1.6 c0-0.6-0.1-1.1-0.4-1.6c-0.3-0.5-0.6-0.8-1.1-1.1c-0.5-0.3-1.1-0.4-1.7-0.4s-1.2,0.1-1.7,0.4c-0.5,0.2-0.9,0.6-1.2,1.1 c-0.3,0.5-0.4,1-0.4,1.6c0,0.6,0.1,1.1,0.4,1.6c0.3,0.5,0.7,0.8,1.2,1.1C221.1,345.4,221.7,345.5,222.3,345.5z M236.3,348.3 c-1.2,0-2.2-0.2-3.1-0.7c-0.9-0.5-1.6-1.1-2.1-2c-0.5-0.8-0.7-1.8-0.7-2.8c0-1.1,0.2-2,0.7-2.8c0.5-0.8,1.1-1.5,2-1.9 c0.8-0.5,1.8-0.7,2.9-0.7c1,0,2,0.2,2.8,0.7c0.8,0.5,1.5,1.1,1.9,1.9c0.5,0.8,0.7,1.8,0.7,2.9c0,0.1,0,0.2,0,0.4c0,0.1,0,0.3,0,0.4 h-8.9V342h7.6l-1,0.5c0-0.6-0.1-1.2-0.4-1.6c-0.3-0.5-0.6-0.8-1.1-1.1c-0.5-0.3-1-0.4-1.6-0.4c-0.6,0-1.2,0.1-1.6,0.4 c-0.5,0.3-0.8,0.6-1.1,1.1c-0.3,0.5-0.4,1-0.4,1.7v0.4c0,0.6,0.1,1.2,0.4,1.7c0.3,0.5,0.7,0.9,1.2,1.1c0.5,0.3,1.1,0.4,1.8,0.4 c0.6,0,1.1-0.1,1.6-0.3c0.5-0.2,0.9-0.5,1.3-0.9l1.3,1.5c-0.5,0.6-1.1,1-1.8,1.3C238.1,348.1,237.2,348.3,236.3,348.3z M247,348.3 c-0.9,0-1.8-0.1-2.6-0.3c-0.8-0.2-1.5-0.5-1.9-0.9l1-1.9c0.5,0.3,1.1,0.6,1.7,0.8c0.7,0.2,1.3,0.3,2,0.3c0.8,0,1.4-0.1,1.7-0.3 c0.4-0.2,0.5-0.5,0.5-0.9c0-0.3-0.1-0.5-0.4-0.7c-0.2-0.2-0.6-0.3-0.9-0.4c-0.4-0.1-0.8-0.2-1.3-0.2c-0.5-0.1-0.9-0.2-1.4-0.3 c-0.5-0.1-0.9-0.3-1.3-0.5c-0.4-0.2-0.7-0.5-0.9-0.9c-0.2-0.4-0.4-0.9-0.4-1.5c0-0.7,0.2-1.3,0.6-1.8c0.4-0.5,0.9-0.9,1.6-1.2 c0.7-0.3,1.5-0.4,2.5-0.4c0.7,0,1.4,0.1,2.2,0.2c0.7,0.2,1.3,0.4,1.8,0.7l-1,1.9c-0.5-0.3-1-0.5-1.5-0.6c-0.5-0.1-1-0.2-1.5-0.2 c-0.8,0-1.3,0.1-1.7,0.3c-0.4,0.2-0.5,0.5-0.5,0.9c0,0.3,0.1,0.6,0.4,0.7s0.6,0.3,0.9,0.4c0.4,0.1,0.8,0.2,1.3,0.2 c0.5,0.1,1,0.1,1.4,0.3c0.5,0.1,0.9,0.3,1.3,0.5c0.4,0.2,0.7,0.5,1,0.9c0.2,0.4,0.4,0.9,0.4,1.5c0,0.7-0.2,1.2-0.6,1.7 c-0.4,0.5-0.9,0.9-1.7,1.2C248.9,348.2,248,348.3,247,348.3z"></path> <circle class="st10" cx="22" cy="341.6" r="21.5"></circle> <path class="st11" d="M21.8,348.1v-13l1.1,1.2h-4.1v-2.2h5.6v14H21.8z"></path> </g> <g id="Layer_6" class="st3"> <circle class="st12" cx="430" cy="403.6" r="42.5"></circle> <path class="st13" d="M412.4,411.9h36.7v-28.1h-36.7V411.9z M449.9,382.1h-38.4c-0.5,0-0.8,0.4-0.8,0.8v29.7c0,0.5,0.4,0.8,0.8,0.8 h13l-2,11.6c-0.1,0.5,0.2,0.9,0.7,1c0,0,0.1,0,0.1,0c0.4,0,0.8-0.3,0.8-0.7l2.1-11.9h10.3l2.2,11.9c0.1,0.4,0.4,0.7,0.8,0.7 c0.1,0,0.1,0,0.2,0c0.5-0.1,0.8-0.5,0.7-1l-2.1-11.6h11.6c0.5,0,0.8-0.4,0.8-0.8V383C450.7,382.5,450.4,382.1,449.9,382.1z"></path> <path class="st13" d="M431.9,400.2c-0.1,0-0.3,0-0.4-0.1l-5.4-3.2c-0.4-0.2-0.5-0.7-0.3-1.1c0.2-0.4,0.7-0.5,1.1-0.3l5.4,3.2 c0.4,0.2,0.5,0.7,0.3,1.1C432.4,400,432.2,400.2,431.9,400.2z"></path> <path class="st13" d="M419.5,403.7c-0.2,0-0.4-0.1-0.5-0.2c-0.4-0.3-0.4-0.8-0.2-1.1l4.9-6.3c0.3-0.4,0.8-0.4,1.2-0.2 c0.4,0.3,0.4,0.8,0.2,1.1l-4.9,6.3C420,403.6,419.7,403.7,419.5,403.7z"></path> <path class="st14" d="M418.4,404c-0.5,0-0.8,0.4-0.8,0.8c0,0.5,0.4,0.8,0.8,0.9c0.2,0,0.4-0.1,0.6-0.2c0.2-0.2,0.3-0.4,0.3-0.6 C419.2,404.4,418.9,404,418.4,404C418.4,404,418.4,404,418.4,404z M418.4,407.2C418.4,407.2,418.4,407.2,418.4,407.2 c-1.4,0-2.5-1.1-2.4-2.5c0-1.3,1.2-2.4,2.5-2.4c1.3,0,2.4,1.1,2.4,2.5C420.8,406.2,419.7,407.2,418.4,407.2z"></path> <path class="st14" d="M425,394.3c-0.2,0-0.4,0.1-0.6,0.2c-0.2,0.2-0.3,0.4-0.3,0.6c0,0.5,0.4,0.8,0.8,0.9c0.2,0,0.4-0.1,0.6-0.2 c0.2-0.2,0.3-0.4,0.3-0.6c0-0.2-0.1-0.4-0.2-0.6C425.4,394.4,425.2,394.3,425,394.3C425,394.3,425,394.3,425,394.3z M425,397.5 C425,397.5,425,397.5,425,397.5c-1.4,0-2.4-1.1-2.4-2.5c0-0.6,0.3-1.2,0.7-1.7c0.5-0.4,1.1-0.7,1.7-0.7c0.6,0,1.2,0.3,1.7,0.7 c0.4,0.5,0.7,1.1,0.7,1.7C427.4,396.5,426.3,397.5,425,397.5z"></path> <path class="st13" d="M445.5,389.6c0-0.5-0.4-0.8-0.8-0.8h0l-3.7,0c-0.5,0-0.8,0.4-0.8,0.8c0,0.5,0.4,0.8,0.8,0.8h0l1.7,0l-8,7.9 c-0.3,0.3-0.3,0.9,0,1.2c0.2,0.2,0.4,0.3,0.6,0.3c0.2,0,0.4-0.1,0.6-0.2l7.9-7.8l0,1.6c0,0.5,0.4,0.8,0.8,0.8h0 c0.5,0,0.8-0.4,0.8-0.8L445.5,389.6z"></path> <path class="st14" d="M433.8,399.1c-0.2,0-0.4,0.1-0.6,0.2c-0.2,0.2-0.3,0.4-0.3,0.6c0,0.5,0.4,0.8,0.8,0.9c0.5,0,0.8-0.4,0.9-0.8 C434.6,399.5,434.3,399.1,433.8,399.1C433.8,399.1,433.8,399.1,433.8,399.1z M433.8,402.4C433.8,402.4,433.8,402.4,433.8,402.4 c-1.4,0-2.4-1.1-2.4-2.5c0-1.3,1.1-2.4,2.5-2.4c1.3,0,2.4,1.1,2.4,2.5C436.2,401.3,435.1,402.4,433.8,402.4z"></path> <path class="st8" d="M402,353.1l-66.5-73H136"></path> <path class="st9" d="M135.4,263.1l6.3-14h2.6l6.3,14h-2.7l-5.4-12.6h1l-5.4,12.6H135.4z M138.3,259.9l0.7-2h7.6l0.7,2H138.3z M155.3,263.3c-0.9,0-1.8-0.1-2.6-0.3c-0.8-0.2-1.5-0.5-1.9-0.9l1-1.9c0.5,0.3,1.1,0.6,1.7,0.8c0.7,0.2,1.3,0.3,2,0.3 c0.8,0,1.4-0.1,1.7-0.3c0.4-0.2,0.5-0.5,0.5-0.9c0-0.3-0.1-0.5-0.4-0.7c-0.2-0.2-0.6-0.3-0.9-0.4c-0.4-0.1-0.8-0.2-1.3-0.2 c-0.5-0.1-0.9-0.2-1.4-0.3c-0.5-0.1-0.9-0.3-1.3-0.5c-0.4-0.2-0.7-0.5-0.9-0.9c-0.2-0.4-0.4-0.9-0.4-1.5c0-0.7,0.2-1.3,0.6-1.8 c0.4-0.5,0.9-0.9,1.6-1.2c0.7-0.3,1.5-0.4,2.5-0.4c0.7,0,1.4,0.1,2.2,0.2c0.7,0.2,1.3,0.4,1.8,0.7l-1,1.9c-0.5-0.3-1-0.5-1.5-0.6 c-0.5-0.1-1-0.2-1.5-0.2c-0.8,0-1.3,0.1-1.7,0.3c-0.4,0.2-0.5,0.5-0.5,0.9c0,0.3,0.1,0.6,0.4,0.7c0.2,0.2,0.6,0.3,0.9,0.4 c0.4,0.1,0.8,0.2,1.3,0.2c0.5,0.1,1,0.1,1.4,0.3c0.5,0.1,0.9,0.3,1.3,0.5c0.4,0.2,0.7,0.5,1,0.9c0.2,0.4,0.4,0.9,0.4,1.5 c0,0.7-0.2,1.2-0.6,1.7c-0.4,0.5-0.9,0.9-1.7,1.2C157.2,263.2,156.3,263.3,155.3,263.3z M165.6,263.3c-0.9,0-1.8-0.1-2.6-0.3 c-0.8-0.2-1.5-0.5-1.9-0.9l1-1.9c0.5,0.3,1.1,0.6,1.7,0.8c0.7,0.2,1.3,0.3,2,0.3c0.8,0,1.4-0.1,1.7-0.3c0.4-0.2,0.5-0.5,0.5-0.9 c0-0.3-0.1-0.5-0.4-0.7c-0.2-0.2-0.6-0.3-0.9-0.4c-0.4-0.1-0.8-0.2-1.3-0.2c-0.5-0.1-0.9-0.2-1.4-0.3c-0.5-0.1-0.9-0.3-1.3-0.5 c-0.4-0.2-0.7-0.5-0.9-0.9c-0.2-0.4-0.4-0.9-0.4-1.5c0-0.7,0.2-1.3,0.6-1.8c0.4-0.5,0.9-0.9,1.6-1.2c0.7-0.3,1.5-0.4,2.5-0.4 c0.7,0,1.4,0.1,2.2,0.2c0.7,0.2,1.3,0.4,1.8,0.7l-1,1.9c-0.5-0.3-1-0.5-1.5-0.6c-0.5-0.1-1-0.2-1.5-0.2c-0.8,0-1.3,0.1-1.7,0.3 c-0.4,0.2-0.5,0.5-0.5,0.9c0,0.3,0.1,0.6,0.4,0.7c0.2,0.2,0.6,0.3,0.9,0.4c0.4,0.1,0.8,0.2,1.3,0.2c0.5,0.1,1,0.1,1.4,0.3 c0.5,0.1,0.9,0.3,1.3,0.5c0.4,0.2,0.7,0.5,1,0.9c0.2,0.4,0.4,0.9,0.4,1.5c0,0.7-0.2,1.2-0.6,1.7c-0.4,0.5-0.9,0.9-1.7,1.2 C167.5,263.2,166.6,263.3,165.6,263.3z M177.6,263.3c-1.2,0-2.2-0.2-3.1-0.7c-0.9-0.5-1.6-1.1-2.1-2c-0.5-0.8-0.7-1.8-0.7-2.8 c0-1.1,0.2-2,0.7-2.8c0.5-0.8,1.1-1.5,2-1.9c0.8-0.5,1.8-0.7,2.9-0.7c1,0,2,0.2,2.8,0.7c0.8,0.5,1.5,1.1,1.9,1.9 c0.5,0.8,0.7,1.8,0.7,2.9c0,0.1,0,0.2,0,0.4c0,0.1,0,0.3,0,0.4h-8.9V257h7.6l-1,0.5c0-0.6-0.1-1.2-0.4-1.6 c-0.3-0.5-0.6-0.8-1.1-1.1c-0.5-0.3-1-0.4-1.6-0.4c-0.6,0-1.2,0.1-1.6,0.4c-0.5,0.3-0.8,0.6-1.1,1.1c-0.3,0.5-0.4,1-0.4,1.7v0.4 c0,0.6,0.1,1.2,0.4,1.7c0.3,0.5,0.7,0.9,1.2,1.1c0.5,0.3,1.1,0.4,1.8,0.4c0.6,0,1.1-0.1,1.6-0.3c0.5-0.2,0.9-0.5,1.3-0.9l1.3,1.5 c-0.5,0.6-1.1,1-1.8,1.3C179.4,263.1,178.6,263.3,177.6,263.3z M188.4,263.3c-0.9,0-1.8-0.1-2.6-0.3c-0.8-0.2-1.5-0.5-1.9-0.9 l1-1.9c0.5,0.3,1.1,0.6,1.7,0.8c0.7,0.2,1.3,0.3,2,0.3c0.8,0,1.4-0.1,1.7-0.3c0.4-0.2,0.5-0.5,0.5-0.9c0-0.3-0.1-0.5-0.4-0.7 c-0.2-0.2-0.6-0.3-0.9-0.4c-0.4-0.1-0.8-0.2-1.3-0.2c-0.5-0.1-0.9-0.2-1.4-0.3c-0.5-0.1-0.9-0.3-1.3-0.5c-0.4-0.2-0.7-0.5-0.9-0.9 c-0.2-0.4-0.4-0.9-0.4-1.5c0-0.7,0.2-1.3,0.6-1.8c0.4-0.5,0.9-0.9,1.6-1.2c0.7-0.3,1.5-0.4,2.5-0.4c0.7,0,1.4,0.1,2.2,0.2 s1.3,0.4,1.8,0.7l-1,1.9c-0.5-0.3-1-0.5-1.5-0.6c-0.5-0.1-1-0.2-1.5-0.2c-0.8,0-1.3,0.1-1.7,0.3c-0.4,0.2-0.5,0.5-0.5,0.9 c0,0.3,0.1,0.6,0.4,0.7c0.2,0.2,0.6,0.3,0.9,0.4c0.4,0.1,0.8,0.2,1.3,0.2c0.5,0.1,1,0.1,1.4,0.3c0.5,0.1,0.9,0.3,1.3,0.5 c0.4,0.2,0.7,0.5,1,0.9c0.2,0.4,0.4,0.9,0.4,1.5c0,0.7-0.2,1.2-0.6,1.7c-0.4,0.5-0.9,0.9-1.7,1.2 C190.2,263.2,189.4,263.3,188.4,263.3z M198.6,263.3c-0.9,0-1.8-0.1-2.6-0.3c-0.8-0.2-1.5-0.5-1.9-0.9l1-1.9 c0.5,0.3,1.1,0.6,1.7,0.8c0.7,0.2,1.3,0.3,2,0.3c0.8,0,1.4-0.1,1.7-0.3c0.4-0.2,0.5-0.5,0.5-0.9c0-0.3-0.1-0.5-0.4-0.7 c-0.2-0.2-0.6-0.3-0.9-0.4c-0.4-0.1-0.8-0.2-1.3-0.2c-0.5-0.1-0.9-0.2-1.4-0.3c-0.5-0.1-0.9-0.3-1.3-0.5c-0.4-0.2-0.7-0.5-0.9-0.9 c-0.2-0.4-0.4-0.9-0.4-1.5c0-0.7,0.2-1.3,0.6-1.8c0.4-0.5,0.9-0.9,1.6-1.2c0.7-0.3,1.5-0.4,2.5-0.4c0.7,0,1.4,0.1,2.2,0.2 s1.3,0.4,1.8,0.7l-1,1.9c-0.5-0.3-1-0.5-1.5-0.6c-0.5-0.1-1-0.2-1.5-0.2c-0.8,0-1.3,0.1-1.7,0.3c-0.4,0.2-0.5,0.5-0.5,0.9 c0,0.3,0.1,0.6,0.4,0.7c0.2,0.2,0.6,0.3,0.9,0.4c0.4,0.1,0.8,0.2,1.3,0.2c0.5,0.1,1,0.1,1.4,0.3c0.5,0.1,0.9,0.3,1.3,0.5 c0.4,0.2,0.7,0.5,1,0.9c0.2,0.4,0.4,0.9,0.4,1.5c0,0.7-0.2,1.2-0.6,1.7c-0.4,0.5-0.9,0.9-1.7,1.2 C200.5,263.2,199.6,263.3,198.6,263.3z M216,263.3c-1.1,0-2.1-0.2-2.9-0.7c-0.9-0.5-1.5-1.1-2-2c-0.5-0.8-0.7-1.8-0.7-2.8 c0-1.1,0.2-2,0.7-2.8c0.5-0.8,1.2-1.5,2-1.9c0.9-0.5,1.8-0.7,2.9-0.7c1.1,0,2.1,0.2,2.9,0.7c0.9,0.5,1.5,1.1,2,1.9 c0.5,0.8,0.7,1.8,0.7,2.8c0,1.1-0.2,2-0.7,2.8c-0.5,0.8-1.2,1.5-2,2C218.1,263.1,217.1,263.3,216,263.3z M216,261.1 c0.6,0,1.2-0.1,1.6-0.4s0.9-0.7,1.1-1.2c0.3-0.5,0.4-1.1,0.4-1.8c0-0.7-0.1-1.3-0.4-1.8c-0.3-0.5-0.6-0.9-1.1-1.2s-1-0.4-1.6-0.4 c-0.6,0-1.2,0.1-1.6,0.4c-0.5,0.3-0.8,0.7-1.1,1.2c-0.3,0.5-0.4,1.1-0.4,1.8c0,0.7,0.1,1.3,0.4,1.8c0.3,0.5,0.7,0.9,1.1,1.2 C214.8,261,215.4,261.1,216,261.1z M228.6,263.3c-0.9,0-1.7-0.2-2.4-0.5c-0.7-0.3-1.2-0.9-1.6-1.6c-0.4-0.7-0.6-1.6-0.6-2.7v-6.1 h2.5v5.8c0,1,0.2,1.7,0.6,2.2c0.4,0.5,1.1,0.7,1.9,0.7c0.6,0,1.1-0.1,1.5-0.4c0.4-0.2,0.8-0.6,1-1.1c0.3-0.5,0.4-1.1,0.4-1.8v-5.4 h2.5v10.7H232v-2.9l0.4,0.9c-0.4,0.7-0.9,1.2-1.6,1.6C230.2,263.1,229.4,263.3,228.6,263.3z M241.7,263.3c-1.2,0-2.1-0.3-2.7-0.9 c-0.6-0.6-1-1.5-1-2.7v-9.6h2.5v9.5c0,0.5,0.1,0.9,0.4,1.2c0.3,0.3,0.6,0.4,1.1,0.4c0.6,0,1-0.1,1.4-0.4l0.7,1.8 c-0.3,0.2-0.7,0.4-1.1,0.5C242.6,263.2,242.1,263.3,241.7,263.3z M236.2,254.6v-2h7.1v2H236.2z M250.7,263.3c-1.1,0-2.1-0.2-3-0.7 c-0.9-0.5-1.5-1.1-2-2c-0.5-0.8-0.7-1.8-0.7-2.8c0-1.1,0.2-2,0.7-2.8c0.5-0.8,1.2-1.5,2-1.9c0.9-0.5,1.9-0.7,3-0.7 c1,0,2,0.2,2.7,0.6c0.8,0.4,1.4,1,1.8,1.8l-1.9,1.1c-0.3-0.5-0.7-0.9-1.2-1.1c-0.5-0.2-0.9-0.4-1.5-0.4c-0.6,0-1.2,0.1-1.7,0.4 c-0.5,0.3-0.9,0.7-1.2,1.2c-0.3,0.5-0.4,1.1-0.4,1.8s0.1,1.3,0.4,1.8c0.3,0.5,0.7,0.9,1.2,1.1c0.5,0.3,1,0.4,1.7,0.4 c0.5,0,1-0.1,1.5-0.4c0.5-0.2,0.9-0.6,1.2-1.1l1.9,1.1c-0.4,0.8-1,1.4-1.8,1.9C252.6,263.1,251.7,263.3,250.7,263.3z M262.1,263.3 c-1.1,0-2.1-0.2-2.9-0.7c-0.9-0.5-1.5-1.1-2-2c-0.5-0.8-0.7-1.8-0.7-2.8c0-1.1,0.2-2,0.7-2.8c0.5-0.8,1.2-1.5,2-1.9 c0.9-0.5,1.8-0.7,2.9-0.7c1.1,0,2.1,0.2,2.9,0.7c0.9,0.5,1.5,1.1,2,1.9c0.5,0.8,0.7,1.8,0.7,2.8c0,1.1-0.2,2-0.7,2.8 c-0.5,0.8-1.2,1.5-2,2C264.1,263.1,263.2,263.3,262.1,263.3z M262.1,261.1c0.6,0,1.2-0.1,1.6-0.4c0.5-0.3,0.9-0.7,1.1-1.2 c0.3-0.5,0.4-1.1,0.4-1.8c0-0.7-0.1-1.3-0.4-1.8c-0.3-0.5-0.6-0.9-1.1-1.2c-0.5-0.3-1-0.4-1.6-0.4c-0.6,0-1.2,0.1-1.6,0.4 c-0.5,0.3-0.8,0.7-1.1,1.2c-0.3,0.5-0.4,1.1-0.4,1.8c0,0.7,0.1,1.3,0.4,1.8s0.7,0.9,1.1,1.2C260.9,261,261.5,261.1,262.1,261.1z M283.6,252.4c0.9,0,1.6,0.2,2.3,0.5c0.7,0.3,1.2,0.8,1.6,1.5c0.4,0.7,0.6,1.6,0.6,2.6v6.1h-2.5v-5.8c0-0.9-0.2-1.7-0.6-2.1 c-0.4-0.5-1-0.7-1.8-0.7c-0.5,0-1,0.1-1.5,0.4c-0.4,0.2-0.7,0.6-1,1.1c-0.2,0.5-0.3,1.1-0.3,1.8v5.4h-2.5v-5.8 c0-0.9-0.2-1.7-0.6-2.1c-0.4-0.5-1-0.7-1.8-0.7c-0.5,0-1,0.1-1.5,0.4c-0.4,0.2-0.7,0.6-1,1.1c-0.2,0.5-0.3,1.1-0.3,1.8v5.4h-2.5 v-10.7h2.4v2.8l-0.4-0.8c0.4-0.7,0.9-1.2,1.6-1.6c0.7-0.4,1.5-0.5,2.4-0.5c1,0,1.9,0.2,2.6,0.7c0.7,0.5,1.2,1.2,1.5,2.2l-1-0.3 c0.3-0.8,0.9-1.4,1.7-1.9C281.6,252.6,282.6,252.4,283.6,252.4z M296.2,263.3c-1.2,0-2.2-0.2-3.1-0.7c-0.9-0.5-1.6-1.1-2.1-2 c-0.5-0.8-0.7-1.8-0.7-2.8c0-1.1,0.2-2,0.7-2.8c0.5-0.8,1.1-1.5,2-1.9c0.8-0.5,1.8-0.7,2.9-0.7c1,0,2,0.2,2.8,0.7s1.5,1.1,1.9,1.9 c0.5,0.8,0.7,1.8,0.7,2.9c0,0.1,0,0.2,0,0.4c0,0.1,0,0.3,0,0.4h-8.9V257h7.6l-1,0.5c0-0.6-0.1-1.2-0.4-1.6 c-0.3-0.5-0.6-0.8-1.1-1.1c-0.5-0.3-1-0.4-1.6-0.4c-0.6,0-1.2,0.1-1.6,0.4c-0.5,0.3-0.8,0.6-1.1,1.1c-0.3,0.5-0.4,1-0.4,1.7v0.4 c0,0.6,0.1,1.2,0.4,1.7c0.3,0.5,0.7,0.9,1.2,1.1c0.5,0.3,1.1,0.4,1.8,0.4c0.6,0,1.1-0.1,1.6-0.3c0.5-0.2,0.9-0.5,1.3-0.9l1.3,1.5 c-0.5,0.6-1.1,1-1.8,1.3C298,263.1,297.2,263.3,296.2,263.3z M307,263.3c-0.9,0-1.8-0.1-2.6-0.3c-0.8-0.2-1.5-0.5-1.9-0.9l1-1.9 c0.5,0.3,1.1,0.6,1.7,0.8c0.7,0.2,1.3,0.3,2,0.3c0.8,0,1.4-0.1,1.7-0.3c0.4-0.2,0.5-0.5,0.5-0.9c0-0.3-0.1-0.5-0.4-0.7 c-0.2-0.2-0.6-0.3-0.9-0.4c-0.4-0.1-0.8-0.2-1.3-0.2c-0.5-0.1-0.9-0.2-1.4-0.3c-0.5-0.1-0.9-0.3-1.3-0.5c-0.4-0.2-0.7-0.5-0.9-0.9 c-0.2-0.4-0.4-0.9-0.4-1.5c0-0.7,0.2-1.3,0.6-1.8c0.4-0.5,0.9-0.9,1.6-1.2c0.7-0.3,1.5-0.4,2.5-0.4c0.7,0,1.4,0.1,2.2,0.2 c0.7,0.2,1.3,0.4,1.8,0.7l-1,1.9c-0.5-0.3-1-0.5-1.5-0.6c-0.5-0.1-1-0.2-1.5-0.2c-0.8,0-1.3,0.1-1.7,0.3c-0.4,0.2-0.5,0.5-0.5,0.9 c0,0.3,0.1,0.6,0.4,0.7c0.2,0.2,0.6,0.3,0.9,0.4c0.4,0.1,0.8,0.2,1.3,0.2c0.5,0.1,1,0.1,1.4,0.3c0.5,0.1,0.9,0.3,1.3,0.5 c0.4,0.2,0.7,0.5,1,0.9c0.2,0.4,0.4,0.9,0.4,1.5c0,0.7-0.2,1.2-0.6,1.7c-0.4,0.5-0.9,0.9-1.7,1.2C308.8,263.2,308,263.3,307,263.3z "></path> <circle class="st10" cx="99" cy="256.6" r="21.5"></circle> <path class="st11" d="M94.4,263.1v-1.7l5.6-5.3c0.5-0.4,0.8-0.8,1-1.2c0.2-0.3,0.4-0.6,0.4-0.9c0.1-0.3,0.1-0.6,0.1-0.8 c0-0.6-0.2-1.1-0.7-1.5c-0.4-0.4-1.1-0.5-1.9-0.5c-0.7,0-1.3,0.1-1.9,0.4c-0.5,0.2-1,0.6-1.4,1.1l-1.8-1.4c0.5-0.7,1.3-1.3,2.2-1.7 c0.9-0.4,2-0.6,3.1-0.6c1,0,1.9,0.2,2.6,0.5c0.8,0.3,1.3,0.8,1.7,1.4c0.4,0.6,0.6,1.3,0.6,2.1c0,0.5-0.1,0.9-0.2,1.4 c-0.1,0.4-0.3,0.9-0.7,1.4c-0.3,0.5-0.8,1-1.5,1.7l-4.8,4.5l-0.5-1h8.2v2.2H94.4z"></path> </g> <g id="Layer_7" class="st3"> <circle class="st12" cx="515" cy="363.6" r="37.5"></circle> <path class="st14" d="M515.8,378h16.7v-16.7h-16.7V378z M533.3,379.6H515c-0.4,0-0.8-0.4-0.8-0.8v-18.3c0-0.4,0.4-0.8,0.8-0.8h18.3 c0.4,0,0.8,0.4,0.8,0.8v18.3C534.1,379.2,533.8,379.6,533.3,379.6z"></path> <path class="st14" d="M507.6,377.6h3.1v-7.4h-3.1V377.6z M511.5,379.2h-4.7c-0.4,0-0.8-0.3-0.8-0.8v-9c0-0.4,0.4-0.8,0.8-0.8h4.7 c0.4,0,0.8,0.3,0.8,0.8v9C512.3,378.9,511.9,379.2,511.5,379.2z"></path> <path class="st13" d="M497.1,378h17.1v-32.7h-17.1V378z M515,379.6h-18.7c-0.4,0-0.8-0.4-0.8-0.8v-34.3c0-0.4,0.4-0.8,0.8-0.8H515 c0.4,0,0.8,0.4,0.8,0.8v34.3C515.8,379.2,515.4,379.6,515,379.6z"></path> <path class="st13" d="M500.6,351.5h3.1v-3.1h-3.1V351.5z M504.5,353.1h-4.7c-0.4,0-0.8-0.4-0.8-0.8v-4.7c0-0.4,0.4-0.8,0.8-0.8h4.7 c0.4,0,0.8,0.4,0.8,0.8v4.7C505.2,352.7,504.9,353.1,504.5,353.1z"></path> <path class="st13" d="M507.6,351.5h3.1v-3.1h-3.1V351.5z M511.5,353.1h-4.7c-0.4,0-0.8-0.4-0.8-0.8v-4.7c0-0.4,0.4-0.8,0.8-0.8h4.7 c0.4,0,0.8,0.4,0.8,0.8v4.7C512.3,352.7,511.9,353.1,511.5,353.1z"></path> <path class="st13" d="M500.6,358.9h3.1v-3.1h-3.1V358.9z M504.5,360.5h-4.7c-0.4,0-0.8-0.4-0.8-0.8V355c0-0.4,0.4-0.8,0.8-0.8h4.7 c0.4,0,0.8,0.4,0.8,0.8v4.7C505.2,360.1,504.9,360.5,504.5,360.5z"></path> <path class="st13" d="M507.6,358.9h3.1v-3.1h-3.1V358.9z M511.5,360.5h-4.7c-0.4,0-0.8-0.4-0.8-0.8V355c0-0.4,0.4-0.8,0.8-0.8h4.7 c0.4,0,0.8,0.4,0.8,0.8v4.7C512.3,360.1,511.9,360.5,511.5,360.5z"></path> <path class="st13" d="M500.6,366.3h3.1v-3.1h-3.1V366.3z M504.5,367.9h-4.7c-0.4,0-0.8-0.4-0.8-0.8v-4.7c0-0.4,0.4-0.8,0.8-0.8h4.7 c0.4,0,0.8,0.4,0.8,0.8v4.7C505.2,367.5,504.9,367.9,504.5,367.9z"></path> <path class="st13" d="M507.6,366.3h3.1v-3.1h-3.1V366.3z M511.5,367.9h-4.7c-0.4,0-0.8-0.4-0.8-0.8v-4.7c0-0.4,0.4-0.8,0.8-0.8h4.7 c0.4,0,0.8,0.4,0.8,0.8v4.7C512.3,367.5,511.9,367.9,511.5,367.9z"></path> <path class="st14" d="M518.9,374.9h3.1v-3.1h-3.1V374.9z M522.8,376.5h-4.7c-0.4,0-0.8-0.4-0.8-0.8V371c0-0.4,0.4-0.8,0.8-0.8h4.7 c0.4,0,0.8,0.4,0.8,0.8v4.7C523.6,376.1,523.2,376.5,522.8,376.5z"></path> <path class="st14" d="M526.3,374.9h3.1v-3.1h-3.1V374.9z M530.2,376.5h-4.7c-0.4,0-0.8-0.4-0.8-0.8V371c0-0.4,0.4-0.8,0.8-0.8h4.7 c0.4,0,0.8,0.4,0.8,0.8v4.7C531,376.1,530.6,376.5,530.2,376.5z"></path> <path class="st14" d="M518.9,367.5h3.1v-3.1h-3.1V367.5z M522.8,369.1h-4.7c-0.4,0-0.8-0.4-0.8-0.8v-4.7c0-0.4,0.4-0.8,0.8-0.8h4.7 c0.4,0,0.8,0.4,0.8,0.8v4.7C523.6,368.7,523.2,369.1,522.8,369.1z"></path> <path class="st14" d="M526.3,367.5h3.1v-3.1h-3.1V367.5z M530.2,369.1h-4.7c-0.4,0-0.8-0.4-0.8-0.8v-4.7c0-0.4,0.4-0.8,0.8-0.8h4.7 c0.4,0,0.8,0.4,0.8,0.8v4.7C531,368.7,530.6,369.1,530.2,369.1z"></path> <path class="st8" d="M493.5,313.1l-50-114H207"></path> <path class="st9" d="M206.4,182.1l6.3-14h2.6l6.3,14h-2.7l-5.4-12.6h1l-5.4,12.6H206.4z M209.3,178.9l0.7-2h7.6l0.7,2H209.3z M226.3,182.3c-0.9,0-1.8-0.1-2.6-0.3c-0.8-0.2-1.5-0.5-1.9-0.9l1-1.9c0.5,0.3,1.1,0.6,1.7,0.8c0.7,0.2,1.3,0.3,2,0.3 c0.8,0,1.4-0.1,1.7-0.3c0.4-0.2,0.5-0.5,0.5-0.9c0-0.3-0.1-0.5-0.4-0.7c-0.2-0.2-0.6-0.3-0.9-0.4c-0.4-0.1-0.8-0.2-1.3-0.2 c-0.5-0.1-0.9-0.2-1.4-0.3c-0.5-0.1-0.9-0.3-1.3-0.5c-0.4-0.2-0.7-0.5-0.9-0.9s-0.4-0.9-0.4-1.5c0-0.7,0.2-1.3,0.6-1.8 c0.4-0.5,0.9-0.9,1.6-1.2c0.7-0.3,1.5-0.4,2.5-0.4c0.7,0,1.4,0.1,2.2,0.2c0.7,0.2,1.3,0.4,1.8,0.7l-1,1.9c-0.5-0.3-1-0.5-1.5-0.6 c-0.5-0.1-1-0.2-1.5-0.2c-0.8,0-1.3,0.1-1.7,0.3c-0.4,0.2-0.5,0.5-0.5,0.9c0,0.3,0.1,0.6,0.4,0.7c0.2,0.2,0.6,0.3,0.9,0.4 c0.4,0.1,0.8,0.2,1.3,0.2c0.5,0.1,1,0.1,1.4,0.3c0.5,0.1,0.9,0.3,1.3,0.5c0.4,0.2,0.7,0.5,1,0.9c0.2,0.4,0.4,0.9,0.4,1.5 c0,0.7-0.2,1.2-0.6,1.7c-0.4,0.5-0.9,0.9-1.7,1.2C228.2,182.2,227.3,182.3,226.3,182.3z M236.6,182.3c-0.9,0-1.8-0.1-2.6-0.3 c-0.8-0.2-1.5-0.5-1.9-0.9l1-1.9c0.5,0.3,1.1,0.6,1.7,0.8c0.7,0.2,1.3,0.3,2,0.3c0.8,0,1.4-0.1,1.7-0.3c0.4-0.2,0.5-0.5,0.5-0.9 c0-0.3-0.1-0.5-0.4-0.7c-0.2-0.2-0.6-0.3-0.9-0.4c-0.4-0.1-0.8-0.2-1.3-0.2c-0.5-0.1-0.9-0.2-1.4-0.3c-0.5-0.1-0.9-0.3-1.3-0.5 c-0.4-0.2-0.7-0.5-0.9-0.9s-0.4-0.9-0.4-1.5c0-0.7,0.2-1.3,0.6-1.8c0.4-0.5,0.9-0.9,1.6-1.2c0.7-0.3,1.5-0.4,2.5-0.4 c0.7,0,1.4,0.1,2.2,0.2c0.7,0.2,1.3,0.4,1.8,0.7l-1,1.9c-0.5-0.3-1-0.5-1.5-0.6c-0.5-0.1-1-0.2-1.5-0.2c-0.8,0-1.3,0.1-1.7,0.3 c-0.4,0.2-0.5,0.5-0.5,0.9c0,0.3,0.1,0.6,0.4,0.7c0.2,0.2,0.6,0.3,0.9,0.4c0.4,0.1,0.8,0.2,1.3,0.2c0.5,0.1,1,0.1,1.4,0.3 c0.5,0.1,0.9,0.3,1.3,0.5c0.4,0.2,0.7,0.5,1,0.9c0.2,0.4,0.4,0.9,0.4,1.5c0,0.7-0.2,1.2-0.6,1.7c-0.4,0.5-0.9,0.9-1.7,1.2 C238.5,182.2,237.6,182.3,236.6,182.3z M248.6,182.3c-1.2,0-2.2-0.2-3.1-0.7c-0.9-0.5-1.6-1.1-2.1-2c-0.5-0.8-0.7-1.8-0.7-2.8 c0-1.1,0.2-2,0.7-2.8c0.5-0.8,1.1-1.5,2-1.9c0.8-0.5,1.8-0.7,2.9-0.7c1,0,2,0.2,2.8,0.7c0.8,0.5,1.5,1.1,1.9,1.9 c0.5,0.8,0.7,1.8,0.7,2.9c0,0.1,0,0.2,0,0.4c0,0.1,0,0.3,0,0.4h-8.9v-1.7h7.6l-1,0.5c0-0.6-0.1-1.2-0.4-1.6 c-0.3-0.5-0.6-0.8-1.1-1.1c-0.5-0.3-1-0.4-1.6-0.4c-0.6,0-1.2,0.1-1.6,0.4c-0.5,0.3-0.8,0.6-1.1,1.1c-0.3,0.5-0.4,1-0.4,1.7v0.4 c0,0.6,0.1,1.2,0.4,1.7c0.3,0.5,0.7,0.9,1.2,1.1c0.5,0.3,1.1,0.4,1.8,0.4c0.6,0,1.1-0.1,1.6-0.3c0.5-0.2,0.9-0.5,1.3-0.9l1.3,1.5 c-0.5,0.6-1.1,1-1.8,1.3C250.4,182.1,249.6,182.3,248.6,182.3z M259.4,182.3c-0.9,0-1.8-0.1-2.6-0.3c-0.8-0.2-1.5-0.5-1.9-0.9 l1-1.9c0.5,0.3,1.1,0.6,1.7,0.8c0.7,0.2,1.3,0.3,2,0.3c0.8,0,1.4-0.1,1.7-0.3c0.4-0.2,0.5-0.5,0.5-0.9c0-0.3-0.1-0.5-0.4-0.7 c-0.2-0.2-0.6-0.3-0.9-0.4c-0.4-0.1-0.8-0.2-1.3-0.2c-0.5-0.1-0.9-0.2-1.4-0.3c-0.5-0.1-0.9-0.3-1.3-0.5c-0.4-0.2-0.7-0.5-0.9-0.9 c-0.2-0.4-0.4-0.9-0.4-1.5c0-0.7,0.2-1.3,0.6-1.8c0.4-0.5,0.9-0.9,1.6-1.2c0.7-0.3,1.5-0.4,2.5-0.4c0.7,0,1.4,0.1,2.2,0.2 s1.3,0.4,1.8,0.7l-1,1.9c-0.5-0.3-1-0.5-1.5-0.6c-0.5-0.1-1-0.2-1.5-0.2c-0.8,0-1.3,0.1-1.7,0.3c-0.4,0.2-0.5,0.5-0.5,0.9 c0,0.3,0.1,0.6,0.4,0.7c0.2,0.2,0.6,0.3,0.9,0.4c0.4,0.1,0.8,0.2,1.3,0.2c0.5,0.1,1,0.1,1.4,0.3s0.9,0.3,1.3,0.5 c0.4,0.2,0.7,0.5,1,0.9c0.2,0.4,0.4,0.9,0.4,1.5c0,0.7-0.2,1.2-0.6,1.7c-0.4,0.5-0.9,0.9-1.7,1.2 C261.2,182.2,260.4,182.3,259.4,182.3z M269.6,182.3c-0.9,0-1.8-0.1-2.6-0.3c-0.8-0.2-1.5-0.5-1.9-0.9l1-1.9 c0.5,0.3,1.1,0.6,1.7,0.8c0.7,0.2,1.3,0.3,2,0.3c0.8,0,1.4-0.1,1.7-0.3c0.4-0.2,0.5-0.5,0.5-0.9c0-0.3-0.1-0.5-0.4-0.7 c-0.2-0.2-0.6-0.3-0.9-0.4c-0.4-0.1-0.8-0.2-1.3-0.2c-0.5-0.1-0.9-0.2-1.4-0.3c-0.5-0.1-0.9-0.3-1.3-0.5c-0.4-0.2-0.7-0.5-0.9-0.9 c-0.2-0.4-0.4-0.9-0.4-1.5c0-0.7,0.2-1.3,0.6-1.8c0.4-0.5,0.9-0.9,1.6-1.2c0.7-0.3,1.5-0.4,2.5-0.4c0.7,0,1.4,0.1,2.2,0.2 s1.3,0.4,1.8,0.7l-1,1.9c-0.5-0.3-1-0.5-1.5-0.6c-0.5-0.1-1-0.2-1.5-0.2c-0.8,0-1.3,0.1-1.7,0.3c-0.4,0.2-0.5,0.5-0.5,0.9 c0,0.3,0.1,0.6,0.4,0.7c0.2,0.2,0.6,0.3,0.9,0.4c0.4,0.1,0.8,0.2,1.3,0.2c0.5,0.1,1,0.1,1.4,0.3s0.9,0.3,1.3,0.5 c0.4,0.2,0.7,0.5,1,0.9c0.2,0.4,0.4,0.9,0.4,1.5c0,0.7-0.2,1.2-0.6,1.7c-0.4,0.5-0.9,0.9-1.7,1.2 C271.5,182.2,270.6,182.3,269.6,182.3z M288.1,182.3c-0.9,0-1.7-0.2-2.4-0.6c-0.7-0.4-1.3-1-1.7-1.8c-0.4-0.8-0.6-1.8-0.6-3.1 c0-1.3,0.2-2.3,0.6-3.1c0.4-0.8,1-1.4,1.7-1.8c0.7-0.4,1.5-0.6,2.4-0.6c1.1,0,2,0.2,2.8,0.7c0.8,0.5,1.5,1.1,1.9,1.9 c0.5,0.8,0.7,1.8,0.7,2.9c0,1.1-0.2,2.1-0.7,2.9c-0.5,0.8-1.1,1.5-1.9,1.9C290.1,182.1,289.1,182.3,288.1,182.3z M282.2,182.1 v-14.8h2.5v6.6l-0.2,2.8l0.1,2.8v2.5H282.2z M287.8,180.1c0.6,0,1.1-0.1,1.6-0.4c0.5-0.3,0.9-0.7,1.1-1.2s0.4-1.1,0.4-1.8 c0-0.7-0.1-1.3-0.4-1.8c-0.3-0.5-0.7-0.9-1.1-1.2c-0.5-0.3-1-0.4-1.6-0.4s-1.1,0.1-1.6,0.4c-0.5,0.3-0.9,0.7-1.1,1.2 c-0.3,0.5-0.4,1.1-0.4,1.8c0,0.7,0.1,1.3,0.4,1.8s0.7,0.9,1.1,1.2C286.7,180,287.2,180.1,287.8,180.1z M300.4,182.3 c-0.9,0-1.7-0.2-2.4-0.5c-0.7-0.3-1.2-0.9-1.6-1.6c-0.4-0.7-0.6-1.6-0.6-2.7v-6.1h2.5v5.8c0,1,0.2,1.7,0.6,2.2 c0.4,0.5,1.1,0.7,1.9,0.7c0.6,0,1.1-0.1,1.5-0.4c0.4-0.2,0.8-0.6,1-1.1c0.3-0.5,0.4-1.1,0.4-1.8v-5.4h2.5v10.7h-2.4v-2.9l0.4,0.9 c-0.4,0.7-0.9,1.2-1.6,1.6C302,182.1,301.2,182.3,300.4,182.3z M312.8,182.3c-0.9,0-1.8-0.1-2.6-0.3c-0.8-0.2-1.5-0.5-1.9-0.9 l1-1.9c0.5,0.3,1.1,0.6,1.7,0.8c0.7,0.2,1.3,0.3,2,0.3c0.8,0,1.4-0.1,1.7-0.3c0.4-0.2,0.5-0.5,0.5-0.9c0-0.3-0.1-0.5-0.4-0.7 c-0.2-0.2-0.6-0.3-0.9-0.4c-0.4-0.1-0.8-0.2-1.3-0.2c-0.5-0.1-0.9-0.2-1.4-0.3c-0.5-0.1-0.9-0.3-1.3-0.5c-0.4-0.2-0.7-0.5-0.9-0.9 s-0.4-0.9-0.4-1.5c0-0.7,0.2-1.3,0.6-1.8c0.4-0.5,0.9-0.9,1.6-1.2c0.7-0.3,1.5-0.4,2.5-0.4c0.7,0,1.4,0.1,2.2,0.2 c0.7,0.2,1.3,0.4,1.8,0.7l-1,1.9c-0.5-0.3-1-0.5-1.5-0.6c-0.5-0.1-1-0.2-1.5-0.2c-0.8,0-1.3,0.1-1.7,0.3c-0.4,0.2-0.5,0.5-0.5,0.9 c0,0.3,0.1,0.6,0.4,0.7c0.2,0.2,0.6,0.3,0.9,0.4c0.4,0.1,0.8,0.2,1.3,0.2c0.5,0.1,1,0.1,1.4,0.3c0.5,0.1,0.9,0.3,1.3,0.5 c0.4,0.2,0.7,0.5,1,0.9s0.4,0.9,0.4,1.5c0,0.7-0.2,1.2-0.6,1.7c-0.4,0.5-0.9,0.9-1.7,1.2C314.6,182.2,313.8,182.3,312.8,182.3z M319.8,182.1v-10.7h2.5v10.7H319.8z M321,169.7c-0.5,0-0.9-0.1-1.2-0.4c-0.3-0.3-0.4-0.6-0.4-1.1c0-0.4,0.1-0.8,0.4-1.1 c0.3-0.3,0.7-0.4,1.2-0.4c0.5,0,0.8,0.1,1.1,0.4c0.3,0.3,0.5,0.6,0.5,1c0,0.4-0.1,0.8-0.4,1.1C321.9,169.6,321.5,169.7,321,169.7z M331.6,171.4c0.9,0,1.6,0.2,2.3,0.5c0.7,0.3,1.2,0.8,1.6,1.5c0.4,0.7,0.6,1.6,0.6,2.6v6.1h-2.5v-5.8c0-0.9-0.2-1.7-0.7-2.1 c-0.4-0.5-1.1-0.7-1.9-0.7c-0.6,0-1.1,0.1-1.6,0.4s-0.8,0.6-1.1,1.1c-0.2,0.5-0.4,1.1-0.4,1.8v5.4h-2.5v-10.7h2.4v2.9l-0.4-0.9 c0.4-0.7,0.9-1.2,1.6-1.6C329.9,171.5,330.7,171.4,331.6,171.4z M344.3,182.3c-1.2,0-2.2-0.2-3.1-0.7c-0.9-0.5-1.6-1.1-2.1-2 c-0.5-0.8-0.7-1.8-0.7-2.8c0-1.1,0.2-2,0.7-2.8c0.5-0.8,1.1-1.5,2-1.9c0.8-0.5,1.8-0.7,2.9-0.7c1,0,2,0.2,2.8,0.7 c0.8,0.5,1.5,1.1,1.9,1.9c0.5,0.8,0.7,1.8,0.7,2.9c0,0.1,0,0.2,0,0.4c0,0.1,0,0.3,0,0.4h-8.9v-1.7h7.6l-1,0.5 c0-0.6-0.1-1.2-0.4-1.6c-0.3-0.5-0.6-0.8-1.1-1.1c-0.5-0.3-1-0.4-1.6-0.4c-0.6,0-1.2,0.1-1.6,0.4c-0.5,0.3-0.8,0.6-1.1,1.1 c-0.3,0.5-0.4,1-0.4,1.7v0.4c0,0.6,0.1,1.2,0.4,1.7c0.3,0.5,0.7,0.9,1.2,1.1c0.5,0.3,1.1,0.4,1.8,0.4c0.6,0,1.1-0.1,1.6-0.3 c0.5-0.2,0.9-0.5,1.3-0.9l1.3,1.5c-0.5,0.6-1.1,1-1.8,1.3C346.1,182.1,345.2,182.3,344.3,182.3z M355,182.3c-0.9,0-1.8-0.1-2.6-0.3 c-0.8-0.2-1.5-0.5-1.9-0.9l1-1.9c0.5,0.3,1.1,0.6,1.7,0.8c0.7,0.2,1.3,0.3,2,0.3c0.8,0,1.4-0.1,1.7-0.3c0.4-0.2,0.5-0.5,0.5-0.9 c0-0.3-0.1-0.5-0.4-0.7c-0.2-0.2-0.6-0.3-0.9-0.4c-0.4-0.1-0.8-0.2-1.3-0.2c-0.5-0.1-0.9-0.2-1.4-0.3c-0.5-0.1-0.9-0.3-1.3-0.5 c-0.4-0.2-0.7-0.5-0.9-0.9c-0.2-0.4-0.4-0.9-0.4-1.5c0-0.7,0.2-1.3,0.6-1.8c0.4-0.5,0.9-0.9,1.6-1.2c0.7-0.3,1.5-0.4,2.5-0.4 c0.7,0,1.4,0.1,2.2,0.2c0.7,0.2,1.3,0.4,1.8,0.7l-1,1.9c-0.5-0.3-1-0.5-1.5-0.6c-0.5-0.1-1-0.2-1.5-0.2c-0.8,0-1.3,0.1-1.7,0.3 c-0.4,0.2-0.5,0.5-0.5,0.9c0,0.3,0.1,0.6,0.4,0.7c0.2,0.2,0.6,0.3,0.9,0.4c0.4,0.1,0.8,0.2,1.3,0.2c0.5,0.1,1,0.1,1.4,0.3 c0.5,0.1,0.9,0.3,1.3,0.5c0.4,0.2,0.7,0.5,1,0.9c0.2,0.4,0.4,0.9,0.4,1.5c0,0.7-0.2,1.2-0.6,1.7c-0.4,0.5-0.9,0.9-1.7,1.2 C356.9,182.2,356,182.3,355,182.3z M365.3,182.3c-0.9,0-1.8-0.1-2.6-0.3c-0.8-0.2-1.5-0.5-1.9-0.9l1-1.9c0.5,0.3,1.1,0.6,1.7,0.8 c0.7,0.2,1.3,0.3,2,0.3c0.8,0,1.4-0.1,1.7-0.3c0.4-0.2,0.5-0.5,0.5-0.9c0-0.3-0.1-0.5-0.4-0.7c-0.2-0.2-0.6-0.3-0.9-0.4 c-0.4-0.1-0.8-0.2-1.3-0.2c-0.5-0.1-0.9-0.2-1.4-0.3c-0.5-0.1-0.9-0.3-1.3-0.5c-0.4-0.2-0.7-0.5-0.9-0.9c-0.2-0.4-0.4-0.9-0.4-1.5 c0-0.7,0.2-1.3,0.6-1.8c0.4-0.5,0.9-0.9,1.6-1.2c0.7-0.3,1.5-0.4,2.5-0.4c0.7,0,1.4,0.1,2.2,0.2c0.7,0.2,1.3,0.4,1.8,0.7l-1,1.9 c-0.5-0.3-1-0.5-1.5-0.6c-0.5-0.1-1-0.2-1.5-0.2c-0.8,0-1.3,0.1-1.7,0.3c-0.4,0.2-0.5,0.5-0.5,0.9c0,0.3,0.1,0.6,0.4,0.7 c0.2,0.2,0.6,0.3,0.9,0.4c0.4,0.1,0.8,0.2,1.3,0.2c0.5,0.1,1,0.1,1.4,0.3c0.5,0.1,0.9,0.3,1.3,0.5c0.4,0.2,0.7,0.5,1,0.9 c0.2,0.4,0.4,0.9,0.4,1.5c0,0.7-0.2,1.2-0.6,1.7c-0.4,0.5-0.9,0.9-1.7,1.2C367.2,182.2,366.3,182.3,365.3,182.3z M383.9,171.4 c0.9,0,1.6,0.2,2.3,0.5c0.7,0.3,1.2,0.8,1.6,1.5c0.4,0.7,0.6,1.6,0.6,2.6v6.1h-2.5v-5.8c0-0.9-0.2-1.7-0.7-2.1 c-0.4-0.5-1.1-0.7-1.9-0.7c-0.6,0-1.1,0.1-1.6,0.4c-0.5,0.2-0.8,0.6-1.1,1.1c-0.2,0.5-0.4,1.1-0.4,1.8v5.4h-2.5v-10.7h2.4v2.9 l-0.4-0.9c0.4-0.7,0.9-1.2,1.6-1.6C382.1,171.5,383,171.4,383.9,171.4z M396.6,182.3c-1.2,0-2.2-0.2-3.1-0.7 c-0.9-0.5-1.6-1.1-2.1-2c-0.5-0.8-0.7-1.8-0.7-2.8c0-1.1,0.2-2,0.7-2.8c0.5-0.8,1.1-1.5,2-1.9c0.8-0.5,1.8-0.7,2.9-0.7 c1,0,2,0.2,2.8,0.7c0.8,0.5,1.5,1.1,1.9,1.9c0.5,0.8,0.7,1.8,0.7,2.9c0,0.1,0,0.2,0,0.4c0,0.1,0,0.3,0,0.4h-8.9v-1.7h7.6l-1,0.5 c0-0.6-0.1-1.2-0.4-1.6c-0.3-0.5-0.6-0.8-1.1-1.1c-0.5-0.3-1-0.4-1.6-0.4c-0.6,0-1.2,0.1-1.6,0.4c-0.5,0.3-0.8,0.6-1.1,1.1 c-0.3,0.5-0.4,1-0.4,1.7v0.4c0,0.6,0.1,1.2,0.4,1.7c0.3,0.5,0.7,0.9,1.2,1.1c0.5,0.3,1.1,0.4,1.8,0.4c0.6,0,1.1-0.1,1.6-0.3 c0.5-0.2,0.9-0.5,1.3-0.9l1.3,1.5c-0.5,0.6-1.1,1-1.8,1.3C398.3,182.1,397.5,182.3,396.6,182.3z M409,182.3c-1.2,0-2.2-0.2-3.1-0.7 c-0.9-0.5-1.6-1.1-2.1-2c-0.5-0.8-0.7-1.8-0.7-2.8c0-1.1,0.2-2,0.7-2.8c0.5-0.8,1.1-1.5,2-1.9c0.8-0.5,1.8-0.7,2.9-0.7 c1,0,2,0.2,2.8,0.7c0.8,0.5,1.5,1.1,1.9,1.9c0.5,0.8,0.7,1.8,0.7,2.9c0,0.1,0,0.2,0,0.4c0,0.1,0,0.3,0,0.4h-8.9v-1.7h7.6l-1,0.5 c0-0.6-0.1-1.2-0.4-1.6c-0.3-0.5-0.6-0.8-1.1-1.1c-0.5-0.3-1-0.4-1.6-0.4c-0.6,0-1.2,0.1-1.6,0.4c-0.5,0.3-0.8,0.6-1.1,1.1 c-0.3,0.5-0.4,1-0.4,1.7v0.4c0,0.6,0.1,1.2,0.4,1.7c0.3,0.5,0.7,0.9,1.2,1.1s1.1,0.4,1.8,0.4c0.6,0,1.1-0.1,1.6-0.3 c0.5-0.2,0.9-0.5,1.3-0.9l1.3,1.5c-0.5,0.6-1.1,1-1.8,1.3C410.8,182.1,409.9,182.3,409,182.3z M420.9,182.3c-1,0-2-0.2-2.8-0.7 c-0.8-0.5-1.5-1.1-1.9-1.9c-0.5-0.8-0.7-1.8-0.7-2.9c0-1.1,0.2-2.1,0.7-2.9c0.5-0.8,1.1-1.4,1.9-1.9c0.8-0.5,1.8-0.7,2.8-0.7 c0.9,0,1.7,0.2,2.4,0.6c0.7,0.4,1.3,1,1.7,1.8c0.4,0.8,0.6,1.8,0.6,3.1c0,1.2-0.2,2.3-0.6,3.1c-0.4,0.8-1,1.4-1.7,1.8 C422.7,182.1,421.9,182.3,420.9,182.3z M421.2,180.1c0.6,0,1.1-0.1,1.6-0.4c0.5-0.3,0.9-0.7,1.1-1.2c0.3-0.5,0.4-1.1,0.4-1.8 c0-0.7-0.1-1.3-0.4-1.8c-0.3-0.5-0.7-0.9-1.1-1.2c-0.5-0.3-1-0.4-1.6-0.4s-1.1,0.1-1.6,0.4c-0.5,0.3-0.8,0.7-1.1,1.2 c-0.3,0.5-0.4,1.1-0.4,1.8c0,0.7,0.1,1.3,0.4,1.8c0.3,0.5,0.7,0.9,1.1,1.2C420.1,180,420.6,180.1,421.2,180.1z M424.5,182.1v-2.5 l0.1-2.8l-0.2-2.8v-6.6h2.5v14.8H424.5z"></path> <circle class="st10" cx="170" cy="175.6" r="21.5"></circle> <path class="st11" d="M170,182.4c-1,0-2-0.1-2.9-0.4c-0.9-0.3-1.7-0.7-2.4-1.2l1.1-2c0.5,0.4,1.1,0.7,1.8,1 c0.7,0.3,1.5,0.4,2.3,0.4c0.9,0,1.7-0.2,2.2-0.6c0.5-0.4,0.8-0.9,0.8-1.6c0-0.6-0.2-1.1-0.7-1.5c-0.5-0.4-1.3-0.6-2.3-0.6h-1.3 v-1.8l4-4.8l0.3,1h-7.5v-2.2h9.5v1.7l-4,4.8l-1.4-0.8h0.8c1.7,0,3,0.4,3.9,1.2c0.9,0.8,1.3,1.7,1.3,2.9c0,0.8-0.2,1.5-0.6,2.2 c-0.4,0.7-1,1.2-1.8,1.6C172.2,182.1,171.2,182.4,170,182.4z"></path> </g> <g id="Layer_8" class="st3"> <circle class="st12" cx="586" cy="327.6" r="32.5"></circle> <path class="st14" d="M588.3,326.3l-2.9,4c-0.1,0.1-0.3,0.2-0.5,0.2h0c-0.2,0-0.3-0.1-0.5-0.2l-1.7-2.1c-0.2-0.3-0.2-0.6,0.1-0.8 c0.3-0.2,0.6-0.2,0.8,0.1l1.2,1.5l2.4-3.4c0.2-0.3,0.6-0.3,0.8-0.1C588.5,325.7,588.5,326.1,588.3,326.3z M585.6,322.1 c-3.2,0-5.8,2.6-5.8,5.9s2.6,5.9,5.8,5.9c3.2,0,5.8-2.6,5.8-5.9S588.8,322.1,585.6,322.1z"></path> <path class="st13" d="M600.2,313.4h-11.6c-0.5,0-0.9-0.3-0.9-0.6c0-0.3,0.4-0.6,0.9-0.6h11.6c0.5,0,0.9,0.3,0.9,0.6 C601,313.1,600.7,313.4,600.2,313.4z"></path> <path class="st13" d="M600.2,316.4h-11.6c-0.5,0-0.9-0.3-0.9-0.6c0-0.3,0.4-0.6,0.9-0.6h11.6c0.5,0,0.9,0.3,0.9,0.6 C601,316.2,600.7,316.4,600.2,316.4z"></path> <path class="st13" d="M600.5,319.5h-7c-0.3,0-0.5-0.3-0.5-0.6c0-0.3,0.2-0.6,0.5-0.6h7c0.3,0,0.5,0.3,0.5,0.6 C601,319.2,600.8,319.5,600.5,319.5z"></path> <path class="st13" d="M600.7,322.5h-4.3c-0.2,0-0.3-0.3-0.3-0.6c0-0.3,0.1-0.6,0.3-0.6h4.3c0.2,0,0.3,0.3,0.3,0.6 C601,322.3,600.9,322.5,600.7,322.5z"></path> <circle class="st15" cx="585.4" cy="328.3" r="9.6"></circle> <path class="st15" d="M577.3,333.9l2.4,2.4L572,344c-0.7,0.7-1.7,0.7-2.4,0c-0.7-0.7-0.7-1.7,0-2.4L577.3,333.9z"></path> <path class="st16" d="M584.3,316.4v-7.1c0-0.1,0-0.1,0.1-0.1h20c0.1,0,0.1,0,0.1,0.1v26.5c0,0.1,0,0.1-0.1,0.1h-9.8"></path> <path class="st17" d="M598.1,324.4h2.1c0.5,0,0.8,0.4,0.8,0.8v5.9c0,0.5-0.4,0.8-0.8,0.8h-2.1c-0.5,0-0.8-0.4-0.8-0.8v-5.9 C597.3,324.8,597.6,324.4,598.1,324.4z"></path> <path class="st8" d="M580.5,278.6l-25-159.5H273"></path> <path class="st9" d="M272.4,102.2l6.3-14h2.6l6.3,14h-2.7l-5.4-12.6h1l-5.4,12.6H272.4z M275.3,98.9l0.7-2h7.6l0.7,2H275.3z M289.1,102.2V87.3h2.5v14.8H289.1z M299.4,102.3c-1.2,0-2.1-0.3-2.7-0.9c-0.6-0.6-1-1.5-1-2.7v-9.6h2.5v9.5c0,0.5,0.1,0.9,0.4,1.2 c0.3,0.3,0.6,0.4,1.1,0.4c0.6,0,1-0.1,1.4-0.4l0.7,1.8c-0.3,0.2-0.7,0.4-1.1,0.5S299.9,102.3,299.4,102.3z M294,93.5v-2h7.1v2H294z M308.6,102.3c-1.2,0-2.2-0.2-3.1-0.7c-0.9-0.5-1.6-1.1-2.1-2c-0.5-0.8-0.7-1.8-0.7-2.8c0-1.1,0.2-2,0.7-2.8c0.5-0.8,1.1-1.5,2-1.9 c0.8-0.5,1.8-0.7,2.9-0.7c1,0,2,0.2,2.8,0.7s1.5,1.1,1.9,1.9c0.5,0.8,0.7,1.8,0.7,2.9c0,0.1,0,0.2,0,0.4c0,0.1,0,0.3,0,0.4h-8.9 v-1.7h7.6l-1,0.5c0-0.6-0.1-1.2-0.4-1.6s-0.6-0.8-1.1-1.1c-0.5-0.3-1-0.4-1.6-0.4c-0.6,0-1.2,0.1-1.6,0.4c-0.5,0.3-0.8,0.6-1.1,1.1 c-0.3,0.5-0.4,1-0.4,1.7v0.4c0,0.6,0.1,1.2,0.4,1.7s0.7,0.9,1.2,1.1c0.5,0.3,1.1,0.4,1.8,0.4c0.6,0,1.1-0.1,1.6-0.3 c0.5-0.2,0.9-0.5,1.3-0.9l1.3,1.5c-0.5,0.6-1.1,1-1.8,1.3C310.3,102.1,309.5,102.3,308.6,102.3z M316,102.2V91.5h2.4v2.9l-0.3-0.9 c0.3-0.7,0.8-1.3,1.5-1.6c0.7-0.4,1.6-0.6,2.6-0.6v2.4c-0.1,0-0.2,0-0.3,0c-0.1,0-0.2,0-0.3,0c-0.9,0-1.7,0.3-2.3,0.8 c-0.6,0.5-0.8,1.4-0.8,2.5v5.2H316z M330.4,91.3c0.9,0,1.6,0.2,2.3,0.5c0.7,0.3,1.2,0.8,1.6,1.5c0.4,0.7,0.6,1.6,0.6,2.6v6.1h-2.5 v-5.8c0-0.9-0.2-1.7-0.7-2.1c-0.4-0.5-1.1-0.7-1.9-0.7c-0.6,0-1.1,0.1-1.6,0.4c-0.5,0.2-0.8,0.6-1.1,1.1c-0.2,0.5-0.4,1.1-0.4,1.8 v5.4h-2.5V91.5h2.4v2.9l-0.4-0.9c0.4-0.7,0.9-1.2,1.6-1.6C328.6,91.5,329.4,91.3,330.4,91.3z M344.6,102.2V100l-0.1-0.5v-3.8 c0-0.7-0.2-1.3-0.7-1.7c-0.4-0.4-1.1-0.6-2-0.6c-0.6,0-1.2,0.1-1.8,0.3c-0.6,0.2-1.1,0.4-1.5,0.8l-1-1.8c0.6-0.4,1.3-0.8,2-1 c0.8-0.2,1.6-0.3,2.5-0.3c1.5,0,2.7,0.4,3.6,1.1c0.9,0.7,1.3,1.9,1.3,3.4v6.3H344.6z M341.2,102.3c-0.8,0-1.5-0.1-2.1-0.4 c-0.6-0.3-1.1-0.7-1.4-1.1c-0.3-0.5-0.5-1-0.5-1.7c0-0.6,0.1-1.1,0.4-1.6c0.3-0.5,0.8-0.9,1.4-1.1c0.7-0.3,1.5-0.4,2.6-0.4h3.1v1.7 h-2.9c-0.9,0-1.4,0.1-1.7,0.4c-0.3,0.3-0.4,0.6-0.4,1c0,0.5,0.2,0.8,0.5,1.1c0.4,0.3,0.9,0.4,1.5,0.4c0.6,0,1.2-0.1,1.6-0.4 c0.5-0.3,0.8-0.7,1.1-1.2l0.4,1.5c-0.2,0.6-0.7,1.1-1.3,1.5C342.9,102.1,342.2,102.3,341.2,102.3z M354.2,102.3 c-1.2,0-2.1-0.3-2.7-0.9c-0.6-0.6-1-1.5-1-2.7v-9.6h2.5v9.5c0,0.5,0.1,0.9,0.4,1.2c0.3,0.3,0.6,0.4,1.1,0.4c0.6,0,1-0.1,1.4-0.4 l0.7,1.8c-0.3,0.2-0.7,0.4-1.1,0.5S354.6,102.3,354.2,102.3z M348.7,93.5v-2h7.1v2H348.7z M358.6,102.2V91.5h2.5v10.7H358.6z M359.9,89.7c-0.5,0-0.9-0.1-1.2-0.4c-0.3-0.3-0.4-0.6-0.4-1.1c0-0.4,0.1-0.8,0.4-1.1c0.3-0.3,0.7-0.4,1.2-0.4 c0.5,0,0.8,0.1,1.1,0.4c0.3,0.3,0.5,0.6,0.5,1c0,0.4-0.1,0.8-0.4,1.1C360.7,89.6,360.4,89.7,359.9,89.7z M367.2,102.2l-4.6-10.7 h2.6l3.9,9.4h-1.3l4.1-9.4h2.4l-4.6,10.7H367.2z M380.7,102.3c-1.2,0-2.2-0.2-3.1-0.7c-0.9-0.5-1.6-1.1-2.1-2 c-0.5-0.8-0.7-1.8-0.7-2.8c0-1.1,0.2-2,0.7-2.8c0.5-0.8,1.1-1.5,2-1.9c0.8-0.5,1.8-0.7,2.9-0.7c1,0,2,0.2,2.8,0.7 c0.8,0.5,1.5,1.1,1.9,1.9c0.5,0.8,0.7,1.8,0.7,2.9c0,0.1,0,0.2,0,0.4c0,0.1,0,0.3,0,0.4h-8.9v-1.7h7.6l-1,0.5 c0-0.6-0.1-1.2-0.4-1.6c-0.3-0.5-0.6-0.8-1.1-1.1c-0.5-0.3-1-0.4-1.6-0.4c-0.6,0-1.2,0.1-1.6,0.4c-0.5,0.3-0.8,0.6-1.1,1.1 c-0.3,0.5-0.4,1-0.4,1.7v0.4c0,0.6,0.1,1.2,0.4,1.7c0.3,0.5,0.7,0.9,1.2,1.1c0.5,0.3,1.1,0.4,1.8,0.4c0.6,0,1.1-0.1,1.6-0.3 c0.5-0.2,0.9-0.5,1.3-0.9l1.3,1.5c-0.5,0.6-1.1,1-1.8,1.3C382.4,102.1,381.6,102.3,380.7,102.3z M407.1,91.3c0.9,0,1.6,0.2,2.3,0.5 c0.7,0.3,1.2,0.8,1.6,1.5c0.4,0.7,0.6,1.6,0.6,2.6v6.1H409v-5.8c0-0.9-0.2-1.7-0.6-2.1c-0.4-0.5-1-0.7-1.8-0.7 c-0.5,0-1,0.1-1.5,0.4c-0.4,0.2-0.7,0.6-1,1.1c-0.2,0.5-0.3,1.1-0.3,1.8v5.4h-2.5v-5.8c0-0.9-0.2-1.7-0.6-2.1 c-0.4-0.5-1-0.7-1.8-0.7c-0.5,0-1,0.1-1.5,0.4c-0.4,0.2-0.7,0.6-1,1.1c-0.2,0.5-0.3,1.1-0.3,1.8v5.4h-2.5V91.5h2.4v2.8l-0.4-0.8 c0.4-0.7,0.9-1.2,1.6-1.6c0.7-0.4,1.5-0.5,2.4-0.5c1,0,1.9,0.2,2.6,0.7c0.7,0.5,1.2,1.2,1.5,2.2l-1-0.3c0.3-0.8,0.9-1.4,1.7-1.9 C405.1,91.6,406.1,91.3,407.1,91.3z M419.5,102.3c-1.1,0-2.1-0.2-2.9-0.7c-0.9-0.5-1.5-1.1-2-2c-0.5-0.8-0.7-1.8-0.7-2.8 c0-1.1,0.2-2,0.7-2.8c0.5-0.8,1.2-1.5,2-1.9c0.9-0.5,1.8-0.7,2.9-0.7c1.1,0,2.1,0.2,2.9,0.7c0.9,0.5,1.5,1.1,2,1.9 c0.5,0.8,0.7,1.8,0.7,2.8c0,1.1-0.2,2-0.7,2.8c-0.5,0.8-1.2,1.5-2,2C421.6,102.1,420.6,102.3,419.5,102.3z M419.5,100.2 c0.6,0,1.2-0.1,1.6-0.4c0.5-0.3,0.9-0.7,1.1-1.2c0.3-0.5,0.4-1.1,0.4-1.8c0-0.7-0.1-1.3-0.4-1.8c-0.3-0.5-0.6-0.9-1.1-1.2 c-0.5-0.3-1-0.4-1.6-0.4c-0.6,0-1.2,0.1-1.6,0.4c-0.5,0.3-0.8,0.7-1.1,1.2c-0.3,0.5-0.4,1.1-0.4,1.8c0,0.7,0.1,1.3,0.4,1.8 c0.3,0.5,0.7,0.9,1.1,1.2C418.4,100,418.9,100.2,419.5,100.2z M432.1,102.3c-1,0-2-0.2-2.8-0.7c-0.8-0.5-1.5-1.1-1.9-1.9 c-0.5-0.8-0.7-1.8-0.7-2.9c0-1.1,0.2-2.1,0.7-2.9c0.5-0.8,1.1-1.4,1.9-1.9c0.8-0.5,1.8-0.7,2.8-0.7c0.9,0,1.7,0.2,2.4,0.6 c0.7,0.4,1.3,1,1.7,1.8c0.4,0.8,0.6,1.8,0.6,3.1c0,1.2-0.2,2.3-0.6,3.1c-0.4,0.8-1,1.4-1.7,1.8C433.9,102.1,433,102.3,432.1,102.3z M432.4,100.2c0.6,0,1.1-0.1,1.6-0.4c0.5-0.3,0.9-0.7,1.1-1.2c0.3-0.5,0.4-1.1,0.4-1.8c0-0.7-0.1-1.3-0.4-1.8 c-0.3-0.5-0.7-0.9-1.1-1.2c-0.5-0.3-1-0.4-1.6-0.4s-1.1,0.1-1.6,0.4c-0.5,0.3-0.8,0.7-1.1,1.2c-0.3,0.5-0.4,1.1-0.4,1.8 c0,0.7,0.1,1.3,0.4,1.8c0.3,0.5,0.7,0.9,1.1,1.2C431.3,100,431.8,100.2,432.4,100.2z M435.7,102.2v-2.5l0.1-2.8l-0.2-2.8v-6.6h2.5 v14.8H435.7z M446.3,102.3c-1.2,0-2.2-0.2-3.1-0.7c-0.9-0.5-1.6-1.1-2.1-2c-0.5-0.8-0.7-1.8-0.7-2.8c0-1.1,0.2-2,0.7-2.8 c0.5-0.8,1.1-1.5,2-1.9c0.8-0.5,1.8-0.7,2.9-0.7c1,0,2,0.2,2.8,0.7c0.8,0.5,1.5,1.1,1.9,1.9c0.5,0.8,0.7,1.8,0.7,2.9 c0,0.1,0,0.2,0,0.4c0,0.1,0,0.3,0,0.4h-8.9v-1.7h7.6l-1,0.5c0-0.6-0.1-1.2-0.4-1.6c-0.3-0.5-0.6-0.8-1.1-1.1 c-0.5-0.3-1-0.4-1.6-0.4c-0.6,0-1.2,0.1-1.6,0.4c-0.5,0.3-0.8,0.6-1.1,1.1c-0.3,0.5-0.4,1-0.4,1.7v0.4c0,0.6,0.1,1.2,0.4,1.7 c0.3,0.5,0.7,0.9,1.2,1.1c0.5,0.3,1.1,0.4,1.8,0.4c0.6,0,1.1-0.1,1.6-0.3c0.5-0.2,0.9-0.5,1.3-0.9l1.3,1.5c-0.5,0.6-1.1,1-1.8,1.3 C448.1,102.1,447.3,102.3,446.3,102.3z M453.8,102.2V87.3h2.5v14.8H453.8z M462.9,102.3c-0.9,0-1.8-0.1-2.6-0.3 c-0.8-0.2-1.5-0.5-1.9-0.9l1-1.9c0.5,0.3,1.1,0.6,1.7,0.8c0.7,0.2,1.3,0.3,2,0.3c0.8,0,1.4-0.1,1.7-0.3c0.4-0.2,0.5-0.5,0.5-0.9 c0-0.3-0.1-0.5-0.4-0.7c-0.2-0.2-0.6-0.3-0.9-0.4c-0.4-0.1-0.8-0.2-1.3-0.2c-0.5-0.1-0.9-0.2-1.4-0.3c-0.5-0.1-0.9-0.3-1.3-0.5 c-0.4-0.2-0.7-0.5-0.9-0.9c-0.2-0.4-0.4-0.9-0.4-1.5c0-0.7,0.2-1.3,0.6-1.8c0.4-0.5,0.9-0.9,1.6-1.2c0.7-0.3,1.5-0.4,2.5-0.4 c0.7,0,1.4,0.1,2.2,0.2c0.7,0.2,1.3,0.4,1.8,0.7l-1,1.9c-0.5-0.3-1-0.5-1.5-0.6c-0.5-0.1-1-0.2-1.5-0.2c-0.8,0-1.3,0.1-1.7,0.3 c-0.4,0.2-0.5,0.5-0.5,0.9c0,0.3,0.1,0.6,0.4,0.7c0.2,0.2,0.6,0.3,0.9,0.4c0.4,0.1,0.8,0.2,1.3,0.2c0.5,0.1,1,0.1,1.4,0.3 s0.9,0.3,1.3,0.5c0.4,0.2,0.7,0.5,1,0.9c0.2,0.4,0.4,0.9,0.4,1.5c0,0.7-0.2,1.2-0.6,1.7c-0.4,0.5-0.9,0.9-1.7,1.2 C464.7,102.2,463.9,102.3,462.9,102.3z M478.7,102.3c-0.9,0-1.8-0.1-2.6-0.3c-0.8-0.2-1.5-0.5-1.9-0.9l1-1.9 c0.5,0.3,1.1,0.6,1.7,0.8c0.7,0.2,1.3,0.3,2,0.3c0.8,0,1.4-0.1,1.7-0.3c0.4-0.2,0.5-0.5,0.5-0.9c0-0.3-0.1-0.5-0.4-0.7 c-0.2-0.2-0.6-0.3-0.9-0.4c-0.4-0.1-0.8-0.2-1.3-0.2c-0.5-0.1-0.9-0.2-1.4-0.3c-0.5-0.1-0.9-0.3-1.3-0.5c-0.4-0.2-0.7-0.5-0.9-0.9 c-0.2-0.4-0.4-0.9-0.4-1.5c0-0.7,0.2-1.3,0.6-1.8c0.4-0.5,0.9-0.9,1.6-1.2c0.7-0.3,1.5-0.4,2.5-0.4c0.7,0,1.4,0.1,2.2,0.2 c0.7,0.2,1.3,0.4,1.8,0.7l-1,1.9c-0.5-0.3-1-0.5-1.5-0.6c-0.5-0.1-1-0.2-1.5-0.2c-0.8,0-1.3,0.1-1.7,0.3c-0.4,0.2-0.5,0.5-0.5,0.9 c0,0.3,0.1,0.6,0.4,0.7c0.2,0.2,0.6,0.3,0.9,0.4c0.4,0.1,0.8,0.2,1.3,0.2c0.5,0.1,1,0.1,1.4,0.3c0.5,0.1,0.9,0.3,1.3,0.5 c0.4,0.2,0.7,0.5,1,0.9c0.2,0.4,0.4,0.9,0.4,1.5c0,0.7-0.2,1.2-0.6,1.7c-0.4,0.5-0.9,0.9-1.7,1.2 C480.5,102.2,479.7,102.3,478.7,102.3z M490.7,102.3c-1.2,0-2.2-0.2-3.1-0.7c-0.9-0.5-1.6-1.1-2.1-2c-0.5-0.8-0.7-1.8-0.7-2.8 c0-1.1,0.2-2,0.7-2.8c0.5-0.8,1.1-1.5,2-1.9c0.8-0.5,1.8-0.7,2.9-0.7c1,0,2,0.2,2.8,0.7c0.8,0.5,1.5,1.1,1.9,1.9 c0.5,0.8,0.7,1.8,0.7,2.9c0,0.1,0,0.2,0,0.4c0,0.1,0,0.3,0,0.4h-8.9v-1.7h7.6l-1,0.5c0-0.6-0.1-1.2-0.4-1.6 c-0.3-0.5-0.6-0.8-1.1-1.1c-0.5-0.3-1-0.4-1.6-0.4c-0.6,0-1.2,0.1-1.6,0.4c-0.5,0.3-0.8,0.6-1.1,1.1c-0.3,0.5-0.4,1-0.4,1.7v0.4 c0,0.6,0.1,1.2,0.4,1.7c0.3,0.5,0.7,0.9,1.2,1.1c0.5,0.3,1.1,0.4,1.8,0.4c0.6,0,1.1-0.1,1.6-0.3c0.5-0.2,0.9-0.5,1.3-0.9l1.3,1.5 c-0.5,0.6-1.1,1-1.8,1.3C492.4,102.1,491.6,102.3,490.7,102.3z M504.4,102.2V100l-0.1-0.5v-3.8c0-0.7-0.2-1.3-0.7-1.7 c-0.4-0.4-1.1-0.6-2-0.6c-0.6,0-1.2,0.1-1.8,0.3c-0.6,0.2-1.1,0.4-1.5,0.8l-1-1.8c0.6-0.4,1.3-0.8,2-1c0.8-0.2,1.6-0.3,2.5-0.3 c1.5,0,2.7,0.4,3.6,1.1c0.9,0.7,1.3,1.9,1.3,3.4v6.3H504.4z M501,102.3c-0.8,0-1.5-0.1-2.1-0.4c-0.6-0.3-1.1-0.7-1.4-1.1 c-0.3-0.5-0.5-1-0.5-1.7c0-0.6,0.1-1.1,0.4-1.6c0.3-0.5,0.8-0.9,1.4-1.1c0.7-0.3,1.5-0.4,2.6-0.4h3.1v1.7h-2.9 c-0.9,0-1.4,0.1-1.7,0.4c-0.3,0.3-0.4,0.6-0.4,1c0,0.5,0.2,0.8,0.5,1.1c0.4,0.3,0.9,0.4,1.5,0.4c0.6,0,1.2-0.1,1.6-0.4 c0.5-0.3,0.8-0.7,1.1-1.2l0.4,1.5c-0.2,0.6-0.7,1.1-1.3,1.5C502.8,102.1,502,102.3,501,102.3z M510,102.2V91.5h2.4v2.9l-0.3-0.9 c0.3-0.7,0.8-1.3,1.5-1.6c0.7-0.4,1.6-0.6,2.6-0.6v2.4c-0.1,0-0.2,0-0.3,0c-0.1,0-0.2,0-0.3,0c-0.9,0-1.7,0.3-2.3,0.8 c-0.6,0.5-0.8,1.4-0.8,2.5v5.2H510z M523.1,102.3c-1.1,0-2.1-0.2-3-0.7c-0.9-0.5-1.5-1.1-2-2c-0.5-0.8-0.7-1.8-0.7-2.8 c0-1.1,0.2-2,0.7-2.8c0.5-0.8,1.2-1.5,2-1.9c0.9-0.5,1.9-0.7,3-0.7c1,0,2,0.2,2.7,0.6c0.8,0.4,1.4,1,1.8,1.8l-1.9,1.1 c-0.3-0.5-0.7-0.9-1.2-1.1c-0.5-0.2-0.9-0.4-1.5-0.4c-0.6,0-1.2,0.1-1.7,0.4c-0.5,0.3-0.9,0.7-1.2,1.2c-0.3,0.5-0.4,1.1-0.4,1.8 s0.1,1.3,0.4,1.8c0.3,0.5,0.7,0.9,1.2,1.1c0.5,0.3,1,0.4,1.7,0.4c0.5,0,1-0.1,1.5-0.4c0.5-0.2,0.9-0.6,1.2-1.1l1.9,1.1 c-0.4,0.8-1,1.4-1.8,1.9C525,102.1,524.1,102.3,523.1,102.3z M535.7,91.3c0.9,0,1.6,0.2,2.3,0.5c0.7,0.3,1.2,0.8,1.6,1.5 c0.4,0.7,0.6,1.6,0.6,2.6v6.1h-2.5v-5.8c0-0.9-0.2-1.7-0.7-2.1c-0.4-0.5-1.1-0.7-1.9-0.7c-0.6,0-1.1,0.1-1.6,0.4s-0.8,0.6-1.1,1.1 c-0.2,0.5-0.4,1.1-0.4,1.8v5.4h-2.5V87.3h2.5v7l-0.5-0.9c0.4-0.7,0.9-1.2,1.6-1.6C534,91.5,534.8,91.3,535.7,91.3z"></path> <circle class="st10" cx="236" cy="95.6" r="21.5"></circle> <path class="st11" d="M236.2,102.3c-1,0-2-0.1-2.9-0.4c-0.9-0.3-1.7-0.7-2.4-1.2l1.1-2c0.5,0.4,1.1,0.7,1.8,1 c0.7,0.3,1.5,0.4,2.3,0.4c0.9,0,1.6-0.2,2.2-0.6c0.5-0.4,0.8-0.9,0.8-1.6c0-0.4-0.1-0.8-0.3-1.2c-0.2-0.3-0.6-0.6-1.2-0.8 c-0.5-0.2-1.3-0.3-2.3-0.3H232l0.7-7.6h8.2v2.2h-7.3l1.4-1.2l-0.5,5.7l-1.4-1.2h2.8c1.4,0,2.5,0.2,3.3,0.6c0.9,0.4,1.5,0.9,1.9,1.5 c0.4,0.6,0.6,1.4,0.6,2.2c0,0.8-0.2,1.6-0.6,2.2c-0.4,0.7-1,1.2-1.8,1.6C238.5,102.1,237.4,102.3,236.2,102.3z"></path> </g> <g id="Layer_1" class="st3"> <circle class="st12" cx="649" cy="294.6" r="27.5"></circle> <path class="st13" d="M653.5,307.3c-0.1,0.1-0.2,0.2-0.3,0.2c-0.1,0-0.3,0-0.4-0.1l-2.3-1.7V305c0-0.2-0.1-0.5-0.1-0.7c0,0,0,0,0,0 l3,2.2C653.6,306.8,653.7,307.1,653.5,307.3z M649.5,307c0,0.4-0.3,0.7-0.7,0.7c-0.4,0-0.7-0.3-0.7-0.7v-2c0-0.4,0.3-0.7,0.7-0.7 c0.4,0,0.7,0.3,0.7,0.7V307z M645.9,305.9v-1.6c0-0.6,0.5-1.1,1.1-1.1c0.4,0,0.7,0.2,0.9,0.4c-0.5,0.3-0.8,0.8-0.8,1.4v1.9 c0,0-0.1,0-0.1,0C646.4,306.9,645.9,306.4,645.9,305.9z M643.9,305.3c-0.2-0.1-0.4-0.4-0.4-0.6c0,0,0,0,0,0c0,0,0,0,0-0.1 c-0.1-0.3,0-0.5,0.1-0.8l0.7-1.1c0.3-0.5,1-0.6,1.4-0.3c0,0,0.1,0.1,0.1,0.1c-0.6,0.4-0.9,1-0.9,1.7v1.1 C644.6,305.5,644.2,305.5,643.9,305.3z M641.6,303.5c-0.1-0.3,0-0.6,0.1-0.8l0.3-0.4c0.1-0.2,0.4-0.4,0.7-0.5 c0.3-0.1,0.6,0,0.8,0.1c0,0,0.1,0,0.1,0.1c-0.1,0.1-0.1,0.1-0.2,0.2l-0.7,1.1c-0.2,0.3-0.3,0.7-0.3,1c-0.1,0-0.2-0.1-0.3-0.1 C641.9,304,641.7,303.8,641.6,303.5z M667.1,297.7c-0.1-0.2-0.4-0.3-0.7-0.2l-6.7,3.5c0,0,0,0,0,0c0,0,0,0,0,0l0,0l0,0l-5-3.6 c-0.1-0.1-0.2-0.1-0.2-0.1c-2.8-0.3-2.9-2.9-2.9-3.1c0-0.2-0.1-0.3-0.2-0.4c-0.1-0.1-0.3-0.1-0.4-0.1c-0.6,0.2-1.1,0.1-1.4,0 c-0.2,0-0.3-0.1-0.4,0c-0.2,0-0.3,0.1-0.5,0.2c-0.5,0.6-1.2,1.3-1.7,1.4c-0.2,0-0.4-0.1-0.5-0.2c-0.1-0.1-0.2-0.3-0.1-0.5 c0.1-0.4,0.4-1,0.7-1.5c0.7-1.1,2.2-1.8,3.4-1.9c0.8-0.1,3.4,1.1,5.5,2.2c0.5,0.3,1.1,0.3,1.6,0l5.9-2.7c0.3-0.1,0.4-0.4,0.2-0.7 c-0.1-0.3-0.4-0.4-0.7-0.2l-5.9,2.7c-0.2,0.1-0.4,0.1-0.6,0c-0.8-0.4-4.6-2.4-6.1-2.3c-0.9,0.1-2.1,0.5-3,1.1c-0.6,0-2.1-0.1-4,0.9 c-0.2,0.1-0.4,0.1-0.7,0l-4.2-2.3c-0.2-0.1-0.6,0-0.7,0.2c-0.1,0.2,0,0.6,0.2,0.7l4.2,2.3c0.3,0.1,0.6,0.2,0.9,0.2 c0.3,0,0.5-0.1,0.8-0.2c1-0.5,1.9-0.7,2.5-0.7c-0.1,0.1-0.1,0.2-0.2,0.2c-0.4,0.6-0.7,1.2-0.8,1.7c-0.2,0.5,0,1.1,0.3,1.5 c0.4,0.4,0.9,0.6,1.4,0.5c0.8-0.2,1.5-0.9,2.2-1.5c0,0,0,0,0.1,0c0.3,0.1,0.7,0.1,1.3,0.1c0.3,1.3,1.2,3.1,3.6,3.4l4.9,3.6 c0.2,0.1,0.2,0.3,0.3,0.5c0,0.2,0,0.4-0.1,0.5c-0.2,0.3-0.7,0.4-1,0.2l-3.6-2.6c0,0,0,0-0.1,0l0,0c-0.2-0.2-0.5-0.1-0.7,0.1 c-0.2,0.2-0.1,0.5,0.1,0.7l3.6,2.6c0.3,0.2,0.4,0.7,0.2,1c-0.1,0.1-0.3,0.2-0.5,0.3c-0.2,0-0.4,0-0.5-0.1l-0.4-0.3 c0,0-0.1-0.1-0.1-0.1l-3.6-2.6c-0.2-0.2-0.5-0.1-0.7,0.1c-0.2,0.2-0.1,0.5,0.1,0.7l0.5,0.3c0,0,0.1,0.1,0.1,0.1l3.2,2.3 c0.1,0.1,0.2,0.2,0.2,0.4c0,0.2,0,0.4-0.1,0.5c-0.1,0.1-0.3,0.2-0.5,0.3c-0.2,0-0.4,0-0.5-0.1l-3.6-2.6c0,0-0.1,0-0.1-0.1l-0.1-0.1 c-0.2-0.2-0.5-0.1-0.7,0.1c-0.1,0.1-0.1,0.3-0.1,0.4c-0.3-0.4-0.8-0.7-1.4-0.7c-0.3-0.7-1.1-1.2-1.9-1.2c0,0-0.1,0-0.1,0 c-0.2-0.2-0.4-0.5-0.6-0.6c-0.6-0.4-1.3-0.4-1.9-0.2c-0.1-0.1-0.2-0.2-0.4-0.3c-0.5-0.3-1-0.4-1.6-0.3c-0.5,0.1-1,0.4-1.3,0.9 l0,0.1l-6.8-4.5c-0.2-0.2-0.6-0.1-0.7,0.1c-0.2,0.2-0.1,0.6,0.1,0.7l6.9,4.6c-0.1,0.3-0.1,0.7,0,1c0.1,0.5,0.4,1,0.9,1.3 c0.3,0.2,0.7,0.3,1.1,0.3c0,0,0,0,0,0c0.2,0.3,0.4,0.6,0.7,0.8c0.3,0.2,0.7,0.3,1.1,0.3c0.2,0,0.3,0,0.5-0.1c0.2,0.9,1,1.5,2,1.5 c0.1,0,0.2,0,0.4,0c0.3,0.5,0.8,0.8,1.5,0.8c0.9,0,1.7-0.8,1.7-1.7V307l1.7,1.3c0.3,0.2,0.6,0.3,0.9,0.3c0.1,0,0.2,0,0.2,0 c0.4-0.1,0.8-0.3,1-0.6c0.1-0.2,0.2-0.3,0.2-0.5c0.2,0.1,0.4,0.1,0.6,0.1c0.1,0,0.2,0,0.3,0c0.5-0.1,0.9-0.3,1.1-0.7 c0.2-0.3,0.3-0.5,0.3-0.8c0.1,0,0.2,0,0.3,0c0.1,0,0.2,0,0.3,0c0.5-0.1,0.9-0.3,1.1-0.7c0.3-0.4,0.4-0.8,0.3-1.2 c0.5-0.1,0.9-0.3,1.2-0.7c0.3-0.4,0.4-1,0.3-1.5l6.6-3.4C667.2,298.3,667.3,298,667.1,297.7z"></path> <path class="st14" d="M655.6,288.1c-0.1,0-0.2,0-0.3-0.1c-0.2-0.2-0.2-0.5-0.1-0.7l2.2-2.7c0.2-0.2,0.5-0.2,0.7-0.1 c0.2,0.2,0.2,0.5,0.1,0.7l-2.2,2.7C655.9,288,655.7,288.1,655.6,288.1z"></path> <path class="st14" d="M653.2,287.6c-0.1,0-0.1,0-0.2,0c-0.3-0.1-0.4-0.4-0.3-0.7l1.4-4c0.1-0.3,0.4-0.4,0.7-0.3 c0.3,0.1,0.4,0.4,0.3,0.7l-1.4,4C653.6,287.4,653.4,287.6,653.2,287.6z"></path> <path class="st14" d="M648.8,287.5c-0.2,0-0.4-0.1-0.5-0.3l-1.5-4c-0.1-0.3,0-0.6,0.3-0.7c0.3-0.1,0.6,0,0.7,0.3l1.5,4 c0.1,0.3,0,0.6-0.3,0.7C648.9,287.5,648.9,287.5,648.8,287.5z"></path> <path class="st14" d="M646.2,288.1c-0.1,0-0.3-0.1-0.4-0.2l-2.2-2.6c-0.2-0.2-0.2-0.5,0.1-0.7c0.2-0.2,0.5-0.2,0.7,0.1l2.2,2.6 c0.2,0.2,0.2,0.5-0.1,0.7C646.4,288,646.3,288.1,646.2,288.1z"></path> <path class="st14" d="M650.9,287.4c-0.3,0-0.5-0.2-0.5-0.5l0-4.5c0-0.3,0.2-0.5,0.5-0.5h0c0.3,0,0.5,0.2,0.5,0.5l0,4.5 C651.5,287.2,651.2,287.4,650.9,287.4L650.9,287.4z"></path> <path class="st8" d="M640.5,254.6l-14-209.5H343"></path> <path class="st9" d="M348.7,28.3c-1.1,0-2.1-0.2-3.1-0.5c-1-0.3-1.8-0.7-2.4-1.2l0.9-2c0.6,0.4,1.3,0.8,2.1,1.1 c0.8,0.3,1.7,0.4,2.5,0.4c0.7,0,1.3-0.1,1.8-0.2s0.8-0.4,1-0.6c0.2-0.3,0.3-0.6,0.3-0.9c0-0.4-0.2-0.8-0.5-1 c-0.3-0.3-0.7-0.5-1.2-0.6c-0.5-0.2-1-0.3-1.6-0.4c-0.6-0.1-1.2-0.3-1.8-0.5c-0.6-0.2-1.1-0.4-1.6-0.7c-0.5-0.3-0.9-0.7-1.2-1.2 c-0.3-0.5-0.5-1.1-0.5-1.8c0-0.8,0.2-1.5,0.6-2.1c0.4-0.6,1-1.1,1.9-1.5c0.8-0.4,1.9-0.6,3.2-0.6c0.8,0,1.7,0.1,2.5,0.3 c0.8,0.2,1.5,0.5,2.2,0.9l-0.8,2c-0.6-0.4-1.3-0.6-1.9-0.8c-0.7-0.2-1.3-0.3-1.9-0.3c-0.7,0-1.3,0.1-1.8,0.3 c-0.4,0.2-0.8,0.4-1,0.7c-0.2,0.3-0.3,0.6-0.3,1c0,0.4,0.1,0.8,0.4,1c0.3,0.3,0.7,0.5,1.2,0.6c0.5,0.1,1,0.3,1.6,0.4 c0.6,0.1,1.2,0.3,1.8,0.5c0.6,0.2,1.1,0.4,1.6,0.7c0.5,0.3,0.9,0.7,1.2,1.1c0.3,0.5,0.5,1.1,0.5,1.8c0,0.7-0.2,1.4-0.6,2.1 c-0.4,0.6-1,1.1-1.9,1.5C351.1,28.2,350,28.3,348.7,28.3z M362.8,17.3c0.9,0,1.6,0.2,2.3,0.5c0.7,0.3,1.2,0.8,1.6,1.5 c0.4,0.7,0.6,1.6,0.6,2.6v6.1h-2.5v-5.8c0-0.9-0.2-1.7-0.7-2.1c-0.4-0.5-1.1-0.7-1.9-0.7c-0.6,0-1.1,0.1-1.6,0.4s-0.8,0.6-1.1,1.1 c-0.2,0.5-0.4,1.1-0.4,1.8v5.4h-2.5V13.3h2.5v7l-0.5-0.9c0.4-0.7,0.9-1.2,1.6-1.6C361,17.5,361.8,17.3,362.8,17.3z M377,28.1V26 l-0.1-0.5v-3.8c0-0.7-0.2-1.3-0.7-1.7c-0.4-0.4-1.1-0.6-2-0.6c-0.6,0-1.2,0.1-1.8,0.3c-0.6,0.2-1.1,0.4-1.5,0.8l-1-1.8 c0.6-0.4,1.3-0.8,2-1c0.8-0.2,1.6-0.3,2.5-0.3c1.5,0,2.7,0.4,3.6,1.1c0.9,0.7,1.3,1.9,1.3,3.4v6.3H377z M373.6,28.3 c-0.8,0-1.5-0.1-2.1-0.4c-0.6-0.3-1.1-0.7-1.4-1.1c-0.3-0.5-0.5-1-0.5-1.7c0-0.6,0.1-1.1,0.4-1.6c0.3-0.5,0.8-0.9,1.4-1.1 c0.7-0.3,1.5-0.4,2.6-0.4h3.1v1.7h-2.9c-0.9,0-1.4,0.1-1.7,0.4c-0.3,0.3-0.4,0.6-0.4,1c0,0.5,0.2,0.8,0.5,1.1 c0.4,0.3,0.9,0.4,1.5,0.4c0.6,0,1.2-0.1,1.6-0.4c0.5-0.3,0.8-0.7,1.1-1.2l0.4,1.5c-0.2,0.6-0.7,1.1-1.3,1.5 C375.4,28.1,374.6,28.3,373.6,28.3z M382.6,28.1V17.5h2.4v2.9l-0.3-0.9c0.3-0.7,0.8-1.3,1.5-1.6c0.7-0.4,1.6-0.6,2.6-0.6v2.4 c-0.1,0-0.2,0-0.3,0c-0.1,0-0.2,0-0.3,0c-0.9,0-1.7,0.3-2.3,0.8c-0.6,0.5-0.8,1.4-0.8,2.5v5.2H382.6z M395.8,28.3 c-1.2,0-2.2-0.2-3.1-0.7c-0.9-0.5-1.6-1.1-2.1-2c-0.5-0.8-0.7-1.8-0.7-2.8c0-1.1,0.2-2,0.7-2.8c0.5-0.8,1.1-1.5,2-1.9 c0.8-0.5,1.8-0.7,2.9-0.7c1,0,2,0.2,2.8,0.7s1.5,1.1,1.9,1.9c0.5,0.8,0.7,1.8,0.7,2.9c0,0.1,0,0.2,0,0.4c0,0.1,0,0.3,0,0.4h-8.9 v-1.7h7.6l-1,0.5c0-0.6-0.1-1.2-0.4-1.6c-0.3-0.5-0.6-0.8-1.1-1.1c-0.5-0.3-1-0.4-1.6-0.4c-0.6,0-1.2,0.1-1.6,0.4 c-0.5,0.3-0.8,0.6-1.1,1.1c-0.3,0.5-0.4,1-0.4,1.7v0.4c0,0.6,0.1,1.2,0.4,1.7s0.7,0.9,1.2,1.1c0.5,0.3,1.1,0.4,1.8,0.4 c0.6,0,1.1-0.1,1.6-0.3c0.5-0.2,0.9-0.5,1.3-0.9l1.3,1.5c-0.5,0.6-1.1,1-1.8,1.3C397.5,28.1,396.7,28.3,395.8,28.3z M408.7,28.1 V17.5h2.4v2.9l-0.3-0.9c0.3-0.7,0.8-1.3,1.5-1.6c0.7-0.4,1.6-0.6,2.6-0.6v2.4c-0.1,0-0.2,0-0.3,0c-0.1,0-0.2,0-0.3,0 c-0.9,0-1.7,0.3-2.3,0.8c-0.6,0.5-0.8,1.4-0.8,2.5v5.2H408.7z M422,28.3c-1.2,0-2.2-0.2-3.1-0.7c-0.9-0.5-1.6-1.1-2.1-2 c-0.5-0.8-0.7-1.8-0.7-2.8c0-1.1,0.2-2,0.7-2.8c0.5-0.8,1.1-1.5,2-1.9c0.8-0.5,1.8-0.7,2.9-0.7c1,0,2,0.2,2.8,0.7s1.5,1.1,1.9,1.9 c0.5,0.8,0.7,1.8,0.7,2.9c0,0.1,0,0.2,0,0.4c0,0.1,0,0.3,0,0.4H418v-1.7h7.6l-1,0.5c0-0.6-0.1-1.2-0.4-1.6 c-0.3-0.5-0.6-0.8-1.1-1.1c-0.5-0.3-1-0.4-1.6-0.4c-0.6,0-1.2,0.1-1.6,0.4c-0.5,0.3-0.8,0.6-1.1,1.1c-0.3,0.5-0.4,1-0.4,1.7v0.4 c0,0.6,0.1,1.2,0.4,1.7s0.7,0.9,1.2,1.1c0.5,0.3,1.1,0.4,1.8,0.4c0.6,0,1.1-0.1,1.6-0.3c0.5-0.2,0.9-0.5,1.3-0.9l1.3,1.5 c-0.5,0.6-1.1,1-1.8,1.3C423.7,28.1,422.9,28.3,422,28.3z M432.7,28.3c-0.9,0-1.8-0.1-2.6-0.3c-0.8-0.2-1.5-0.5-1.9-0.9l1-1.9 c0.5,0.3,1.1,0.6,1.7,0.8c0.7,0.2,1.3,0.3,2,0.3c0.8,0,1.4-0.1,1.7-0.3c0.4-0.2,0.5-0.5,0.5-0.9c0-0.3-0.1-0.5-0.4-0.7 c-0.2-0.2-0.6-0.3-0.9-0.4c-0.4-0.1-0.8-0.2-1.3-0.2c-0.5-0.1-0.9-0.2-1.4-0.3c-0.5-0.1-0.9-0.3-1.3-0.5c-0.4-0.2-0.7-0.5-0.9-0.9 c-0.2-0.4-0.4-0.9-0.4-1.5c0-0.7,0.2-1.3,0.6-1.8c0.4-0.5,0.9-0.9,1.6-1.2c0.7-0.3,1.5-0.4,2.5-0.4c0.7,0,1.4,0.1,2.2,0.2 c0.7,0.2,1.3,0.4,1.8,0.7l-1,1.9c-0.5-0.3-1-0.5-1.5-0.6c-0.5-0.1-1-0.2-1.5-0.2c-0.8,0-1.3,0.1-1.7,0.3c-0.4,0.2-0.5,0.5-0.5,0.9 c0,0.3,0.1,0.6,0.4,0.7c0.2,0.2,0.6,0.3,0.9,0.4c0.4,0.1,0.8,0.2,1.3,0.2c0.5,0.1,1,0.1,1.4,0.3c0.5,0.1,0.9,0.3,1.3,0.5 c0.4,0.2,0.7,0.5,1,0.9c0.2,0.4,0.4,0.9,0.4,1.5c0,0.7-0.2,1.2-0.6,1.7c-0.4,0.5-0.9,0.9-1.7,1.2C434.5,28.2,433.7,28.3,432.7,28.3 z M444.2,28.3c-0.9,0-1.7-0.2-2.4-0.5c-0.7-0.3-1.2-0.9-1.6-1.6c-0.4-0.7-0.6-1.6-0.6-2.7v-6.1h2.5v5.8c0,1,0.2,1.7,0.6,2.2 c0.4,0.5,1.1,0.7,1.9,0.7c0.6,0,1.1-0.1,1.5-0.4c0.4-0.2,0.8-0.6,1-1.1c0.3-0.5,0.4-1.1,0.4-1.8v-5.4h2.5v10.7h-2.4v-2.9l0.4,0.9 c-0.4,0.7-0.9,1.2-1.6,1.6C445.8,28.1,445,28.3,444.2,28.3z M453.3,28.1V13.3h2.5v14.8H453.3z M463.6,28.3c-1.2,0-2.1-0.3-2.7-0.9 c-0.6-0.6-1-1.5-1-2.7v-9.6h2.5v9.5c0,0.5,0.1,0.9,0.4,1.2c0.3,0.3,0.6,0.4,1.1,0.4c0.6,0,1-0.1,1.4-0.4l0.7,1.8 c-0.3,0.2-0.7,0.4-1.1,0.5C464.5,28.2,464.1,28.3,463.6,28.3z M458.2,19.5v-2h7.1v2H458.2z M471.4,28.3c-0.9,0-1.8-0.1-2.6-0.3 c-0.8-0.2-1.5-0.5-1.9-0.9l1-1.9c0.5,0.3,1.1,0.6,1.7,0.8c0.7,0.2,1.3,0.3,2,0.3c0.8,0,1.4-0.1,1.7-0.3c0.4-0.2,0.5-0.5,0.5-0.9 c0-0.3-0.1-0.5-0.4-0.7c-0.2-0.2-0.6-0.3-0.9-0.4c-0.4-0.1-0.8-0.2-1.3-0.2c-0.5-0.1-0.9-0.2-1.4-0.3c-0.5-0.1-0.9-0.3-1.3-0.5 c-0.4-0.2-0.7-0.5-0.9-0.9c-0.2-0.4-0.4-0.9-0.4-1.5c0-0.7,0.2-1.3,0.6-1.8c0.4-0.5,0.9-0.9,1.6-1.2c0.7-0.3,1.5-0.4,2.5-0.4 c0.7,0,1.4,0.1,2.2,0.2c0.7,0.2,1.3,0.4,1.8,0.7l-1,1.9c-0.5-0.3-1-0.5-1.5-0.6c-0.5-0.1-1-0.2-1.5-0.2c-0.8,0-1.3,0.1-1.7,0.3 c-0.4,0.2-0.5,0.5-0.5,0.9c0,0.3,0.1,0.6,0.4,0.7s0.6,0.3,0.9,0.4c0.4,0.1,0.8,0.2,1.3,0.2c0.5,0.1,1,0.1,1.4,0.3 c0.5,0.1,0.9,0.3,1.3,0.5c0.4,0.2,0.7,0.5,1,0.9c0.2,0.4,0.4,0.9,0.4,1.5c0,0.7-0.2,1.2-0.6,1.7c-0.4,0.5-0.9,0.9-1.7,1.2 C473.2,28.2,472.4,28.3,471.4,28.3z M486.2,28.1l-3.9-10.7h2.4l3.4,9.4h-1.1l3.5-9.4h2.1l3.4,9.4h-1.1l3.5-9.4h2.2l-3.9,10.7h-2.4 l-3.1-8.3h0.7l-3.2,8.3H486.2z M502.3,28.1V17.5h2.5v10.7H502.3z M503.5,15.7c-0.5,0-0.9-0.1-1.2-0.4c-0.3-0.3-0.4-0.6-0.4-1.1 c0-0.4,0.1-0.8,0.4-1.1c0.3-0.3,0.7-0.4,1.2-0.4c0.5,0,0.8,0.1,1.1,0.4c0.3,0.3,0.5,0.6,0.5,1c0,0.4-0.1,0.8-0.4,1.1 C504.4,15.6,504,15.7,503.5,15.7z M512.1,28.3c-1.2,0-2.1-0.3-2.7-0.9c-0.6-0.6-1-1.5-1-2.7v-9.6h2.5v9.5c0,0.5,0.1,0.9,0.4,1.2 c0.3,0.3,0.6,0.4,1.1,0.4c0.6,0,1-0.1,1.4-0.4l0.7,1.8c-0.3,0.2-0.7,0.4-1.1,0.5C513,28.2,512.5,28.3,512.1,28.3z M506.6,19.5v-2 h7.1v2H506.6z M522.6,17.3c0.9,0,1.6,0.2,2.3,0.5c0.7,0.3,1.2,0.8,1.6,1.5c0.4,0.7,0.6,1.6,0.6,2.6v6.1h-2.5v-5.8 c0-0.9-0.2-1.7-0.7-2.1c-0.4-0.5-1.1-0.7-1.9-0.7c-0.6,0-1.1,0.1-1.6,0.4c-0.5,0.2-0.8,0.6-1.1,1.1c-0.2,0.5-0.4,1.1-0.4,1.8v5.4 h-2.5V13.3h2.5v7l-0.5-0.9c0.4-0.7,0.9-1.2,1.6-1.6C520.8,17.5,521.6,17.3,522.6,17.3z M535.7,28.1V13.3h2.5v14.8H535.7z M546.5,28.3c-1.2,0-2.2-0.2-3.1-0.7c-0.9-0.5-1.6-1.1-2.1-2c-0.5-0.8-0.7-1.8-0.7-2.8c0-1.1,0.2-2,0.7-2.8c0.5-0.8,1.1-1.5,2-1.9 c0.8-0.5,1.8-0.7,2.9-0.7c1,0,2,0.2,2.8,0.7c0.8,0.5,1.5,1.1,1.9,1.9c0.5,0.8,0.7,1.8,0.7,2.9c0,0.1,0,0.2,0,0.4c0,0.1,0,0.3,0,0.4 h-8.9v-1.7h7.6l-1,0.5c0-0.6-0.1-1.2-0.4-1.6c-0.3-0.5-0.6-0.8-1.1-1.1c-0.5-0.3-1-0.4-1.6-0.4c-0.6,0-1.2,0.1-1.6,0.4 c-0.5,0.3-0.8,0.6-1.1,1.1c-0.3,0.5-0.4,1-0.4,1.7v0.4c0,0.6,0.1,1.2,0.4,1.7c0.3,0.5,0.7,0.9,1.2,1.1c0.5,0.3,1.1,0.4,1.8,0.4 c0.6,0,1.1-0.1,1.6-0.3c0.5-0.2,0.9-0.5,1.3-0.9l1.3,1.5c-0.5,0.6-1.1,1-1.8,1.3C548.3,28.1,547.5,28.3,546.5,28.3z M560,17.3 c0.9,0,1.6,0.2,2.3,0.5c0.7,0.3,1.2,0.8,1.6,1.5c0.4,0.7,0.6,1.6,0.6,2.6v6.1H562v-5.8c0-0.9-0.2-1.7-0.7-2.1 c-0.4-0.5-1.1-0.7-1.9-0.7c-0.6,0-1.1,0.1-1.6,0.4c-0.5,0.2-0.8,0.6-1.1,1.1c-0.2,0.5-0.4,1.1-0.4,1.8v5.4H554V17.5h2.4v2.9 l-0.4-0.9c0.4-0.7,0.9-1.2,1.6-1.6C558.3,17.5,559.1,17.3,560,17.3z M572.2,28.3c-1,0-2-0.2-2.8-0.7c-0.8-0.5-1.5-1.1-1.9-1.9 c-0.5-0.8-0.7-1.8-0.7-2.9c0-1.1,0.2-2.1,0.7-2.9c0.5-0.8,1.1-1.4,1.9-1.9c0.8-0.5,1.8-0.7,2.8-0.7c0.9,0,1.7,0.2,2.4,0.6 c0.7,0.4,1.3,1,1.7,1.8c0.4,0.8,0.6,1.8,0.6,3.1c0,1.2-0.2,2.3-0.6,3.1c-0.4,0.8-1,1.4-1.7,1.8C573.9,28.1,573.1,28.3,572.2,28.3z M572.5,26.1c0.6,0,1.1-0.1,1.6-0.4c0.5-0.3,0.9-0.7,1.1-1.2c0.3-0.5,0.4-1.1,0.4-1.8c0-0.7-0.1-1.3-0.4-1.8 c-0.3-0.5-0.7-0.9-1.1-1.2c-0.5-0.3-1-0.4-1.6-0.4s-1.1,0.1-1.6,0.4c-0.5,0.3-0.8,0.7-1.1,1.2c-0.3,0.5-0.4,1.1-0.4,1.8 c0,0.7,0.1,1.3,0.4,1.8c0.3,0.5,0.7,0.9,1.1,1.2C571.4,26,571.9,26.1,572.5,26.1z M575.7,28.1v-2.5l0.1-2.8l-0.2-2.8v-6.6h2.5v14.8 H575.7z M586.4,28.3c-1.2,0-2.2-0.2-3.1-0.7c-0.9-0.5-1.6-1.1-2.1-2c-0.5-0.8-0.7-1.8-0.7-2.8c0-1.1,0.2-2,0.7-2.8 c0.5-0.8,1.1-1.5,2-1.9c0.8-0.5,1.8-0.7,2.9-0.7c1,0,2,0.2,2.8,0.7c0.8,0.5,1.5,1.1,1.9,1.9c0.5,0.8,0.7,1.8,0.7,2.9 c0,0.1,0,0.2,0,0.4c0,0.1,0,0.3,0,0.4h-8.9v-1.7h7.6l-1,0.5c0-0.6-0.1-1.2-0.4-1.6c-0.3-0.5-0.6-0.8-1.1-1.1 c-0.5-0.3-1-0.4-1.6-0.4c-0.6,0-1.2,0.1-1.6,0.4c-0.5,0.3-0.8,0.6-1.1,1.1c-0.3,0.5-0.4,1-0.4,1.7v0.4c0,0.6,0.1,1.2,0.4,1.7 c0.3,0.5,0.7,0.9,1.2,1.1c0.5,0.3,1.1,0.4,1.8,0.4c0.6,0,1.1-0.1,1.6-0.3c0.5-0.2,0.9-0.5,1.3-0.9l1.3,1.5c-0.5,0.6-1.1,1-1.8,1.3 C588.2,28.1,587.4,28.3,586.4,28.3z M593.8,28.1V17.5h2.4v2.9l-0.3-0.9c0.3-0.7,0.8-1.3,1.5-1.6c0.7-0.4,1.6-0.6,2.6-0.6v2.4 c-0.1,0-0.2,0-0.3,0c-0.1,0-0.2,0-0.3,0c-0.9,0-1.7,0.3-2.3,0.8c-0.6,0.5-0.8,1.4-0.8,2.5v5.2H593.8z M605.5,28.3 c-0.9,0-1.8-0.1-2.6-0.3c-0.8-0.2-1.5-0.5-1.9-0.9l1-1.9c0.5,0.3,1.1,0.6,1.7,0.8c0.7,0.2,1.3,0.3,2,0.3c0.8,0,1.4-0.1,1.7-0.3 c0.4-0.2,0.5-0.5,0.5-0.9c0-0.3-0.1-0.5-0.4-0.7c-0.2-0.2-0.6-0.3-0.9-0.4c-0.4-0.1-0.8-0.2-1.3-0.2c-0.5-0.1-0.9-0.2-1.4-0.3 c-0.5-0.1-0.9-0.3-1.3-0.5c-0.4-0.2-0.7-0.5-0.9-0.9c-0.2-0.4-0.4-0.9-0.4-1.5c0-0.7,0.2-1.3,0.6-1.8c0.4-0.5,0.9-0.9,1.6-1.2 c0.7-0.3,1.5-0.4,2.5-0.4c0.7,0,1.4,0.1,2.2,0.2c0.7,0.2,1.3,0.4,1.8,0.7l-1,1.9c-0.5-0.3-1-0.5-1.5-0.6c-0.5-0.1-1-0.2-1.5-0.2 c-0.8,0-1.3,0.1-1.7,0.3c-0.4,0.2-0.5,0.5-0.5,0.9c0,0.3,0.1,0.6,0.4,0.7s0.6,0.3,0.9,0.4c0.4,0.1,0.8,0.2,1.3,0.2 c0.5,0.1,1,0.1,1.4,0.3c0.5,0.1,0.9,0.3,1.3,0.5c0.4,0.2,0.7,0.5,1,0.9c0.2,0.4,0.4,0.9,0.4,1.5c0,0.7-0.2,1.2-0.6,1.7 c-0.4,0.5-0.9,0.9-1.7,1.2C607.4,28.2,606.5,28.3,605.5,28.3z"></path> <circle class="st10" cx="306" cy="21.6" r="21.5"></circle> <path class="st11" d="M307.2,28.3c-1.3,0-2.4-0.3-3.3-0.8c-0.9-0.5-1.6-1.3-2.1-2.4c-0.5-1-0.7-2.3-0.7-3.8c0-1.6,0.3-3,0.9-4.1 c0.6-1.1,1.4-1.9,2.4-2.5c1-0.6,2.2-0.9,3.6-0.9c0.7,0,1.4,0.1,2,0.2c0.7,0.1,1.2,0.4,1.7,0.7l-1,2c-0.4-0.3-0.8-0.4-1.3-0.5 c-0.4-0.1-0.9-0.2-1.4-0.2c-1.3,0-2.4,0.4-3.1,1.2c-0.8,0.8-1.2,2-1.2,3.6c0,0.3,0,0.6,0,0.9c0,0.3,0.1,0.7,0.1,1l-0.8-0.9 c0.2-0.5,0.6-1,1-1.4c0.4-0.4,0.9-0.7,1.5-0.8c0.6-0.2,1.2-0.3,1.9-0.3c0.9,0,1.7,0.2,2.5,0.5c0.7,0.3,1.3,0.8,1.7,1.5 c0.4,0.6,0.6,1.4,0.6,2.3c0,0.9-0.2,1.7-0.7,2.4c-0.5,0.7-1.1,1.2-1.8,1.6C309,28.2,308.1,28.3,307.2,28.3z M307,26.3 c0.5,0,1-0.1,1.4-0.3c0.4-0.2,0.7-0.5,1-0.8c0.2-0.4,0.4-0.8,0.4-1.3c0-0.7-0.3-1.3-0.8-1.7c-0.5-0.4-1.2-0.6-2-0.6 c-0.6,0-1.1,0.1-1.5,0.3c-0.4,0.2-0.7,0.5-1,0.8c-0.2,0.4-0.4,0.8-0.4,1.2c0,0.4,0.1,0.8,0.3,1.2c0.2,0.4,0.6,0.6,1,0.9 C305.9,26.2,306.4,26.3,307,26.3z"></path> </g> </svg>