<svg xmlns="http://www.w3.org/2000/svg" xmlns:xlink="http://www.w3.org/1999/xlink" id="Layer_1" x="0px" y="0px" viewBox="0 0 1234.4 842.2" style="enable-background:new 0 0 1234.4 842.2;" xml:space="preserve"> <style type="text/css"> .st0{display:none;} .st1{display:inline;fill:#12918B;} .st2{fill:#00B1AC;} </style> <g id="Layer_2_1_" class="st0"> <rect x="-67" y="-1037.6" class="st1" width="936.6" height="1131.9"></rect> </g> <g id="Layer_1_1_"> <g> <path class="st2" d="M1097.2,0L623.8,470.4L400.4,693.9c-16.9,16.9-36.7,30-58.8,38.9c-10.6,4.3-21.8,7.6-33.1,9.8 c-22.4,4.3-45.9,4.3-68.4,0c-11.3-2.2-22.4-5.5-33.1-9.8c-22.1-8.9-41.9-22-58.8-38.9c-16.9-16.9-30-36.6-38.9-58.7 c-4.3-10.6-7.6-21.7-9.7-33c-2.2-11.2-3.2-22.7-3.2-34.2s1.1-23,3.3-34.2c2.2-11.3,5.5-22.4,9.8-33.1c8.9-22.1,22-41.8,38.9-58.8 L563,27.2l1.8-1.7c3.7-3.8,8.2-7.8,13.5-12.2C584.3,8.4,590.5,4,597,0h-10.7c-4,2.8-7.9,5.7-11.7,8.8c-5.5,4.6-10.1,8.7-14,12.6 l-1.2,1.2l-0.4,0.3L144.2,437.7c-17.5,17.5-31,37.9-40.2,60.7c-4.4,11-7.8,22.5-10.1,34.2c-2.2,11.6-3.4,23.5-3.4,35.3 c0,11.8,1.1,23.7,3.4,35.3c2.2,11.7,5.6,23.2,10.1,34.1c9.2,22.8,22.7,43.2,40.2,60.7c17.5,17.5,37.9,31,60.8,40.2 c11,4.4,22.5,7.8,34.2,10.1c11.6,2.2,23.5,3.4,35.3,3.4c11.8,0,23.7-1.1,35.3-3.4c11.7-2.2,23.2-5.6,34.1-10.1 c22.8-9.2,43.2-22.7,60.7-40.2L628,474.6L1105.6,0H1097.2z"></path> <path class="st2" d="M1129.4,0L639.8,486.5L416.4,709.9c-19.1,19.1-41.4,33.8-66.3,43.9c-12,4.8-24.5,8.5-37.3,11 c-12.6,2.4-25.6,3.7-38.5,3.7h0c-12.9,0-25.8-1.2-38.5-3.7c-12.8-2.5-25.3-6.2-37.3-11c-24.9-10.1-47.2-24.8-66.3-43.9 c-19.1-19-33.8-41.3-43.9-66.2c-4.8-12-8.5-24.5-11-37.2c-2.4-12.6-3.7-25.6-3.7-38.5c0-12.9,1.2-25.8,3.7-38.5 c2.5-12.8,6.2-25.3,11-37.3c10.1-24.9,24.8-47.2,43.9-66.3L547.7,10.6l1.1-1c3-3.1,6.4-6.2,10.2-9.5h-8.8c-2,1.8-3.9,3.6-5.6,5.4 L544,6l-0.3,0.3L128.2,421.7c-19.6,19.6-34.8,42.6-45.2,68.2c-5,12.3-8.8,25.2-11.3,38.3c-2.5,13-3.8,26.3-3.8,39.6 c0,13.3,1.3,26.6,3.8,39.6c2.5,13.1,6.3,26,11.3,38.3c10.3,25.6,25.5,48.6,45.2,68.2c19.7,19.7,42.6,34.9,68.3,45.2 c12.3,5,25.2,8.8,38.4,11.3c13,2.5,26.3,3.8,39.6,3.8c0,0,0,0,0,0c13.3,0,26.6-1.3,39.6-3.8c13.1-2.5,26-6.3,38.4-11.3 c25.6-10.3,48.6-25.5,68.2-45.2L644,490.6L1137.8,0H1129.4z"></path> <path class="st2" d="M1161.6,0L655.8,502.5L432.5,725.9c-42,42-98.2,65.2-158,65.2h0c-59.9,0-116-23.2-158.1-65.2 c-42-42-65.2-98.1-65.1-158c0-59.9,23.2-116,65.2-158L526.2,0h-8.3L112.2,405.7c-43.1,43.1-66.9,100.7-66.9,162.2 S69,686.9,112.2,730c43.2,43.2,100.8,66.9,162.2,66.9c0,0,0,0,0,0c61.4,0,119-23.8,162.2-66.9L660,506.6L1170,0H1161.6z"></path> <path class="st2" d="M1193.9,0l-522,518.5L448.5,741.9c-11.8,11.8-24.7,22.3-38.5,31.4c-13.5,8.9-27.9,16.4-42.8,22.5 c-14.7,5.9-30,10.5-45.6,13.5c-15.4,3-31.3,4.5-47,4.5h0c-15.8,0-31.6-1.5-47-4.5c-15.6-3-31-7.5-45.7-13.5 c-15-6-29.4-13.6-42.8-22.5c-13.8-9.1-26.8-19.7-38.6-31.4c-11.8-11.8-22.3-24.7-31.4-38.5c-8.8-13.5-16.4-27.8-22.4-42.8 c-5.9-14.7-10.5-30-13.5-45.6c-3-15.5-4.5-31.3-4.5-47c0-15.8,1.5-31.6,4.5-47c3-15.6,7.5-31,13.5-45.6c6-15,13.6-29.4,22.5-42.8 c9.1-13.8,19.7-26.8,31.4-38.5L494.2,0h-8.4L96.2,389.7c-12,12-22.9,25.3-32.2,39.5C55,442.9,47.2,457.7,41,473 c-6.1,15-10.7,30.8-13.8,46.7c-3,15.8-4.6,32-4.6,48.2c0,16.1,1.5,32.3,4.6,48.1c3.1,16,7.7,31.7,13.8,46.7 c6.2,15.3,13.9,30.1,23,43.8c9.3,14.1,20.1,27.4,32.2,39.4c12.1,12,25.3,22.9,39.5,32.2c13.8,9.1,28.6,16.8,43.9,23 c15,6.1,30.8,10.7,46.7,13.8c15.8,3,32,4.6,48.1,4.6h0c16.1,0,32.3-1.5,48.1-4.6c16-3.1,31.7-7.7,46.7-13.8 c15.3-6.2,30.1-13.9,43.9-23c14.1-9.3,27.4-20.1,39.5-32.2L676,522.7L1202.2,0H1193.9z"></path> <path class="st2" d="M1226.1,0L687.8,534.5L464.5,757.9c-12.8,12.8-27,24.4-42.1,34.3c-14.7,9.7-30.5,17.9-46.8,24.5 c-16,6.5-32.8,11.4-49.9,14.7c-16.9,3.2-34.1,4.9-51.3,4.9h0c-17.2,0-34.5-1.7-51.3-4.9c-17-3.3-33.8-8.2-49.8-14.7 c-16.4-6.6-32.1-14.9-46.8-24.5c-15.1-9.9-29.3-21.5-42.1-34.3c-12.8-12.8-24.4-27-34.3-42.1c-9.7-14.7-17.9-30.5-24.5-46.8 C19,653,14,636.2,10.8,619.2c-3.2-16.8-4.9-34.1-4.9-51.3c0-17.2,1.7-34.5,4.9-51.3c3.3-17,8.2-33.8,14.7-49.8 c6.6-16.4,14.9-32.1,24.5-46.8c9.9-15.1,21.5-29.2,34.3-42.1L462.1,0h-8.3L80.2,373.6c-13.1,13.1-24.9,27.6-35.1,43 c-9.9,15-18.3,31.1-25.1,47.8C13.4,480.9,8.4,498,5,515.4c-3.3,17.2-5,34.9-5,52.4s1.7,35.2,5,52.4c3.4,17.4,8.4,34.5,15,50.9 c6.7,16.7,15.2,32.8,25.1,47.8c10.2,15.4,22,29.9,35.1,43c13.1,13.1,27.6,24.9,43,35.1c15,9.9,31.1,18.3,47.8,25.1 c16.4,6.6,33.5,11.7,50.9,15c17.2,3.3,34.9,5,52.4,5h0c17.6,0,35.2-1.7,52.4-5c17.4-3.3,34.5-8.4,50.9-15 c16.7-6.8,32.8-15.2,47.8-25.1c15.4-10.2,29.9-22,43-35.1L692,538.7L1234.4,0H1226.1z"></path> </g> </g> </svg>