<svg xmlns="http://www.w3.org/2000/svg" xmlns:xlink="http://www.w3.org/1999/xlink" id="Layer_1" x="0px" y="0px" viewBox="0 0 573 172.5" style="enable-background:new 0 0 573 172.5;" xml:space="preserve"> <style type="text/css"> .st0{fill:#00B1AC;} </style> <g> <path class="st0" d="M420.8,148.5l-0.4-0.4c-0.5-0.5-1-1.1-1.6-1.6c-0.8-0.8-1.5-1.6-2.2-2.2c-16.4-16.4-35.4-29.3-56.5-38.4 c-20.5-8.8-42.2-13.9-64.7-14.9c-24.2-1.2-48.1,2.4-70.6,10.3c-19.8,7-38,17.2-54.3,30.4c-5.5,4.6-10.1,8.7-13.9,12.6l-1.2,1.2 l-0.4,0.3l-26.8,26.8h8.3l22.5-22.5l1.8-1.7c3.7-3.8,8.2-7.8,13.5-12.2c15.7-12.8,33.4-22.7,52.5-29.4c21.8-7.7,44.9-11.1,68.4-10 c21.8,1,42.8,5.9,62.6,14.5c20.5,8.8,38.9,21.4,54.7,37.2c0.6,0.6,1.3,1.4,2.1,2.2c0.5,0.5,1,1.1,1.6,1.6l13,13.1l7.3,7.3h8.3 l-11.4-11.4L420.8,148.5z"></path> <path class="st0" d="M436.8,132.5l-0.2-0.2c-0.5-0.5-1-1-1.5-1.5l-0.1-0.1c-0.8-0.9-1.6-1.7-2.4-2.4 c-18.4-18.4-39.8-32.9-63.6-43.2c-23-9.9-47.4-15.6-72.6-16.8c-51.2-2.4-101,13.9-140.4,45.9c-6.1,5.1-11.2,9.7-15.6,14.1l-0.6,0.6 l-0.3,0.3l-43.5,43.5h8.3l39.1-39.2l1.1-1c4.3-4.3,9.3-8.8,15.2-13.8c38.2-31.1,86.6-46.9,136.4-44.6c24.5,1.2,48.2,6.6,70.5,16.3 c23.1,10,43.9,24.1,61.7,42c0.7,0.7,1.5,1.5,2.3,2.4l0.1,0.1c0.5,0.5,1,1,1.5,1.6l12.8,12.8l23.3,23.3h8.3l-27.5-27.5L436.8,132.5z "></path> <path class="st0" d="M452.9,116.5l-1.4-1.4c-0.9-1-1.9-2-2.9-2.9c-40.2-40.2-93.9-63.9-151.1-66.6c-56.8-2.7-112.1,15.4-155.8,51 c-6.7,5.5-12.3,10.6-17.3,15.6l-0.3,0.2l-60.1,60.1h8.3l55.8-55.8l0.4-0.3c4.8-4.9,10.4-9.9,16.9-15.3 c42.5-34.7,96.4-52.3,151.8-49.7c55.7,2.6,108,25.7,147.2,64.9c0.9,0.9,1.9,1.9,2.8,2.8c0.5,0.5,0.9,1,1.4,1.5l12.5,12.6l39.3,39.3 h8.3l-43.5-43.5L452.9,116.5z"></path> <path class="st0" d="M469,100.6l-1.2-1.3c-1-1-2-2.1-3.2-3.2c-44.2-44.2-103.2-70.2-166.1-73.2c-15.1-0.7-30.3-0.1-45.3,1.9 c-15.1,2-30,5.3-44.4,10c-29.8,9.6-57.2,24.5-81.5,44.2l-0.2,0.1c-7,5.8-12.9,11.1-18.2,16.4l-0.3,0.2L32,172.5h8.3l72.8-72.8 c5.2-5.2,11-10.4,17.9-16.1l0.1-0.1c23.7-19.3,50.4-33.8,79.6-43.2c14.1-4.5,28.7-7.8,43.4-9.7c14.6-1.9,29.5-2.5,44.2-1.8 c61.4,2.9,119,28.3,162.2,71.5c1.1,1.1,2.1,2.1,3.1,3.2l69.1,69.1h8.2l-59.5-59.5L469,100.6z"></path> <path class="st0" d="M497.4,97l-12.2-12.3l-1.1-1.1c-1-1.1-2.2-2.2-3.4-3.5c-48.2-48.2-112.5-76.6-181-79.8 c-16.3-0.8-33-0.1-49.3,2C234,4.5,217.7,8.2,202,13.2c-32.5,10.4-62.4,26.7-88.9,48.2l-0.3,0.2c-7.2,6-13.5,11.6-19.1,17.2 l-0.3,0.3L0,172.5h8.4l89.4-89.4c5.5-5.5,11.7-11,18.8-16.9l0.3-0.2c25.9-21.1,55.1-36.9,87-47.2c15.4-4.9,31.3-8.5,47.4-10.6 c15.9-2.1,32.3-2.8,48.2-2c67,3.2,129.9,30.9,177.1,78.1c1.2,1.2,2.4,2.4,3.3,3.4l13.4,13.5l71.3,71.3h8.3L497.4,97z"></path> </g> </svg>