<svg xmlns="http://www.w3.org/2000/svg" width="608" height="513" viewBox="0 0 608 513" fill="none"><path d="M446.127 81.877L304.336 0.0141602V163.74L446.127 81.877Z" fill="#EFFAFB"></path><path fill-rule="evenodd" clip-rule="evenodd" d="M304.336 0.0141602L162.545 81.877L304.336 163.74V0.0141602Z" fill="#EFFAFB"></path><path d="M446.127 245.603V81.877L304.336 163.74V327.465L446.127 245.603Z" fill="#68CBC8"></path><path d="M162.545 245.603L304.336 327.465V163.74L162.545 81.877V245.603Z" fill="#C1E9E7"></path><path d="M607.57 173.269L465.779 91.406V255.132L607.57 173.269Z" fill="#EFFAFB"></path><path fill-rule="evenodd" clip-rule="evenodd" d="M465.779 91.406L323.989 173.269L465.779 255.132V91.406Z" fill="#EFFAFB"></path><path d="M607.57 336.994V173.269L465.779 255.132V418.857L607.57 336.994Z" fill="#68CBC8"></path><path d="M323.989 336.994L465.779 418.857V255.132L323.989 173.269V336.994Z" fill="#C1E9E7"></path><path d="M284.386 173.267L142.596 91.4038V255.129L284.386 173.267Z" fill="#EFFAFB"></path><path fill-rule="evenodd" clip-rule="evenodd" d="M142.596 91.4038L0.804932 173.267L142.596 255.129V91.4038Z" fill="#EFFAFB"></path><path d="M284.386 336.992V173.267L142.596 255.129V418.855L284.386 336.992Z" fill="#68CBC8"></path><path d="M0.804932 336.992L142.596 418.855V255.129L0.804932 173.267V336.992Z" fill="#C1E9E7"></path><path d="M446.127 266.561L304.336 184.698V348.424L446.127 266.561Z" fill="#EFFAFB"></path><path fill-rule="evenodd" clip-rule="evenodd" d="M304.336 184.698L162.545 266.561L304.336 348.424V184.698Z" fill="#EFFAFB"></path><path d="M446.127 430.287V266.561L304.336 348.424V512.15L446.127 430.287Z" fill="#68CBC8"></path><path d="M162.545 430.287L304.336 512.15V348.424L162.545 266.561V430.287Z" fill="#C1E9E7"></path><path d="M75.8295 163.74V151.14H81.0135C82.1295 151.14 83.0835 151.32 83.8755 151.68C84.6795 152.04 85.2975 152.556 85.7295 153.228C86.1615 153.9 86.3775 154.698 86.3775 155.622C86.3775 156.546 86.1615 157.344 85.7295 158.016C85.2975 158.688 84.6795 159.204 83.8755 159.564C83.0835 159.924 82.1295 160.104 81.0135 160.104H77.1255L78.1695 159.006V163.74H75.8295ZM78.1695 159.258L77.1255 158.124H80.9055C81.9375 158.124 82.7115 157.908 83.2275 157.476C83.7555 157.032 84.0195 156.414 84.0195 155.622C84.0195 154.818 83.7555 154.2 83.2275 153.768C82.7115 153.336 81.9375 153.12 80.9055 153.12H77.1255L78.1695 151.968V159.258ZM88.4104 163.74V154.128H90.5524V156.774L90.3004 156C90.5884 155.352 91.0384 154.86 91.6504 154.524C92.2744 154.188 93.0484 154.02 93.9724 154.02V156.162C93.8764 156.138 93.7864 156.126 93.7024 156.126C93.6184 156.114 93.5344 156.108 93.4504 156.108C92.5984 156.108 91.9204 156.36 91.4164 156.864C90.9124 157.356 90.6604 158.094 90.6604 159.078V163.74H88.4104ZM95.8811 163.74V154.128H98.1311V163.74H95.8811ZM97.0151 152.544C96.5951 152.544 96.2471 152.412 95.9711 152.148C95.7071 151.884 95.5751 151.566 95.5751 151.194C95.5751 150.81 95.7071 150.492 95.9711 150.24C96.2471 149.976 96.5951 149.844 97.0151 149.844C97.4351 149.844 97.7771 149.97 98.0411 150.222C98.3171 150.462 98.4551 150.768 98.4551 151.14C98.4551 151.536 98.3231 151.872 98.0591 152.148C97.7951 152.412 97.4471 152.544 97.0151 152.544ZM105.404 163.866C104.42 163.866 103.544 163.656 102.776 163.236C102.008 162.804 101.402 162.216 100.958 161.472C100.514 160.728 100.292 159.882 100.292 158.934C100.292 157.974 100.514 157.128 100.958 156.396C101.402 155.652 102.008 155.07 102.776 154.65C103.544 154.23 104.42 154.02 105.404 154.02C106.4 154.02 107.282 154.23 108.05 154.65C108.83 155.07 109.436 155.646 109.868 156.378C110.312 157.11 110.534 157.962 110.534 158.934C110.534 159.882 110.312 160.728 109.868 161.472C109.436 162.216 108.83 162.804 108.05 163.236C107.282 163.656 106.4 163.866 105.404 163.866ZM105.404 161.94C105.956 161.94 106.448 161.82 106.88 161.58C107.312 161.34 107.648 160.992 107.888 160.536C108.14 160.08 108.266 159.546 108.266 158.934C108.266 158.31 108.14 157.776 107.888 157.332C107.648 156.876 107.312 156.528 106.88 156.288C106.448 156.048 105.962 155.928 105.422 155.928C104.87 155.928 104.378 156.048 103.946 156.288C103.526 156.528 103.19 156.876 102.938 157.332C102.686 157.776 102.56 158.31 102.56 158.934C102.56 159.546 102.686 160.08 102.938 160.536C103.19 160.992 103.526 161.34 103.946 161.58C104.378 161.82 104.864 161.94 105.404 161.94ZM112.686 163.74V154.128H114.828V156.774L114.576 156C114.864 155.352 115.314 154.86 115.926 154.524C116.55 154.188 117.324 154.02 118.248 154.02V156.162C118.152 156.138 118.062 156.126 117.978 156.126C117.894 156.114 117.81 156.108 117.726 156.108C116.874 156.108 116.196 156.36 115.692 156.864C115.188 157.356 114.936 158.094 114.936 159.078V163.74H112.686ZM128.837 163.866C127.781 163.866 126.965 163.596 126.389 163.056C125.813 162.504 125.525 161.694 125.525 160.626V152.004H127.775V160.572C127.775 161.028 127.889 161.382 128.117 161.634C128.357 161.886 128.687 162.012 129.107 162.012C129.611 162.012 130.031 161.88 130.367 161.616L130.997 163.218C130.733 163.434 130.409 163.596 130.025 163.704C129.641 163.812 129.245 163.866 128.837 163.866ZM123.941 156V154.2H130.349V156H123.941ZM136.852 163.866C135.868 163.866 134.992 163.656 134.224 163.236C133.456 162.804 132.85 162.216 132.406 161.472C131.962 160.728 131.74 159.882 131.74 158.934C131.74 157.974 131.962 157.128 132.406 156.396C132.85 155.652 133.456 155.07 134.224 154.65C134.992 154.23 135.868 154.02 136.852 154.02C137.848 154.02 138.73 154.23 139.498 154.65C140.278 155.07 140.884 155.646 141.316 156.378C141.76 157.11 141.982 157.962 141.982 158.934C141.982 159.882 141.76 160.728 141.316 161.472C140.884 162.216 140.278 162.804 139.498 163.236C138.73 163.656 137.848 163.866 136.852 163.866ZM136.852 161.94C137.404 161.94 137.896 161.82 138.328 161.58C138.76 161.34 139.096 160.992 139.336 160.536C139.588 160.08 139.714 159.546 139.714 158.934C139.714 158.31 139.588 157.776 139.336 157.332C139.096 156.876 138.76 156.528 138.328 156.288C137.896 156.048 137.41 155.928 136.87 155.928C136.318 155.928 135.826 156.048 135.394 156.288C134.974 156.528 134.638 156.876 134.386 157.332C134.134 157.776 134.008 158.31 134.008 158.934C134.008 159.546 134.134 160.08 134.386 160.536C134.638 160.992 134.974 161.34 135.394 161.58C135.826 161.82 136.312 161.94 136.852 161.94ZM149.108 163.74V150.384H151.358V163.74H149.108ZM160.233 163.74V161.796L160.107 161.382V157.98C160.107 157.32 159.909 156.81 159.513 156.45C159.117 156.078 158.517 155.892 157.713 155.892C157.173 155.892 156.639 155.976 156.111 156.144C155.595 156.312 155.157 156.546 154.797 156.846L153.915 155.208C154.431 154.812 155.043 154.518 155.751 154.326C156.471 154.122 157.215 154.02 157.983 154.02C159.375 154.02 160.449 154.356 161.205 155.028C161.973 155.688 162.357 156.714 162.357 158.106V163.74H160.233ZM157.209 163.866C156.489 163.866 155.859 163.746 155.319 163.506C154.779 163.254 154.359 162.912 154.059 162.48C153.771 162.036 153.627 161.538 153.627 160.986C153.627 160.446 153.753 159.96 154.005 159.528C154.269 159.096 154.695 158.754 155.283 158.502C155.871 158.25 156.651 158.124 157.623 158.124H160.413V159.618H157.785C157.017 159.618 156.501 159.744 156.237 159.996C155.973 160.236 155.841 160.536 155.841 160.896C155.841 161.304 156.003 161.628 156.327 161.868C156.651 162.108 157.101 162.228 157.677 162.228C158.229 162.228 158.721 162.102 159.153 161.85C159.597 161.598 159.915 161.226 160.107 160.734L160.485 162.084C160.269 162.648 159.879 163.086 159.315 163.398C158.763 163.71 158.061 163.866 157.209 163.866ZM169.312 163.866C168.496 163.866 167.776 163.716 167.152 163.416C166.528 163.104 166.042 162.636 165.694 162.012C165.346 161.376 165.172 160.578 165.172 159.618V154.128H167.422V159.312C167.422 160.176 167.614 160.824 167.998 161.256C168.394 161.676 168.952 161.886 169.672 161.886C170.2 161.886 170.656 161.778 171.04 161.562C171.436 161.346 171.742 161.022 171.958 160.59C172.186 160.158 172.3 159.624 172.3 158.988V154.128H174.55V163.74H172.408V161.148L172.786 161.94C172.462 162.564 171.988 163.044 171.364 163.38C170.74 163.704 170.056 163.866 169.312 163.866ZM182.95 154.02C183.718 154.02 184.402 154.17 185.002 154.47C185.614 154.77 186.094 155.232 186.442 155.856C186.79 156.468 186.964 157.26 186.964 158.232V163.74H184.714V158.52C184.714 157.668 184.51 157.032 184.102 156.612C183.706 156.192 183.148 155.982 182.428 155.982C181.9 155.982 181.432 156.09 181.024 156.306C180.616 156.522 180.298 156.846 180.07 157.278C179.854 157.698 179.746 158.232 179.746 158.88V163.74H177.496V154.128H179.638V156.72L179.26 155.928C179.596 155.316 180.082 154.848 180.718 154.524C181.366 154.188 182.11 154.02 182.95 154.02ZM194.246 163.866C193.238 163.866 192.338 163.656 191.546 163.236C190.766 162.804 190.154 162.216 189.71 161.472C189.266 160.728 189.044 159.882 189.044 158.934C189.044 157.974 189.266 157.128 189.71 156.396C190.154 155.652 190.766 155.07 191.546 154.65C192.338 154.23 193.238 154.02 194.246 154.02C195.182 154.02 196.004 154.212 196.712 154.596C197.432 154.968 197.978 155.52 198.35 156.252L196.622 157.26C196.334 156.804 195.98 156.468 195.56 156.252C195.152 156.036 194.708 155.928 194.228 155.928C193.676 155.928 193.178 156.048 192.734 156.288C192.29 156.528 191.942 156.876 191.69 157.332C191.438 157.776 191.312 158.31 191.312 158.934C191.312 159.558 191.438 160.098 191.69 160.554C191.942 160.998 192.29 161.34 192.734 161.58C193.178 161.82 193.676 161.94 194.228 161.94C194.708 161.94 195.152 161.832 195.56 161.616C195.98 161.4 196.334 161.064 196.622 160.608L198.35 161.616C197.978 162.336 197.432 162.894 196.712 163.29C196.004 163.674 195.182 163.866 194.246 163.866ZM205.661 154.02C206.429 154.02 207.113 154.17 207.713 154.47C208.325 154.77 208.805 155.232 209.153 155.856C209.501 156.468 209.675 157.26 209.675 158.232V163.74H207.425V158.52C207.425 157.668 207.221 157.032 206.813 156.612C206.417 156.192 205.859 155.982 205.139 155.982C204.611 155.982 204.143 156.09 203.735 156.306C203.327 156.522 203.009 156.846 202.781 157.278C202.565 157.698 202.457 158.232 202.457 158.88V163.74H200.207V150.384H202.457V156.72L201.971 155.928C202.307 155.316 202.793 154.848 203.429 154.524C204.077 154.188 204.821 154.02 205.661 154.02ZM76.7255 185.866C75.7415 185.866 74.8655 185.656 74.0975 185.236C73.3295 184.804 72.7235 184.216 72.2795 183.472C71.8355 182.728 71.6135 181.882 71.6135 180.934C71.6135 179.974 71.8355 179.128 72.2795 178.396C72.7235 177.652 73.3295 177.07 74.0975 176.65C74.8655 176.23 75.7415 176.02 76.7255 176.02C77.7215 176.02 78.6035 176.23 79.3715 176.65C80.1515 177.07 80.7575 177.646 81.1895 178.378C81.6335 179.11 81.8555 179.962 81.8555 180.934C81.8555 181.882 81.6335 182.728 81.1895 183.472C80.7575 184.216 80.1515 184.804 79.3715 185.236C78.6035 185.656 77.7215 185.866 76.7255 185.866ZM76.7255 183.94C77.2775 183.94 77.7695 183.82 78.2015 183.58C78.6335 183.34 78.9695 182.992 79.2095 182.536C79.4615 182.08 79.5875 181.546 79.5875 180.934C79.5875 180.31 79.4615 179.776 79.2095 179.332C78.9695 178.876 78.6335 178.528 78.2015 178.288C77.7695 178.048 77.2835 177.928 76.7435 177.928C76.1915 177.928 75.6995 178.048 75.2675 178.288C74.8475 178.528 74.5115 178.876 74.2595 179.332C74.0075 179.776 73.8815 180.31 73.8815 180.934C73.8815 181.546 74.0075 182.08 74.2595 182.536C74.5115 182.992 74.8475 183.34 75.2675 183.58C75.6995 183.82 76.1855 183.94 76.7255 183.94ZM84.3131 185.74V175.588C84.3131 174.58 84.6071 173.776 85.1951 173.176C85.7951 172.564 86.6471 172.258 87.7511 172.258C88.1471 172.258 88.5191 172.3 88.8671 172.384C89.2271 172.468 89.5271 172.6 89.7671 172.78L89.1551 174.472C88.9871 174.34 88.7951 174.244 88.5791 174.184C88.3631 174.112 88.1411 174.076 87.9131 174.076C87.4451 174.076 87.0911 174.208 86.8511 174.472C86.6111 174.724 86.4911 175.108 86.4911 175.624V176.704L86.5631 177.712V185.74H84.3131ZM82.7291 178V176.2H89.1371V178H82.7291ZM101.548 185.74V183.796L101.422 183.382V179.98C101.422 179.32 101.224 178.81 100.828 178.45C100.432 178.078 99.8322 177.892 99.0282 177.892C98.4882 177.892 97.9542 177.976 97.4262 178.144C96.9102 178.312 96.4722 178.546 96.1122 178.846L95.2302 177.208C95.7462 176.812 96.3582 176.518 97.0662 176.326C97.7862 176.122 98.5302 176.02 99.2982 176.02C100.69 176.02 101.764 176.356 102.52 177.028C103.288 177.688 103.672 178.714 103.672 180.106V185.74H101.548ZM98.5242 185.866C97.8042 185.866 97.1742 185.746 96.6342 185.506C96.0942 185.254 95.6742 184.912 95.3742 184.48C95.0862 184.036 94.9422 183.538 94.9422 182.986C94.9422 182.446 95.0682 181.96 95.3202 181.528C95.5842 181.096 96.0102 180.754 96.5982 180.502C97.1862 180.25 97.9662 180.124 98.9382 180.124H101.728V181.618H99.1002C98.3322 181.618 97.8162 181.744 97.5522 181.996C97.2882 182.236 97.1562 182.536 97.1562 182.896C97.1562 183.304 97.3182 183.628 97.6422 183.868C97.9662 184.108 98.4162 184.228 98.9922 184.228C99.5442 184.228 100.036 184.102 100.468 183.85C100.912 183.598 101.23 183.226 101.422 182.734L101.8 184.084C101.584 184.648 101.194 185.086 100.63 185.398C100.078 185.71 99.3762 185.866 98.5242 185.866ZM116.988 176.02C117.756 176.02 118.44 176.17 119.04 176.47C119.652 176.77 120.132 177.232 120.48 177.856C120.828 178.468 121.002 179.26 121.002 180.232V185.74H118.752V180.52C118.752 179.668 118.548 179.032 118.14 178.612C117.744 178.192 117.186 177.982 116.466 177.982C115.938 177.982 115.47 178.09 115.062 178.306C114.654 178.522 114.336 178.846 114.108 179.278C113.892 179.698 113.784 180.232 113.784 180.88V185.74H111.534V176.128H113.676V178.72L113.298 177.928C113.634 177.316 114.12 176.848 114.756 176.524C115.404 176.188 116.148 176.02 116.988 176.02ZM128.392 185.866C127.324 185.866 126.388 185.656 125.584 185.236C124.792 184.804 124.174 184.216 123.73 183.472C123.298 182.728 123.082 181.882 123.082 180.934C123.082 179.974 123.292 179.128 123.712 178.396C124.144 177.652 124.732 177.07 125.476 176.65C126.232 176.23 127.09 176.02 128.05 176.02C128.986 176.02 129.82 176.224 130.552 176.632C131.284 177.04 131.86 177.616 132.28 178.36C132.7 179.104 132.91 179.98 132.91 180.988C132.91 181.084 132.904 181.192 132.892 181.312C132.892 181.432 132.886 181.546 132.874 181.654H124.864V180.16H131.686L130.804 180.628C130.816 180.076 130.702 179.59 130.462 179.17C130.222 178.75 129.892 178.42 129.472 178.18C129.064 177.94 128.59 177.82 128.05 177.82C127.498 177.82 127.012 177.94 126.592 178.18C126.184 178.42 125.86 178.756 125.62 179.188C125.392 179.608 125.278 180.106 125.278 180.682V181.042C125.278 181.618 125.41 182.128 125.674 182.572C125.938 183.016 126.31 183.358 126.79 183.598C127.27 183.838 127.822 183.958 128.446 183.958C128.986 183.958 129.472 183.874 129.904 183.706C130.336 183.538 130.72 183.274 131.056 182.914L132.262 184.3C131.83 184.804 131.284 185.194 130.624 185.47C129.976 185.734 129.232 185.866 128.392 185.866ZM137.02 185.74L133.492 176.128H135.616L138.64 184.606H137.632L140.8 176.128H142.69L145.768 184.606H144.778L147.892 176.128H149.89L146.344 185.74H144.184L141.376 178.234H142.042L139.18 185.74H137.02ZM168.543 176.02C169.311 176.02 169.989 176.17 170.577 176.47C171.177 176.77 171.645 177.232 171.981 177.856C172.317 178.468 172.485 179.26 172.485 180.232V185.74H170.235V180.52C170.235 179.668 170.049 179.032 169.677 178.612C169.305 178.192 168.771 177.982 168.075 177.982C167.583 177.982 167.145 178.09 166.761 178.306C166.389 178.522 166.095 178.84 165.879 179.26C165.675 179.68 165.573 180.214 165.573 180.862V185.74H163.323V180.52C163.323 179.668 163.137 179.032 162.765 178.612C162.393 178.192 161.859 177.982 161.163 177.982C160.671 177.982 160.233 178.09 159.849 178.306C159.477 178.522 159.183 178.84 158.967 179.26C158.763 179.68 158.661 180.214 158.661 180.862V185.74H156.411V176.128H158.553V178.684L158.175 177.928C158.499 177.304 158.967 176.83 159.579 176.506C160.203 176.182 160.911 176.02 161.703 176.02C162.603 176.02 163.383 176.242 164.043 176.686C164.715 177.13 165.159 177.802 165.375 178.702L164.493 178.396C164.805 177.676 165.321 177.1 166.041 176.668C166.761 176.236 167.595 176.02 168.543 176.02ZM179.698 185.866C178.714 185.866 177.838 185.656 177.07 185.236C176.302 184.804 175.696 184.216 175.252 183.472C174.808 182.728 174.586 181.882 174.586 180.934C174.586 179.974 174.808 179.128 175.252 178.396C175.696 177.652 176.302 177.07 177.07 176.65C177.838 176.23 178.714 176.02 179.698 176.02C180.694 176.02 181.576 176.23 182.344 176.65C183.124 177.07 183.73 177.646 184.162 178.378C184.606 179.11 184.828 179.962 184.828 180.934C184.828 181.882 184.606 182.728 184.162 183.472C183.73 184.216 183.124 184.804 182.344 185.236C181.576 185.656 180.694 185.866 179.698 185.866ZM179.698 183.94C180.25 183.94 180.742 183.82 181.174 183.58C181.606 183.34 181.942 182.992 182.182 182.536C182.434 182.08 182.56 181.546 182.56 180.934C182.56 180.31 182.434 179.776 182.182 179.332C181.942 178.876 181.606 178.528 181.174 178.288C180.742 178.048 180.256 177.928 179.716 177.928C179.164 177.928 178.672 178.048 178.24 178.288C177.82 178.528 177.484 178.876 177.232 179.332C176.98 179.776 176.854 180.31 176.854 180.934C176.854 181.546 176.98 182.08 177.232 182.536C177.484 182.992 177.82 183.34 178.24 183.58C178.672 183.82 179.158 183.94 179.698 183.94ZM191.048 185.866C190.124 185.866 189.29 185.662 188.546 185.254C187.814 184.834 187.238 184.258 186.818 183.526C186.398 182.794 186.188 181.93 186.188 180.934C186.188 179.938 186.398 179.074 186.818 178.342C187.238 177.61 187.814 177.04 188.546 176.632C189.29 176.224 190.124 176.02 191.048 176.02C191.852 176.02 192.572 176.2 193.208 176.56C193.844 176.908 194.348 177.442 194.72 178.162C195.092 178.882 195.278 179.806 195.278 180.934C195.278 182.05 195.098 182.974 194.738 183.706C194.378 184.426 193.88 184.966 193.244 185.326C192.608 185.686 191.876 185.866 191.048 185.866ZM191.318 183.94C191.858 183.94 192.338 183.82 192.758 183.58C193.19 183.34 193.532 182.992 193.784 182.536C194.048 182.08 194.18 181.546 194.18 180.934C194.18 180.31 194.048 179.776 193.784 179.332C193.532 178.876 193.19 178.528 192.758 178.288C192.338 178.048 191.858 177.928 191.318 177.928C190.778 177.928 190.292 178.048 189.86 178.288C189.44 178.528 189.098 178.876 188.834 179.332C188.582 179.776 188.456 180.31 188.456 180.934C188.456 181.546 188.582 182.08 188.834 182.536C189.098 182.992 189.44 183.34 189.86 183.58C190.292 183.82 190.778 183.94 191.318 183.94ZM194.234 185.74V183.472L194.324 180.916L194.144 178.36V172.384H196.376V185.74H194.234ZM203.855 185.866C202.787 185.866 201.851 185.656 201.047 185.236C200.255 184.804 199.637 184.216 199.193 183.472C198.761 182.728 198.545 181.882 198.545 180.934C198.545 179.974 198.755 179.128 199.175 178.396C199.607 177.652 200.195 177.07 200.939 176.65C201.695 176.23 202.553 176.02 203.513 176.02C204.449 176.02 205.283 176.224 206.015 176.632C206.747 177.04 207.323 177.616 207.743 178.36C208.163 179.104 208.373 179.98 208.373 180.988C208.373 181.084 208.367 181.192 208.355 181.312C208.355 181.432 208.349 181.546 208.337 181.654H200.327V180.16H207.149L206.267 180.628C206.279 180.076 206.165 179.59 205.925 179.17C205.685 178.75 205.355 178.42 204.935 178.18C204.527 177.94 204.053 177.82 203.513 177.82C202.961 177.82 202.475 177.94 202.055 178.18C201.647 178.42 201.323 178.756 201.083 179.188C200.855 179.608 200.741 180.106 200.741 180.682V181.042C200.741 181.618 200.873 182.128 201.137 182.572C201.401 183.016 201.773 183.358 202.253 183.598C202.733 183.838 203.285 183.958 203.909 183.958C204.449 183.958 204.935 183.874 205.367 183.706C205.799 183.538 206.183 183.274 206.519 182.914L207.725 184.3C207.293 184.804 206.747 185.194 206.087 185.47C205.439 185.734 204.695 185.866 203.855 185.866ZM210.534 185.74V172.384H212.784V185.74H210.534Z" fill="#00403E"></path><path d="M244 256.301C243.07 256.301 242.215 256.148 241.433 255.842C240.651 255.536 239.971 255.111 239.393 254.567C238.815 254.012 238.367 253.366 238.05 252.629C237.732 251.881 237.574 251.065 237.574 250.181C237.574 249.297 237.732 248.487 238.05 247.75C238.367 247.002 238.815 246.356 239.393 245.812C239.971 245.257 240.651 244.826 241.433 244.52C242.215 244.214 243.065 244.061 243.983 244.061C244.912 244.061 245.762 244.214 246.533 244.52C247.315 244.826 247.995 245.251 248.573 245.795C249.151 246.339 249.598 246.985 249.916 247.733C250.233 248.481 250.392 249.297 250.392 250.181C250.392 251.065 250.233 251.881 249.916 252.629C249.598 253.377 249.151 254.023 248.573 254.567C247.995 255.111 247.315 255.536 246.533 255.842C245.762 256.148 244.918 256.301 244 256.301ZM247.876 258.732C247.456 258.732 247.048 258.681 246.652 258.579C246.266 258.489 245.881 258.33 245.496 258.103C245.122 257.888 244.731 257.599 244.323 257.236C243.915 256.885 243.467 256.449 242.98 255.927L245.326 255.315C245.643 255.735 245.943 256.069 246.227 256.318C246.521 256.579 246.805 256.766 247.077 256.879C247.349 256.993 247.632 257.049 247.927 257.049C248.709 257.049 249.389 256.732 249.967 256.097L250.987 257.321C250.193 258.262 249.156 258.732 247.876 258.732ZM243.983 254.363C244.583 254.363 245.139 254.261 245.649 254.057C246.159 253.853 246.601 253.564 246.975 253.19C247.349 252.805 247.638 252.357 247.842 251.847C248.057 251.337 248.165 250.782 248.165 250.181C248.165 249.569 248.057 249.014 247.842 248.515C247.638 248.005 247.349 247.563 246.975 247.189C246.601 246.804 246.159 246.509 245.649 246.305C245.139 246.101 244.583 245.999 243.983 245.999C243.382 245.999 242.827 246.101 242.317 246.305C241.807 246.509 241.365 246.804 240.991 247.189C240.617 247.563 240.322 248.005 240.107 248.515C239.903 249.014 239.801 249.569 239.801 250.181C239.801 250.782 239.903 251.337 240.107 251.847C240.322 252.357 240.617 252.805 240.991 253.19C241.365 253.564 241.807 253.853 242.317 254.057C242.827 254.261 243.382 254.363 243.983 254.363ZM256.372 256.25C255.602 256.25 254.922 256.109 254.332 255.825C253.743 255.531 253.284 255.089 252.955 254.499C252.627 253.899 252.462 253.145 252.462 252.238V247.053H254.587V251.949C254.587 252.765 254.769 253.377 255.131 253.785C255.505 254.182 256.032 254.38 256.712 254.38C257.211 254.38 257.642 254.278 258.004 254.074C258.378 253.87 258.667 253.564 258.871 253.156C259.087 252.748 259.194 252.244 259.194 251.643V247.053H261.319V256.131H259.296V253.683L259.653 254.431C259.347 255.021 258.9 255.474 258.31 255.791C257.721 256.097 257.075 256.25 256.372 256.25ZM269.694 256.131V254.295L269.575 253.904V250.691C269.575 250.068 269.388 249.586 269.014 249.246C268.64 248.895 268.074 248.719 267.314 248.719C266.804 248.719 266.3 248.799 265.801 248.957C265.314 249.116 264.9 249.337 264.56 249.62L263.727 248.073C264.215 247.699 264.793 247.422 265.461 247.24C266.141 247.048 266.844 246.951 267.569 246.951C268.884 246.951 269.898 247.269 270.612 247.903C271.338 248.527 271.7 249.496 271.7 250.81V256.131H269.694ZM266.838 256.25C266.158 256.25 265.563 256.137 265.053 255.91C264.543 255.672 264.147 255.349 263.863 254.941C263.591 254.522 263.455 254.052 263.455 253.53C263.455 253.02 263.574 252.561 263.812 252.153C264.062 251.745 264.464 251.422 265.019 251.184C265.575 250.946 266.311 250.827 267.229 250.827H269.864V252.238H267.382C266.657 252.238 266.17 252.357 265.92 252.595C265.671 252.822 265.546 253.105 265.546 253.445C265.546 253.831 265.699 254.137 266.005 254.363C266.311 254.59 266.736 254.703 267.28 254.703C267.802 254.703 268.266 254.584 268.674 254.346C269.094 254.108 269.394 253.757 269.575 253.292L269.932 254.567C269.728 255.1 269.36 255.514 268.827 255.808C268.306 256.103 267.643 256.25 266.838 256.25ZM274.428 256.131V247.053H276.451V249.552L276.213 248.821C276.485 248.209 276.91 247.745 277.488 247.427C278.077 247.11 278.808 246.951 279.681 246.951V248.974C279.59 248.952 279.505 248.94 279.426 248.94C279.346 248.929 279.267 248.923 279.188 248.923C278.383 248.923 277.743 249.161 277.267 249.637C276.791 250.102 276.553 250.799 276.553 251.728V256.131H274.428ZM285.232 256.25C284.235 256.25 283.464 255.995 282.92 255.485C282.376 254.964 282.104 254.199 282.104 253.19V245.047H284.229V253.139C284.229 253.57 284.337 253.904 284.552 254.142C284.779 254.38 285.091 254.499 285.487 254.499C285.963 254.499 286.36 254.375 286.677 254.125L287.272 255.638C287.023 255.842 286.717 255.995 286.354 256.097C285.992 256.199 285.618 256.25 285.232 256.25ZM280.608 248.821V247.121H286.66V248.821H280.608ZM292.989 256.25C291.98 256.25 291.096 256.052 290.337 255.655C289.589 255.247 289.005 254.692 288.586 253.989C288.178 253.287 287.974 252.488 287.974 251.592C287.974 250.686 288.172 249.887 288.569 249.195C288.977 248.493 289.532 247.943 290.235 247.546C290.949 247.15 291.759 246.951 292.666 246.951C293.55 246.951 294.337 247.144 295.029 247.529C295.72 247.915 296.264 248.459 296.661 249.161C297.057 249.864 297.256 250.691 297.256 251.643C297.256 251.734 297.25 251.836 297.239 251.949C297.239 252.063 297.233 252.17 297.222 252.272H289.657V250.861H296.1L295.267 251.303C295.278 250.782 295.17 250.323 294.944 249.926C294.717 249.53 294.405 249.218 294.009 248.991C293.623 248.765 293.176 248.651 292.666 248.651C292.144 248.651 291.685 248.765 291.289 248.991C290.903 249.218 290.597 249.535 290.371 249.943C290.155 250.34 290.048 250.81 290.048 251.354V251.694C290.048 252.238 290.172 252.72 290.422 253.139C290.671 253.559 291.022 253.882 291.476 254.108C291.929 254.335 292.45 254.448 293.04 254.448C293.55 254.448 294.009 254.369 294.417 254.21C294.825 254.052 295.187 253.802 295.505 253.462L296.644 254.771C296.236 255.247 295.72 255.616 295.097 255.876C294.485 256.126 293.782 256.25 292.989 256.25ZM299.297 256.131V247.053H301.32V249.552L301.082 248.821C301.354 248.209 301.779 247.745 302.357 247.427C302.946 247.11 303.677 246.951 304.55 246.951V248.974C304.459 248.952 304.374 248.94 304.295 248.94C304.215 248.929 304.136 248.923 304.057 248.923C303.252 248.923 302.612 249.161 302.136 249.637C301.66 250.102 301.422 250.799 301.422 251.728V256.131H299.297ZM306.352 256.131V243.517H308.477V256.131H306.352ZM312.014 259.548C311.572 259.548 311.13 259.475 310.688 259.327C310.246 259.18 309.878 258.976 309.583 258.715L310.433 257.151C310.649 257.344 310.892 257.497 311.164 257.61C311.436 257.724 311.714 257.78 311.997 257.78C312.383 257.78 312.694 257.684 312.932 257.491C313.17 257.299 313.391 256.976 313.595 256.522L314.122 255.332L314.292 255.077L317.726 247.053H319.766L315.516 256.862C315.233 257.542 314.916 258.081 314.564 258.477C314.224 258.874 313.839 259.152 313.408 259.31C312.989 259.469 312.524 259.548 312.014 259.548ZM313.884 256.454L309.787 247.053H311.997L315.329 254.89L313.884 256.454ZM329.873 256.25C328.944 256.25 328.116 256.052 327.391 255.655C326.666 255.247 326.093 254.692 325.674 253.989C325.255 253.287 325.045 252.488 325.045 251.592C325.045 250.686 325.255 249.887 325.674 249.195C326.093 248.493 326.666 247.943 327.391 247.546C328.116 247.15 328.944 246.951 329.873 246.951C330.814 246.951 331.647 247.15 332.372 247.546C333.109 247.943 333.681 248.487 334.089 249.178C334.508 249.87 334.718 250.674 334.718 251.592C334.718 252.488 334.508 253.287 334.089 253.989C333.681 254.692 333.109 255.247 332.372 255.655C331.647 256.052 330.814 256.25 329.873 256.25ZM329.873 254.431C330.394 254.431 330.859 254.318 331.267 254.091C331.675 253.865 331.992 253.536 332.219 253.105C332.457 252.675 332.576 252.17 332.576 251.592C332.576 251.003 332.457 250.499 332.219 250.079C331.992 249.649 331.675 249.32 331.267 249.093C330.859 248.867 330.4 248.753 329.89 248.753C329.369 248.753 328.904 248.867 328.496 249.093C328.099 249.32 327.782 249.649 327.544 250.079C327.306 250.499 327.187 251.003 327.187 251.592C327.187 252.17 327.306 252.675 327.544 253.105C327.782 253.536 328.099 253.865 328.496 254.091C328.904 254.318 329.363 254.431 329.873 254.431ZM341.901 246.951C342.626 246.951 343.272 247.093 343.839 247.376C344.417 247.66 344.87 248.096 345.199 248.685C345.528 249.263 345.692 250.011 345.692 250.929V256.131H343.567V251.201C343.567 250.397 343.374 249.796 342.989 249.399C342.615 249.003 342.088 248.804 341.408 248.804C340.909 248.804 340.467 248.906 340.082 249.11C339.697 249.314 339.396 249.62 339.181 250.028C338.977 250.425 338.875 250.929 338.875 251.541V256.131H336.75V247.053H338.773V249.501L338.416 248.753C338.733 248.175 339.192 247.733 339.793 247.427C340.405 247.11 341.108 246.951 341.901 246.951ZM358.679 256.131V254.295L358.56 253.904V250.691C358.56 250.068 358.373 249.586 357.999 249.246C357.625 248.895 357.058 248.719 356.299 248.719C355.789 248.719 355.285 248.799 354.786 248.957C354.299 249.116 353.885 249.337 353.545 249.62L352.712 248.073C353.199 247.699 353.777 247.422 354.446 247.24C355.126 247.048 355.829 246.951 356.554 246.951C357.869 246.951 358.883 247.269 359.597 247.903C360.322 248.527 360.685 249.496 360.685 250.81V256.131H358.679ZM355.823 256.25C355.143 256.25 354.548 256.137 354.038 255.91C353.528 255.672 353.131 255.349 352.848 254.941C352.576 254.522 352.44 254.052 352.44 253.53C352.44 253.02 352.559 252.561 352.797 252.153C353.046 251.745 353.449 251.422 354.004 251.184C354.559 250.946 355.296 250.827 356.214 250.827H358.849V252.238H356.367C355.642 252.238 355.154 252.357 354.905 252.595C354.656 252.822 354.531 253.105 354.531 253.445C354.531 253.831 354.684 254.137 354.99 254.363C355.296 254.59 355.721 254.703 356.265 254.703C356.786 254.703 357.251 254.584 357.659 254.346C358.078 254.108 358.379 253.757 358.56 253.292L358.917 254.567C358.713 255.1 358.345 255.514 357.812 255.808C357.291 256.103 356.628 256.25 355.823 256.25ZM363.412 256.131V243.517H365.537V256.131H363.412ZM368.326 256.131V243.517H370.451V256.131H368.326ZM284.798 269.951C285.524 269.951 286.164 270.093 286.719 270.376C287.286 270.66 287.728 271.096 288.045 271.685C288.363 272.263 288.521 273.011 288.521 273.929V279.131H286.396V274.201C286.396 273.397 286.221 272.796 285.869 272.399C285.518 272.003 285.014 271.804 284.356 271.804C283.892 271.804 283.478 271.906 283.115 272.11C282.764 272.314 282.486 272.615 282.282 273.011C282.09 273.408 281.993 273.912 281.993 274.524V279.131H279.868V274.201C279.868 273.397 279.693 272.796 279.341 272.399C278.99 272.003 278.486 271.804 277.828 271.804C277.364 271.804 276.95 271.906 276.587 272.11C276.236 272.314 275.958 272.615 275.754 273.011C275.562 273.408 275.465 273.912 275.465 274.524V279.131H273.34V270.053H275.363V272.467L275.006 271.753C275.312 271.164 275.754 270.716 276.332 270.41C276.922 270.104 277.59 269.951 278.338 269.951C279.188 269.951 279.925 270.161 280.548 270.58C281.183 271 281.602 271.634 281.806 272.484L280.973 272.195C281.268 271.515 281.755 270.971 282.435 270.563C283.115 270.155 283.903 269.951 284.798 269.951ZM295.333 279.25C294.404 279.25 293.577 279.052 292.851 278.655C292.126 278.247 291.554 277.692 291.134 276.989C290.715 276.287 290.505 275.488 290.505 274.592C290.505 273.686 290.715 272.887 291.134 272.195C291.554 271.493 292.126 270.943 292.851 270.546C293.577 270.15 294.404 269.951 295.333 269.951C296.274 269.951 297.107 270.15 297.832 270.546C298.569 270.943 299.141 271.487 299.549 272.178C299.969 272.87 300.178 273.674 300.178 274.592C300.178 275.488 299.969 276.287 299.549 276.989C299.141 277.692 298.569 278.247 297.832 278.655C297.107 279.052 296.274 279.25 295.333 279.25ZM295.333 277.431C295.855 277.431 296.319 277.318 296.727 277.091C297.135 276.865 297.453 276.536 297.679 276.105C297.917 275.675 298.036 275.17 298.036 274.592C298.036 274.003 297.917 273.499 297.679 273.079C297.453 272.649 297.135 272.32 296.727 272.093C296.319 271.867 295.86 271.753 295.35 271.753C294.829 271.753 294.364 271.867 293.956 272.093C293.56 272.32 293.242 272.649 293.004 273.079C292.766 273.499 292.647 274.003 292.647 274.592C292.647 275.17 292.766 275.675 293.004 276.105C293.242 276.536 293.56 276.865 293.956 277.091C294.364 277.318 294.823 277.431 295.333 277.431ZM306.052 279.25C305.18 279.25 304.392 279.058 303.689 278.672C302.998 278.276 302.454 277.732 302.057 277.04C301.661 276.349 301.462 275.533 301.462 274.592C301.462 273.652 301.661 272.836 302.057 272.144C302.454 271.453 302.998 270.915 303.689 270.529C304.392 270.144 305.18 269.951 306.052 269.951C306.812 269.951 307.492 270.121 308.092 270.461C308.693 270.79 309.169 271.294 309.52 271.974C309.872 272.654 310.047 273.527 310.047 274.592C310.047 275.646 309.877 276.519 309.537 277.21C309.197 277.89 308.727 278.4 308.126 278.74C307.526 279.08 306.834 279.25 306.052 279.25ZM306.307 277.431C306.817 277.431 307.271 277.318 307.667 277.091C308.075 276.865 308.398 276.536 308.636 276.105C308.886 275.675 309.01 275.17 309.01 274.592C309.01 274.003 308.886 273.499 308.636 273.079C308.398 272.649 308.075 272.32 307.667 272.093C307.271 271.867 306.817 271.753 306.307 271.753C305.797 271.753 305.338 271.867 304.93 272.093C304.534 272.32 304.211 272.649 303.961 273.079C303.723 273.499 303.604 274.003 303.604 274.592C303.604 275.17 303.723 275.675 303.961 276.105C304.211 276.536 304.534 276.865 304.93 277.091C305.338 277.318 305.797 277.431 306.307 277.431ZM309.061 279.131V276.989L309.146 274.575L308.976 272.161V266.517H311.084V279.131H309.061ZM318.148 279.25C317.14 279.25 316.256 279.052 315.496 278.655C314.748 278.247 314.165 277.692 313.745 276.989C313.337 276.287 313.133 275.488 313.133 274.592C313.133 273.686 313.332 272.887 313.728 272.195C314.136 271.493 314.692 270.943 315.394 270.546C316.108 270.15 316.919 269.951 317.825 269.951C318.709 269.951 319.497 270.144 320.188 270.529C320.88 270.915 321.424 271.459 321.82 272.161C322.217 272.864 322.415 273.691 322.415 274.643C322.415 274.734 322.41 274.836 322.398 274.949C322.398 275.063 322.393 275.17 322.381 275.272H314.816V273.861H321.259L320.426 274.303C320.438 273.782 320.33 273.323 320.103 272.926C319.877 272.53 319.565 272.218 319.168 271.991C318.783 271.765 318.335 271.651 317.825 271.651C317.304 271.651 316.845 271.765 316.448 271.991C316.063 272.218 315.757 272.535 315.53 272.943C315.315 273.34 315.207 273.81 315.207 274.354V274.694C315.207 275.238 315.332 275.72 315.581 276.139C315.831 276.559 316.182 276.882 316.635 277.108C317.089 277.335 317.61 277.448 318.199 277.448C318.709 277.448 319.168 277.369 319.576 277.21C319.984 277.052 320.347 276.802 320.664 276.462L321.803 277.771C321.395 278.247 320.88 278.616 320.256 278.876C319.644 279.126 318.942 279.25 318.148 279.25ZM324.456 279.131V266.517H326.581V279.131H324.456ZM332.176 279.25C331.416 279.25 330.685 279.154 329.983 278.961C329.291 278.757 328.742 278.514 328.334 278.23L329.15 276.615C329.558 276.876 330.045 277.091 330.612 277.261C331.178 277.431 331.745 277.516 332.312 277.516C332.98 277.516 333.462 277.426 333.757 277.244C334.063 277.063 334.216 276.819 334.216 276.513C334.216 276.264 334.114 276.077 333.91 275.952C333.706 275.816 333.439 275.714 333.111 275.646C332.782 275.578 332.414 275.516 332.006 275.459C331.609 275.403 331.207 275.329 330.799 275.238C330.402 275.136 330.039 274.995 329.711 274.813C329.382 274.621 329.116 274.366 328.912 274.048C328.708 273.731 328.606 273.312 328.606 272.79C328.606 272.212 328.77 271.714 329.099 271.294C329.427 270.864 329.886 270.535 330.476 270.308C331.076 270.07 331.785 269.951 332.601 269.951C333.213 269.951 333.83 270.019 334.454 270.155C335.077 270.291 335.593 270.484 336.001 270.733L335.185 272.348C334.754 272.088 334.318 271.912 333.876 271.821C333.445 271.719 333.014 271.668 332.584 271.668C331.938 271.668 331.456 271.765 331.139 271.957C330.833 272.15 330.68 272.394 330.68 272.688C330.68 272.96 330.782 273.164 330.986 273.3C331.19 273.436 331.456 273.544 331.785 273.623C332.113 273.703 332.476 273.771 332.873 273.827C333.281 273.873 333.683 273.946 334.08 274.048C334.476 274.15 334.839 274.292 335.168 274.473C335.508 274.643 335.78 274.887 335.984 275.204C336.188 275.522 336.29 275.935 336.29 276.445C336.29 277.012 336.12 277.505 335.78 277.924C335.451 278.344 334.981 278.672 334.369 278.91C333.757 279.137 333.026 279.25 332.176 279.25Z" fill="#00403E"></path><path d="M253.488 65.6339H259.404V67.4529H253.488V65.6339ZM253.658 70.7339H260.373V72.5869H251.448V60.6869H260.135V62.5399H253.658V70.7339ZM264.93 72.5869L261.037 63.5089H263.247L266.596 71.5159H265.508L268.976 63.5089H271.016L267.123 72.5869H264.93ZM276.363 72.7059C275.354 72.7059 274.47 72.5076 273.711 72.1109C272.963 71.7029 272.379 71.1476 271.96 70.4449C271.552 69.7422 271.348 68.9432 271.348 68.0479C271.348 67.1412 271.546 66.3422 271.943 65.6509C272.351 64.9482 272.906 64.3986 273.609 64.0019C274.323 63.6052 275.133 63.4069 276.04 63.4069C276.924 63.4069 277.711 63.5996 278.403 63.9849C279.094 64.3702 279.638 64.9142 280.035 65.6169C280.431 66.3196 280.63 67.1469 280.63 68.0989C280.63 68.1896 280.624 68.2916 280.613 68.4049C280.613 68.5182 280.607 68.6259 280.596 68.7279H273.031V67.3169H279.474L278.641 67.7589C278.652 67.2376 278.544 66.7786 278.318 66.3819C278.091 65.9852 277.779 65.6736 277.383 65.4469C276.997 65.2202 276.55 65.1069 276.04 65.1069C275.518 65.1069 275.059 65.2202 274.663 65.4469C274.277 65.6736 273.971 65.9909 273.745 66.3989C273.529 66.7956 273.422 67.2659 273.422 67.8099V68.1499C273.422 68.6939 273.546 69.1756 273.796 69.5949C274.045 70.0142 274.396 70.3372 274.85 70.5639C275.303 70.7906 275.824 70.9039 276.414 70.9039C276.924 70.9039 277.383 70.8246 277.791 70.6659C278.199 70.5072 278.561 70.2579 278.879 69.9179L280.018 71.2269C279.61 71.7029 279.094 72.0712 278.471 72.3319C277.859 72.5812 277.156 72.7059 276.363 72.7059ZM282.671 72.5869V63.5089H284.694V66.0079L284.456 65.2769C284.728 64.6649 285.153 64.2002 285.731 63.8829C286.32 63.5656 287.051 63.4069 287.924 63.4069V65.4299C287.833 65.4072 287.748 65.3959 287.669 65.3959C287.589 65.3846 287.51 65.3789 287.431 65.3789C286.626 65.3789 285.986 65.6169 285.51 66.0929C285.034 66.5576 284.796 67.2546 284.796 68.1839V72.5869H282.671ZM290.806 76.0039C290.364 76.0039 289.922 75.9302 289.48 75.7829C289.038 75.6356 288.67 75.4316 288.375 75.1709L289.225 73.6069C289.441 73.7996 289.684 73.9526 289.956 74.0659C290.228 74.1792 290.506 74.2359 290.789 74.2359C291.175 74.2359 291.486 74.1396 291.724 73.9469C291.962 73.7542 292.183 73.4312 292.387 72.9779L292.914 71.7879L293.084 71.5329L296.518 63.5089H298.558L294.308 73.3179C294.025 73.9979 293.708 74.5362 293.356 74.9329C293.016 75.3296 292.631 75.6072 292.2 75.7659C291.781 75.9246 291.316 76.0039 290.806 76.0039ZM292.676 72.9099L288.579 63.5089H290.789L294.121 71.3459L292.676 72.9099ZM308.002 72.7059C307.005 72.7059 306.234 72.4509 305.69 71.9409C305.146 71.4196 304.874 70.6546 304.874 69.6459V61.5029H306.999V69.5949C306.999 70.0256 307.107 70.3599 307.322 70.5979C307.549 70.8359 307.86 70.9549 308.257 70.9549C308.733 70.9549 309.13 70.8302 309.447 70.5809L310.042 72.0939C309.793 72.2979 309.487 72.4509 309.124 72.5529C308.761 72.6549 308.387 72.7059 308.002 72.7059ZM303.378 65.2769V63.5769H309.43V65.2769H303.378ZM311.79 72.5869V63.5089H313.915V72.5869H311.79ZM312.861 62.0129C312.464 62.0129 312.136 61.8882 311.875 61.6389C311.626 61.3896 311.501 61.0892 311.501 60.7379C311.501 60.3752 311.626 60.0749 311.875 59.8369C312.136 59.5876 312.464 59.4629 312.861 59.4629C313.258 59.4629 313.581 59.5819 313.83 59.8199C314.091 60.0466 314.221 60.3356 314.221 60.6869C314.221 61.0609 314.096 61.3782 313.847 61.6389C313.598 61.8882 313.269 62.0129 312.861 62.0129ZM328.162 63.4069C328.887 63.4069 329.528 63.5486 330.083 63.8319C330.65 64.1152 331.092 64.5516 331.409 65.1409C331.726 65.7189 331.885 66.4669 331.885 67.3849V72.5869H329.76V67.6569C329.76 66.8522 329.584 66.2516 329.233 65.8549C328.882 65.4582 328.377 65.2599 327.72 65.2599C327.255 65.2599 326.842 65.3619 326.479 65.5659C326.128 65.7699 325.85 66.0702 325.646 66.4669C325.453 66.8636 325.357 67.3679 325.357 67.9799V72.5869H323.232V67.6569C323.232 66.8522 323.056 66.2516 322.705 65.8549C322.354 65.4582 321.849 65.2599 321.192 65.2599C320.727 65.2599 320.314 65.3619 319.951 65.5659C319.6 65.7699 319.322 66.0702 319.118 66.4669C318.925 66.8636 318.829 67.3679 318.829 67.9799V72.5869H316.704V63.5089H318.727V65.9229L318.37 65.2089C318.676 64.6196 319.118 64.1719 319.696 63.8659C320.285 63.5599 320.954 63.4069 321.702 63.4069C322.552 63.4069 323.289 63.6166 323.912 64.0359C324.547 64.4552 324.966 65.0899 325.17 65.9399L324.337 65.6509C324.632 64.9709 325.119 64.4269 325.799 64.0189C326.479 63.6109 327.267 63.4069 328.162 63.4069ZM338.884 72.7059C337.875 72.7059 336.991 72.5076 336.232 72.1109C335.484 71.7029 334.9 71.1476 334.481 70.4449C334.073 69.7422 333.869 68.9432 333.869 68.0479C333.869 67.1412 334.067 66.3422 334.464 65.6509C334.872 64.9482 335.427 64.3986 336.13 64.0019C336.844 63.6052 337.654 63.4069 338.561 63.4069C339.445 63.4069 340.233 63.5996 340.924 63.9849C341.615 64.3702 342.159 64.9142 342.556 65.6169C342.953 66.3196 343.151 67.1469 343.151 68.0989C343.151 68.1896 343.145 68.2916 343.134 68.4049C343.134 68.5182 343.128 68.6259 343.117 68.7279H335.552V67.3169H341.995L341.162 67.7589C341.173 67.2376 341.066 66.7786 340.839 66.3819C340.612 65.9852 340.301 65.6736 339.904 65.4469C339.519 65.2202 339.071 65.1069 338.561 65.1069C338.04 65.1069 337.581 65.2202 337.184 65.4469C336.799 65.6736 336.493 65.9909 336.266 66.3989C336.051 66.7956 335.943 67.2659 335.943 67.8099V68.1499C335.943 68.6939 336.068 69.1756 336.317 69.5949C336.566 70.0142 336.918 70.3372 337.371 70.5639C337.824 70.7906 338.346 70.9039 338.935 70.9039C339.445 70.9039 339.904 70.8246 340.312 70.6659C340.72 70.5072 341.083 70.2579 341.4 69.9179L342.539 71.2269C342.131 71.7029 341.615 72.0712 340.992 72.3319C340.38 72.5812 339.677 72.7059 338.884 72.7059ZM355.484 72.5869V70.7509L355.365 70.3599V67.1469C355.365 66.5236 355.178 66.0419 354.804 65.7019C354.43 65.3506 353.863 65.1749 353.104 65.1749C352.594 65.1749 352.089 65.2542 351.591 65.4129C351.103 65.5716 350.69 65.7926 350.35 66.0759L349.517 64.5289C350.004 64.1549 350.582 63.8772 351.251 63.6959C351.931 63.5032 352.633 63.4069 353.359 63.4069C354.673 63.4069 355.688 63.7242 356.402 64.3589C357.127 64.9822 357.49 65.9512 357.49 67.2659V72.5869H355.484ZM352.628 72.7059C351.948 72.7059 351.353 72.5926 350.843 72.3659C350.333 72.1279 349.936 71.8049 349.653 71.3969C349.381 70.9776 349.245 70.5072 349.245 69.9859C349.245 69.4759 349.364 69.0169 349.602 68.6089C349.851 68.2009 350.253 67.8779 350.809 67.6399C351.364 67.4019 352.101 67.2829 353.019 67.2829H355.654V68.6939H353.172C352.446 68.6939 351.959 68.8129 351.71 69.0509C351.46 69.2776 351.336 69.5609 351.336 69.9009C351.336 70.2862 351.489 70.5922 351.795 70.8189C352.101 71.0456 352.526 71.1589 353.07 71.1589C353.591 71.1589 354.056 71.0399 354.464 70.8019C354.883 70.5639 355.183 70.2126 355.365 69.7479L355.722 71.0229C355.518 71.5556 355.149 71.9692 354.617 72.2639C354.095 72.5586 353.432 72.7059 352.628 72.7059ZM240.456 84.4069C241.181 84.4069 241.822 84.5486 242.377 84.8319C242.944 85.1152 243.386 85.5516 243.703 86.1409C244.02 86.7189 244.179 87.4669 244.179 88.3849V93.5869H242.054V88.6569C242.054 87.8522 241.878 87.2516 241.527 86.8549C241.176 86.4582 240.671 86.2599 240.014 86.2599C239.549 86.2599 239.136 86.3619 238.773 86.5659C238.422 86.7699 238.144 87.0702 237.94 87.4669C237.747 87.8636 237.651 88.3679 237.651 88.9799V93.5869H235.526V88.6569C235.526 87.8522 235.35 87.2516 234.999 86.8549C234.648 86.4582 234.143 86.2599 233.486 86.2599C233.021 86.2599 232.608 86.3619 232.245 86.5659C231.894 86.7699 231.616 87.0702 231.412 87.4669C231.219 87.8636 231.123 88.3679 231.123 88.9799V93.5869H228.998V84.5089H231.021V86.9229L230.664 86.2089C230.97 85.6196 231.412 85.1719 231.99 84.8659C232.579 84.5599 233.248 84.4069 233.996 84.4069C234.846 84.4069 235.583 84.6166 236.206 85.0359C236.841 85.4552 237.26 86.0899 237.464 86.9399L236.631 86.6509C236.926 85.9709 237.413 85.4269 238.093 85.0189C238.773 84.6109 239.561 84.4069 240.456 84.4069ZM250.991 93.7059C250.062 93.7059 249.234 93.5076 248.509 93.1109C247.784 92.7029 247.211 92.1476 246.792 91.4449C246.373 90.7422 246.163 89.9432 246.163 89.0479C246.163 88.1412 246.373 87.3422 246.792 86.6509C247.211 85.9482 247.784 85.3986 248.509 85.0019C249.234 84.6052 250.062 84.4069 250.991 84.4069C251.932 84.4069 252.765 84.6052 253.49 85.0019C254.227 85.3986 254.799 85.9426 255.207 86.6339C255.626 87.3252 255.836 88.1299 255.836 89.0479C255.836 89.9432 255.626 90.7422 255.207 91.4449C254.799 92.1476 254.227 92.7029 253.49 93.1109C252.765 93.5076 251.932 93.7059 250.991 93.7059ZM250.991 91.8869C251.512 91.8869 251.977 91.7736 252.385 91.5469C252.793 91.3202 253.11 90.9916 253.337 90.5609C253.575 90.1302 253.694 89.6259 253.694 89.0479C253.694 88.4586 253.575 87.9542 253.337 87.5349C253.11 87.1042 252.793 86.7756 252.385 86.5489C251.977 86.3222 251.518 86.2089 251.008 86.2089C250.487 86.2089 250.022 86.3222 249.614 86.5489C249.217 86.7756 248.9 87.1042 248.662 87.5349C248.424 87.9542 248.305 88.4586 248.305 89.0479C248.305 89.6259 248.424 90.1302 248.662 90.5609C248.9 90.9916 249.217 91.3202 249.614 91.5469C250.022 91.7736 250.481 91.8869 250.991 91.8869ZM261.71 93.7059C260.837 93.7059 260.05 93.5132 259.347 93.1279C258.656 92.7312 258.112 92.1872 257.715 91.4959C257.318 90.8046 257.12 89.9886 257.12 89.0479C257.12 88.1072 257.318 87.2912 257.715 86.5999C258.112 85.9086 258.656 85.3702 259.347 84.9849C260.05 84.5996 260.837 84.4069 261.71 84.4069C262.469 84.4069 263.149 84.5769 263.75 84.9169C264.351 85.2456 264.827 85.7499 265.178 86.4299C265.529 87.1099 265.705 87.9826 265.705 89.0479C265.705 90.1019 265.535 90.9746 265.195 91.6659C264.855 92.3459 264.385 92.8559 263.784 93.1959C263.183 93.5359 262.492 93.7059 261.71 93.7059ZM261.965 91.8869C262.475 91.8869 262.928 91.7736 263.325 91.5469C263.733 91.3202 264.056 90.9916 264.294 90.5609C264.543 90.1302 264.668 89.6259 264.668 89.0479C264.668 88.4586 264.543 87.9542 264.294 87.5349C264.056 87.1042 263.733 86.7756 263.325 86.5489C262.928 86.3222 262.475 86.2089 261.965 86.2089C261.455 86.2089 260.996 86.3222 260.588 86.5489C260.191 86.7756 259.868 87.1042 259.619 87.5349C259.381 87.9542 259.262 88.4586 259.262 89.0479C259.262 89.6259 259.381 90.1302 259.619 90.5609C259.868 90.9916 260.191 91.3202 260.588 91.5469C260.996 91.7736 261.455 91.8869 261.965 91.8869ZM264.719 93.5869V91.4449L264.804 89.0309L264.634 86.6169V80.9729H266.742V93.5869H264.719ZM273.806 93.7059C272.797 93.7059 271.913 93.5076 271.154 93.1109C270.406 92.7029 269.822 92.1476 269.403 91.4449C268.995 90.7422 268.791 89.9432 268.791 89.0479C268.791 88.1412 268.989 87.3422 269.386 86.6509C269.794 85.9482 270.349 85.3986 271.052 85.0019C271.766 84.6052 272.576 84.4069 273.483 84.4069C274.367 84.4069 275.155 84.5996 275.846 84.9849C276.537 85.3702 277.081 85.9142 277.478 86.6169C277.875 87.3196 278.073 88.1469 278.073 89.0989C278.073 89.1896 278.067 89.2916 278.056 89.4049C278.056 89.5182 278.05 89.6259 278.039 89.7279H270.474V88.3169H276.917L276.084 88.7589C276.095 88.2376 275.988 87.7786 275.761 87.3819C275.534 86.9852 275.223 86.6736 274.826 86.4469C274.441 86.2202 273.993 86.1069 273.483 86.1069C272.962 86.1069 272.503 86.2202 272.106 86.4469C271.721 86.6736 271.415 86.9909 271.188 87.3989C270.973 87.7956 270.865 88.2659 270.865 88.8099V89.1499C270.865 89.6939 270.99 90.1756 271.239 90.5949C271.488 91.0142 271.84 91.3372 272.293 91.5639C272.746 91.7906 273.268 91.9039 273.857 91.9039C274.367 91.9039 274.826 91.8246 275.234 91.6659C275.642 91.5072 276.005 91.2579 276.322 90.9179L277.461 92.2269C277.053 92.7029 276.537 93.0712 275.914 93.3319C275.302 93.5812 274.599 93.7059 273.806 93.7059ZM280.114 93.5869V80.9729H282.239V93.5869H280.114ZM289.726 93.5869V84.5089H291.851V93.5869H289.726ZM290.797 83.0129C290.401 83.0129 290.072 82.8882 289.811 82.6389C289.562 82.3896 289.437 82.0892 289.437 81.7379C289.437 81.3752 289.562 81.0749 289.811 80.8369C290.072 80.5876 290.401 80.4629 290.797 80.4629C291.194 80.4629 291.517 80.5819 291.766 80.8199C292.027 81.0466 292.157 81.3356 292.157 81.6869C292.157 82.0609 292.033 82.3782 291.783 82.6389C291.534 82.8882 291.205 83.0129 290.797 83.0129ZM297.446 93.7059C296.686 93.7059 295.955 93.6096 295.253 93.4169C294.561 93.2129 294.012 92.9692 293.604 92.6859L294.42 91.0709C294.828 91.3316 295.315 91.5469 295.882 91.7169C296.448 91.8869 297.015 91.9719 297.582 91.9719C298.25 91.9719 298.732 91.8812 299.027 91.6999C299.333 91.5186 299.486 91.2749 299.486 90.9689C299.486 90.7196 299.384 90.5326 299.18 90.4079C298.976 90.2719 298.709 90.1699 298.381 90.1019C298.052 90.0339 297.684 89.9716 297.276 89.9149C296.879 89.8582 296.477 89.7846 296.069 89.6939C295.672 89.5919 295.309 89.4502 294.981 89.2689C294.652 89.0762 294.386 88.8212 294.182 88.5039C293.978 88.1866 293.876 87.7672 293.876 87.2459C293.876 86.6679 294.04 86.1692 294.369 85.7499C294.697 85.3192 295.156 84.9906 295.746 84.7639C296.346 84.5259 297.055 84.4069 297.871 84.4069C298.483 84.4069 299.1 84.4749 299.724 84.6109C300.347 84.7469 300.863 84.9396 301.271 85.1889L300.455 86.8039C300.024 86.5432 299.588 86.3676 299.146 86.2769C298.715 86.1749 298.284 86.1239 297.854 86.1239C297.208 86.1239 296.726 86.2202 296.409 86.4129C296.103 86.6056 295.95 86.8492 295.95 87.1439C295.95 87.4159 296.052 87.6199 296.256 87.7559C296.46 87.8919 296.726 87.9996 297.055 88.0789C297.383 88.1582 297.746 88.2262 298.143 88.2829C298.551 88.3282 298.953 88.4019 299.35 88.5039C299.746 88.6059 300.109 88.7476 300.438 88.9289C300.778 89.0989 301.05 89.3426 301.254 89.6599C301.458 89.9772 301.56 90.3909 301.56 90.9009C301.56 91.4676 301.39 91.9606 301.05 92.3799C300.721 92.7992 300.251 93.1279 299.639 93.3659C299.027 93.5926 298.296 93.7059 297.446 93.7059ZM311.93 93.7059C311.159 93.7059 310.479 93.5642 309.89 93.2809C309.3 92.9862 308.841 92.5442 308.513 91.9549C308.184 91.3542 308.02 90.6006 308.02 89.6939V84.5089H310.145V89.4049C310.145 90.2209 310.326 90.8329 310.689 91.2409C311.063 91.6376 311.59 91.8359 312.27 91.8359C312.768 91.8359 313.199 91.7339 313.562 91.5299C313.936 91.3259 314.225 91.0199 314.429 90.6119C314.644 90.2039 314.752 89.6996 314.752 89.0989V84.5089H316.877V93.5869H314.854V91.1389L315.211 91.8869C314.905 92.4762 314.457 92.9296 313.868 93.2469C313.278 93.5529 312.632 93.7059 311.93 93.7059ZM324.691 93.7059C323.954 93.7059 323.28 93.5359 322.668 93.1959C322.067 92.8559 321.586 92.3459 321.223 91.6659C320.872 90.9746 320.696 90.1019 320.696 89.0479C320.696 87.9826 320.866 87.1099 321.206 86.4299C321.557 85.7499 322.033 85.2456 322.634 84.9169C323.235 84.5769 323.92 84.4069 324.691 84.4069C325.586 84.4069 326.374 84.5996 327.054 84.9849C327.745 85.3702 328.289 85.9086 328.686 86.5999C329.094 87.2912 329.298 88.1072 329.298 89.0479C329.298 89.9886 329.094 90.8102 328.686 91.5129C328.289 92.2042 327.745 92.7426 327.054 93.1279C326.374 93.5132 325.586 93.7059 324.691 93.7059ZM319.659 96.8849V84.5089H321.682V86.6509L321.614 89.0649L321.784 91.4789V96.8849H319.659ZM324.453 91.8869C324.963 91.8869 325.416 91.7736 325.813 91.5469C326.221 91.3202 326.544 90.9916 326.782 90.5609C327.02 90.1302 327.139 89.6259 327.139 89.0479C327.139 88.4586 327.02 87.9542 326.782 87.5349C326.544 87.1042 326.221 86.7756 325.813 86.5489C325.416 86.3222 324.963 86.2089 324.453 86.2089C323.943 86.2089 323.484 86.3222 323.076 86.5489C322.668 86.7756 322.345 87.1042 322.107 87.5349C321.869 87.9542 321.75 88.4586 321.75 89.0479C321.75 89.6259 321.869 90.1302 322.107 90.5609C322.345 90.9916 322.668 91.3202 323.076 91.5469C323.484 91.7736 323.943 91.8869 324.453 91.8869ZM335.155 93.7059C334.283 93.7059 333.495 93.5132 332.792 93.1279C332.101 92.7312 331.557 92.1872 331.16 91.4959C330.764 90.8046 330.565 89.9886 330.565 89.0479C330.565 88.1072 330.764 87.2912 331.16 86.5999C331.557 85.9086 332.101 85.3702 332.792 84.9849C333.495 84.5996 334.283 84.4069 335.155 84.4069C335.915 84.4069 336.595 84.5769 337.195 84.9169C337.796 85.2456 338.272 85.7499 338.623 86.4299C338.975 87.1099 339.15 87.9826 339.15 89.0479C339.15 90.1019 338.98 90.9746 338.64 91.6659C338.3 92.3459 337.83 92.8559 337.229 93.1959C336.629 93.5359 335.937 93.7059 335.155 93.7059ZM335.41 91.8869C335.92 91.8869 336.374 91.7736 336.77 91.5469C337.178 91.3202 337.501 90.9916 337.739 90.5609C337.989 90.1302 338.113 89.6259 338.113 89.0479C338.113 88.4586 337.989 87.9542 337.739 87.5349C337.501 87.1042 337.178 86.7756 336.77 86.5489C336.374 86.3222 335.92 86.2089 335.41 86.2089C334.9 86.2089 334.441 86.3222 334.033 86.5489C333.637 86.7756 333.314 87.1042 333.064 87.5349C332.826 87.9542 332.707 88.4586 332.707 89.0479C332.707 89.6259 332.826 90.1302 333.064 90.5609C333.314 90.9916 333.637 91.3202 334.033 91.5469C334.441 91.7736 334.9 91.8869 335.41 91.8869ZM338.164 93.5869V91.4449L338.249 89.0309L338.079 86.6169V80.9729H340.187V93.5869H338.164ZM348.577 93.5869V91.7509L348.458 91.3599V88.1469C348.458 87.5236 348.271 87.0419 347.897 86.7019C347.523 86.3506 346.957 86.1749 346.197 86.1749C345.687 86.1749 345.183 86.2542 344.684 86.4129C344.197 86.5716 343.783 86.7926 343.443 87.0759L342.61 85.5289C343.098 85.1549 343.676 84.8772 344.344 84.6959C345.024 84.5032 345.727 84.4069 346.452 84.4069C347.767 84.4069 348.781 84.7242 349.495 85.3589C350.221 85.9822 350.583 86.9512 350.583 88.2659V93.5869H348.577ZM345.721 93.7059C345.041 93.7059 344.446 93.5926 343.936 93.3659C343.426 93.1279 343.03 92.8049 342.746 92.3969C342.474 91.9776 342.338 91.5072 342.338 90.9859C342.338 90.4759 342.457 90.0169 342.695 89.6089C342.945 89.2009 343.347 88.8779 343.902 88.6399C344.458 88.4019 345.194 88.2829 346.112 88.2829H348.747V89.6939H346.265C345.54 89.6939 345.053 89.8129 344.803 90.0509C344.554 90.2776 344.429 90.5609 344.429 90.9009C344.429 91.2862 344.582 91.5922 344.888 91.8189C345.194 92.0456 345.619 92.1589 346.163 92.1589C346.685 92.1589 347.149 92.0399 347.557 91.8019C347.977 91.5639 348.277 91.2126 348.458 90.7479L348.815 92.0229C348.611 92.5556 348.243 92.9692 347.71 93.2639C347.189 93.5586 346.526 93.7059 345.721 93.7059ZM356.727 93.7059C355.73 93.7059 354.959 93.4509 354.415 92.9409C353.871 92.4196 353.599 91.6546 353.599 90.6459V82.5029H355.724V90.5949C355.724 91.0256 355.832 91.3599 356.047 91.5979C356.274 91.8359 356.586 91.9549 356.982 91.9549C357.458 91.9549 357.855 91.8302 358.172 91.5809L358.767 93.0939C358.518 93.2979 358.212 93.4509 357.849 93.5529C357.487 93.6549 357.113 93.7059 356.727 93.7059ZM352.103 86.2769V84.5769H358.155V86.2769H352.103ZM364.484 93.7059C363.475 93.7059 362.591 93.5076 361.832 93.1109C361.084 92.7029 360.5 92.1476 360.081 91.4449C359.673 90.7422 359.469 89.9432 359.469 89.0479C359.469 88.1412 359.667 87.3422 360.064 86.6509C360.472 85.9482 361.027 85.3986 361.73 85.0019C362.444 84.6052 363.254 84.4069 364.161 84.4069C365.045 84.4069 365.832 84.5996 366.524 84.9849C367.215 85.3702 367.759 85.9142 368.156 86.6169C368.552 87.3196 368.751 88.1469 368.751 89.0989C368.751 89.1896 368.745 89.2916 368.734 89.4049C368.734 89.5182 368.728 89.6259 368.717 89.7279H361.152V88.3169H367.595L366.762 88.7589C366.773 88.2376 366.665 87.7786 366.439 87.3819C366.212 86.9852 365.9 86.6736 365.504 86.4469C365.118 86.2202 364.671 86.1069 364.161 86.1069C363.639 86.1069 363.18 86.2202 362.784 86.4469C362.398 86.6736 362.092 86.9909 361.866 87.3989C361.65 87.7956 361.543 88.2659 361.543 88.8099V89.1499C361.543 89.6939 361.667 90.1756 361.917 90.5949C362.166 91.0142 362.517 91.3372 362.971 91.5639C363.424 91.7906 363.945 91.9039 364.535 91.9039C365.045 91.9039 365.504 91.8246 365.912 91.6659C366.32 91.5072 366.682 91.2579 367 90.9179L368.139 92.2269C367.731 92.7029 367.215 93.0712 366.592 93.3319C365.98 93.5812 365.277 93.7059 364.484 93.7059ZM374.634 93.7059C373.761 93.7059 372.974 93.5132 372.271 93.1279C371.58 92.7312 371.036 92.1872 370.639 91.4959C370.242 90.8046 370.044 89.9886 370.044 89.0479C370.044 88.1072 370.242 87.2912 370.639 86.5999C371.036 85.9086 371.58 85.3702 372.271 84.9849C372.974 84.5996 373.761 84.4069 374.634 84.4069C375.393 84.4069 376.073 84.5769 376.674 84.9169C377.275 85.2456 377.751 85.7499 378.102 86.4299C378.453 87.1099 378.629 87.9826 378.629 89.0479C378.629 90.1019 378.459 90.9746 378.119 91.6659C377.779 92.3459 377.309 92.8559 376.708 93.1959C376.107 93.5359 375.416 93.7059 374.634 93.7059ZM374.889 91.8869C375.399 91.8869 375.852 91.7736 376.249 91.5469C376.657 91.3202 376.98 90.9916 377.218 90.5609C377.467 90.1302 377.592 89.6259 377.592 89.0479C377.592 88.4586 377.467 87.9542 377.218 87.5349C376.98 87.1042 376.657 86.7756 376.249 86.5489C375.852 86.3222 375.399 86.2089 374.889 86.2089C374.379 86.2089 373.92 86.3222 373.512 86.5489C373.115 86.7756 372.792 87.1042 372.543 87.5349C372.305 87.9542 372.186 88.4586 372.186 89.0479C372.186 89.6259 372.305 90.1302 372.543 90.5609C372.792 90.9916 373.115 91.3202 373.512 91.5469C373.92 91.7736 374.379 91.8869 374.889 91.8869ZM377.643 93.5869V91.4449L377.728 89.0309L377.558 86.6169V80.9729H379.666V93.5869H377.643Z" fill="#00403E"></path><path d="M388.186 164.74L393.541 152.84H395.717L401.089 164.74H398.777L394.17 154.013H395.054L390.464 164.74H388.186ZM390.651 161.986L391.246 160.252H397.672L398.267 161.986H390.651ZM407.55 155.56C408.275 155.56 408.921 155.701 409.488 155.985C410.066 156.268 410.519 156.704 410.848 157.294C411.177 157.872 411.341 158.62 411.341 159.538V164.74H409.216V159.81C409.216 159.005 409.023 158.404 408.638 158.008C408.264 157.611 407.737 157.413 407.057 157.413C406.558 157.413 406.116 157.515 405.731 157.719C405.346 157.923 405.045 158.229 404.83 158.637C404.626 159.033 404.524 159.538 404.524 160.15V164.74H402.399V155.662H404.422V158.11L404.065 157.362C404.382 156.784 404.841 156.342 405.442 156.036C406.054 155.718 406.757 155.56 407.55 155.56ZM419.188 155.56C419.913 155.56 420.559 155.701 421.126 155.985C421.704 156.268 422.157 156.704 422.486 157.294C422.814 157.872 422.979 158.62 422.979 159.538V164.74H420.854V159.81C420.854 159.005 420.661 158.404 420.276 158.008C419.902 157.611 419.375 157.413 418.695 157.413C418.196 157.413 417.754 157.515 417.369 157.719C416.983 157.923 416.683 158.229 416.468 158.637C416.264 159.033 416.162 159.538 416.162 160.15V164.74H414.037V155.662H416.06V158.11L415.703 157.362C416.02 156.784 416.479 156.342 417.08 156.036C417.692 155.718 418.394 155.56 419.188 155.56ZM429.516 164.859C428.746 164.859 428.066 164.717 427.476 164.434C426.887 164.139 426.428 163.697 426.099 163.108C425.771 162.507 425.606 161.753 425.606 160.847V155.662H427.731V160.558C427.731 161.374 427.913 161.986 428.275 162.394C428.649 162.79 429.176 162.989 429.856 162.989C430.355 162.989 430.786 162.887 431.148 162.683C431.522 162.479 431.811 162.173 432.015 161.765C432.231 161.357 432.338 160.852 432.338 160.252V155.662H434.463V164.74H432.44V162.292L432.797 163.04C432.491 163.629 432.044 164.082 431.454 164.4C430.865 164.706 430.219 164.859 429.516 164.859ZM442.839 164.74V162.904L442.72 162.513V159.3C442.72 158.676 442.533 158.195 442.159 157.855C441.785 157.503 441.218 157.328 440.459 157.328C439.949 157.328 439.444 157.407 438.946 157.566C438.458 157.724 438.045 157.945 437.705 158.229L436.872 156.682C437.359 156.308 437.937 156.03 438.606 155.849C439.286 155.656 439.988 155.56 440.714 155.56C442.028 155.56 443.043 155.877 443.757 156.512C444.482 157.135 444.845 158.104 444.845 159.419V164.74H442.839ZM439.983 164.859C439.303 164.859 438.708 164.745 438.198 164.519C437.688 164.281 437.291 163.958 437.008 163.55C436.736 163.13 436.6 162.66 436.6 162.139C436.6 161.629 436.719 161.17 436.957 160.762C437.206 160.354 437.608 160.031 438.164 159.793C438.719 159.555 439.456 159.436 440.374 159.436H443.009V160.847H440.527C439.801 160.847 439.314 160.966 439.065 161.204C438.815 161.43 438.691 161.714 438.691 162.054C438.691 162.439 438.844 162.745 439.15 162.972C439.456 163.198 439.881 163.312 440.425 163.312C440.946 163.312 441.411 163.193 441.819 162.955C442.238 162.717 442.538 162.365 442.72 161.901L443.077 163.176C442.873 163.708 442.504 164.122 441.972 164.417C441.45 164.711 440.787 164.859 439.983 164.859ZM447.572 164.74V152.126H449.697V164.74H447.572ZM452.486 164.74V152.126H454.611V164.74H452.486ZM458.148 168.157C457.706 168.157 457.264 168.083 456.822 167.936C456.38 167.788 456.012 167.584 455.717 167.324L456.567 165.76C456.782 165.952 457.026 166.105 457.298 166.219C457.57 166.332 457.848 166.389 458.131 166.389C458.516 166.389 458.828 166.292 459.066 166.1C459.304 165.907 459.525 165.584 459.729 165.131L460.256 163.941L460.426 163.686L463.86 155.662H465.9L461.65 165.471C461.367 166.151 461.049 166.689 460.698 167.086C460.358 167.482 459.973 167.76 459.542 167.919C459.123 168.077 458.658 168.157 458.148 168.157ZM460.018 165.063L455.921 155.662H458.131L461.463 163.499L460.018 165.063ZM472.215 164.74V155.152C472.215 154.2 472.493 153.44 473.048 152.874C473.615 152.296 474.42 152.007 475.462 152.007C475.836 152.007 476.188 152.046 476.516 152.126C476.856 152.205 477.14 152.33 477.366 152.5L476.788 154.098C476.63 153.973 476.448 153.882 476.244 153.826C476.04 153.758 475.831 153.724 475.615 153.724C475.173 153.724 474.839 153.848 474.612 154.098C474.386 154.336 474.272 154.698 474.272 155.186V156.206L474.34 157.158V164.74H472.215ZM470.719 157.43V155.73H476.771V157.43H470.719ZM478.218 164.74V155.662H480.241V158.161L480.003 157.43C480.275 156.818 480.7 156.353 481.278 156.036C481.868 155.718 482.599 155.56 483.471 155.56V157.583C483.381 157.56 483.296 157.549 483.216 157.549C483.137 157.537 483.058 157.532 482.978 157.532C482.174 157.532 481.533 157.77 481.057 158.246C480.581 158.71 480.343 159.407 480.343 160.337V164.74H478.218ZM489.271 164.859C488.342 164.859 487.514 164.66 486.789 164.264C486.064 163.856 485.491 163.3 485.072 162.598C484.653 161.895 484.443 161.096 484.443 160.201C484.443 159.294 484.653 158.495 485.072 157.804C485.491 157.101 486.064 156.551 486.789 156.155C487.514 155.758 488.342 155.56 489.271 155.56C490.212 155.56 491.045 155.758 491.77 156.155C492.507 156.551 493.079 157.095 493.487 157.787C493.906 158.478 494.116 159.283 494.116 160.201C494.116 161.096 493.906 161.895 493.487 162.598C493.079 163.3 492.507 163.856 491.77 164.264C491.045 164.66 490.212 164.859 489.271 164.859ZM489.271 163.04C489.792 163.04 490.257 162.926 490.665 162.7C491.073 162.473 491.39 162.144 491.617 161.714C491.855 161.283 491.974 160.779 491.974 160.201C491.974 159.611 491.855 159.107 491.617 158.688C491.39 158.257 491.073 157.928 490.665 157.702C490.257 157.475 489.798 157.362 489.288 157.362C488.767 157.362 488.302 157.475 487.894 157.702C487.497 157.928 487.18 158.257 486.942 158.688C486.704 159.107 486.585 159.611 486.585 160.201C486.585 160.779 486.704 161.283 486.942 161.714C487.18 162.144 487.497 162.473 487.894 162.7C488.302 162.926 488.761 163.04 489.271 163.04ZM507.606 155.56C508.331 155.56 508.972 155.701 509.527 155.985C510.094 156.268 510.536 156.704 510.853 157.294C511.17 157.872 511.329 158.62 511.329 159.538V164.74H509.204V159.81C509.204 159.005 509.028 158.404 508.677 158.008C508.326 157.611 507.821 157.413 507.164 157.413C506.699 157.413 506.286 157.515 505.923 157.719C505.572 157.923 505.294 158.223 505.09 158.62C504.897 159.016 504.801 159.521 504.801 160.133V164.74H502.676V159.81C502.676 159.005 502.5 158.404 502.149 158.008C501.798 157.611 501.293 157.413 500.636 157.413C500.171 157.413 499.758 157.515 499.395 157.719C499.044 157.923 498.766 158.223 498.562 158.62C498.369 159.016 498.273 159.521 498.273 160.133V164.74H496.148V155.662H498.171V158.076L497.814 157.362C498.12 156.772 498.562 156.325 499.14 156.019C499.729 155.713 500.398 155.56 501.146 155.56C501.996 155.56 502.733 155.769 503.356 156.189C503.991 156.608 504.41 157.243 504.614 158.093L503.781 157.804C504.076 157.124 504.563 156.58 505.243 156.172C505.923 155.764 506.711 155.56 507.606 155.56ZM522.16 164.859C521.162 164.859 520.392 164.604 519.848 164.094C519.304 163.572 519.032 162.807 519.032 161.799V153.656H521.157V161.748C521.157 162.178 521.264 162.513 521.48 162.751C521.706 162.989 522.018 163.108 522.415 163.108C522.891 163.108 523.287 162.983 523.605 162.734L524.2 164.247C523.95 164.451 523.644 164.604 523.282 164.706C522.919 164.808 522.545 164.859 522.16 164.859ZM517.536 157.43V155.73H523.588V157.43H517.536ZM531.099 155.56C531.824 155.56 532.47 155.701 533.037 155.985C533.615 156.268 534.068 156.704 534.397 157.294C534.725 157.872 534.89 158.62 534.89 159.538V164.74H532.765V159.81C532.765 159.005 532.572 158.404 532.187 158.008C531.813 157.611 531.286 157.413 530.606 157.413C530.107 157.413 529.665 157.515 529.28 157.719C528.894 157.923 528.594 158.229 528.379 158.637C528.175 159.033 528.073 159.538 528.073 160.15V164.74H525.948V152.126H528.073V158.11L527.614 157.362C527.931 156.784 528.39 156.342 528.991 156.036C529.603 155.718 530.305 155.56 531.099 155.56ZM541.869 164.859C540.86 164.859 539.976 164.66 539.217 164.264C538.469 163.856 537.885 163.3 537.466 162.598C537.058 161.895 536.854 161.096 536.854 160.201C536.854 159.294 537.052 158.495 537.449 157.804C537.857 157.101 538.412 156.551 539.115 156.155C539.829 155.758 540.639 155.56 541.546 155.56C542.43 155.56 543.218 155.752 543.909 156.138C544.6 156.523 545.144 157.067 545.541 157.77C545.938 158.472 546.136 159.3 546.136 160.252C546.136 160.342 546.13 160.444 546.119 160.558C546.119 160.671 546.113 160.779 546.102 160.881H538.537V159.47H544.98L544.147 159.912C544.158 159.39 544.051 158.931 543.824 158.535C543.597 158.138 543.286 157.826 542.889 157.6C542.504 157.373 542.056 157.26 541.546 157.26C541.025 157.26 540.566 157.373 540.169 157.6C539.784 157.826 539.478 158.144 539.251 158.552C539.036 158.948 538.928 159.419 538.928 159.963V160.303C538.928 160.847 539.053 161.328 539.302 161.748C539.551 162.167 539.903 162.49 540.356 162.717C540.809 162.943 541.331 163.057 541.92 163.057C542.43 163.057 542.889 162.977 543.297 162.819C543.705 162.66 544.068 162.411 544.385 162.071L545.524 163.38C545.116 163.856 544.6 164.224 543.977 164.485C543.365 164.734 542.662 164.859 541.869 164.859ZM386.036 187.74V185.904L385.917 185.513V182.3C385.917 181.676 385.73 181.195 385.356 180.855C384.982 180.503 384.416 180.328 383.656 180.328C383.146 180.328 382.642 180.407 382.143 180.566C381.656 180.724 381.242 180.945 380.902 181.229L380.069 179.682C380.557 179.308 381.135 179.03 381.803 178.849C382.483 178.656 383.186 178.56 383.911 178.56C385.226 178.56 386.24 178.877 386.954 179.512C387.68 180.135 388.042 181.104 388.042 182.419V187.74H386.036ZM383.18 187.859C382.5 187.859 381.905 187.745 381.395 187.519C380.885 187.281 380.489 186.958 380.205 186.55C379.933 186.13 379.797 185.66 379.797 185.139C379.797 184.629 379.916 184.17 380.154 183.762C380.404 183.354 380.806 183.031 381.361 182.793C381.917 182.555 382.653 182.436 383.571 182.436H386.206V183.847H383.724C382.999 183.847 382.512 183.966 382.262 184.204C382.013 184.43 381.888 184.714 381.888 185.054C381.888 185.439 382.041 185.745 382.347 185.972C382.653 186.198 383.078 186.312 383.622 186.312C384.144 186.312 384.608 186.193 385.016 185.955C385.436 185.717 385.736 185.365 385.917 184.901L386.274 186.176C386.07 186.708 385.702 187.122 385.169 187.417C384.648 187.711 383.985 187.859 383.18 187.859ZM394.951 187.859C393.999 187.859 393.149 187.66 392.401 187.264C391.664 186.856 391.086 186.3 390.667 185.598C390.248 184.895 390.038 184.096 390.038 183.201C390.038 182.294 390.248 181.495 390.667 180.804C391.086 180.101 391.664 179.551 392.401 179.155C393.149 178.758 393.999 178.56 394.951 178.56C395.835 178.56 396.611 178.741 397.28 179.104C397.96 179.455 398.476 179.976 398.827 180.668L397.195 181.62C396.923 181.189 396.589 180.872 396.192 180.668C395.807 180.464 395.387 180.362 394.934 180.362C394.413 180.362 393.942 180.475 393.523 180.702C393.104 180.928 392.775 181.257 392.537 181.688C392.299 182.107 392.18 182.611 392.18 183.201C392.18 183.79 392.299 184.3 392.537 184.731C392.775 185.15 393.104 185.473 393.523 185.7C393.942 185.926 394.413 186.04 394.934 186.04C395.387 186.04 395.807 185.938 396.192 185.734C396.589 185.53 396.923 185.212 397.195 184.782L398.827 185.734C398.476 186.414 397.96 186.941 397.28 187.315C396.611 187.677 395.835 187.859 394.951 187.859ZM404.696 187.859C403.744 187.859 402.894 187.66 402.146 187.264C401.41 186.856 400.832 186.3 400.412 185.598C399.993 184.895 399.783 184.096 399.783 183.201C399.783 182.294 399.993 181.495 400.412 180.804C400.832 180.101 401.41 179.551 402.146 179.155C402.894 178.758 403.744 178.56 404.696 178.56C405.58 178.56 406.357 178.741 407.025 179.104C407.705 179.455 408.221 179.976 408.572 180.668L406.94 181.62C406.668 181.189 406.334 180.872 405.937 180.668C405.552 180.464 405.133 180.362 404.679 180.362C404.158 180.362 403.688 180.475 403.268 180.702C402.849 180.928 402.52 181.257 402.282 181.688C402.044 182.107 401.925 182.611 401.925 183.201C401.925 183.79 402.044 184.3 402.282 184.731C402.52 185.15 402.849 185.473 403.268 185.7C403.688 185.926 404.158 186.04 404.679 186.04C405.133 186.04 405.552 185.938 405.937 185.734C406.334 185.53 406.668 185.212 406.94 184.782L408.572 185.734C408.221 186.414 407.705 186.941 407.025 187.315C406.357 187.677 405.58 187.859 404.696 187.859ZM414.543 187.859C413.535 187.859 412.651 187.66 411.891 187.264C411.143 186.856 410.56 186.3 410.14 185.598C409.732 184.895 409.528 184.096 409.528 183.201C409.528 182.294 409.727 181.495 410.123 180.804C410.531 180.101 411.087 179.551 411.789 179.155C412.503 178.758 413.314 178.56 414.22 178.56C415.104 178.56 415.892 178.752 416.583 179.138C417.275 179.523 417.819 180.067 418.215 180.77C418.612 181.472 418.81 182.3 418.81 183.252C418.81 183.342 418.805 183.444 418.793 183.558C418.793 183.671 418.788 183.779 418.776 183.881H411.211V182.47H417.654L416.821 182.912C416.833 182.39 416.725 181.931 416.498 181.535C416.272 181.138 415.96 180.826 415.563 180.6C415.178 180.373 414.73 180.26 414.22 180.26C413.699 180.26 413.24 180.373 412.843 180.6C412.458 180.826 412.152 181.144 411.925 181.552C411.71 181.948 411.602 182.419 411.602 182.963V183.303C411.602 183.847 411.727 184.328 411.976 184.748C412.226 185.167 412.577 185.49 413.03 185.717C413.484 185.943 414.005 186.057 414.594 186.057C415.104 186.057 415.563 185.977 415.971 185.819C416.379 185.66 416.742 185.411 417.059 185.071L418.198 186.38C417.79 186.856 417.275 187.224 416.651 187.485C416.039 187.734 415.337 187.859 414.543 187.859ZM423.657 187.859C422.897 187.859 422.166 187.762 421.464 187.57C420.772 187.366 420.223 187.122 419.815 186.839L420.631 185.224C421.039 185.484 421.526 185.7 422.093 185.87C422.659 186.04 423.226 186.125 423.793 186.125C424.461 186.125 424.943 186.034 425.238 185.853C425.544 185.671 425.697 185.428 425.697 185.122C425.697 184.872 425.595 184.685 425.391 184.561C425.187 184.425 424.92 184.323 424.592 184.255C424.263 184.187 423.895 184.124 423.487 184.068C423.09 184.011 422.688 183.937 422.28 183.847C421.883 183.745 421.52 183.603 421.192 183.422C420.863 183.229 420.597 182.974 420.393 182.657C420.189 182.339 420.087 181.92 420.087 181.399C420.087 180.821 420.251 180.322 420.58 179.903C420.908 179.472 421.367 179.143 421.957 178.917C422.557 178.679 423.266 178.56 424.082 178.56C424.694 178.56 425.311 178.628 425.935 178.764C426.558 178.9 427.074 179.092 427.482 179.342L426.666 180.957C426.235 180.696 425.799 180.52 425.357 180.43C424.926 180.328 424.495 180.277 424.065 180.277C423.419 180.277 422.937 180.373 422.62 180.566C422.314 180.758 422.161 181.002 422.161 181.297C422.161 181.569 422.263 181.773 422.467 181.909C422.671 182.045 422.937 182.152 423.266 182.232C423.594 182.311 423.957 182.379 424.354 182.436C424.762 182.481 425.164 182.555 425.561 182.657C425.957 182.759 426.32 182.9 426.649 183.082C426.989 183.252 427.261 183.495 427.465 183.813C427.669 184.13 427.771 184.544 427.771 185.054C427.771 185.62 427.601 186.113 427.261 186.533C426.932 186.952 426.462 187.281 425.85 187.519C425.238 187.745 424.507 187.859 423.657 187.859ZM432.406 187.859C431.646 187.859 430.915 187.762 430.213 187.57C429.521 187.366 428.972 187.122 428.564 186.839L429.38 185.224C429.788 185.484 430.275 185.7 430.842 185.87C431.408 186.04 431.975 186.125 432.542 186.125C433.21 186.125 433.692 186.034 433.987 185.853C434.293 185.671 434.446 185.428 434.446 185.122C434.446 184.872 434.344 184.685 434.14 184.561C433.936 184.425 433.669 184.323 433.341 184.255C433.012 184.187 432.644 184.124 432.236 184.068C431.839 184.011 431.437 183.937 431.029 183.847C430.632 183.745 430.269 183.603 429.941 183.422C429.612 183.229 429.346 182.974 429.142 182.657C428.938 182.339 428.836 181.92 428.836 181.399C428.836 180.821 429 180.322 429.329 179.903C429.657 179.472 430.116 179.143 430.706 178.917C431.306 178.679 432.015 178.56 432.831 178.56C433.443 178.56 434.06 178.628 434.684 178.764C435.307 178.9 435.823 179.092 436.231 179.342L435.415 180.957C434.984 180.696 434.548 180.52 434.106 180.43C433.675 180.328 433.244 180.277 432.814 180.277C432.168 180.277 431.686 180.373 431.369 180.566C431.063 180.758 430.91 181.002 430.91 181.297C430.91 181.569 431.012 181.773 431.216 181.909C431.42 182.045 431.686 182.152 432.015 182.232C432.343 182.311 432.706 182.379 433.103 182.436C433.511 182.481 433.913 182.555 434.31 182.657C434.706 182.759 435.069 182.9 435.398 183.082C435.738 183.252 436.01 183.495 436.214 183.813C436.418 184.13 436.52 184.544 436.52 185.054C436.52 185.62 436.35 186.113 436.01 186.533C435.681 186.952 435.211 187.281 434.599 187.519C433.987 187.745 433.256 187.859 432.406 187.859ZM446.465 187.859C445.467 187.859 444.697 187.604 444.153 187.094C443.609 186.572 443.337 185.807 443.337 184.799V176.656H445.462V184.748C445.462 185.178 445.569 185.513 445.785 185.751C446.011 185.989 446.323 186.108 446.72 186.108C447.196 186.108 447.592 185.983 447.91 185.734L448.505 187.247C448.255 187.451 447.949 187.604 447.587 187.706C447.224 187.808 446.85 187.859 446.465 187.859ZM441.841 180.43V178.73H447.893V180.43H441.841ZM454.034 187.859C453.105 187.859 452.277 187.66 451.552 187.264C450.827 186.856 450.254 186.3 449.835 185.598C449.416 184.895 449.206 184.096 449.206 183.201C449.206 182.294 449.416 181.495 449.835 180.804C450.254 180.101 450.827 179.551 451.552 179.155C452.277 178.758 453.105 178.56 454.034 178.56C454.975 178.56 455.808 178.758 456.533 179.155C457.27 179.551 457.842 180.095 458.25 180.787C458.669 181.478 458.879 182.283 458.879 183.201C458.879 184.096 458.669 184.895 458.25 185.598C457.842 186.3 457.27 186.856 456.533 187.264C455.808 187.66 454.975 187.859 454.034 187.859ZM454.034 186.04C454.555 186.04 455.02 185.926 455.428 185.7C455.836 185.473 456.153 185.144 456.38 184.714C456.618 184.283 456.737 183.779 456.737 183.201C456.737 182.611 456.618 182.107 456.38 181.688C456.153 181.257 455.836 180.928 455.428 180.702C455.02 180.475 454.561 180.362 454.051 180.362C453.53 180.362 453.065 180.475 452.657 180.702C452.26 180.928 451.943 181.257 451.705 181.688C451.467 182.107 451.348 182.611 451.348 183.201C451.348 183.779 451.467 184.283 451.705 184.714C451.943 185.144 452.26 185.473 452.657 185.7C453.065 185.926 453.524 186.04 454.034 186.04ZM469.774 187.859C468.822 187.859 467.972 187.66 467.224 187.264C466.488 186.856 465.91 186.3 465.49 185.598C465.071 184.895 464.861 184.096 464.861 183.201C464.861 182.294 465.071 181.495 465.49 180.804C465.91 180.101 466.488 179.551 467.224 179.155C467.972 178.758 468.822 178.56 469.774 178.56C470.658 178.56 471.435 178.741 472.103 179.104C472.783 179.455 473.299 179.976 473.65 180.668L472.018 181.62C471.746 181.189 471.412 180.872 471.015 180.668C470.63 180.464 470.211 180.362 469.757 180.362C469.236 180.362 468.766 180.475 468.346 180.702C467.927 180.928 467.598 181.257 467.36 181.688C467.122 182.107 467.003 182.611 467.003 183.201C467.003 183.79 467.122 184.3 467.36 184.731C467.598 185.15 467.927 185.473 468.346 185.7C468.766 185.926 469.236 186.04 469.757 186.04C470.211 186.04 470.63 185.938 471.015 185.734C471.412 185.53 471.746 185.212 472.018 184.782L473.65 185.734C473.299 186.414 472.783 186.941 472.103 187.315C471.435 187.677 470.658 187.859 469.774 187.859ZM475.487 187.74V178.662H477.51V181.161L477.272 180.43C477.544 179.818 477.969 179.353 478.547 179.036C479.137 178.718 479.868 178.56 480.74 178.56V180.583C480.65 180.56 480.565 180.549 480.485 180.549C480.406 180.537 480.327 180.532 480.247 180.532C479.443 180.532 478.802 180.77 478.326 181.246C477.85 181.71 477.612 182.407 477.612 183.337V187.74H475.487ZM486.727 187.859C485.718 187.859 484.834 187.66 484.075 187.264C483.327 186.856 482.743 186.3 482.324 185.598C481.916 184.895 481.712 184.096 481.712 183.201C481.712 182.294 481.91 181.495 482.307 180.804C482.715 180.101 483.27 179.551 483.973 179.155C484.687 178.758 485.497 178.56 486.404 178.56C487.288 178.56 488.076 178.752 488.767 179.138C489.458 179.523 490.002 180.067 490.399 180.77C490.796 181.472 490.994 182.3 490.994 183.252C490.994 183.342 490.988 183.444 490.977 183.558C490.977 183.671 490.971 183.779 490.96 183.881H483.395V182.47H489.838L489.005 182.912C489.016 182.39 488.909 181.931 488.682 181.535C488.455 181.138 488.144 180.826 487.747 180.6C487.362 180.373 486.914 180.26 486.404 180.26C485.883 180.26 485.424 180.373 485.027 180.6C484.642 180.826 484.336 181.144 484.109 181.552C483.894 181.948 483.786 182.419 483.786 182.963V183.303C483.786 183.847 483.911 184.328 484.16 184.748C484.409 185.167 484.761 185.49 485.214 185.717C485.667 185.943 486.189 186.057 486.778 186.057C487.288 186.057 487.747 185.977 488.155 185.819C488.563 185.66 488.926 185.411 489.243 185.071L490.382 186.38C489.974 186.856 489.458 187.224 488.835 187.485C488.223 187.734 487.52 187.859 486.727 187.859ZM496.877 187.859C496.004 187.859 495.217 187.666 494.514 187.281C493.823 186.884 493.279 186.34 492.882 185.649C492.485 184.957 492.287 184.141 492.287 183.201C492.287 182.26 492.485 181.444 492.882 180.753C493.279 180.061 493.823 179.523 494.514 179.138C495.217 178.752 496.004 178.56 496.877 178.56C497.636 178.56 498.316 178.73 498.917 179.07C499.518 179.398 499.994 179.903 500.345 180.583C500.696 181.263 500.872 182.135 500.872 183.201C500.872 184.255 500.702 185.127 500.362 185.819C500.022 186.499 499.552 187.009 498.951 187.349C498.35 187.689 497.659 187.859 496.877 187.859ZM497.132 186.04C497.642 186.04 498.095 185.926 498.492 185.7C498.9 185.473 499.223 185.144 499.461 184.714C499.71 184.283 499.835 183.779 499.835 183.201C499.835 182.611 499.71 182.107 499.461 181.688C499.223 181.257 498.9 180.928 498.492 180.702C498.095 180.475 497.642 180.362 497.132 180.362C496.622 180.362 496.163 180.475 495.755 180.702C495.358 180.928 495.035 181.257 494.786 181.688C494.548 182.107 494.429 182.611 494.429 183.201C494.429 183.779 494.548 184.283 494.786 184.714C495.035 185.144 495.358 185.473 495.755 185.7C496.163 185.926 496.622 186.04 497.132 186.04ZM499.886 187.74V185.598L499.971 183.184L499.801 180.77V175.126H501.909V187.74H499.886ZM504.706 187.74V178.662H506.831V187.74H504.706ZM505.777 177.166C505.38 177.166 505.052 177.041 504.791 176.792C504.542 176.542 504.417 176.242 504.417 175.891C504.417 175.528 504.542 175.228 504.791 174.99C505.052 174.74 505.38 174.616 505.777 174.616C506.174 174.616 506.497 174.735 506.746 174.973C507.007 175.199 507.137 175.488 507.137 175.84C507.137 176.214 507.012 176.531 506.763 176.792C506.514 177.041 506.185 177.166 505.777 177.166ZM513.037 187.859C512.04 187.859 511.269 187.604 510.725 187.094C510.181 186.572 509.909 185.807 509.909 184.799V176.656H512.034V184.748C512.034 185.178 512.142 185.513 512.357 185.751C512.584 185.989 512.895 186.108 513.292 186.108C513.768 186.108 514.165 185.983 514.482 185.734L515.077 187.247C514.828 187.451 514.522 187.604 514.159 187.706C513.796 187.808 513.422 187.859 513.037 187.859ZM508.413 180.43V178.73H514.465V180.43H508.413ZM521.523 187.74V175.126H523.648V187.74H521.523ZM530.704 187.859C529.696 187.859 528.812 187.66 528.052 187.264C527.304 186.856 526.721 186.3 526.301 185.598C525.893 184.895 525.689 184.096 525.689 183.201C525.689 182.294 525.888 181.495 526.284 180.804C526.692 180.101 527.248 179.551 527.95 179.155C528.664 178.758 529.475 178.56 530.381 178.56C531.265 178.56 532.053 178.752 532.744 179.138C533.436 179.523 533.98 180.067 534.376 180.77C534.773 181.472 534.971 182.3 534.971 183.252C534.971 183.342 534.966 183.444 534.954 183.558C534.954 183.671 534.949 183.779 534.937 183.881H527.372V182.47H533.815L532.982 182.912C532.994 182.39 532.886 181.931 532.659 181.535C532.433 181.138 532.121 180.826 531.724 180.6C531.339 180.373 530.891 180.26 530.381 180.26C529.86 180.26 529.401 180.373 529.004 180.6C528.619 180.826 528.313 181.144 528.086 181.552C527.871 181.948 527.763 182.419 527.763 182.963V183.303C527.763 183.847 527.888 184.328 528.137 184.748C528.387 185.167 528.738 185.49 529.191 185.717C529.645 185.943 530.166 186.057 530.755 186.057C531.265 186.057 531.724 185.977 532.132 185.819C532.54 185.66 532.903 185.411 533.22 185.071L534.359 186.38C533.951 186.856 533.436 187.224 532.812 187.485C532.2 187.734 531.498 187.859 530.704 187.859ZM542.164 178.56C542.889 178.56 543.535 178.701 544.102 178.985C544.68 179.268 545.133 179.704 545.462 180.294C545.79 180.872 545.955 181.62 545.955 182.538V187.74H543.83V182.81C543.83 182.005 543.637 181.404 543.252 181.008C542.878 180.611 542.351 180.413 541.671 180.413C541.172 180.413 540.73 180.515 540.345 180.719C539.959 180.923 539.659 181.229 539.444 181.637C539.24 182.033 539.138 182.538 539.138 183.15V187.74H537.013V178.662H539.036V181.11L538.679 180.362C538.996 179.784 539.455 179.342 540.056 179.036C540.668 178.718 541.37 178.56 542.164 178.56ZM551.455 187.859C550.696 187.859 549.965 187.762 549.262 187.57C548.571 187.366 548.021 187.122 547.613 186.839L548.429 185.224C548.837 185.484 549.325 185.7 549.891 185.87C550.458 186.04 551.025 186.125 551.591 186.125C552.26 186.125 552.742 186.034 553.036 185.853C553.342 185.671 553.495 185.428 553.495 185.122C553.495 184.872 553.393 184.685 553.189 184.561C552.985 184.425 552.719 184.323 552.39 184.255C552.062 184.187 551.693 184.124 551.285 184.068C550.889 184.011 550.486 183.937 550.078 183.847C549.682 183.745 549.319 183.603 548.99 183.422C548.662 183.229 548.395 182.974 548.191 182.657C547.987 182.339 547.885 181.92 547.885 181.399C547.885 180.821 548.05 180.322 548.378 179.903C548.707 179.472 549.166 179.143 549.755 178.917C550.356 178.679 551.064 178.56 551.88 178.56C552.492 178.56 553.11 178.628 553.733 178.764C554.357 178.9 554.872 179.092 555.28 179.342L554.464 180.957C554.034 180.696 553.597 180.52 553.155 180.43C552.725 180.328 552.294 180.277 551.863 180.277C551.217 180.277 550.736 180.373 550.418 180.566C550.112 180.758 549.959 181.002 549.959 181.297C549.959 181.569 550.061 181.773 550.265 181.909C550.469 182.045 550.736 182.152 551.064 182.232C551.393 182.311 551.756 182.379 552.152 182.436C552.56 182.481 552.963 182.555 553.359 182.657C553.756 182.759 554.119 182.9 554.447 183.082C554.787 183.252 555.059 183.495 555.263 183.813C555.467 184.13 555.569 184.544 555.569 185.054C555.569 185.62 555.399 186.113 555.059 186.533C554.731 186.952 554.26 187.281 553.648 187.519C553.036 187.745 552.305 187.859 551.455 187.859Z" fill="#00403E"></path></svg>