<svg xmlns="http://www.w3.org/2000/svg" width="221" height="221" viewBox="0 0 221 221" fill="none"><circle cx="110.75" cy="110.05" r="110" fill="#00403E"></circle><path fill-rule="evenodd" clip-rule="evenodd" d="M81.6688 142.286V104.095H84.9628V142.286H81.6688Z" fill="white"></path><path fill-rule="evenodd" clip-rule="evenodd" d="M61.6343 142.286V104.095H64.9282V142.286H61.6343Z" fill="white"></path><path fill-rule="evenodd" clip-rule="evenodd" d="M71.6512 142.286V104.095H74.9452V142.286H71.6512Z" fill="white"></path><path fill-rule="evenodd" clip-rule="evenodd" d="M91.6873 142.286V104.095H94.9812V142.286H91.6873Z" fill="white"></path><path fill-rule="evenodd" clip-rule="evenodd" d="M101.713 142.286V104.095H105.007V142.286H101.713Z" fill="white"></path><path fill-rule="evenodd" clip-rule="evenodd" d="M116.42 142.286V104.095H119.714V142.286H116.42Z" fill="white"></path><path fill-rule="evenodd" clip-rule="evenodd" d="M126.472 142.286V104.095H129.766V142.286H126.472Z" fill="white"></path><path fill-rule="evenodd" clip-rule="evenodd" d="M146.507 142.286V104.095H149.801V142.286H146.507Z" fill="white"></path><path fill-rule="evenodd" clip-rule="evenodd" d="M156.525 142.286V104.095H159.819V142.286H156.525Z" fill="white"></path><path fill-rule="evenodd" clip-rule="evenodd" d="M136.463 142.286V104.095H139.757V142.286H136.463Z" fill="white"></path><path fill-rule="evenodd" clip-rule="evenodd" d="M170.045 148.643C170.045 149.552 169.308 150.29 168.398 150.29H53.0553C52.1457 150.29 51.4083 149.552 51.4083 148.643C51.4083 147.733 52.1457 146.996 53.0553 146.996H168.398C169.308 146.996 170.045 147.733 170.045 148.643Z" fill="white"></path><path fill-rule="evenodd" clip-rule="evenodd" d="M128.457 80.2789H92.996L92.996 88.8719H128.457V80.2789ZM92.996 76.985C91.1768 76.985 89.702 78.4597 89.702 80.2789V88.8719C89.702 90.6911 91.1768 92.1658 92.996 92.1658H128.457C130.276 92.1658 131.751 90.6911 131.751 88.8719V80.2789C131.751 78.4597 130.276 76.985 128.457 76.985H92.996Z" fill="white"></path><path fill-rule="evenodd" clip-rule="evenodd" d="M90.9556 95.7452V92.1558H130.497V95.7452H113.518L119.321 99.0391H131.595C132.808 99.0391 133.791 98.056 133.791 96.8432V91.0578C133.791 89.845 132.808 88.8619 131.595 88.8619H89.8576C88.6448 88.8619 87.6616 89.845 87.6616 91.0578V96.8432C87.6616 98.056 88.6448 99.0391 89.8576 99.0391H100.896L107.195 95.7452H90.9556Z" fill="white"></path><path fill-rule="evenodd" clip-rule="evenodd" d="M111.185 63.3899H110.268C101.855 63.3899 94.8474 69.4043 93.3097 77.3678H128.143C126.606 69.4043 119.598 63.3899 111.185 63.3899ZM131.489 77.3678C129.912 67.5755 121.422 60.096 111.185 60.096H110.268C100.031 60.096 91.5408 67.5755 89.9644 77.3678C89.7917 78.4403 89.702 79.5405 89.702 80.6617H131.751C131.751 79.5405 131.661 78.4403 131.489 77.3678Z" fill="white"></path><path fill-rule="evenodd" clip-rule="evenodd" d="M110.727 95.467L97.3959 101.834H124.058L110.727 95.467ZM111.673 92.2687C111.075 91.9828 110.379 91.9828 109.781 92.2687L91.6031 100.951C89.4927 101.959 90.2108 105.128 92.5496 105.128H128.904C131.243 105.128 131.961 101.959 129.851 100.951L111.673 92.2687Z" fill="white"></path><path fill-rule="evenodd" clip-rule="evenodd" d="M119.321 99.0394H168.399C169.308 99.0394 170.046 98.3021 170.046 97.3925C170.046 96.4829 169.308 95.7455 168.399 95.7455H113.518L119.321 99.0394ZM107.197 95.7455H53.0554C52.1458 95.7455 51.4084 96.4829 51.4084 97.3925C51.4084 98.3021 52.1458 99.0394 53.0554 99.0394H100.898L107.197 95.7455Z" fill="white"></path><path fill-rule="evenodd" clip-rule="evenodd" d="M90.8805 144.132V146.886H130.572V144.132H90.8805ZM89.7825 140.838C88.5697 140.838 87.5865 141.822 87.5865 143.034V147.984C87.5865 149.197 88.5697 150.18 89.7825 150.18H131.67C132.883 150.18 133.866 149.197 133.866 147.984V143.034C133.866 141.822 132.883 140.838 131.67 140.838H89.7825Z" fill="white"></path><path fill-rule="evenodd" clip-rule="evenodd" d="M86.1503 150.272V153.567H135.303V150.272H86.1503ZM85.0523 146.978C83.8395 146.978 82.8563 147.961 82.8563 149.174V154.665C82.8563 155.877 83.8395 156.861 85.0523 156.861H136.401C137.613 156.861 138.597 155.877 138.597 154.665V149.174C138.597 147.961 137.613 146.978 136.401 146.978H85.0523Z" fill="white"></path><path fill-rule="evenodd" clip-rule="evenodd" d="M110.726 51.2874C111.636 51.2874 112.373 52.0248 112.373 52.9344V61.5493H109.079V52.9344C109.079 52.0248 109.816 51.2874 110.726 51.2874Z" fill="white"></path><path fill-rule="evenodd" clip-rule="evenodd" d="M54.6949 105.195V140.804H166.806V105.195H54.6949ZM53.597 101.901C52.3842 101.901 51.401 102.884 51.401 104.097V141.902C51.401 143.115 52.3842 144.098 53.597 144.098H167.904C169.116 144.098 170.099 143.115 170.099 141.902V104.097C170.099 102.884 169.116 101.901 167.904 101.901H53.597Z" fill="white"></path></svg>