<svg xmlns="http://www.w3.org/2000/svg" xmlns:xlink="http://www.w3.org/1999/xlink" id="Layer_1" x="0px" y="0px" viewBox="0 0 81 82" style="enable-background:new 0 0 81 82;" xml:space="preserve"> <style type="text/css"> .st0{fill:#FFFFFF;} .st1{fill-rule:evenodd;clip-rule:evenodd;fill:#00807B;} .st2{fill-rule:evenodd;clip-rule:evenodd;fill:#00B1AC;} </style> <circle class="st0" cx="40.3" cy="40.8" r="40.3"></circle> <path class="st1" d="M25.8,48.3c-0.4,0-0.8,0-1.1-0.1c0,0-0.1,0-0.1,0c-1.5-0.4-2.6-1.4-3-2.7h26.9c0.2,1.1,0.8,2.1,1.7,2.9 L25.8,48.3z M60,28c0-0.4-0.3-0.7-0.7-0.7h-3.6c-0.4,0-0.7,0.3-0.7,0.7c0,0.4,0.3,0.7,0.7,0.7h2.9v6.1H25.2v-6.1h3.4 c0.4,0,0.7-0.3,0.7-0.7c0-0.4-0.3-0.7-0.7-0.7h-4.1c-0.4,0-0.7,0.3-0.7,0.7v13.6c0,0.4,0.3,0.7,0.7,0.7c0.4,0,0.7-0.3,0.7-0.7v-5.3 h33.4v8.1c0,0.1,0,0.1,0,0.2c0,0.1,0,0.1,0,0.2c0,2-1.9,3.6-4.3,3.6h0c-2.4,0-4.3-1.6-4.3-3.7c0-0.4-0.3-0.7-0.7-0.7H20.7 c-0.2,0-0.4,0.1-0.5,0.2c-0.1,0.1-0.2,0.3-0.2,0.5c0.1,2.2,1.6,4,3.7,4.7v6.8c0,0.4,0.3,0.7,0.7,0.7h34.8c0.4,0,0.7-0.3,0.7-0.7 v-5.8c0-0.4-0.3-0.7-0.7-0.7c-0.4,0-0.7,0.3-0.7,0.7v5.1H25.2v-5.7c0.2,0,0.4,0,0.6,0l28.4,0.1h0c3.2,0,5.8-2.3,5.8-5 c0-0.1,0-0.1,0-0.2c0-0.1,0-0.1,0-0.2V28z"></path> <path class="st1" d="M47.5,28.9h5.1c0.4,0,0.6-0.4,0.6-0.8c0-0.4-0.3-0.8-0.6-0.8h-5.1c-0.4,0-0.6,0.4-0.6,0.8 C46.8,28.5,47.1,28.9,47.5,28.9"></path> <path class="st1" d="M44.6,28.9c0.4,0,0.6-0.4,0.6-0.8c0-0.4-0.3-0.8-0.6-0.8h-5.1c-0.4,0-0.6,0.4-0.6,0.8c0,0.4,0.3,0.8,0.6,0.8 H44.6z"></path> <path class="st1" d="M36.6,28.9c0.4,0,0.6-0.4,0.6-0.8c0-0.4-0.3-0.8-0.6-0.8h-5.1c-0.4,0-0.6,0.4-0.6,0.8c0,0.4,0.3,0.8,0.6,0.8 H36.6z"></path> <path class="st2" d="M29.8,25.5c-0.2,0-0.4,0.2-0.4,0.4v4c0,0.2,0.2,0.4,0.4,0.4s0.4-0.2,0.4-0.4v-4C30.2,25.7,30,25.5,29.8,25.5 M29.8,31.7c-1,0-1.8-0.8-1.8-1.8v-4c0-1,0.8-1.8,1.8-1.8c1,0,1.8,0.8,1.8,1.8v4C31.6,30.9,30.8,31.7,29.8,31.7"></path> <path class="st2" d="M37.8,25.5c-0.2,0-0.4,0.2-0.4,0.4v4c0,0.2,0.2,0.4,0.4,0.4c0.2,0,0.4-0.2,0.4-0.4v-4 C38.2,25.7,38,25.5,37.8,25.5 M37.8,31.7c-1,0-1.8-0.8-1.8-1.8v-4c0-1,0.8-1.8,1.8-1.8c1,0,1.8,0.8,1.8,1.8v4 C39.6,30.9,38.8,31.7,37.8,31.7"></path> <path class="st2" d="M45.8,25.5c-0.2,0-0.4,0.2-0.4,0.4v4c0,0.2,0.2,0.4,0.4,0.4c0.2,0,0.4-0.2,0.4-0.4v-4 C46.2,25.7,46,25.5,45.8,25.5 M45.8,31.7c-1,0-1.8-0.8-1.8-1.8v-4c0-1,0.8-1.8,1.8-1.8c1,0,1.8,0.8,1.8,1.8v4 C47.6,30.9,46.8,31.7,45.8,31.7"></path> <path class="st2" d="M53.8,25.5c-0.2,0-0.4,0.2-0.4,0.4v4c0,0.2,0.2,0.4,0.4,0.4c0.2,0,0.4-0.2,0.4-0.4v-4 C54.2,25.7,54,25.5,53.8,25.5 M53.8,31.7c-1,0-1.8-0.8-1.8-1.8v-4c0-1,0.8-1.8,1.8-1.8c1,0,1.8,0.8,1.8,1.8v4 C55.6,30.9,54.8,31.7,53.8,31.7"></path> </svg>