<svg xmlns="http://www.w3.org/2000/svg" width="81" height="82" viewBox="0 0 81 82" fill="none"><circle cx="40.3235" cy="40.8205" r="40.3235" fill="white"></circle><path fill-rule="evenodd" clip-rule="evenodd" d="M34.657 41.2348C35.1347 41.1335 35.4105 40.8764 35.4105 40.4907C35.4105 40.0585 35.0982 39.829 34.657 39.6542V41.2348ZM33.8481 38.267V36.8245C33.4166 36.8973 33.1498 37.1182 33.1498 37.4673C33.1498 37.8713 33.4345 38.1015 33.8481 38.267ZM34.657 38.5427C35.5945 38.827 36.624 39.1765 36.6147 40.4359C36.6147 41.4551 35.8244 42.1265 34.657 42.2643V43.5596H33.8481V42.2736C32.9661 42.1999 32.1486 41.8139 31.5599 41.2714L32.0286 40.3339C32.5804 40.8398 33.2415 41.1524 33.8481 41.2441V39.4061C32.9289 39.1303 31.937 38.7908 31.937 37.5683C31.937 36.5847 32.6904 35.9329 33.8481 35.8037V34.5908H34.657V35.7947C35.3556 35.8592 36.0257 36.0977 36.5316 36.4382L36.0815 37.3936C35.5852 37.09 35.0799 36.9159 34.657 36.8421V38.5427Z" fill="#00B1AC"></path><path fill-rule="evenodd" clip-rule="evenodd" d="M50.032 41.2348C50.5097 41.1335 50.7855 40.8764 50.7855 40.4907C50.7855 40.0585 50.4732 39.829 50.032 39.6542V41.2348ZM49.2231 38.267V36.8245C48.7916 36.8973 48.5248 37.1182 48.5248 37.4673C48.5248 37.8713 48.8095 38.1015 49.2231 38.267ZM50.032 38.5427C50.9695 38.827 51.999 39.1765 51.9897 40.4359C51.9897 41.4551 51.1994 42.1265 50.032 42.2643V43.5596H49.2231V42.2736C48.3411 42.1999 47.5236 41.8139 46.9349 41.2714L47.4036 40.3339C47.9554 40.8398 48.6165 41.1524 49.2231 41.2441V39.4061C48.3039 39.1303 47.312 38.7908 47.312 37.5683C47.312 36.5847 48.0654 35.9329 49.2231 35.8037V34.5908H50.032V35.7947C50.7306 35.8592 51.4007 36.0977 51.9066 36.4382L51.4565 37.3936C50.9602 37.09 50.4549 36.9159 50.032 36.8421V38.5427Z" fill="#00B1AC"></path><path fill-rule="evenodd" clip-rule="evenodd" d="M42.3445 41.2348C42.8222 41.1335 43.098 40.8764 43.098 40.4907C43.098 40.0585 42.7857 39.829 42.3445 39.6542V41.2348ZM41.5356 38.267V36.8245C41.1041 36.8973 40.8373 37.1182 40.8373 37.4673C40.8373 37.8713 41.122 38.1015 41.5356 38.267ZM42.3445 38.5427C43.282 38.827 44.3115 39.1765 44.3022 40.4359C44.3022 41.4551 43.5119 42.1265 42.3445 42.2643V43.5596H41.5356V42.2736C40.6536 42.1999 39.8361 41.8139 39.2474 41.2714L39.7161 40.3339C40.2679 40.8398 40.929 41.1524 41.5356 41.2441V39.4061C40.6164 39.1303 39.6245 38.7908 39.6245 37.5683C39.6245 36.5847 40.3779 35.9329 41.5356 35.8037V34.5908H42.3445V35.7947C43.0431 35.8592 43.7132 36.0977 44.2191 36.4382L43.769 37.3936C43.2727 37.09 42.7674 36.9159 42.3445 36.8421V38.5427Z" fill="#00B1AC"></path><path fill-rule="evenodd" clip-rule="evenodd" d="M31.5599 30.7471H36.6849V25.6221H31.5599V30.7471Z" fill="#00B1AC"></path><path fill-rule="evenodd" clip-rule="evenodd" d="M51.1628 50.82H32.8841C32.1523 50.82 31.5599 50.4373 31.5599 49.9658C31.5599 49.4943 32.1523 49.1117 32.8841 49.1117H51.1628C51.8946 49.1117 52.487 49.4943 52.487 49.9658C52.487 50.4373 51.8946 50.82 51.1628 50.82Z" fill="#00807B"></path><path fill-rule="evenodd" clip-rule="evenodd" d="M51.1628 53.8096H32.8841C32.1523 53.8096 31.5599 53.4269 31.5599 52.9554C31.5599 52.4839 32.1523 52.1012 32.8841 52.1012H51.1628C51.8946 52.1012 52.487 52.4839 52.487 52.9554C52.487 53.4269 51.8946 53.8096 51.1628 53.8096Z" fill="#00807B"></path><path fill-rule="evenodd" clip-rule="evenodd" d="M51.6055 56.7992H32.4414C31.9548 56.7992 31.5599 56.4165 31.5599 55.945C31.5599 55.4735 31.9548 55.0908 32.4414 55.0908H51.6055C52.0927 55.0908 52.487 55.4735 52.487 55.945C52.487 56.4165 52.0927 56.7992 51.6055 56.7992Z" fill="#00807B"></path><path fill-rule="evenodd" clip-rule="evenodd" d="M38.7911 47.8304H32.4433C31.9557 47.8304 31.5599 47.4477 31.5599 46.9762C31.5599 46.5047 31.9557 46.1221 32.4433 46.1221H38.7911C39.2793 46.1221 39.6745 46.5047 39.6745 46.9762C39.6745 47.4477 39.2793 47.8304 38.7911 47.8304Z" fill="#00807B"></path><path d="M47.7448 20.4971H26.1146C26.0556 20.4971 26.0078 20.5449 26.0078 20.6038V61.3903C26.0078 61.4493 26.0556 61.4971 26.1146 61.4971H57.5052C57.5642 61.4971 57.612 61.4493 57.612 61.3903V30.3642C57.612 30.3359 57.6007 30.3087 57.5807 30.2887L47.8203 20.5283C47.8003 20.5083 47.7732 20.4971 47.7448 20.4971Z" stroke="#00807B" stroke-width="1.70833"></path><path d="M47.9713 20.6793L57.4297 30.1377C57.497 30.205 57.4493 30.32 57.3542 30.32H47.8958C47.8369 30.32 47.7891 30.2722 47.7891 30.2132V20.7548C47.7891 20.6597 47.9041 20.6121 47.9713 20.6793Z" stroke="#00807B" stroke-width="1.70833"></path></svg>