<svg xmlns="http://www.w3.org/2000/svg" xmlns:xlink="http://www.w3.org/1999/xlink" id="Layer_1" x="0px" y="0px" viewBox="0 0 149.9 119.7" style="enable-background:new 0 0 149.9 119.7;" xml:space="preserve"> <style type="text/css"> .st0{fill:#00807B;} .st1{fill:#00B1AC;} </style> <path class="st0" d="M149.6,70.5c-0.6-1.1-1.9-1.5-3-1l-29.8,15.6l-0.1-0.1l-0.1-0.1l0,0L94.1,68.7c-0.3-0.2-0.7-0.4-1-0.4 C80.8,66.8,80,55.2,80,54.7c-0.1-1.3-1.1-2.2-2.4-2.1c-0.2,0-0.4,0-0.5,0.1c-2,0.6-4.1,0.6-6.2,0.1c-0.6-0.1-1.2-0.2-1.8-0.2 c-0.8,0-1.6,0.4-2.1,1c-2.4,2.5-5.3,5.6-7.7,6.1c-0.7,0.2-1.5-0.1-2-0.7c-0.6-0.6-0.8-1.6-0.5-2.4c0.8-2.4,1.9-4.7,3.2-6.9 c3-5,9.9-8.2,15-8.6c3.5-0.3,15.3,4.9,24.5,9.8c2.2,1.2,4.7,1.2,7,0.2L132.6,39c1.2-0.5,1.8-1.8,1.3-2.9s-1.8-1.8-2.9-1.3 c-0.1,0-0.2,0.1-0.3,0.1L104.6,47c-0.9,0.4-2,0.4-2.9-0.1c-3.3-1.8-20.6-10.9-27-10.4c-4.8,0.5-9.3,2.2-13.2,5.1 c-6.2-0.3-12.3,1-17.8,3.9c-0.9,0.5-2,0.5-2.9,0L22.1,35c-1-0.7-2.5-0.4-3.2,0.6s-0.4,2.5,0.6,3.2c0.1,0.1,0.2,0.1,0.3,0.2 l18.5,10.4c1.2,0.6,2.5,1,3.8,1c1.2,0,2.3-0.3,3.3-0.8c3.5-1.8,7.3-2.9,11.2-3.3c-0.2,0.4-0.5,0.7-0.7,1.1c-1.5,2.4-2.7,5-3.7,7.8 c-0.8,2.4-0.2,5,1.4,6.8c1.6,1.8,4,2.6,6.3,2.1c3.6-0.7,6.8-3.9,9.6-6.9h0.3c1.9,0.4,3.8,0.5,5.7,0.3c1.5,8.1,8,14.3,16.1,15.3 l21.9,15.9c0.7,0.5,1.1,1.2,1.2,2s-0.1,1.6-0.6,2.3c-1,1.4-3,1.7-4.3,0.7l-16-11.8c-0.1-0.1-0.2-0.1-0.3-0.2l0,0 c-1-0.7-2.4-0.5-3.2,0.5c-0.7,1-0.5,2.4,0.5,3.2l16.1,11.8c1.4,1,1.7,3,0.7,4.3s-3,1.7-4.3,0.7l0,0l-2-1.5c-0.2-0.2-0.3-0.3-0.5-0.5 L84.7,88.4c-1-0.7-2.5-0.4-3.2,0.6S81,91.3,82,92.1l2.1,1.5c0.1,0.1,0.2,0.2,0.4,0.3l14,10.3c0.4,0.5,0.7,1,0.8,1.6 c0.3,1.6-0.8,3.2-2.4,3.5h-0.1c-0.8,0.1-1.6-0.1-2.3-0.6L78.4,97.1c-0.1-0.1-0.3-0.2-0.4-0.2l-0.3-0.2c-1-0.7-2.4-0.5-3.2,0.5l0,0 c-0.4,0.5-0.5,1.2-0.4,1.8c-1.4-2-3.6-3.3-6.1-3.3c-1.5-3.2-4.8-5.2-8.3-5.2h-0.4c-0.7-1.1-1.7-2.1-2.8-2.8 c-2.5-1.5-5.5-1.8-8.3-0.8c-3.5-3.7-9.3-3.8-13-0.3c-0.5,0.5-1,1.1-1.4,1.8l-0.2,0.4L3.4,68.6c-1.1-0.7-2.5-0.3-3.1,0.8 c-0.6,1-0.3,2.3,0.6,3l30.9,20.3c-1.1,3.9,0.5,8.1,4,10.3c1.5,0.9,3.2,1.4,4.9,1.4l0,0c1.9,3.8,6.2,5.8,10.3,4.7 c1.1,4.1,4.7,6.9,8.9,6.9c0.5,0,1-0.1,1.5-0.2c2,3.6,6.7,5,10.3,2.9c2.5-1.4,4-4,3.9-6.8v-0.2l7.6,5.6c1.1,0.9,2.5,1.3,4,1.3 c0.4,0,0.7,0,1-0.1c1.8-0.3,3.4-1.2,4.4-2.7c0.5-0.7,0.9-1.5,1.1-2.4c0.8,0.3,1.8,0.5,2.7,0.5c0.4,0,0.8,0,1.2-0.1 c3.4-0.5,6.1-3.3,6.4-6.8c0.4,0.1,0.8,0.1,1.2,0.1c0.4,0,0.8,0,1.2-0.1c4.1-0.6,6.9-4.4,6.4-8.4c2.1-0.2,4-1.3,5.3-3 c1.4-1.9,1.8-4.4,1.1-6.7l29.5-15.4C149.8,73,150.2,71.7,149.6,70.5z M36,96.3c-0.3-1.2-0.1-2.5,0.6-3.5l1.2-2 c1.4-2.2,4.2-2.9,6.4-1.5l0,0c0.1,0.1,0.3,0.2,0.4,0.3c-0.2,0.3-0.5,0.6-0.7,0.9l-3,4.8c-0.8,1.3-1.3,2.9-1.4,4.5 c-0.5-0.1-1-0.3-1.5-0.6C37,98.5,36.3,97.5,36,96.3L36,96.3z M46.3,104.2c-1-0.6-1.7-1.6-1.9-2.7c0,0,0,0,0-0.1s-0.1-0.2-0.1-0.3 c-0.3-1.2,0-2.4,0.6-3.4l3-4.8c1.4-2.2,4.2-2.9,6.4-1.5l0,0c0.2,0.1,0.4,0.2,0.5,0.4c-2.6,1.7-4.2,4.6-4.2,7.7v5.1 C49.3,105.1,47.7,105,46.3,104.2L46.3,104.2z M55.2,106.8v-7.3c0-2.6,2.1-4.7,4.7-4.7c1.5,0,3,0.7,3.9,2c-2.1,1.4-3.3,3.8-3.3,6.3 v8.3c-0.2,0-0.3,0-0.5,0C57.4,111.5,55.2,109.4,55.2,106.8L55.2,106.8L55.2,106.8z M71.1,112c0,1.7-1.4,3.1-3.1,3.1 s-3.1-1.4-3.1-3.1v-8.8c0-1.7,1.4-3.1,3.1-3.1s3.1,1.4,3.1,3.1V112z M89,113.2c-0.7,1-2.1,1.2-3,0.5l-10.3-7.6v-2.9 c0-1-0.2-2.1-0.7-3l0.2,0.2l13.4,9.8C89.6,110.9,89.8,112.2,89,113.2L89,113.2z"></path> <path class="st1" d="M98.3,27.6c-1.2,0-2.3-1-2.3-2.2c0-0.5,0.2-1.1,0.5-1.5l9.8-11.9c0.8-1,2.2-1.1,3.2-0.3c1,0.8,1.1,2.2,0.3,3.2 l0,0l-9.9,11.9C99.6,27.2,98.9,27.5,98.3,27.6z"></path> <path class="st1" d="M87.4,25.3c-0.3,0-0.5,0-0.8-0.1c-1.2-0.4-1.8-1.7-1.4-2.9l0,0l6.4-17.9C92,3.2,93.3,2.6,94.5,3 c1.2,0.4,1.8,1.7,1.4,2.9l-6.4,17.9C89.2,24.7,88.4,25.3,87.4,25.3z"></path> <path class="st1" d="M68,25.2c-1,0-1.8-0.6-2.1-1.5L59.3,6.1C59,4.9,59.8,3.7,61,3.4c1-0.2,2.1,0.3,2.6,1.2l6.6,17.6 c0.4,1.2-0.2,2.5-1.3,2.9C68.5,25.2,68.3,25.2,68,25.2z"></path> <path class="st1" d="M56.4,27.5c-0.7,0-1.3-0.3-1.7-0.8l-9.9-11.6c-0.8-1-0.7-2.4,0.3-3.2c0.9-0.8,2.4-0.7,3.2,0.2l0.1,0.1l9.9,11.6 c0.8,1,0.7,2.4-0.2,3.2l0,0C57.5,27.3,56.9,27.5,56.4,27.5z"></path> <path class="st1" d="M77.5,24.7c-1.2,0-2.3-1-2.3-2.3L75.1,2.3c0-1.3,1-2.3,2.3-2.3l0,0l0,0c1.2,0,2.3,1,2.3,2.3l0.1,20.1 C79.8,23.6,78.8,24.6,77.5,24.7L77.5,24.7z"></path> </svg>