<svg xmlns="http://www.w3.org/2000/svg" xmlns:xlink="http://www.w3.org/1999/xlink" width="68px" height="86px" viewBox="0 0 68 86"><title>Upstart | Icons | New | LP | Lock</title><g id="Page-1" stroke="none" stroke-width="1" fill="none" fill-rule="evenodd"><g id="PL" transform="translate(-820.000000, -4914.000000)"><g id="Group-20" transform="translate(248.000000, 4899.000000)"><g id="icon-lock" transform="translate(563.000000, 15.000000)"><g id="Group-42" transform="translate(9.460000, 0.000000)"><path d="M63.7830915,77.2405602 C63.7830915,80.278798 61.275243,82.7505479 58.1937325,82.7505479 L8.88736644,82.7505479 C5.80475696,82.7505479 3.29690853,80.278798 3.29690853,77.2405602 L3.29690853,39.2165546 C3.29690853,36.1783168 5.80475696,33.7065669 8.88736644,33.7065669 L58.1937325,33.7065669 C61.275243,33.7065669 63.7830915,36.1783168 63.7830915,39.2165546 L63.7830915,77.2405602 Z M20.2617009,29.9469508 L20.2617009,19.5855311 C20.2617009,12.3695811 26.2181156,6.49890425 33.5394505,6.49890425 C40.8618844,6.49890425 46.8172002,12.3695811 46.8172002,19.5855311 L46.8172002,29.9469508 C46.8172002,30.1213381 46.8424764,30.2892264 46.8699507,30.4571148 L20.2100493,30.4571148 C20.2364246,30.2892264 20.2617009,30.1213381 20.2617009,29.9469508 L20.2617009,29.9469508 Z M58.1937325,30.4571148 L53.3593657,30.4571148 C53.3868399,30.2892264 53.4110172,30.1213381 53.4110172,29.9469508 L53.4110172,19.5855311 C53.4110172,8.78651855 44.4972755,0 33.5394505,0 C22.5827245,0 13.6678838,8.78651855 13.6678838,19.5855311 L13.6678838,29.9469508 C13.6678838,30.1213381 13.6931601,30.2892264 13.7206343,30.4571148 L8.88736644,30.4571148 C3.98706139,30.4571148 0,34.3867856 0,39.2165546 L0,77.2405602 C0,82.0703292 3.98706139,86 8.88736644,86 L58.1937325,86 C63.0940376,86 67.08,82.0703292 67.08,77.2405602 L67.08,39.2165546 C67.08,34.3867856 63.0940376,30.4571148 58.1937325,30.4571148 L58.1937325,30.4571148 Z" id="Fill-207" fill="#00807B"></path><path d="M41.28,51.9030114 C41.28,47.4307455 37.1213716,43.9135664 32.396393,44.8813737 C29.6347617,45.4474296 27.4017239,47.6416914 26.8245861,50.3564279 C26.1967465,53.3096711 27.4200629,56.0297077 29.5592484,57.6229325 C29.8483566,57.8391786 29.9950683,58.1889885 29.9076886,58.5334982 L26.9303048,70.3114899 C26.793302,70.8542252 27.210783,71.38 27.7803695,71.38 L40.159166,71.38 C40.7287525,71.38 41.1462335,70.8542252 41.0103094,70.3114899 L38.0318469,58.5313781 C37.9444672,58.1868684 38.0911788,57.8391786 38.3792084,57.6239926 C40.1397483,56.3137957 41.28,54.2414373 41.28,51.9030114" id="Fill-208" fill="#00ADA8"></path></g></g></g></g></g></svg>