<svg xmlns="http://www.w3.org/2000/svg" width="82" height="82" viewBox="0 0 82 82" fill="none"><circle cx="41.261" cy="41.0129" r="40.3235" fill="#EFFAFB"></circle><path fill-rule="evenodd" clip-rule="evenodd" d="M55.9499 56.7875C55.9499 58.3091 54.6939 59.5471 53.1505 59.5471H28.4556C26.9117 59.5471 25.6556 58.3091 25.6556 56.7875V37.7433C25.6556 36.2216 26.9117 34.9836 28.4556 34.9836H53.1505C54.6939 34.9836 55.9499 36.2216 55.9499 37.7433V56.7875ZM34.1524 33.1006V27.9111C34.1524 24.2971 37.1356 21.3568 40.8025 21.3568C44.4699 21.3568 47.4526 24.2971 47.4526 27.9111V33.1006C47.4526 33.188 47.4653 33.2721 47.479 33.3561H34.1265C34.1397 33.2721 34.1524 33.188 34.1524 33.1006ZM53.1505 33.3561H50.7292C50.743 33.2721 50.7551 33.188 50.7551 33.1006V27.9111C50.7551 22.5025 46.2907 18.1018 40.8025 18.1018C35.3149 18.1018 30.8499 22.5025 30.8499 27.9111V33.1006C30.8499 33.188 30.8626 33.2721 30.8763 33.3561H28.4556C26.0013 33.3561 24.0044 35.3243 24.0044 37.7433V56.7875C24.0044 59.2064 26.0013 61.1746 28.4556 61.1746H53.1505C55.6048 61.1746 57.6012 59.2064 57.6012 56.7875V37.7433C57.6012 35.3243 55.6048 33.3561 53.1505 33.3561Z" fill="#00807B"></path><path fill-rule="evenodd" clip-rule="evenodd" d="M44.6793 44.0972C44.6793 41.8573 42.5965 40.0957 40.23 40.5805C38.8468 40.864 37.7284 41.963 37.4394 43.3226C37.1249 44.8017 37.7376 46.1641 38.809 46.962C38.9538 47.0703 39.0273 47.2455 38.9835 47.4181L37.4923 53.317C37.4237 53.5889 37.6328 53.8522 37.9181 53.8522H44.1179C44.4032 53.8522 44.6123 53.5889 44.5442 53.317L43.0525 47.417C43.0087 47.2445 43.0822 47.0703 43.2265 46.9625C44.1082 46.3063 44.6793 45.2684 44.6793 44.0972Z" fill="#00B1AC"></path></svg>