<svg xmlns="http://www.w3.org/2000/svg" width="81" height="82" viewBox="0 0 81 82" fill="none"><circle cx="40.3235" cy="40.8205" r="40.3235" fill="white"></circle><path fill-rule="evenodd" clip-rule="evenodd" d="M39.4566 59.4561C39.1185 59.4561 38.8076 59.2315 38.714 58.8893C38.6914 58.8076 36.4447 50.6609 34.4703 46.3838C34.1281 45.6412 33.9092 45.077 33.7334 44.6232C33.5906 44.2532 33.4775 43.9608 33.3439 43.6905C32.5068 41.9926 33.0993 40.8379 33.9333 40.324C35.2705 39.4992 37.7813 39.934 39.2469 41.8755C39.6041 42.3487 40.0517 43.1144 40.5692 44.0009C41.1992 45.0785 42.3714 47.0853 42.8303 47.3299C42.913 47.372 43.0651 47.4357 43.153 47.3782C43.2316 47.3273 43.3046 47.1788 43.2943 46.9943C43.2599 46.4085 43.2923 32.0869 43.2964 30.4553C43.2938 30.2734 43.301 28.5298 44.3904 27.4259C44.9367 26.872 45.6721 26.5785 46.5154 26.5785C47.4763 26.5785 48.2657 26.8802 48.8602 27.4763C49.5956 28.2127 49.9682 29.3237 49.9661 30.7785V42.4227C52.0828 42.4253 57.6395 42.8863 60.3056 47.4167C61.9788 50.2601 59.7377 58.029 59.4767 58.9052C59.3559 59.3132 58.9268 59.5476 58.5183 59.4242C58.1103 59.3025 57.878 58.8734 57.9993 58.4653C58.9104 55.402 59.9818 49.9065 58.9767 48.1989C56.2089 43.4947 49.3294 43.9798 49.2565 43.9855C49.0427 44.0004 48.8304 43.929 48.6727 43.783C48.5149 43.6371 48.4245 43.4315 48.4245 43.2167V30.8017C48.4265 29.4928 48.0694 28.8658 47.7693 28.5652C47.4707 28.2661 47.0601 28.1202 46.5154 28.1202C46.0837 28.1202 45.7481 28.2466 45.4912 28.5051C44.9485 29.0519 44.8355 30.094 44.838 30.4496C44.8226 36.8147 44.8098 46.4398 44.8334 46.9054C44.8756 47.629 44.5539 48.3063 43.9942 48.6706C43.4526 49.0226 42.7722 49.0344 42.1242 48.7004C41.3328 48.2924 40.4679 46.8828 39.2382 44.7784C38.7654 43.969 38.3188 43.2054 38.0162 42.8041C37.0295 41.4977 35.3933 41.2341 34.7422 41.636C34.3038 41.9068 34.4919 42.5317 34.7273 43.0091C34.8902 43.3406 35.0207 43.6771 35.1713 44.0672C35.3481 44.5225 35.548 45.0395 35.8702 45.7373C37.898 50.1311 40.1077 58.1421 40.2002 58.4813C40.3132 58.8913 40.0717 59.3163 39.6611 59.4284C39.5933 59.4474 39.5244 59.4561 39.4566 59.4561Z" fill="#00807B"></path><path fill-rule="evenodd" clip-rule="evenodd" d="M27.5012 27.9422C26.4251 27.9422 25.5494 27.0666 25.5494 25.9905C25.5494 24.9144 26.4251 24.0387 27.5012 24.0387C28.5773 24.0387 29.4529 24.9144 29.4529 25.9905C29.4529 27.0666 28.5773 27.9422 27.5012 27.9422ZM27.5012 22.4971C25.5752 22.4971 24.0078 24.0644 24.0078 25.9905C24.0078 27.9165 25.5752 29.4839 27.5012 29.4839C29.4273 29.4839 30.9946 27.9165 30.9946 25.9905C30.9946 24.0644 29.4273 22.4971 27.5012 22.4971Z" fill="#00B1AC"></path><path fill-rule="evenodd" clip-rule="evenodd" d="M37.0101 24.0389C38.0862 24.0389 38.9618 24.9145 38.9618 25.9906C38.9618 27.0667 38.0862 27.9424 37.0101 27.9424C35.934 27.9424 35.0583 27.0667 35.0583 25.9906C35.0583 24.9145 35.934 24.0389 37.0101 24.0389ZM37.0101 29.4841C38.9362 29.4841 40.5036 27.9167 40.5036 25.9906C40.5036 24.0646 38.9362 22.4972 37.0101 22.4972C35.0841 22.4972 33.5167 24.0646 33.5167 25.9906C33.5167 27.9167 35.0841 29.4841 37.0101 29.4841Z" fill="#00B1AC"></path><path fill-rule="evenodd" clip-rule="evenodd" d="M27.5012 37.5707C26.4251 37.5707 25.5494 36.695 25.5494 35.6189C25.5494 34.5428 26.4251 33.6672 27.5012 33.6672C28.5773 33.6672 29.4529 34.5428 29.4529 35.6189C29.4529 36.695 28.5773 37.5707 27.5012 37.5707ZM27.5012 32.1255C25.5752 32.1255 24.0078 33.6928 24.0078 35.6189C24.0078 37.545 25.5752 39.1123 27.5012 39.1123C29.4273 39.1123 30.9946 37.545 30.9946 35.6189C30.9946 33.6928 29.4273 32.1255 27.5012 32.1255Z" fill="#00B1AC"></path><path fill-rule="evenodd" clip-rule="evenodd" d="M37.0101 33.6673C38.0862 33.6673 38.9618 34.543 38.9618 35.6191C38.9618 36.6951 38.0862 37.5708 37.0101 37.5708C35.934 37.5708 35.0583 36.6951 35.0583 35.6191C35.0583 34.543 35.934 33.6673 37.0101 33.6673ZM37.0101 39.1125C38.9362 39.1125 40.5036 37.5451 40.5036 35.6191C40.5036 33.693 38.9362 32.1257 37.0101 32.1257C35.0841 32.1257 33.5167 33.693 33.5167 35.6191C33.5167 37.5451 35.0841 39.1125 37.0101 39.1125Z" fill="#00B1AC"></path><path fill-rule="evenodd" clip-rule="evenodd" d="M27.5012 47.1991C26.4251 47.1991 25.5494 46.3234 25.5494 45.2473C25.5494 44.1712 26.4251 43.2956 27.5012 43.2956C28.5773 43.2956 29.4529 44.1712 29.4529 45.2473C29.4529 46.3234 28.5773 47.1991 27.5012 47.1991ZM27.5012 41.7539C25.5752 41.7539 24.0078 43.3212 24.0078 45.2473C24.0078 47.1733 25.5752 48.7407 27.5012 48.7407C29.4273 48.7407 30.9946 47.1733 30.9946 45.2473C30.9946 43.3212 29.4273 41.7539 27.5012 41.7539Z" fill="#00B1AC"></path><path fill-rule="evenodd" clip-rule="evenodd" d="M46.5156 26.5787C47.4766 26.5787 48.2654 26.8804 48.86 27.476C49.0363 27.6528 49.1904 27.8522 49.3246 28.0706C49.7675 27.4739 50.0132 26.7452 50.0132 25.9903C50.0132 24.0643 48.4458 22.4974 46.5198 22.4974C44.5937 22.4974 43.0263 24.0643 43.0263 25.9903C43.0263 26.8131 43.3136 27.5916 43.8265 28.2114C43.9714 27.9349 44.1543 27.6651 44.3902 27.4256C44.937 26.8717 45.6718 26.5787 46.5156 26.5787Z" fill="#00B1AC"></path></svg>