<svg xmlns="http://www.w3.org/2000/svg" width="81" height="82" viewBox="0 0 81 82" fill="none"><circle cx="40.3235" cy="40.8205" r="40.3235" fill="white"></circle><path fill-rule="evenodd" clip-rule="evenodd" d="M59.0034 56.8106L58.3969 51.1874C58.3789 49.8218 57.4991 48.6638 56.2796 48.2245C56.973 47.3565 57.375 46.2693 57.375 45.1289C57.375 42.3952 55.1517 40.1716 52.4194 40.1716C49.6871 40.1716 47.4638 42.3952 47.4638 45.1289C47.4638 46.2713 47.8637 47.358 48.5571 48.2255C48.0733 48.4004 47.6437 48.6879 47.3 49.0573C46.7594 48.1048 45.8454 47.3937 44.7587 47.1182C45.8223 45.9436 46.4413 44.3996 46.4413 42.7766C46.4413 39.2146 43.5443 36.3171 39.9839 36.3171C36.4236 36.3171 33.5266 39.2146 33.5266 42.7766C33.5266 44.4026 34.1441 45.9456 35.2072 47.1187C34.1335 47.3916 33.2296 48.0898 32.6875 49.0261C32.3478 48.6708 31.9278 48.3944 31.456 48.2245C32.1499 47.3565 32.5523 46.2688 32.5523 45.1289C32.5523 42.3952 30.329 40.1716 27.5962 40.1716C24.8635 40.1716 22.6401 42.3952 22.6401 45.1289C22.6401 46.2713 23.0406 47.358 23.734 48.2255C22.5155 48.6653 21.6368 49.8228 21.6187 51.1874L21.0122 56.8106C20.9675 57.2248 21.267 57.5962 21.681 57.6409C21.7081 57.6439 21.7358 57.6454 21.7624 57.6454C22.1427 57.6454 22.4693 57.359 22.511 56.9724L23.121 51.3115C23.124 51.2844 23.1255 51.2572 23.1255 51.2301C23.1255 50.2993 23.8832 49.5413 24.8137 49.5413H25.4664C25.4774 49.5413 25.488 49.5383 25.499 49.5378C25.5076 49.5383 25.5166 49.5413 25.5252 49.5413C25.7874 49.5413 26.0422 49.4041 26.1814 49.1593C26.3869 48.7974 26.2597 48.3376 25.8975 48.1315C24.8182 47.5193 24.1475 46.3683 24.1475 45.1289C24.1475 43.227 25.695 41.6794 27.5962 41.6794C29.4975 41.6794 31.045 43.227 31.045 45.1289C31.045 46.3537 30.3853 47.4987 29.3241 48.1149C29.1252 48.231 29.0021 48.424 28.9639 48.6346C28.9639 48.6356 28.9639 48.6361 28.9634 48.6371C28.9568 48.6763 28.9523 48.716 28.9518 48.7557C28.9513 48.7663 28.9488 48.7768 28.9488 48.7874C28.9488 48.807 28.9528 48.8256 28.9543 48.8452C28.9553 48.8542 28.9558 48.8628 28.9568 48.8708C28.9991 49.2473 29.3146 49.5413 29.7025 49.5413H30.3788C31.3093 49.5413 32.067 50.2993 32.067 51.2301C32.067 51.2979 32.0785 51.3623 32.0951 51.4246L31.3148 58.6622C31.2701 59.0764 31.5695 59.4478 31.9831 59.4925C32.0107 59.4956 32.0383 59.4971 32.065 59.4971C32.4448 59.4971 32.7719 59.2101 32.8136 58.8241L33.6421 51.1396C33.6451 51.1125 33.6466 51.0853 33.6466 51.0587C33.6466 49.6459 34.7952 48.4969 36.2071 48.4969H37.0929C37.108 48.4969 37.1225 48.4934 37.1376 48.4924C37.1492 48.4929 37.1612 48.4969 37.1728 48.4969C37.4356 48.4969 37.6903 48.3597 37.829 48.1149C38.0345 47.753 37.9079 47.2926 37.5456 47.0871C35.9961 46.2075 35.0339 44.5559 35.0339 42.7766C35.0339 40.0465 37.2542 37.8249 39.9839 37.8249C42.7137 37.8249 44.934 40.0465 44.934 42.7766C44.934 44.5358 43.9879 46.1783 42.465 47.0624C42.2253 47.2012 42.0942 47.4515 42.0922 47.7098C42.0917 47.7209 42.0892 47.7319 42.0892 47.743C42.0892 47.7636 42.0937 47.7827 42.0952 47.8028C42.0957 47.8063 42.0957 47.8098 42.0962 47.8128C42.1319 48.1958 42.4504 48.4969 42.8428 48.4969H43.7608C45.1727 48.4969 46.3212 49.6459 46.3212 51.0587C46.3212 51.0853 46.3228 51.1125 46.3258 51.1396L47.1543 58.8241C47.196 59.2101 47.5226 59.4971 47.9029 59.4971C47.9296 59.4971 47.9572 59.4956 47.9848 59.4925C48.3983 59.4478 48.6978 59.0764 48.6531 58.6622L47.9024 51.7015L47.9446 51.3115C47.9477 51.2844 47.9492 51.2572 47.9492 51.2301C47.9492 50.2993 48.7063 49.5413 49.6369 49.5413H50.2895C50.3006 49.5413 50.3111 49.5383 50.3222 49.5378C50.3312 49.5383 50.3398 49.5413 50.3483 49.5413C50.6106 49.5413 50.8658 49.4041 51.0045 49.1593C51.21 48.7974 51.0829 48.3376 50.7211 48.1315C49.6414 47.5193 48.9711 46.3683 48.9711 45.1289C48.9711 43.227 50.5176 41.6794 52.4194 41.6794C54.3211 41.6794 55.8676 43.227 55.8676 45.1289C55.8676 46.3542 55.2084 47.4987 54.1473 48.1149C53.9096 48.2536 53.7785 48.5019 53.775 48.7582C53.7745 48.7678 53.772 48.7773 53.772 48.7874C53.772 48.8055 53.776 48.8226 53.7775 48.8407C53.7785 48.8517 53.779 48.8628 53.7805 48.8738C53.8237 49.2488 54.1387 49.5413 54.5256 49.5413H55.2019C56.1329 49.5413 56.8901 50.2993 56.8901 51.2301C56.8901 51.2572 56.8916 51.2844 56.8946 51.3115L57.5051 56.9724C57.5468 57.359 57.8729 57.6454 58.2532 57.6454C58.2804 57.6454 58.3075 57.6439 58.3346 57.6409C58.7487 57.5962 59.0481 57.2248 59.0034 56.8106Z" fill="#00807B"></path><path fill-rule="evenodd" clip-rule="evenodd" d="M32.3728 27.4242L30.7888 29.0244C29.4008 30.427 29.4008 32.7227 30.7888 34.1243L30.7903 34.1268C32.1778 35.5273 34.4493 35.5273 35.8358 34.1258L39.3641 30.5597V30.5652C39.6607 30.3212 40.0857 30.3212 40.3829 30.5652H40.3878L37.3492 27.4936C35.9795 26.108 33.7716 26.0855 32.3737 27.4247" fill="#00807B"></path><path fill-rule="evenodd" clip-rule="evenodd" d="M49.2123 29.0942L42.5687 22.5418L42.5642 22.5379C42.4767 22.4511 42.3846 22.3707 42.2901 22.2942C40.8741 21.1556 38.7693 21.237 37.4517 22.5369C37.4282 22.5596 37.4057 22.5823 37.3847 22.605L37.1841 22.8023L32.4078 27.5131H32.4088C33.8254 26.189 36.0622 26.2112 37.4507 27.5812L40.5304 30.6181L44.0978 34.137C45.5043 35.5238 47.8052 35.5238 49.2128 34.137C50.6203 32.7498 50.6188 30.4805 49.2123 29.0937" fill="#00B1AC"></path></svg>