<svg xmlns="http://www.w3.org/2000/svg" width="82" height="82" viewBox="0 0 82 82" fill="none"><circle cx="41.261" cy="41.0129" r="40.3235" fill="#EFFAFB"></circle><path fill-rule="evenodd" clip-rule="evenodd" d="M41.6273 56.7299C41.6273 55.819 40.8889 55.0803 39.9775 55.0803C39.0665 55.0803 38.3281 55.819 38.3281 56.7299C38.3281 57.6408 39.0665 58.3795 39.9775 58.3795C40.8889 58.3795 41.6273 57.6408 41.6273 56.7299Z" fill="#00807B"></path><line x1="30.0801" y1="52.1183" x2="50.2876" y2="52.1183" stroke="#00807B" stroke-width="1.8"></line><line x1="30.0801" y1="28.1991" x2="45.3388" y2="28.1991" stroke="#00807B" stroke-width="1.8"></line><line x1="36.3414" y1="24.9" x2="44.0266" y2="24.9" stroke="#00807B" stroke-width="1.8" stroke-linecap="round"></line><path fill-rule="evenodd" clip-rule="evenodd" d="M32.0307 22.6512H47.925C48.9191 22.6512 49.725 23.4571 49.725 24.4512V24.5099L51.4956 23.9891C51.2688 22.2191 49.7567 20.8512 47.925 20.8512H32.0307C30.0424 20.8512 28.4307 22.463 28.4307 24.4512V58.4911C28.4307 60.4793 30.0424 62.0911 32.0307 62.0911H47.925C49.9132 62.0911 51.525 60.4793 51.525 58.4911V44.3103L49.725 43.7564V58.4911C49.725 59.4852 48.9191 60.2911 47.925 60.2911H32.0307C31.0366 60.2911 30.2307 59.4852 30.2307 58.4911V24.4512C30.2307 23.4571 31.0366 22.6512 32.0307 22.6512Z" fill="#00807B"></path><path d="M53.9993 44.7704C59.9211 44.7704 64.7216 39.9699 64.7216 34.0481C64.7216 28.1263 59.9211 23.3257 53.9993 23.3257C48.0775 23.3257 43.2769 28.1263 43.2769 34.0481C43.2769 36.4894 44.0928 38.7403 45.4669 40.5427C45.515 40.6058 45.5272 40.6904 45.4978 40.764C44.6067 42.9948 43.5694 43.9229 41.4812 44.8838C41.2791 44.9768 41.3143 45.2754 41.5342 45.309C44.4058 45.7483 46.1516 45.2933 48.9411 43.6281C49.0085 43.5879 49.0928 43.5848 49.1627 43.6203C50.6159 44.3559 52.2592 44.7704 53.9993 44.7704Z" stroke="#00B1AC" stroke-width="1.8"></path><circle cx="53.9994" cy="28.2743" r="1.2372" fill="#00807B"></circle><rect x="52.7622" y="30.7487" width="2.47439" height="10.31" rx="0.45" fill="#00807B"></rect></svg>