<svg xmlns="http://www.w3.org/2000/svg" width="115" height="101" viewBox="0 0 115 101" fill="none"><path fill-rule="evenodd" clip-rule="evenodd" d="M52.9431 43.9755C52.9611 44.3756 53.0289 44.7508 53.1423 45.1011C53.2558 45.4542 53.437 45.7533 53.6832 45.9997C53.9308 46.2476 54.2808 46.3708 54.7373 46.3708C55.1731 46.3708 55.5203 46.2476 55.7776 45.9997C56.0335 45.7533 56.223 45.4542 56.3461 45.1011C56.4692 44.7508 56.5453 44.3798 56.5758 43.9907C56.6034 43.6002 56.6173 43.2541 56.6173 42.9508C56.6173 42.6642 56.6034 42.3278 56.5758 41.9359C56.5453 41.5482 56.4762 41.1772 56.36 40.8255C56.2465 40.4738 56.0708 40.1706 55.8343 39.9116C55.5977 39.6569 55.2685 39.5281 54.8507 39.5281C54.397 39.5281 54.0387 39.6416 53.7814 39.8701C53.5269 40.0972 53.3318 40.3838 53.1977 40.7258C53.0662 41.0678 52.9846 41.4375 52.957 41.8376C52.9293 42.2364 52.9155 42.5992 52.9155 42.9204C52.9155 43.225 52.9238 43.5767 52.9431 43.9755ZM50.2928 40.7257C50.4837 40.0611 50.7783 39.481 51.1767 38.9853C51.5751 38.4924 52.0787 38.1033 52.6859 37.8181C53.2932 37.5315 54.0167 37.3888 54.8509 37.3888C55.7431 37.3888 56.4859 37.5384 57.0739 37.8319C57.6604 38.1268 58.1404 38.5256 58.5111 39.0296C58.8819 39.5336 59.1419 40.1276 59.2955 40.8116C59.4477 41.4956 59.5224 42.2266 59.5224 43.0076C59.5224 43.7857 59.4269 44.5085 59.2402 45.1731C59.0493 45.8391 58.7601 46.4192 58.37 46.9135C57.9813 47.4078 57.4819 47.7928 56.8747 48.0669C56.2646 48.3424 55.5439 48.4809 54.7098 48.4809C53.8355 48.4809 53.0982 48.3383 52.5006 48.0531C51.903 47.7678 51.4174 47.3732 51.0495 46.8706C50.6774 46.3666 50.4118 45.7726 50.2513 45.0886C50.0894 44.4046 50.0078 43.6722 50.0078 42.8926C50.0078 42.1131 50.1033 41.3917 50.2928 40.7257ZM53.751 29.0992L43.1893 48.1625C43.0026 48.5003 42.6471 48.7094 42.2625 48.7094H42.2127C41.4034 48.7094 40.893 47.8385 41.2859 47.1309L51.8987 28.0691C52.0855 27.7326 52.4396 27.5236 52.8242 27.5236C53.6321 27.5236 54.1425 28.3917 53.751 29.0992ZM38.2426 34.4826C38.2619 34.862 38.3283 35.2192 38.4418 35.5501C38.5566 35.8824 38.7364 36.1635 38.9854 36.3906C39.2303 36.6204 39.583 36.734 40.0367 36.734C40.4752 36.734 40.8211 36.6204 41.0784 36.3906C41.3357 36.1635 41.5238 35.8824 41.6483 35.5501C41.7714 35.2192 41.8475 34.8661 41.8766 34.4951C41.9042 34.124 41.9167 33.7889 41.9167 33.4843C41.9167 33.1991 41.9042 32.8515 41.8766 32.4417C41.8475 32.0332 41.7756 31.64 41.6621 31.2592C41.5487 30.8785 41.373 30.5572 41.1337 30.29C40.8972 30.0242 40.5707 29.8899 40.1529 29.8899C39.6964 29.8899 39.3395 30.0145 39.0836 30.2609C38.8263 30.5088 38.6327 30.8134 38.4999 31.1734C38.3657 31.5348 38.2868 31.9252 38.2564 32.342C38.2287 32.7601 38.2149 33.1326 38.2149 33.4538C38.2149 33.7584 38.2246 34.1004 38.2426 34.4826ZM35.5935 31.2011C35.783 30.5185 36.0777 29.9203 36.4761 29.4066C36.8745 28.8916 37.378 28.4887 37.9881 28.1951C38.5953 27.9002 39.3161 27.752 40.153 27.752C41.0452 27.752 41.7853 27.9043 42.3732 28.2076C42.9625 28.5122 43.4425 28.9262 43.8133 29.4482C44.1826 29.9716 44.444 30.5849 44.5948 31.2869C44.7484 31.9903 44.8245 32.7325 44.8245 33.5106C44.8245 34.2915 44.7304 35.0074 44.5395 35.6651C44.35 36.3214 44.0595 36.8863 43.6694 37.3612C43.2807 37.8361 42.7827 38.2072 42.174 38.4717C41.5667 38.7403 40.846 38.8718 40.0091 38.8718C39.1362 38.8718 38.4003 38.7347 37.8027 38.4592C37.2051 38.1837 36.7195 37.8029 36.3488 37.3183C35.9781 36.8337 35.7139 36.2549 35.552 35.5792C35.3888 34.9035 35.3099 34.178 35.3099 33.3971C35.3099 32.6189 35.4026 31.8865 35.5935 31.2011Z" fill="#00B1AC"></path><path fill-rule="evenodd" clip-rule="evenodd" d="M90.7522 49.7183H76.717C76.1356 49.7183 75.6638 49.0404 75.6638 48.205C75.6638 47.3697 76.1356 46.6918 76.717 46.6918H90.7522C91.3336 46.6918 91.8054 47.3697 91.8054 48.205C91.8054 49.0404 91.3336 49.7183 90.7522 49.7183Z" fill="#00807B"></path><path fill-rule="evenodd" clip-rule="evenodd" d="M90.9496 42.6563H79.546C79.0737 42.6563 78.6903 41.9784 78.6903 41.143C78.6903 40.3077 79.0737 39.6298 79.546 39.6298H90.9496C91.422 39.6298 91.8054 40.3077 91.8054 41.143C91.8054 41.9784 91.422 42.6563 90.9496 42.6563Z" fill="#00807B"></path><path fill-rule="evenodd" clip-rule="evenodd" d="M90.9496 35.5944H79.546C79.0737 35.5944 78.6903 34.9165 78.6903 34.0811C78.6903 33.2458 79.0737 32.5679 79.546 32.5679H90.9496C91.422 32.5679 91.8054 33.2458 91.8054 34.0811C91.8054 34.9165 91.422 35.5944 90.9496 35.5944Z" fill="#00807B"></path><path fill-rule="evenodd" clip-rule="evenodd" d="M90.7522 28.5324H76.717C76.1356 28.5324 75.6638 27.8545 75.6638 27.0191C75.6638 26.1838 76.1356 25.5059 76.717 25.5059H90.7522C91.3336 25.5059 91.8054 26.1838 91.8054 27.0191C91.8054 27.8545 91.3336 28.5324 90.7522 28.5324Z" fill="#00807B"></path><path fill-rule="evenodd" clip-rule="evenodd" d="M96.3659 18.4439H64.0411C62.6604 18.4439 62.0442 17.4351 59.5221 15.9218C58.5134 14.9129 55.5984 13.3997 56.9791 13.3997H96.3659C97.7467 13.3997 97.8584 14.5296 97.8584 15.9218C97.8584 17.314 97.7467 18.4439 96.3659 18.4439Z" fill="#00807B"></path><circle cx="47.3768" cy="38.6601" r="25.5985" transform="rotate(45 47.3768 38.6601)" stroke="#00807B" stroke-width="3.074"></circle><path d="M25.9962 53.4428L32.5941 60.0407L12.032 80.6028C10.2437 82.3911 7.28581 82.3775 5.47261 80.5643C3.65942 78.7511 3.64585 75.7932 5.43414 74.0049L25.9962 53.4428Z" stroke="#00807B" stroke-width="3.074"></path><path d="M26.1671 15.4174V5.57886C26.1671 5.44079 26.279 5.32886 26.4171 5.32886H97.5454C97.6835 5.32886 97.7954 5.44079 97.7954 5.57886V58.5479C97.7954 58.686 97.6835 58.7979 97.5454 58.7979H71.5653" stroke="#00807B" stroke-width="4" stroke-linecap="round"></path><path d="M105.929 60.8156L105.929 79.4881C105.929 80.0404 106.377 80.4881 106.929 80.4881L111.902 80.4881C112.743 80.4881 113.209 81.4643 112.679 82.1179L99.644 98.1939C99.2438 98.6875 98.4907 98.6875 98.0905 98.1939L85.056 82.1179C84.5259 81.4643 84.9912 80.4881 85.8327 80.4881L90.8053 80.4881C91.3576 80.4881 91.8053 80.0404 91.8053 79.4881L91.8053 67.8775" stroke="#00B1AC" stroke-width="3" stroke-linecap="round"></path></svg>