<svg xmlns="http://www.w3.org/2000/svg" width="105" height="103" viewBox="0 0 105 103" fill="none"><path fill-rule="evenodd" clip-rule="evenodd" d="M50.5198 24.3694C48.3867 24.3694 46.6505 26.0771 46.6505 28.1753C46.6505 30.2734 48.3867 31.9812 50.5198 31.9812C52.653 31.9812 54.3892 30.2734 54.3892 28.1753C54.3892 26.0771 52.653 24.3694 50.5198 24.3694M50.5198 35.8596C46.2128 35.8596 42.7075 32.4118 42.7075 28.1754C42.7075 23.939 46.2128 20.4912 50.5198 20.4912C54.8268 20.4912 58.3321 23.939 58.3321 28.1754C58.3321 32.4118 54.8268 35.8596 50.5198 35.8596" fill="#00B1AC"></path><path fill-rule="evenodd" clip-rule="evenodd" d="M52.0816 11.455L95.6969 40.1157H8.46629L52.0816 11.455ZM75.944 85.2379H88.7098V44.0143H75.944V85.2379ZM30.7351 44.0143H72.042V85.2379H61.0046V58.9593C61.0046 54.0431 57.0016 50.043 52.0817 50.043C47.1619 50.043 43.1589 54.0431 43.1589 58.9593V78.4542C43.1589 79.5315 44.0329 80.4035 45.1097 80.4035C46.1878 80.4035 47.0605 79.5315 47.0605 78.4542V58.9593C47.0605 56.1926 49.313 53.9417 52.0817 53.9417C54.8505 53.9417 57.103 56.1926 57.103 58.9593V85.2379H30.7351V44.0143ZM1.95092 44.0143H10.1676V78.4542C10.1676 79.5315 11.0402 80.4036 12.1183 80.4036C13.1952 80.4036 14.0691 79.5315 14.0691 78.4542V44.0143H26.8336V85.2379H5.83815C4.76133 85.2379 3.88738 86.1113 3.88738 87.1873C3.88738 88.2646 4.76133 89.1367 5.83815 89.1367H98.3254C99.4023 89.1367 100.276 88.2646 100.276 87.1873C100.276 86.1113 99.4023 85.2379 98.3254 85.2379H92.611V44.0143H102.213C103.075 44.0143 103.834 43.449 104.081 42.6238C104.329 41.7999 104.005 40.9097 103.286 40.4366L53.1534 7.49254C52.5032 7.06499 51.6604 7.06499 51.0102 7.49254L0.877996 40.4366C0.158813 40.9097 -0.165015 41.7999 0.0820826 42.6238C0.32918 43.449 1.08868 44.0143 1.95092 44.0143V44.0143Z" fill="#00807B"></path><path fill-rule="evenodd" clip-rule="evenodd" d="M102.213 92.2103H1.95075C0.873936 92.2103 0 93.127 0 94.2594C0 95.3919 0.873936 96.3086 1.95075 96.3086H102.213C103.291 96.3086 104.164 95.3919 104.164 94.2594C104.164 93.127 103.291 92.2103 102.213 92.2103" fill="#00807B"></path></svg>