<svg xmlns="http://www.w3.org/2000/svg" width="146" height="155" viewBox="0 0 146 155" fill="none"><path d="M43.5264 44.1817L53.1748 0.334961H45.1017L23.9672 34.5183L17.8631 0.334961H10.3151L0.666748 44.1817H6.11445L14.2532 6.90869L20.948 44.1817H23.1796L46.2831 6.90869L38.0787 44.1817H43.5264Z" fill="#02060C"></path><path d="M54.789 30.9028C54.789 39.3172 60.2367 44.9706 69.2943 44.9706C79.4677 44.9706 86.9501 35.7673 86.9501 25.7753C86.9501 17.3609 81.4368 11.6418 72.4448 11.6418C62.2057 11.6418 54.789 20.9107 54.789 30.9028ZM81.765 25.9067C81.765 33.4008 76.6454 40.5662 69.4256 40.5662C63.4528 40.5662 59.9741 36.6877 59.9741 30.7056C59.9741 23.2115 65.0937 16.0462 72.3135 16.0462C78.2863 16.0462 81.765 19.9247 81.765 25.9067Z" fill="#02060C"></path><path d="M96.0252 44.1817L100.948 21.7653C102.982 19.0701 106.461 16.5721 110.137 16.5721C111.253 16.5721 112.237 16.7035 112.631 16.835L113.747 11.7732C108.299 11.7732 105.083 13.6796 101.932 17.2952L103.048 12.4306H98.1255L91.1026 44.1817H96.0252Z" fill="#02060C"></path><path d="M114.014 30.9028C114.014 39.3829 119.856 44.9706 129.504 44.9706C133.574 44.9706 137.774 43.4586 140.596 41.2235L138.956 37.8052C136.396 39.843 132.917 40.8948 129.832 40.8948C122.678 40.8948 119.068 36.359 119.068 31.4287C119.068 30.9685 119.134 30.1797 119.134 29.9167H144.994C145.191 28.9964 145.519 27.0243 145.519 25.5123C145.519 17.4266 140.203 11.6418 131.867 11.6418C121.825 11.6418 114.014 20.3848 114.014 30.9028ZM119.659 26.3012C120.643 20.6478 125.566 15.7175 131.408 15.7175C137.709 15.7175 141.056 19.7932 141.056 25.0522C141.056 25.3809 140.99 26.0382 140.925 26.3012H119.659Z" fill="#02060C"></path><path d="M20.4885 98.9627V59.9806H34.4031V55.116H1.19183V59.9806H15.0408V98.9627H20.4885Z" fill="#02060C"></path><path d="M67.8319 98.9627V76.5463C67.8319 69.6439 64.3532 66.4228 57.7241 66.4228C52.9327 66.4228 48.6008 69.1838 46.3692 71.8133V55.116H41.4466V98.9627H46.3692V75.7575C48.2726 73.1937 51.9482 70.8272 55.755 70.8272C60.0213 70.8272 62.9092 72.4706 62.9092 78.0583V98.9627H67.8319Z" fill="#02060C"></path><path d="M102.406 98.9627V77.138C102.406 69.4467 96.8267 66.4228 90.1319 66.4228C84.9467 66.4228 80.8773 68.132 77.4643 71.6818L79.7616 75.1001C82.5839 72.0762 85.6687 70.6957 89.4755 70.6957C94.07 70.6957 97.483 73.128 97.483 77.4009V83.1201C94.9232 80.1619 91.3133 78.7814 86.9814 78.7814C81.5993 78.7814 75.8891 82.134 75.8891 89.2336C75.8891 96.136 81.5993 99.7516 86.9814 99.7516C91.2477 99.7516 94.8576 98.2396 97.483 95.3472V98.9627H102.406ZM97.483 92.2575C95.5796 94.887 92.2322 96.2018 88.7535 96.2018C84.1591 96.2018 80.943 93.3093 80.943 89.2994C80.943 85.2237 84.1591 82.3312 88.7535 82.3312C92.2322 82.3312 95.5796 83.646 97.483 86.2755V92.2575Z" fill="#02060C"></path><path d="M138.593 98.9627V76.6778C138.593 69.7754 135.114 66.4228 128.485 66.4228C123.76 66.4228 119.428 69.1838 117.196 71.8133V67.2117H112.273V98.9627H117.196V75.7575C119.034 73.1937 122.709 70.8272 126.582 70.8272C130.848 70.8272 133.67 72.6021 133.67 78.1898V98.9627H138.593Z" fill="#02060C"></path><path d="M12.7436 153.744V135.469H33.9437V127.449H12.7436V117.917H34.4031V109.897H3.42342V153.744H12.7436Z" fill="#0A47BD"></path><path d="M68.0929 153.744V133.234C68.0929 124.096 61.4637 121.204 54.2439 121.204C49.2556 121.204 44.2674 122.782 40.3949 126.2L43.5454 131.788C46.2364 129.29 49.3869 128.041 52.7999 128.041C57.0006 128.041 59.7572 130.144 59.7572 133.365V137.77C57.6569 135.206 53.9157 133.891 49.7151 133.891C44.6612 133.891 38.6884 136.586 38.6884 144.015C38.6884 151.114 44.6612 154.533 49.7151 154.533C53.8501 154.533 57.5913 153.021 59.7572 150.457V153.744H68.0929ZM59.7572 146.118C58.3789 147.959 55.7535 148.879 53.0625 148.879C49.7807 148.879 47.0897 147.17 47.0897 144.212C47.0897 141.188 49.7807 139.413 53.0625 139.413C55.7535 139.413 58.3789 140.333 59.7572 142.174V146.118Z" fill="#0A47BD"></path><path d="M80.4958 117.325C83.2525 117.325 85.4841 115.09 85.4841 112.329C85.4841 109.568 83.2525 107.333 80.4958 107.333C77.8048 107.333 75.5076 109.568 75.5076 112.329C75.5076 115.09 77.8048 117.325 80.4958 117.325ZM84.6965 153.744V121.993H76.3608V153.744H84.6965Z" fill="#0A47BD"></path><path d="M101.298 153.744V132.774C102.676 130.736 106.351 129.224 109.108 129.224C110.027 129.224 110.815 129.29 111.405 129.421V121.27C107.467 121.27 103.529 123.505 101.298 126.331V121.993H92.9619V153.744H101.298Z" fill="#0A47BD"></path></svg>