<svg xmlns="http://www.w3.org/2000/svg" xmlns:xlink="http://www.w3.org/1999/xlink" width="100px" height="75px" viewBox="0 0 100 75"><title>Upstart | Icons | New | LP | New Borrowers</title><desc>Created with Sketch.</desc><defs><polygon id="path-1" points="0.0506578947 0.319354237 13.7355263 0.319354237 13.7355263 25.2216763 0.0506578947 25.2216763"></polygon><polygon id="path-3" points="0.0951315789 0.138033898 4.0425 0.138033898 4.0425 21.0449695 0.0951315789 21.0449695"></polygon></defs><g id="Page-1" stroke="none" stroke-width="1" fill="none" fill-rule="evenodd"><g id="Overview" transform="translate(-393.000000, -965.000000)"><g id="Upstart-|-Icons-|-New-|-LP-|-New-Borrowers" transform="translate(393.000000, 952.000000)"><g id="Group-26" transform="translate(0.000000, 13.000000)"><g id="Group-25"><g id="Group-3" transform="translate(85.526316, 44.844886)"><mask id="mask-2" fill="white"><use xlink:href="#path-1"></use></mask><g id="Clip-2"></g><path d="M11.7598684,25.2216763 C10.7651316,25.2216763 9.90986842,24.477778 9.80065789,23.4741678 L8.20592105,8.81154068 C8.19802632,8.74237119 8.19407895,8.67189661 8.19407895,8.60272712 C8.19407895,6.19354068 6.21907895,4.23460847 3.79013158,4.23460847 L2.02434211,4.23460847 C0.933552632,4.23460847 0.0506578947,3.35889661 0.0506578947,2.27698136 C0.0506578947,1.1950661 0.933552632,0.319354237 2.02434211,0.319354237 L3.79013158,0.319354237 C8.35723684,0.319354237 12.0796053,3.97359153 12.1401316,8.49048983 L13.7243421,23.0539305 C13.8414474,24.1293203 13.0572368,25.093778 11.9743421,25.2099305 C11.9019737,25.217761 11.8309211,25.2216763 11.7598684,25.2216763" id="Fill-1" fill="#00B1AC" mask="url(#mask-2)"></path></g><path d="M68.2732895,56.6244508 C68.2022368,56.6244508 68.1311842,56.6205356 68.0601316,56.6127051 C66.9759211,56.4978576 66.1917105,55.5320949 66.3088158,54.4567051 L66.4311842,53.3343322 C66.4917105,48.8200441 70.2140789,45.1645017 74.7811842,45.1645017 L76.4851316,45.1645017 C77.5746053,45.1645017 78.4588158,46.0402136 78.4588158,47.1221288 C78.4588158,48.202739 77.5746053,49.0797559 76.4851316,49.0797559 L74.7811842,49.0797559 C72.3535526,49.0797559 70.3772368,51.0386881 70.3772368,53.4465695 C70.3772368,53.5170441 70.3732895,53.5875186 70.3653947,53.6566881 L70.2325,54.8769424 C70.1232895,55.8805525 69.2680263,56.6244508 68.2732895,56.6244508" id="Fill-4" fill="#00B1AC"></path><path d="M76.6396053,49.0800169 C76.3093421,49.0800169 75.9738158,48.9977966 75.6672368,48.8242203 C71.6159211,46.5442373 69.1001316,42.2609492 69.1001316,37.6461695 C69.1001316,30.5634746 74.9093421,24.8015254 82.0475,24.8015254 C89.1882895,24.8015254 94.9975,30.5634746 94.9975,37.6461695 C94.9975,42.2087458 92.5238158,46.4685424 88.5422368,48.7602712 C87.5988158,49.3031864 86.3922368,48.9860508 85.8448684,48.0503051 C85.2975,47.1158644 85.6172368,45.9177966 86.5606579,45.3748814 C89.3303947,43.7800678 91.0501316,40.8188305 91.0501316,37.6461695 C91.0501316,32.7233898 87.0119737,28.7167797 82.0475,28.7167797 C77.0843421,28.7167797 73.0475,32.7233898 73.0475,37.6461695 C73.0475,40.8553729 74.7975,43.8335763 77.6146053,45.4192542 C78.5632895,45.9530339 78.8961842,47.1484915 78.3580263,48.0881525 C77.9935526,48.7237288 77.3251316,49.0800169 76.6396053,49.0800169" id="Fill-6" fill="#00B1AC"></path><path d="M30.8580263,55.4047186 C29.7685526,55.4047186 28.8843421,54.5290068 28.8843421,53.4470915 C28.8843421,51.0392102 26.9080263,49.0789729 24.4790789,49.0789729 L22.7146053,49.0789729 C21.6238158,49.0789729 20.7409211,48.203261 20.7409211,47.1213458 C20.7409211,46.0407356 21.6238158,45.1637186 22.7146053,45.1637186 L24.4790789,45.1637186 C29.0843421,45.1637186 32.8317105,48.8792949 32.8317105,53.4470915 C32.8317105,54.5290068 31.9475,55.4047186 30.8580263,55.4047186" id="Fill-8" fill="#00B1AC"></path><path d="M1.97631579,70.0665627 C1.90526316,70.0665627 1.83421053,70.0626475 1.76184211,70.0548169 C0.678947368,69.9386644 -0.105263158,68.9742068 0.0118421053,67.8988169 L1.59473684,53.3353763 C1.65526316,48.8197831 5.37763158,45.1642407 9.94605263,45.1642407 L11.6513158,45.1642407 C12.7407895,45.1642407 13.625,46.0399525 13.625,47.1218678 C13.625,48.2037831 12.7407895,49.0794949 11.6513158,49.0794949 L9.94605263,49.0794949 C7.51710526,49.0794949 5.54078947,51.0384271 5.54078947,53.4476136 C5.54078947,53.5167831 5.53684211,53.5872576 5.52894737,53.6564271 L3.93552632,68.3190542 C3.82631579,69.3226644 2.97105263,70.0665627 1.97631579,70.0665627" id="Fill-10" fill="#00B1AC"></path><path d="M11.8035526,49.0800169 C11.4732895,49.0800169 11.1377632,48.9977966 10.8311842,48.8242203 C6.77986842,46.5442373 4.26407895,42.2609492 4.26407895,37.6461695 C4.26407895,30.5634746 10.0732895,24.8015254 17.2127632,24.8015254 C24.3522368,24.8015254 30.1614474,30.5634746 30.1614474,37.6461695 C30.1614474,42.2100508 27.6864474,46.4685424 23.7048684,48.7602712 C22.7627632,49.3031864 21.5548684,48.9860508 21.0061842,48.0503051 C20.4601316,47.1145593 20.7798684,45.9164915 21.7232895,45.3748814 C24.4943421,43.7800678 26.2140789,40.8188305 26.2140789,37.6461695 C26.2140789,32.7233898 22.1772368,28.7167797 17.2127632,28.7167797 C12.2496053,28.7167797 8.21144737,32.7233898 8.21144737,37.6461695 C8.21144737,40.8553729 9.96144737,43.8335763 12.7785526,45.4192542 C13.7272368,45.9530339 14.0601316,47.1484915 13.5219737,48.0881525 C13.1575,48.7237288 12.4890789,49.0800169 11.8035526,49.0800169" id="Fill-12" fill="#00B1AC"></path><path d="M70.2521053,74.8618356 C69.2573684,74.8618356 68.4021053,74.1179373 68.2928947,73.1143271 L66.1271053,53.2130898 C66.1192105,53.1426153 66.1152632,53.0721407 66.1152632,53.0016661 C66.1152632,49.3474288 63.1178947,46.3731407 59.4323684,46.3731407 L57.035,46.3731407 C55.9455263,46.3731407 55.0613158,45.4974288 55.0613158,44.4155136 C55.0613158,43.3349034 55.9455263,42.4578864 57.035,42.4578864 L59.4323684,42.4578864 C65.2573684,42.4578864 70.0034211,47.1287847 70.0626316,52.892039 L72.2165789,72.6940898 C72.3336842,73.7694797 71.5494737,74.7339373 70.4665789,74.8500898 C70.3942105,74.8579203 70.3231579,74.8618356 70.2521053,74.8618356" id="Fill-14" fill="#00807B"></path><path d="M28.8856579,74.8618356 C28.8146053,74.8618356 28.7435526,74.8579203 28.6711842,74.8500898 C27.5882895,74.7339373 26.8040789,73.7694797 26.9211842,72.6940898 L29.0738158,52.8933441 C29.1330263,47.1287847 33.8790789,42.4578864 39.7040789,42.4578864 L42.0172368,42.4578864 C43.1080263,42.4578864 43.9909211,43.3349034 43.9909211,44.4155136 C43.9909211,45.4974288 43.1080263,46.3731407 42.0172368,46.3731407 L39.7040789,46.3731407 C36.0185526,46.3731407 33.0211842,49.3474288 33.0211842,53.0029712 C33.0211842,53.0734458 33.0172368,53.1426153 33.0093421,53.2117847 L30.8448684,73.1143271 C30.7356579,74.1179373 29.8803947,74.8618356 28.8856579,74.8618356" id="Fill-16" fill="#00807B"></path><path d="M42.2273684,46.3749678 C41.8971053,46.3749678 41.5615789,46.2927475 41.255,46.1191712 C35.9760526,43.1487983 32.6971053,37.5682559 32.6971053,31.5544254 C32.6971053,22.3274763 40.2655263,14.8206288 49.5681579,14.8206288 C58.8707895,14.8206288 66.4392105,22.3274763 66.4392105,31.5544254 C66.4392105,37.5003915 63.2155263,43.0496119 58.0273684,46.0369508 C57.0839474,46.5798661 55.8773684,46.2614254 55.33,45.3256797 C54.7826316,44.391239 55.1023684,43.1931712 56.0457895,42.6502559 C60.0221053,40.3611373 62.4918421,36.1091712 62.4918421,31.5544254 C62.4918421,24.4873915 56.6944737,18.7358831 49.5681579,18.7358831 C42.4418421,18.7358831 36.6444737,24.4873915 36.6444737,31.5544254 C36.6444737,36.1613746 39.1576316,40.4381373 43.2023684,42.7142051 C44.1510526,43.2479847 44.4839474,44.4421373 43.9457895,45.3831034 C43.5813158,46.0186797 42.9128947,46.3749678 42.2273684,46.3749678" id="Fill-18" fill="#00807B"></path><g id="Group-22" transform="translate(71.052632, 0.166920)"><mask id="mask-4" fill="white"><use xlink:href="#path-3"></use></mask><g id="Clip-21"></g><path d="M2.06881579,21.0449695 C0.979342105,21.0449695 0.0951315789,20.1692576 0.0951315789,19.0873424 L0.0951315789,2.09513898 C0.0951315789,1.01452881 0.979342105,0.137511864 2.06881579,0.137511864 C3.15828947,0.137511864 4.0425,1.01452881 4.0425,2.09513898 L4.0425,19.0873424 C4.0425,20.1692576 3.15828947,21.0449695 2.06881579,21.0449695" id="Fill-20" fill="#00B1AC" mask="url(#mask-4)"></path></g><path d="M81.6868421,12.7160492 L64.5552632,12.7160492 C63.4657895,12.7160492 62.5815789,11.8403373 62.5815789,10.758422 C62.5815789,9.67650678 63.4657895,8.80079492 64.5552632,8.80079492 L81.6868421,8.80079492 C82.7763158,8.80079492 83.6605263,9.67650678 83.6605263,10.758422 C83.6605263,11.8403373 82.7763158,12.7160492 81.6868421,12.7160492" id="Fill-23" fill="#00B1AC"></path></g></g></g></g></g></svg>