<svg xmlns="http://www.w3.org/2000/svg" xmlns:xlink="http://www.w3.org/1999/xlink" id="Artwork_HERE" x="0px" y="0px" viewBox="0 0 3376.41 2262.48" style="enable-background:new 0 0 3376.41 2262.48;" xml:space="preserve"> <style type="text/css"> .st0{opacity:0.2;} .st1{opacity:0.4;} .st2{fill:#00837F;} .st3{fill:#00A39A;} .st4{opacity:0.9;} </style> <g class="st0"> <g> <g> <g class="st1"> <path class="st2" d="M133.02,749.92H133l-80.24,80.23c-70.33,70.3-70.35,185.4-0.04,255.66l0.08,0.11 c70.31,70.24,185.37,70.24,255.68-0.05l178.78-178.76v0.28c7.02-5.75,16.05-9.18,25.82-9.18c9.81,0,18.78,3.43,25.81,9.18h0.27 L385.16,753.38C315.72,683.94,203.85,682.8,133.02,749.92"></path> <path class="st3" d="M973.34,830.09L641.1,497.84l-0.22-0.19c-4.38-4.41-8.99-8.49-13.7-12.37 c-70.82-57.72-176.09-53.59-241.96,12.31c-1.17,1.15-2.26,2.31-3.36,3.46l-10.02,10.01L132.98,749.89l0.05,0.02 c70.84-67.12,182.69-65.99,252.13,3.46l154,154.02l178.42,178.42c70.35,70.32,185.4,70.32,255.79-0.02 C1043.67,1015.51,1043.67,900.42,973.34,830.09"></path> </g> </g> <g> <g class="st0"> <path class="st2" d="M2483.33,1873.8h-0.02l-80.24,80.23c-70.33,70.3-70.35,185.4-0.04,255.66l0.08,0.11 c70.31,70.24,185.37,70.24,255.68-0.05L2837.58,2031v0.28c7.02-5.74,16.05-9.18,25.82-9.18c9.81,0,18.78,3.43,25.81,9.18h0.27 l-154.01-154.02C2666.04,1807.82,2554.16,1806.69,2483.33,1873.8"></path> <path class="st3" d="M3323.66,1953.97l-332.24-332.24l-0.22-0.19c-4.38-4.41-8.99-8.49-13.7-12.37 c-70.82-57.72-176.09-53.59-241.96,12.31c-1.17,1.15-2.26,2.31-3.36,3.46l-10.02,10.01l-238.86,238.84l0.05,0.03 c70.84-67.12,182.69-65.99,252.13,3.46l154,154.02l178.42,178.42c70.35,70.32,185.4,70.32,255.79-0.02 C3393.98,2139.4,3393.98,2024.31,3323.66,1953.97"></path> </g> <g class="st4"> <path class="st2" d="M2483.33,1089.66h-0.02l-80.24,80.23c-70.33,70.3-70.35,185.4-0.04,255.66l0.08,0.11 c70.31,70.24,185.37,70.24,255.68-0.05l178.78-178.76v0.28c7.02-5.75,16.05-9.18,25.82-9.18c9.81,0,18.78,3.43,25.81,9.18h0.27 l-154.01-154.02C2666.04,1023.68,2554.16,1022.54,2483.33,1089.66"></path> <path class="st3" d="M3323.66,1169.83l-332.24-332.24l-0.22-0.19c-4.38-4.41-8.99-8.49-13.7-12.37 c-70.82-57.72-176.09-53.59-241.96,12.31c-1.17,1.15-2.26,2.31-3.36,3.46l-10.02,10.01l-238.86,238.84l0.05,0.02 c70.84-67.12,182.69-65.99,252.13,3.46l154,154.02l178.42,178.42c70.35,70.32,185.4,70.32,255.79-0.02 C3393.98,1355.25,3393.98,1240.16,3323.66,1169.83"></path> </g> <g class="st1"> <path class="st2" d="M2483.33,305.51h-0.02l-80.24,80.23c-70.33,70.3-70.35,185.4-0.04,255.66l0.08,0.11 c70.31,70.24,185.37,70.24,255.68-0.05l178.78-178.76v0.28c7.02-5.75,16.05-9.18,25.82-9.18c9.81,0,18.78,3.43,25.81,9.18h0.27 l-154.01-154.02C2666.04,239.53,2554.16,238.4,2483.33,305.51"></path> <path class="st3" d="M3323.66,385.68L2991.42,53.44l-0.22-0.19c-4.38-4.41-8.99-8.49-13.7-12.37 c-70.82-57.72-176.09-53.59-241.96,12.31c-1.17,1.15-2.26,2.31-3.36,3.46l-10.02,10.01L2483.3,305.49l0.05,0.02 c70.84-67.12,182.69-65.99,252.13,3.46l154,154.02l178.42,178.42c70.35,70.32,185.4,70.32,255.79-0.02 C3393.98,571.11,3393.98,456.02,3323.66,385.68"></path> </g> </g> <g> <g class="st0"> <path class="st2" d="M1308.18,1089.19h-0.02l-80.24,80.23c-70.33,70.3-70.35,185.4-0.04,255.66l0.08,0.11 c70.31,70.24,185.37,70.24,255.68-0.05l178.78-178.76v0.28c7.02-5.75,16.05-9.18,25.82-9.18c9.81,0,18.78,3.43,25.81,9.18h0.27 l-154.01-154.02C1490.88,1023.21,1379.01,1022.08,1308.18,1089.19"></path> <path class="st3" d="M2148.5,1169.36l-332.24-332.24l-0.22-0.19c-4.38-4.41-8.99-8.49-13.7-12.37 c-70.82-57.72-176.09-53.59-241.96,12.31c-1.17,1.15-2.26,2.31-3.36,3.46L1547,850.33l-238.86,238.84l0.05,0.02 c70.84-67.12,182.69-65.99,252.13,3.46l154,154.02l178.42,178.42c70.35,70.32,185.4,70.32,255.79-0.02 C2218.83,1354.79,2218.83,1239.7,2148.5,1169.36"></path> </g> <g class="st0"> <path class="st2" d="M1308.18,305.05h-0.02l-80.24,80.23c-70.33,70.3-70.35,185.4-0.04,255.66l0.08,0.11 c70.31,70.24,185.37,70.24,255.68-0.05l178.78-178.76v0.28c7.02-5.75,16.05-9.18,25.82-9.18c9.81,0,18.78,3.43,25.81,9.18h0.27 l-154.01-154.02C1490.88,239.07,1379.01,237.93,1308.18,305.05"></path> <path class="st3" d="M2148.5,385.21L1816.26,52.97l-0.22-0.19c-4.38-4.41-8.99-8.49-13.7-12.37 c-70.82-57.72-176.09-53.59-241.96,12.31c-1.17,1.15-2.26,2.31-3.36,3.46L1547,66.18l-238.86,238.84l0.05,0.02 c70.84-67.12,182.69-65.99,252.13,3.46l154,154.02l178.42,178.42c70.35,70.32,185.4,70.32,255.79-0.02 C2218.83,570.64,2218.83,455.55,2148.5,385.21"></path> </g> </g> </g> </g> </svg>