<svg xmlns="http://www.w3.org/2000/svg" xmlns:xlink="http://www.w3.org/1999/xlink" id="Artwork_HERE" opacity="0.2" x="0px" y="0px" viewBox="0 0 11880 6229.8" style="enable-background:new 0 0 11880 6229.8;" xml:space="preserve"> <style type="text/css"> .st0{clip-path:url(#SVGID_2_);} .st1{opacity:0.8;} .st2{fill:#00837F;} .st3{fill:#00A39A;} .st4{opacity:0.9;} .st5{opacity:0.4;} .st6{opacity:0.2;} </style> <g> <defs> <rect id="SVGID_1_" x="0" y="0" width="11880" height="6229.8"></rect> </defs> <clipPath id="SVGID_2_"> <use xlink:href="#SVGID_1_" style="overflow:visible;"></use> </clipPath> <g class="st0"> <g> <g class="st1"> <path class="st2" d="M1446.9,6133.6L1446.9,6133.6l-80.3,80.2c-70.3,70.3-70.3,185.4,0,255.7l0.1,0.1 c70.3,70.2,185.4,70.2,255.7,0l178.8-178.8v0.3c7-5.7,16-9.2,25.8-9.2c9.8,0,18.8,3.4,25.8,9.2h0.3l-154-154 C1629.6,6067.6,1517.7,6066.5,1446.9,6133.6"></path> <path class="st3" d="M2287.2,6213.8L1955,5881.5l-0.2-0.2c-4.4-4.4-9-8.5-13.7-12.4c-70.8-57.7-176.1-53.6-242,12.3 c-1.2,1.2-2.3,2.3-3.4,3.5l-10,10l-238.9,238.8l0,0c70.8-67.1,182.7-66,252.1,3.5l154,154l178.4,178.4 c70.3,70.3,185.4,70.3,255.8,0C2357.6,6399.2,2357.6,6284.1,2287.2,6213.8"></path> </g> <g class="st4"> <path class="st2" d="M1446.9,5349.5L1446.9,5349.5l-80.3,80.2c-70.3,70.3-70.3,185.4,0,255.7l0.1,0.1 c70.3,70.2,185.4,70.2,255.7,0l178.8-178.8v0.3c7-5.7,16-9.2,25.8-9.2c9.8,0,18.8,3.4,25.8,9.2h0.3l-154-154 C1629.6,5283.5,1517.7,5282.3,1446.9,5349.5"></path> <path class="st3" d="M2287.2,5429.6L1955,5097.4l-0.2-0.2c-4.4-4.4-9-8.5-13.7-12.4c-70.8-57.7-176.1-53.6-242,12.3 c-1.2,1.2-2.3,2.3-3.4,3.5l-10,10l-238.9,238.8l0,0c70.8-67.1,182.7-66,252.1,3.5l154,154l178.4,178.4 c70.3,70.3,185.4,70.3,255.8,0C2357.6,5615,2357.6,5500,2287.2,5429.6"></path> </g> <g class="st5"> <path class="st2" d="M1446.9,4565.3L1446.9,4565.3l-80.3,80.2c-70.3,70.3-70.3,185.4,0,255.7l0.1,0.1 c70.3,70.2,185.4,70.2,255.7-0.1l178.8-178.8v0.3c7-5.7,16-9.2,25.8-9.2c9.8,0,18.8,3.4,25.8,9.2h0.3l-154-154 C1629.6,4499.3,1517.7,4498.2,1446.9,4565.3"></path> <path class="st3" d="M2287.2,4645.5L1955,4313.2l-0.2-0.2c-4.4-4.4-9-8.5-13.7-12.4c-70.8-57.7-176.1-53.6-242,12.3 c-1.2,1.2-2.3,2.3-3.4,3.5l-10,10l-238.9,238.8l0,0c70.8-67.1,182.7-66,252.1,3.5l154,154l178.4,178.4 c70.3,70.3,185.4,70.3,255.8,0C2357.6,4830.9,2357.6,4715.8,2287.2,4645.5"></path> </g> <g class="st6"> <path class="st2" d="M1446.9,3781.2L1446.9,3781.2l-80.3,80.2c-70.3,70.3-70.3,185.4,0,255.7l0.1,0.1 c70.3,70.2,185.4,70.2,255.7,0l178.8-178.8v0.3c7-5.7,16-9.2,25.8-9.2c9.8,0,18.8,3.4,25.8,9.2h0.3l-154-154 C1629.6,3715.2,1517.7,3714,1446.9,3781.2"></path> <path class="st3" d="M2287.2,3861.3L1955,3529.1l-0.2-0.2c-4.4-4.4-9-8.5-13.7-12.4c-70.8-57.7-176.1-53.6-242,12.3 c-1.2,1.2-2.3,2.3-3.4,3.5l-10,10l-238.9,238.8l0,0c70.8-67.1,182.7-66,252.1,3.5l154,154l178.4,178.4 c70.3,70.3,185.4,70.3,255.8,0C2357.6,4046.8,2357.6,3931.7,2287.2,3861.3"></path> </g> <g class="st6"> <path class="st2" d="M1446.9,2997L1446.9,2997l-80.3,80.2c-70.3,70.3-70.3,185.4,0,255.7l0.1,0.1c70.3,70.2,185.4,70.2,255.7,0 l178.8-178.8v0.3c7-5.7,16-9.2,25.8-9.2c9.8,0,18.8,3.4,25.8,9.2h0.3l-154-154C1629.6,2931,1517.7,2929.9,1446.9,2997"></path> <path class="st3" d="M2287.2,3077.2L1955,2744.9l-0.2-0.2c-4.4-4.4-9-8.5-13.7-12.4c-70.8-57.7-176.1-53.6-242,12.3 c-1.2,1.2-2.3,2.3-3.4,3.5l-10,10L1446.9,2997l0,0c70.8-67.1,182.7-66,252.1,3.5l154,154l178.4,178.4 c70.3,70.3,185.4,70.3,255.8,0C2357.6,3262.6,2357.6,3147.5,2287.2,3077.2"></path> </g> <g class="st5"> <path class="st2" d="M1446.9,2212.9L1446.9,2212.9l-80.3,80.2c-70.3,70.3-70.3,185.4,0,255.7l0.1,0.1 c70.3,70.2,185.4,70.2,255.7-0.1l178.8-178.8v0.3c7-5.7,16-9.2,25.8-9.2c9.8,0,18.8,3.4,25.8,9.2h0.3l-154-154 C1629.6,2146.9,1517.7,2145.8,1446.9,2212.9"></path> <path class="st3" d="M2287.2,2293L1955,1960.8l-0.2-0.2c-4.4-4.4-9-8.5-13.7-12.4c-70.8-57.7-176.1-53.6-242,12.3 c-1.2,1.2-2.3,2.3-3.4,3.5l-10,10l-238.9,238.8l0,0c70.8-67.1,182.7-66,252.1,3.5l154,154l178.4,178.4 c70.3,70.3,185.4,70.3,255.8,0C2357.6,2478.5,2357.6,2363.4,2287.2,2293"></path> </g> <g class="st6"> <path class="st2" d="M1446.9,1428.7L1446.9,1428.7l-80.3,80.2c-70.3,70.3-70.3,185.4,0,255.7l0.1,0.1 c70.3,70.2,185.4,70.2,255.7,0l178.8-178.8v0.3c7-5.7,16-9.2,25.8-9.2c9.8,0,18.8,3.4,25.8,9.2h0.3l-154-154 C1629.6,1362.7,1517.7,1361.6,1446.9,1428.7"></path> <path class="st3" d="M2287.2,1508.9L1955,1176.6l-0.2-0.2c-4.4-4.4-9-8.5-13.7-12.4c-70.8-57.7-176.1-53.6-242,12.3 c-1.2,1.2-2.3,2.3-3.4,3.5l-10,10l-238.9,238.8l0,0c70.8-67.1,182.7-66,252.1,3.5l154,154l178.4,178.4 c70.3,70.3,185.4,70.3,255.8,0C2357.6,1694.3,2357.6,1579.2,2287.2,1508.9"></path> </g> </g> <g> <g class="st6"> <path class="st2" d="M2622.1,5758.5L2622.1,5758.5l-80.3,80.2c-70.3,70.3-70.3,185.4,0,255.7l0.1,0.1 c70.3,70.2,185.4,70.2,255.7,0l178.8-178.8v0.3c7-5.7,16-9.2,25.8-9.2c9.8,0,18.8,3.4,25.8,9.2h0.3l-154-154 C2804.8,5692.6,2692.9,5691.4,2622.1,5758.5"></path> <path class="st3" d="M3462.4,5838.7l-332.2-332.2l-0.2-0.2c-4.4-4.4-9-8.5-13.7-12.4c-70.8-57.7-176.1-53.6-242,12.3 c-1.2,1.2-2.3,2.3-3.4,3.5l-10,10L2622,5758.5l0.1,0c70.8-67.1,182.7-66,252.1,3.5l154,154l178.4,178.4 c70.3,70.3,185.4,70.3,255.8,0C3532.7,6024.1,3532.7,5909,3462.4,5838.7"></path> </g> <g class="st6"> <path class="st2" d="M2622.1,4974.4L2622.1,4974.4l-80.3,80.2c-70.3,70.3-70.3,185.4,0,255.7l0.1,0.1 c70.3,70.2,185.4,70.2,255.7,0l178.8-178.8v0.3c7-5.7,16-9.2,25.8-9.2c9.8,0,18.8,3.4,25.8,9.2h0.3l-154-154 C2804.8,4908.4,2692.9,4907.3,2622.1,4974.4"></path> <path class="st3" d="M3462.4,5054.6l-332.2-332.2l-0.2-0.2c-4.4-4.4-9-8.5-13.7-12.4c-70.8-57.7-176.1-53.6-242,12.3 c-1.2,1.2-2.3,2.3-3.4,3.5l-10,10L2622,4974.4l0.1,0c70.8-67.1,182.7-66,252.1,3.5l154,154l178.4,178.4 c70.3,70.3,185.4,70.3,255.8,0C3532.7,5240,3532.7,5124.9,3462.4,5054.6"></path> </g> <g class="st5"> <path class="st2" d="M2622.1,4190.2L2622.1,4190.2l-80.3,80.2c-70.3,70.3-70.3,185.4,0,255.7l0.1,0.1 c70.3,70.2,185.4,70.2,255.7-0.1l178.8-178.8v0.3c7-5.7,16-9.2,25.8-9.2c9.8,0,18.8,3.4,25.8,9.2h0.3l-154-154 C2804.8,4124.3,2692.9,4123.1,2622.1,4190.2"></path> <path class="st3" d="M3462.4,4270.4l-332.2-332.2l-0.2-0.2c-4.4-4.4-9-8.5-13.7-12.4c-70.8-57.7-176.1-53.6-242,12.3 c-1.2,1.2-2.3,2.3-3.4,3.5l-10,10L2622,4190.2l0.1,0c70.8-67.1,182.7-66,252.1,3.5l154,154l178.4,178.4 c70.3,70.3,185.4,70.3,255.8,0C3532.7,4455.8,3532.7,4340.7,3462.4,4270.4"></path> </g> <g class="st5"> <path class="st2" d="M2622.1,3406.1L2622.1,3406.1l-80.3,80.2c-70.3,70.3-70.3,185.4,0,255.7l0.1,0.1 c70.3,70.2,185.4,70.2,255.7-0.1l178.8-178.8v0.3c7-5.7,16-9.2,25.8-9.2c9.8,0,18.8,3.4,25.8,9.2h0.3l-154-154 C2804.8,3340.1,2692.9,3339,2622.1,3406.1"></path> <path class="st3" d="M3462.4,3486.3L3130.2,3154l-0.2-0.2c-4.4-4.4-9-8.5-13.7-12.4c-70.8-57.7-176.1-53.6-242,12.3 c-1.2,1.2-2.3,2.3-3.4,3.5l-10,10L2622,3406.1l0.1,0c70.8-67.1,182.7-66,252.1,3.5l154,154l178.4,178.4 c70.3,70.3,185.4,70.3,255.8,0C3532.7,3671.7,3532.7,3556.6,3462.4,3486.3"></path> </g> </g> <g> <g class="st6"> <path class="st2" d="M3797.2,6203.4L3797.2,6203.4l-80.3,80.2c-70.3,70.3-70.3,185.4,0,255.7l0.1,0.1 c70.3,70.2,185.4,70.2,255.7,0l178.8-178.8v0.3c7-5.7,16-9.2,25.8-9.2c9.8,0,18.8,3.4,25.8,9.2h0.3l-154-154 C3979.9,6137.4,3868.1,6136.3,3797.2,6203.4"></path> <path class="st3" d="M4637.6,6283.6l-332.2-332.2l-0.2-0.2c-4.4-4.4-9-8.5-13.7-12.4c-70.8-57.7-176.1-53.6-242,12.3 c-1.2,1.2-2.3,2.3-3.4,3.5l-10,10l-238.9,238.8l0.1,0c70.8-67.1,182.7-66,252.1,3.5l154,154l178.4,178.4 c70.3,70.3,185.4,70.3,255.8,0C4707.9,6469,4707.9,6353.9,4637.6,6283.6"></path> </g> <g class="st6"> <path class="st2" d="M3797.2,5419.3L3797.2,5419.3l-80.3,80.2c-70.3,70.3-70.3,185.4,0,255.7l0.1,0.1 c70.3,70.2,185.4,70.2,255.7,0l178.8-178.8v0.3c7-5.7,16-9.2,25.8-9.2c9.8,0,18.8,3.4,25.8,9.2h0.3l-154-154 C3979.9,5353.3,3868.1,5352.1,3797.2,5419.3"></path> <path class="st3" d="M4637.6,5499.4l-332.2-332.2l-0.2-0.2c-4.4-4.4-9-8.5-13.7-12.4c-70.8-57.7-176.1-53.6-242,12.3 c-1.2,1.2-2.3,2.3-3.4,3.5l-10,10l-238.9,238.8l0.1,0c70.8-67.1,182.7-66,252.1,3.5l154,154l178.4,178.4 c70.3,70.3,185.4,70.3,255.8,0C4707.9,5684.9,4707.9,5569.8,4637.6,5499.4"></path> </g> <g class="st5"> <path class="st2" d="M3797.2,4635.1L3797.2,4635.1l-80.3,80.2c-70.3,70.3-70.3,185.4,0,255.7l0.1,0.1 c70.3,70.2,185.4,70.2,255.7,0l178.8-178.8v0.3c7-5.7,16-9.2,25.8-9.2c9.8,0,18.8,3.4,25.8,9.2h0.3l-154-154 C3979.9,4569.1,3868.1,4568,3797.2,4635.1"></path> <path class="st3" d="M4637.6,4715.3L4305.3,4383l-0.2-0.2c-4.4-4.4-9-8.5-13.7-12.4c-70.8-57.7-176.1-53.6-242,12.3 c-1.2,1.2-2.3,2.3-3.4,3.5l-10,10l-238.9,238.8l0.1,0c70.8-67.1,182.7-66,252.1,3.5l154,154l178.4,178.4 c70.3,70.3,185.4,70.3,255.8,0C4707.9,4900.7,4707.9,4785.6,4637.6,4715.3"></path> </g> <g class="st6"> <path class="st2" d="M3797.2,3851L3797.2,3851l-80.3,80.2c-70.3,70.3-70.3,185.4,0,255.7l0.1,0.1c70.3,70.2,185.4,70.2,255.7,0 l178.8-178.8v0.3c7-5.7,16-9.2,25.8-9.2c9.8,0,18.8,3.4,25.8,9.2h0.3l-154-154C3979.9,3785,3868.1,3783.9,3797.2,3851"></path> <path class="st3" d="M4637.6,3931.1l-332.2-332.2l-0.2-0.2c-4.4-4.4-9-8.5-13.7-12.4c-70.8-57.7-176.1-53.6-242,12.3 c-1.2,1.2-2.3,2.3-3.4,3.5l-10,10l-238.9,238.8l0.1,0c70.8-67.1,182.7-66,252.1,3.5l154,154l178.4,178.4 c70.3,70.3,185.4,70.3,255.8,0C4707.9,4116.6,4707.9,4001.5,4637.6,3931.1"></path> </g> </g> <g> <g class="st6"> <path class="st2" d="M4972.4,5758.5L4972.4,5758.5l-80.3,80.2c-70.3,70.3-70.3,185.4,0,255.7l0.1,0.1 c70.3,70.2,185.4,70.2,255.7,0l178.8-178.8v0.3c7-5.7,16-9.2,25.8-9.2c9.8,0,18.8,3.4,25.8,9.2h0.3l-154-154 C5155.1,5692.6,5043.2,5691.4,4972.4,5758.5"></path> <path class="st3" d="M5812.7,5838.7l-332.2-332.2l-0.2-0.2c-4.4-4.4-9-8.5-13.7-12.4c-70.8-57.7-176.1-53.6-242,12.3 c-1.2,1.2-2.3,2.3-3.4,3.5l-10,10l-238.9,238.8l0.1,0c70.8-67.1,182.7-66,252.1,3.5l154,154l178.4,178.4 c70.3,70.3,185.4,70.3,255.8,0C5883,6024.1,5883,5909,5812.7,5838.7"></path> </g> <g class="st6"> <path class="st2" d="M4972.4,4974.4L4972.4,4974.4l-80.3,80.2c-70.3,70.3-70.3,185.4,0,255.7l0.1,0.1 c70.3,70.2,185.4,70.2,255.7,0l178.8-178.8v0.3c7-5.7,16-9.2,25.8-9.2c9.8,0,18.8,3.4,25.8,9.2h0.3l-154-154 C5155.1,4908.4,5043.2,4907.3,4972.4,4974.4"></path> <path class="st3" d="M5812.7,5054.6l-332.2-332.2l-0.2-0.2c-4.4-4.4-9-8.5-13.7-12.4c-70.8-57.7-176.1-53.6-242,12.3 c-1.2,1.2-2.3,2.3-3.4,3.5l-10,10l-238.9,238.8l0.1,0c70.8-67.1,182.7-66,252.1,3.5l154,154l178.4,178.4 c70.3,70.3,185.4,70.3,255.8,0C5883,5240,5883,5124.9,5812.7,5054.6"></path> </g> <g class="st6"> <path class="st2" d="M4972.4,4190.2L4972.4,4190.2l-80.3,80.2c-70.3,70.3-70.3,185.4,0,255.7l0.1,0.1 c70.3,70.2,185.4,70.2,255.7-0.1l178.8-178.8v0.3c7-5.7,16-9.2,25.8-9.2c9.8,0,18.8,3.4,25.8,9.2h0.3l-154-154 C5155.1,4124.3,5043.2,4123.1,4972.4,4190.2"></path> <path class="st3" d="M5812.7,4270.4l-332.2-332.2l-0.2-0.2c-4.4-4.4-9-8.5-13.7-12.4c-70.8-57.7-176.1-53.6-242,12.3 c-1.2,1.2-2.3,2.3-3.4,3.5l-10,10l-238.9,238.8l0.1,0c70.8-67.1,182.7-66,252.1,3.5l154,154l178.4,178.4 c70.3,70.3,185.4,70.3,255.8,0C5883,4455.8,5883,4340.7,5812.7,4270.4"></path> </g> <g class="st6"> <path class="st2" d="M4972.4,3406.1L4972.4,3406.1l-80.3,80.2c-70.3,70.3-70.3,185.4,0,255.7l0.1,0.1 c70.3,70.2,185.4,70.2,255.7-0.1l178.8-178.8v0.3c7-5.7,16-9.2,25.8-9.2c9.8,0,18.8,3.4,25.8,9.2h0.3l-154-154 C5155.1,3340.1,5043.2,3339,4972.4,3406.1"></path> <path class="st3" d="M5812.7,3486.3L5480.5,3154l-0.2-0.2c-4.4-4.4-9-8.5-13.7-12.4c-70.8-57.7-176.1-53.6-242,12.3 c-1.2,1.2-2.3,2.3-3.4,3.5l-10,10l-238.9,238.8l0.1,0c70.8-67.1,182.7-66,252.1,3.5l154,154L5557,3742 c70.3,70.3,185.4,70.3,255.8,0C5883,3671.7,5883,3556.6,5812.7,3486.3"></path> </g> </g> <g> <g class="st6"> <path class="st2" d="M6147.6,6203.4L6147.6,6203.4l-80.3,80.2c-70.3,70.3-70.3,185.4,0,255.7l0.1,0.1 c70.3,70.2,185.4,70.2,255.7,0l178.8-178.8v0.3c7-5.7,16-9.2,25.8-9.2c9.8,0,18.8,3.4,25.8,9.2h0.3l-154-154 C6330.3,6137.4,6218.4,6136.3,6147.6,6203.4"></path> <path class="st3" d="M6987.9,6283.6l-332.2-332.2l-0.2-0.2c-4.4-4.4-9-8.5-13.7-12.4c-70.8-57.7-176.1-53.6-242,12.3 c-1.2,1.2-2.3,2.3-3.4,3.5l-10,10l-238.9,238.8l0,0c70.8-67.1,182.7-66,252.1,3.5l154,154l178.4,178.4 c70.3,70.3,185.4,70.3,255.8,0C7058.2,6469,7058.2,6353.9,6987.9,6283.6"></path> </g> <g> <path class="st2" d="M6147.6,5419.3L6147.6,5419.3l-80.3,80.2c-70.3,70.3-70.3,185.4,0,255.7l0.1,0.1 c70.3,70.2,185.4,70.2,255.7,0l178.8-178.8v0.3c7-5.7,16-9.2,25.8-9.2c9.8,0,18.8,3.4,25.8,9.2h0.3l-154-154 C6330.3,5353.3,6218.4,5352.1,6147.6,5419.3"></path> <path class="st3" d="M6987.9,5499.4l-332.2-332.2l-0.2-0.2c-4.4-4.4-9-8.5-13.7-12.4c-70.8-57.7-176.1-53.6-242,12.3 c-1.2,1.2-2.3,2.3-3.4,3.5l-10,10l-238.9,238.8l0,0c70.8-67.1,182.7-66,252.1,3.5l154,154l178.4,178.4 c70.3,70.3,185.4,70.3,255.8,0C7058.2,5684.9,7058.2,5569.8,6987.9,5499.4"></path> </g> <g class="st5"> <path class="st2" d="M6147.6,4635.1L6147.6,4635.1l-80.3,80.2c-70.3,70.3-70.3,185.4,0,255.7l0.1,0.1 c70.3,70.2,185.4,70.2,255.7,0l178.8-178.8v0.3c7-5.7,16-9.2,25.8-9.2c9.8,0,18.8,3.4,25.8,9.2h0.3l-154-154 C6330.3,4569.1,6218.4,4568,6147.6,4635.1"></path> <path class="st3" d="M6987.9,4715.3L6655.6,4383l-0.2-0.2c-4.4-4.4-9-8.5-13.7-12.4c-70.8-57.7-176.1-53.6-242,12.3 c-1.2,1.2-2.3,2.3-3.4,3.5l-10,10l-238.9,238.8l0,0c70.8-67.1,182.7-66,252.1,3.5l154,154l178.4,178.4 c70.3,70.3,185.4,70.3,255.8,0C7058.2,4900.7,7058.2,4785.6,6987.9,4715.3"></path> </g> <g class="st6"> <path class="st2" d="M6147.6,3851L6147.6,3851l-80.3,80.2c-70.3,70.3-70.3,185.4,0,255.7l0.1,0.1c70.3,70.2,185.4,70.2,255.7,0 l178.8-178.8v0.3c7-5.7,16-9.2,25.8-9.2c9.8,0,18.8,3.4,25.8,9.2h0.3l-154-154C6330.3,3785,6218.4,3783.9,6147.6,3851"></path> <path class="st3" d="M6987.9,3931.1l-332.2-332.2l-0.2-0.2c-4.4-4.4-9-8.5-13.7-12.4c-70.8-57.7-176.1-53.6-242,12.3 c-1.2,1.2-2.3,2.3-3.4,3.5l-10,10l-238.9,238.8l0,0c70.8-67.1,182.7-66,252.1,3.5l154,154l178.4,178.4 c70.3,70.3,185.4,70.3,255.8,0C7058.2,4116.6,7058.2,4001.5,6987.9,3931.1"></path> </g> </g> <g> <g class="st6"> <path class="st2" d="M7322.7,5758.5L7322.7,5758.5l-80.3,80.2c-70.3,70.3-70.3,185.4,0,255.7l0.1,0.1 c70.3,70.2,185.4,70.2,255.7,0l178.8-178.8v0.3c7-5.7,16-9.2,25.8-9.2c9.8,0,18.8,3.4,25.8,9.2h0.3l-154-154 C7505.4,5692.6,7393.5,5691.4,7322.7,5758.5"></path> <path class="st3" d="M8163,5838.7l-332.2-332.2l-0.2-0.2c-4.4-4.4-9-8.5-13.7-12.4c-70.8-57.7-176.1-53.6-242,12.3 c-1.2,1.2-2.3,2.3-3.4,3.5l-10,10l-238.9,238.8l0,0c70.8-67.1,182.7-66,252.1,3.5l154,154l178.4,178.4 c70.3,70.3,185.4,70.3,255.8,0C8233.4,6024.1,8233.4,5909,8163,5838.7"></path> </g> <g class="st6"> <path class="st2" d="M7322.7,4974.4L7322.7,4974.4l-80.3,80.2c-70.3,70.3-70.3,185.4,0,255.7l0.1,0.1 c70.3,70.2,185.4,70.2,255.7,0l178.8-178.8v0.3c7-5.7,16-9.2,25.8-9.2c9.8,0,18.8,3.4,25.8,9.2h0.3l-154-154 C7505.4,4908.4,7393.5,4907.3,7322.7,4974.4"></path> <path class="st3" d="M8163,5054.6l-332.2-332.2l-0.2-0.2c-4.4-4.4-9-8.5-13.7-12.4c-70.8-57.7-176.1-53.6-242,12.3 c-1.2,1.2-2.3,2.3-3.4,3.5l-10,10l-238.9,238.8l0,0c70.8-67.1,182.7-66,252.1,3.5l154,154l178.4,178.4 c70.3,70.3,185.4,70.3,255.8,0C8233.4,5240,8233.4,5124.9,8163,5054.6"></path> </g> <g> <path class="st2" d="M7322.7,4190.2L7322.7,4190.2l-80.3,80.2c-70.3,70.3-70.3,185.4,0,255.7l0.1,0.1 c70.3,70.2,185.4,70.2,255.7-0.1l178.8-178.8v0.3c7-5.7,16-9.2,25.8-9.2c9.8,0,18.8,3.4,25.8,9.2h0.3l-154-154 C7505.4,4124.3,7393.5,4123.1,7322.7,4190.2"></path> <path class="st3" d="M8163,4270.4l-332.2-332.2l-0.2-0.2c-4.4-4.4-9-8.5-13.7-12.4c-70.8-57.7-176.1-53.6-242,12.3 c-1.2,1.2-2.3,2.3-3.4,3.5l-10,10l-238.9,238.8l0,0c70.8-67.1,182.7-66,252.1,3.5l154,154l178.4,178.4 c70.3,70.3,185.4,70.3,255.8,0C8233.4,4455.8,8233.4,4340.7,8163,4270.4"></path> </g> <g class="st6"> <path class="st2" d="M7322.7,3406.1L7322.7,3406.1l-80.3,80.2c-70.3,70.3-70.3,185.4,0,255.7l0.1,0.1 c70.3,70.2,185.4,70.2,255.7-0.1l178.8-178.8v0.3c7-5.7,16-9.2,25.8-9.2c9.8,0,18.8,3.4,25.8,9.2h0.3l-154-154 C7505.4,3340.1,7393.5,3339,7322.7,3406.1"></path> <path class="st3" d="M8163,3486.3L7830.8,3154l-0.2-0.2c-4.4-4.4-9-8.5-13.7-12.4c-70.8-57.7-176.1-53.6-242,12.3 c-1.2,1.2-2.3,2.3-3.4,3.5l-10,10l-238.9,238.8l0,0c70.8-67.1,182.7-66,252.1,3.5l154,154l178.4,178.4 c70.3,70.3,185.4,70.3,255.8,0C8233.4,3671.7,8233.4,3556.6,8163,3486.3"></path> </g> </g> <g> <g class="st6"> <path class="st2" d="M8497.9,6203.4L8497.9,6203.4l-80.3,80.2c-70.3,70.3-70.3,185.4,0,255.7l0.1,0.1 c70.3,70.2,185.4,70.2,255.7,0l178.8-178.8v0.3c7-5.7,16-9.2,25.8-9.2c9.8,0,18.8,3.4,25.8,9.2h0.3l-154-154 C8680.6,6137.4,8568.7,6136.3,8497.9,6203.4"></path> <path class="st3" d="M9338.2,6283.6L9006,5951.3l-0.2-0.2c-4.4-4.4-9-8.5-13.7-12.4c-70.8-57.7-176.1-53.6-242,12.3 c-1.2,1.2-2.3,2.3-3.4,3.5l-10,10l-238.9,238.8l0,0c70.8-67.1,182.7-66,252.1,3.5l154,154l178.4,178.4 c70.3,70.3,185.4,70.3,255.8,0C9408.5,6469,9408.5,6353.9,9338.2,6283.6"></path> </g> <g class="st6"> <path class="st2" d="M8497.9,5419.3L8497.9,5419.3l-80.3,80.2c-70.3,70.3-70.3,185.4,0,255.7l0.1,0.1 c70.3,70.2,185.4,70.2,255.7,0l178.8-178.8v0.3c7-5.7,16-9.2,25.8-9.2c9.8,0,18.8,3.4,25.8,9.2h0.3l-154-154 C8680.6,5353.3,8568.7,5352.1,8497.9,5419.3"></path> <path class="st3" d="M9338.2,5499.4L9006,5167.2l-0.2-0.2c-4.4-4.4-9-8.5-13.7-12.4c-70.8-57.7-176.1-53.6-242,12.3 c-1.2,1.2-2.3,2.3-3.4,3.5l-10,10l-238.9,238.8l0,0c70.8-67.1,182.7-66,252.1,3.5l154,154l178.4,178.4 c70.3,70.3,185.4,70.3,255.8,0C9408.5,5684.9,9408.5,5569.8,9338.2,5499.4"></path> </g> <g class="st5"> <path class="st2" d="M8497.9,4635.1L8497.9,4635.1l-80.3,80.2c-70.3,70.3-70.3,185.4,0,255.7l0.1,0.1 c70.3,70.2,185.4,70.2,255.7,0l178.8-178.8v0.3c7-5.7,16-9.2,25.8-9.2c9.8,0,18.8,3.4,25.8,9.2h0.3l-154-154 C8680.6,4569.1,8568.7,4568,8497.9,4635.1"></path> <path class="st3" d="M9338.2,4715.3L9006,4383l-0.2-0.2c-4.4-4.4-9-8.5-13.7-12.4c-70.8-57.7-176.1-53.6-242,12.3 c-1.2,1.2-2.3,2.3-3.4,3.5l-10,10l-238.9,238.8l0,0c70.8-67.1,182.7-66,252.1,3.5l154,154l178.4,178.4 c70.3,70.3,185.4,70.3,255.8,0C9408.5,4900.7,9408.5,4785.6,9338.2,4715.3"></path> </g> <g class="st5"> <path class="st2" d="M8497.9,3851L8497.9,3851l-80.3,80.2c-70.3,70.3-70.3,185.4,0,255.7l0.1,0.1c70.3,70.2,185.4,70.2,255.7,0 l178.8-178.8v0.3c7-5.7,16-9.2,25.8-9.2c9.8,0,18.8,3.4,25.8,9.2h0.3l-154-154C8680.6,3785,8568.7,3783.9,8497.9,3851"></path> <path class="st3" d="M9338.2,3931.1L9006,3598.9l-0.2-0.2c-4.4-4.4-9-8.5-13.7-12.4c-70.8-57.7-176.1-53.6-242,12.3 c-1.2,1.2-2.3,2.3-3.4,3.5l-10,10l-238.9,238.8l0,0c70.8-67.1,182.7-66,252.1,3.5l154,154l178.4,178.4 c70.3,70.3,185.4,70.3,255.8,0C9408.5,4116.6,9408.5,4001.5,9338.2,3931.1"></path> </g> </g> <g> <g class="st5"> <path class="st2" d="M10848.2,5759L10848.2,5759l-80.3,80.2c-70.3,70.3-70.3,185.4,0,255.7l0.1,0.1 c70.3,70.2,185.4,70.2,255.7,0l178.8-178.8v0.3c7-5.7,16-9.2,25.8-9.2c9.8,0,18.8,3.4,25.8,9.2h0.3l-154-154 C11030.9,5693,10919,5691.9,10848.2,5759"></path> <path class="st3" d="M11688.5,5839.2l-332.2-332.2l-0.2-0.2c-4.4-4.4-9-8.5-13.7-12.4c-70.8-57.7-176.1-53.6-242,12.3 c-1.2,1.2-2.3,2.3-3.4,3.5l-10,10l-238.9,238.8l0,0c70.8-67.1,182.7-66,252.1,3.5l154,154l178.4,178.4 c70.3,70.3,185.4,70.3,255.8,0C11758.8,6024.6,11758.8,5909.5,11688.5,5839.2"></path> </g> <g class="st6"> <path class="st2" d="M10848.2,4974.9L10848.2,4974.9l-80.3,80.2c-70.3,70.3-70.3,185.4,0,255.7l0.1,0.1 c70.3,70.2,185.4,70.2,255.7-0.1l178.8-178.8v0.3c7-5.7,16-9.2,25.8-9.2c9.8,0,18.8,3.4,25.8,9.2h0.3l-154-154 C11030.9,4908.9,10919,4907.7,10848.2,4974.9"></path> <path class="st3" d="M11688.5,5055l-332.2-332.2l-0.2-0.2c-4.4-4.4-9-8.5-13.7-12.4c-70.8-57.7-176.1-53.6-242,12.3 c-1.2,1.2-2.3,2.3-3.4,3.5l-10,10l-238.9,238.8l0,0c70.8-67.1,182.7-66,252.1,3.5l154,154l178.4,178.4 c70.3,70.3,185.4,70.3,255.8,0C11758.8,5240.4,11758.8,5125.4,11688.5,5055"></path> </g> <g class="st4"> <path class="st2" d="M10848.2,4190.7L10848.2,4190.7l-80.3,80.2c-70.3,70.3-70.3,185.4,0,255.7l0.1,0.1 c70.3,70.2,185.4,70.2,255.7,0l178.8-178.8v0.3c7-5.7,16-9.2,25.8-9.2c9.8,0,18.8,3.4,25.8,9.2h0.3l-154-154 C11030.9,4124.7,10919,4123.6,10848.2,4190.7"></path> <path class="st3" d="M11688.5,4270.9l-332.2-332.2l-0.2-0.2c-4.4-4.4-9-8.5-13.7-12.4c-70.8-57.7-176.1-53.6-242,12.3 c-1.2,1.2-2.3,2.3-3.4,3.5l-10,10l-238.9,238.8l0,0c70.8-67.1,182.7-66,252.1,3.5l154,154l178.4,178.4 c70.3,70.3,185.4,70.3,255.8,0C11758.8,4456.3,11758.8,4341.2,11688.5,4270.9"></path> </g> <g class="st5"> <path class="st2" d="M10848.2,3406.6L10848.2,3406.6l-80.3,80.2c-70.3,70.3-70.3,185.4,0,255.7l0.1,0.1 c70.3,70.2,185.4,70.2,255.7-0.1l178.8-178.8v0.3c7-5.7,16-9.2,25.8-9.2c9.8,0,18.8,3.4,25.8,9.2h0.3l-154-154 C11030.9,3340.6,10919,3339.4,10848.2,3406.6"></path> <path class="st3" d="M11688.5,3486.7l-332.2-332.2l-0.2-0.2c-4.4-4.4-9-8.5-13.7-12.4c-70.8-57.7-176.1-53.6-242,12.3 c-1.2,1.2-2.3,2.3-3.4,3.5l-10,10l-238.9,238.8l0,0c70.8-67.1,182.7-66,252.1,3.5l154,154l178.4,178.4 c70.3,70.3,185.4,70.3,255.8,0C11758.8,3672.2,11758.8,3557.1,11688.5,3486.7"></path> </g> <g class="st6"> <path class="st2" d="M10848.2,2622.4L10848.2,2622.4l-80.3,80.2c-70.3,70.3-70.3,185.4,0,255.7l0.1,0.1 c70.3,70.2,185.4,70.2,255.7-0.1l178.8-178.8v0.3c7-5.7,16-9.2,25.8-9.2c9.8,0,18.8,3.4,25.8,9.2h0.3l-154-154 C11030.9,2556.4,10919,2555.3,10848.2,2622.4"></path> <path class="st3" d="M11688.5,2702.6l-332.2-332.2l-0.2-0.2c-4.4-4.4-9-8.5-13.7-12.4c-70.8-57.7-176.1-53.6-242,12.3 c-1.2,1.2-2.3,2.3-3.4,3.5l-10,10l-238.9,238.8l0,0c70.8-67.1,182.7-66,252.1,3.5l154,154l178.4,178.4 c70.3,70.3,185.4,70.3,255.8,0C11758.8,2888,11758.8,2772.9,11688.5,2702.6"></path> </g> </g> <g> <g> <g class="st1"> <path class="st2" d="M271.8,5512.2L271.8,5512.2l-80.3,80.2c-70.3,70.3-70.3,185.4,0,255.7l0.1,0.1 c70.3,70.2,185.4,70.2,255.7,0L626,5669.4v0.3c7-5.7,16-9.2,25.8-9.2c9.8,0,18.8,3.4,25.8,9.2h0.3l-154-154 C454.5,5446.2,342.6,5445.1,271.8,5512.2"></path> <path class="st3" d="M1112.1,5592.4l-332.2-332.2l-0.2-0.2c-4.4-4.4-9-8.5-13.7-12.4c-70.8-57.7-176.1-53.6-242,12.3 c-1.2,1.2-2.3,2.3-3.4,3.5l-10,10l-238.9,238.8l0,0c70.8-67.1,182.7-66,252.1,3.5l154,154l178.4,178.4 c70.3,70.3,185.4,70.3,255.8,0C1182.4,5777.8,1182.4,5662.7,1112.1,5592.4"></path> </g> <g class="st4"> <path class="st2" d="M271.8,4728.1L271.8,4728.1l-80.3,80.2c-70.3,70.3-70.3,185.4,0,255.7l0.1,0.1 c70.3,70.2,185.4,70.2,255.7-0.1L626,4885.3v0.3c7-5.7,16-9.2,25.8-9.2c9.8,0,18.8,3.4,25.8,9.2h0.3l-154-154 C454.5,4662.1,342.6,4661,271.8,4728.1"></path> <path class="st3" d="M1112.1,4808.2L779.8,4476l-0.2-0.2c-4.4-4.4-9-8.5-13.7-12.4c-70.8-57.7-176.1-53.6-242,12.3 c-1.2,1.2-2.3,2.3-3.4,3.5l-10,10L271.7,4728l0,0c70.8-67.1,182.7-66,252.1,3.5l154,154L856.3,5064 c70.3,70.3,185.4,70.3,255.8,0C1182.4,4993.7,1182.4,4878.6,1112.1,4808.2"></path> </g> <g class="st5"> <path class="st2" d="M271.8,3943.9L271.8,3943.9l-80.3,80.2c-70.3,70.3-70.3,185.4,0,255.7l0.1,0.1 c70.3,70.2,185.4,70.2,255.7,0L626,4101.1v0.3c7-5.7,16-9.2,25.8-9.2c9.8,0,18.8,3.4,25.8,9.2h0.3l-154-154 C454.5,3877.9,342.6,3876.8,271.8,3943.9"></path> <path class="st3" d="M1112.1,4024.1l-332.2-332.2l-0.2-0.2c-4.4-4.4-9-8.5-13.7-12.4c-70.8-57.7-176.1-53.6-242,12.3 c-1.2,1.2-2.3,2.3-3.4,3.5l-10,10l-238.9,238.8l0,0c70.8-67.1,182.7-66,252.1,3.5l154,154l178.4,178.4 c70.3,70.3,185.4,70.3,255.8,0C1182.4,4209.5,1182.4,4094.4,1112.1,4024.1"></path> </g> <g class="st6"> <path class="st2" d="M271.8,3159.8L271.8,3159.8l-80.3,80.2c-70.3,70.3-70.3,185.4,0,255.7l0.1,0.1 c70.3,70.2,185.4,70.2,255.7,0L626,3317v0.3c7-5.7,16-9.2,25.8-9.2c9.8,0,18.8,3.4,25.8,9.2h0.3l-154-154 C454.5,3093.8,342.6,3092.7,271.8,3159.8"></path> <path class="st3" d="M1112.1,3239.9l-332.2-332.2l-0.2-0.2c-4.4-4.4-9-8.5-13.7-12.4c-70.8-57.7-176.1-53.6-242,12.3 c-1.2,1.2-2.3,2.3-3.4,3.5l-10,10l-238.9,238.8l0,0c70.8-67.1,182.7-66,252.1,3.5l154,154l178.4,178.4 c70.3,70.3,185.4,70.3,255.8,0C1182.4,3425.4,1182.4,3310.3,1112.1,3239.9"></path> </g> <g class="st4"> <path class="st2" d="M271.8,2375.6L271.8,2375.6l-80.3,80.2c-70.3,70.3-70.3,185.4,0,255.7l0.1,0.1 c70.3,70.2,185.4,70.2,255.7-0.1L626,2532.8v0.3c7-5.7,16-9.2,25.8-9.2c9.8,0,18.8,3.4,25.8,9.2h0.3l-154-154 C454.5,2309.7,342.6,2308.5,271.8,2375.6"></path> <path class="st3" d="M1112.1,2455.8l-332.2-332.2l-0.2-0.2c-4.4-4.4-9-8.5-13.7-12.4c-70.8-57.7-176.1-53.6-242,12.3 c-1.2,1.2-2.3,2.3-3.4,3.5l-10,10l-238.9,238.8l0,0c70.8-67.1,182.7-66,252.1,3.5l154,154l178.4,178.4 c70.3,70.3,185.4,70.3,255.8,0C1182.4,2641.2,1182.4,2526.1,1112.1,2455.8"></path> </g> <g class="st5"> <path class="st2" d="M271.8,1591.5L271.8,1591.5l-80.3,80.2c-70.3,70.3-70.3,185.4,0,255.7l0.1,0.1 c70.3,70.2,185.4,70.2,255.7,0L626,1748.7v0.3c7-5.7,16-9.2,25.8-9.2c9.8,0,18.8,3.4,25.8,9.2h0.3l-154-154 C454.5,1525.5,342.6,1524.4,271.8,1591.5"></path> <path class="st3" d="M1112.1,1671.7l-332.2-332.2l-0.2-0.2c-4.4-4.4-9-8.5-13.7-12.4c-70.8-57.7-176.1-53.6-242,12.3 c-1.2,1.2-2.3,2.3-3.4,3.5l-10,10l-238.9,238.8l0,0c70.8-67.1,182.7-66,252.1,3.5l154,154l178.4,178.4 c70.3,70.3,185.4,70.3,255.8,0C1182.4,1857.1,1182.4,1742,1112.1,1671.7"></path> </g> <g class="st6"> <path class="st2" d="M271.8,807.3L271.8,807.3l-80.3,80.2c-70.3,70.3-70.3,185.4,0,255.7l0.1,0.1c70.3,70.2,185.4,70.2,255.7,0 L626,964.5v0.3c7-5.7,16-9.2,25.8-9.2c9.8,0,18.8,3.4,25.8,9.2h0.3l-154-154C454.5,741.4,342.6,740.2,271.8,807.3"></path> <path class="st3" d="M1112.1,887.5L779.8,555.3l-0.2-0.2c-4.4-4.4-9-8.5-13.7-12.4C695.1,485,589.8,489.1,524,555 c-1.2,1.2-2.3,2.3-3.4,3.5l-10,10L271.7,807.3l0,0c70.8-67.1,182.7-66,252.1,3.5l154,154l178.4,178.4 c70.3,70.3,185.4,70.3,255.8,0C1182.4,1072.9,1182.4,957.8,1112.1,887.5"></path> </g> </g> <g class="st1"> <path class="st2" d="M271.8,6296.3L271.8,6296.3l-80.3,80.2c-70.3,70.3-70.3,185.4,0,255.7l0.1,0.1 c70.3,70.2,185.4,70.2,255.7,0L626,6453.5v0.3c7-5.7,16-9.2,25.8-9.2c9.8,0,18.8,3.4,25.8,9.2h0.3l-154-154 C454.5,6230.3,342.6,6229.2,271.8,6296.3"></path> <path class="st3" d="M1112.1,6376.5l-332.2-332.2l-0.2-0.2c-4.4-4.4-9-8.5-13.7-12.4c-70.8-57.7-176.1-53.6-242,12.3 c-1.2,1.2-2.3,2.3-3.4,3.5l-10,10l-238.9,238.8l0,0c70.8-67.1,182.7-66,252.1,3.5l154,154l178.4,178.4 c70.3,70.3,185.4,70.3,255.8,0C1182.4,6561.9,1182.4,6446.8,1112.1,6376.5"></path> </g> </g> <g> <g class="st6"> <path class="st2" d="M9673,5758.5L9673,5758.5l-80.3,80.2c-70.3,70.3-70.3,185.4,0,255.7l0.1,0.1c70.3,70.2,185.4,70.2,255.7,0 l178.8-178.8v0.3c7-5.7,16-9.2,25.8-9.2c9.8,0,18.8,3.4,25.8,9.2h0.3l-154-154C9855.7,5692.6,9743.9,5691.4,9673,5758.5"></path> <path class="st3" d="M10513.3,5838.7l-332.2-332.2l-0.2-0.2c-4.4-4.4-9-8.5-13.7-12.4c-70.8-57.7-176.1-53.6-242,12.3 c-1.2,1.2-2.3,2.3-3.4,3.5l-10,10L9673,5758.5l0,0c70.8-67.1,182.7-66,252.1,3.5l154,154l178.4,178.4 c70.3,70.3,185.4,70.3,255.8,0C10583.7,6024.1,10583.7,5909,10513.3,5838.7"></path> </g> <g class="st6"> <path class="st2" d="M9673,4974.4L9673,4974.4l-80.3,80.2c-70.3,70.3-70.3,185.4,0,255.7l0.1,0.1c70.3,70.2,185.4,70.2,255.7,0 l178.8-178.8v0.3c7-5.7,16-9.2,25.8-9.2c9.8,0,18.8,3.4,25.8,9.2h0.3l-154-154C9855.7,4908.4,9743.9,4907.3,9673,4974.4"></path> <path class="st3" d="M10513.3,5054.6l-332.2-332.2l-0.2-0.2c-4.4-4.4-9-8.5-13.7-12.4c-70.8-57.7-176.1-53.6-242,12.3 c-1.2,1.2-2.3,2.3-3.4,3.5l-10,10L9673,4974.4l0,0c70.8-67.1,182.7-66,252.1,3.5l154,154l178.4,178.4 c70.3,70.3,185.4,70.3,255.8,0C10583.7,5240,10583.7,5124.9,10513.3,5054.6"></path> </g> <g class="st6"> <path class="st2" d="M9673,4190.2L9673,4190.2l-80.3,80.2c-70.3,70.3-70.3,185.4,0,255.7l0.1,0.1 c70.3,70.2,185.4,70.2,255.7-0.1l178.8-178.8v0.3c7-5.7,16-9.2,25.8-9.2c9.8,0,18.8,3.4,25.8,9.2h0.3l-154-154 C9855.7,4124.3,9743.9,4123.1,9673,4190.2"></path> <path class="st3" d="M10513.3,4270.4l-332.2-332.2l-0.2-0.2c-4.4-4.4-9-8.5-13.7-12.4c-70.8-57.7-176.1-53.6-242,12.3 c-1.2,1.2-2.3,2.3-3.4,3.5l-10,10L9673,4190.2l0,0c70.8-67.1,182.7-66,252.1,3.5l154,154l178.4,178.4 c70.3,70.3,185.4,70.3,255.8,0C10583.7,4455.8,10583.7,4340.7,10513.3,4270.4"></path> </g> <g class="st6"> <path class="st2" d="M9673,3406.1L9673,3406.1l-80.3,80.2c-70.3,70.3-70.3,185.4,0,255.7l0.1,0.1 c70.3,70.2,185.4,70.2,255.7-0.1l178.8-178.8v0.3c7-5.7,16-9.2,25.8-9.2c9.8,0,18.8,3.4,25.8,9.2h0.3l-154-154 C9855.7,3340.1,9743.9,3339,9673,3406.1"></path> <path class="st3" d="M10513.3,3486.3l-332.2-332.2l-0.2-0.2c-4.4-4.4-9-8.5-13.7-12.4c-70.8-57.7-176.1-53.6-242,12.3 c-1.2,1.2-2.3,2.3-3.4,3.5l-10,10L9673,3406.1l0,0c70.8-67.1,182.7-66,252.1,3.5l154,154l178.4,178.4 c70.3,70.3,185.4,70.3,255.8,0C10583.7,3671.7,10583.7,3556.6,10513.3,3486.3"></path> </g> </g> </g> </g> </svg>