<?xml version="1.0" encoding="utf-8"?>
<!-- Generator: Adobe Illustrator 26.4.0, SVG Export Plug-In . SVG Version: 6.00 Build 0)  -->
<svg version="1.1" id="Layer_1" xmlns="http://www.w3.org/2000/svg" xmlns:xlink="http://www.w3.org/1999/xlink" x="0px" y="0px"
	 viewBox="0 0 1440 648" style="enable-background:new 0 0 1440 648;" xml:space="preserve">
<style type="text/css">
	.st0{opacity:0.2;}
	.st1{fill:#3ACFCA;}
	.st2{fill:#3ACFCA;fill-opacity:0.4;}
	.st3{fill:#00777E;fill-opacity:0.8;}
	.st4{opacity:0.5;fill:#00A19A;enable-background:new    ;}
	.st5{fill:#EFFAFB;}
</style>
<g class="st0">
	<path class="st1" d="M1538,253.1L1538,253.1c-17.7-18-46.6-18.2-64.5-0.6l-123.7,121.4c-18,17.6-18.2,46.5-0.6,64.5l0,0
		c17.7,18,46.6,18.2,64.5,0.6l123.7-121.4C1555.4,299.9,1555.7,271.1,1538,253.1z"/>
	<path class="st2" d="M1385,32.5L1385,32.5c-17.7-18-46.5-18.2-64.5-0.6l-167.9,164.9c-18,17.7-18.2,46.5-0.6,64.5l0,0
		c17.7,18,46.5,18.2,64.5,0.6l167.9-164.9C1402.4,79.4,1402.6,50.5,1385,32.5z"/>
	<path class="st3" d="M1285.5,366.9L1285.5,366.9c-6.9-7-18.1-7.1-25.1-0.2l-30.8,30.3c-7,6.9-7.1,18.1-0.2,25.1l0,0
		c6.9,7,18.1,7.1,25.1,0.2l30.8-30.3C1292.3,385.1,1292.4,373.9,1285.5,366.9z"/>
	<path class="st4" d="M1383.1,199.2L1383.1,199.2c-9.6-9.8-25.3-9.9-35.1-0.3l-43.1,42.3c-9.8,9.6-9.9,25.3-0.3,35.1l0,0
		c9.6,9.8,25.3,9.9,35.1,0.3l43.1-42.3C1392.6,224.6,1392.7,209,1383.1,199.2z"/>
	<path class="st4" d="M1433.7,501.5L1433.7,501.5c-4.4-4.5-11.6-4.5-16.1-0.1l-19.7,19.4c-4.5,4.4-4.5,11.6-0.1,16.1l0,0
		c4.4,4.5,11.6,4.5,16.1,0.1l19.7-19.4C1438,513.1,1438.1,505.9,1433.7,501.5z"/>
</g>
<g class="st0">
	<path class="st1" d="M185.4,505.7L185.4,505.7c-12.6-12.8-33.2-13-46.1-0.4L51,591.9c-12.8,12.6-13,33.2-0.4,46l0,0
		c12.6,12.8,33.2,13,46.1,0.4l88.3-86.7C197.9,539.1,198,518.5,185.4,505.7z"/>
	<path class="st2" d="M76.2,348.2L76.2,348.2c-12.6-12.8-33.2-13-46.1-0.4L-89.8,465.5c-12.8,12.6-13,33.2-0.4,46.1l0,0
		c12.6,12.8,33.2,13,46.1,0.4L75.8,394.3C88.6,381.7,88.8,361.1,76.2,348.2z"/>
	<path class="st3" d="M5.2,586.9L5.2,586.9c-4.9-5-12.9-5.1-17.9-0.2l-22,21.6c-5,4.9-5.1,12.9-0.2,17.9l0,0
		c4.9,5,12.9,5.1,17.9,0.2l22-21.6C10,600,10.1,591.9,5.2,586.9z"/>
	<path class="st4" d="M74.9,467.2L74.9,467.2c-6.8-7-18.1-7.1-25-0.2l-30.7,30.2c-7,6.8-7.1,18.1-0.2,25l0,0c6.8,7,18.1,7.1,25,0.2
		l30.7-30.2C81.6,485.4,81.7,474.2,74.9,467.2z"/>
	<path class="st4" d="M111,683L111,683c-3.1-3.2-8.3-3.2-11.5-0.1l-14.1,13.8c-3.2,3.1-3.2,8.3-0.1,11.5l0,0
		c3.1,3.2,8.3,3.2,11.5,0.1l14.1-13.8C114.1,691.3,114.1,686.2,111,683z"/>
</g>
<path class="st5" d="M1187.8,646.7c0,0,20-229.3-102.2-267.7c-122.2-38.4-154.2,47.1-214.3,8.5C811.2,348.9,775.9,282.2,691,245
	c-114.2-50-170.2,103.9-232.4,101.9c-74.1-2.4-173.7-58.4-208.3,104.1c-18.4,86.3,4,197,4,197l933.5-2.2L1187.8,646.7z"/>
</svg>
