<svg width="40" height="40" viewBox="0 0 40 40" fill="none" xmlns="http://www.w3.org/2000/svg">
<path fill-rule="evenodd" clip-rule="evenodd" d="M7.93516 21.7471C6.90562 21.7471 6.06795 22.6367 6.06795 23.731V23.8684C6.06795 24.9623 6.90562 25.8528 7.93516 25.8528H8.06491C9.09446 25.8528 9.93212 24.9623 9.93212 23.8684V23.731C9.93212 22.6367 9.09446 21.7471 8.06491 21.7471H7.93516ZM8.06486 27.2H7.93511C6.20653 27.2 4.79999 25.7051 4.79999 23.8684V23.731C4.79999 21.8944 6.20653 20.4 7.93511 20.4H8.06486C9.79345 20.4 11.2 21.8944 11.2 23.731V23.8684C11.2 25.7051 9.79345 27.2 8.06486 27.2Z" fill="#00B1AC"/>
<path fill-rule="evenodd" clip-rule="evenodd" d="M31.1352 21.7471C30.1056 21.7471 29.268 22.6367 29.268 23.731V23.8684C29.268 24.9623 30.1056 25.8528 31.1352 25.8528H31.2645C32.2945 25.8528 33.1321 24.9623 33.1321 23.8684V23.731C33.1321 22.6367 32.2945 21.7471 31.2645 21.7471H31.1352ZM31.2645 27.2H31.1351C29.4065 27.2 28 25.7051 28 23.8684V23.731C28 21.8944 29.4065 20.4 31.1351 20.4H31.2645C32.993 20.4 34.4 21.8944 34.4 23.731V23.8684C34.4 25.7051 32.993 27.2 31.2645 27.2Z" fill="#00B1AC"/>
<path fill-rule="evenodd" clip-rule="evenodd" d="M24.9457 23.2H14.2543C13.8931 23.2 13.6 22.9312 13.6 22.6C13.6 22.2688 13.8931 22 14.2543 22H24.9457C25.3073 22 25.6 22.2688 25.6 22.6C25.6 22.9312 25.3073 23.2 24.9457 23.2Z" fill="#00807B"/>
<path fill-rule="evenodd" clip-rule="evenodd" d="M24.9457 25.6H14.2543C13.8931 25.6 13.6 25.3312 13.6 25C13.6 24.6688 13.8931 24.4 14.2543 24.4H24.9457C25.3073 24.4 25.6 24.6688 25.6 25C25.6 25.3312 25.3073 25.6 24.9457 25.6Z" fill="#00807B"/>
<path fill-rule="evenodd" clip-rule="evenodd" d="M37.2052 17.6291C37.1995 17.5543 37.1846 17.4804 37.1547 17.4118L35.8496 14.4102H37.0847C37.965 14.4102 38.6809 15.1345 38.6809 16.0252C38.6809 16.875 38.0284 17.565 37.2052 17.6291ZM35.8913 33.5651C35.8913 34.6125 35.0496 35.4645 34.015 35.4645H32.9566C31.9219 35.4645 31.0799 34.6125 31.0799 33.5651V29.7596H35.8913V33.5651ZM8.70064 33.5651C8.70064 34.6125 7.85859 35.4645 6.82394 35.4645H5.76554C4.73089 35.4645 3.88928 34.6125 3.88928 33.5651V29.7596H8.70064V33.5651ZM1.31915 16.0252C1.31915 15.1345 2.03544 14.4102 2.91531 14.4102H3.93105L2.62598 17.4118C2.5996 17.4724 2.58596 17.5378 2.57805 17.6032C1.85999 17.4461 1.31915 16.7993 1.31915 16.0252ZM19.8905 28.4242H9.36022H3.88928V19.0491H35.8913V28.4242H30.4204H19.8905ZM8.34052 7.5831C9.03966 5.97436 10.6125 4.9354 12.3485 4.9354H19.8905H27.4325C29.1681 4.9354 30.7409 5.97436 31.4401 7.5831L35.8447 17.7136H3.93589L8.34052 7.5831ZM40 16.0252C40 14.3982 38.6923 13.0748 37.0847 13.0748H35.3689C35.3364 13.0748 35.3047 13.0797 35.2735 13.0842L32.6475 7.04493C31.7378 4.95187 29.6909 3.59998 27.4325 3.59998H19.8905H12.3485C10.0897 3.59998 8.04283 4.95187 7.13306 7.04493L4.51148 13.0748H2.91531C1.30771 13.0748 0 14.3982 0 16.0252C0 17.5342 1.12523 18.7806 2.57013 18.9542V29.0919V33.5651C2.57013 35.3493 4.00361 36.8 5.76554 36.8H6.82394C8.58632 36.8 10.0198 35.3493 10.0198 33.5651V29.7596H19.8905H29.7608V33.5651C29.7608 35.3493 31.1947 36.8 32.9566 36.8H34.015C35.777 36.8 37.2104 35.3493 37.2104 33.5651V29.0919V18.9703C38.7596 18.9026 40 17.6095 40 16.0252Z" fill="#00807B"/>
<path fill-rule="evenodd" clip-rule="evenodd" d="M28.9467 14.8C28.6953 14.8 28.4557 14.651 28.348 14.4004L25.6555 8.13877C25.51 7.80034 25.6603 7.40573 25.9906 7.2568C26.3204 7.10787 26.7064 7.26171 26.8519 7.59969L29.5444 13.8618C29.6899 14.1998 29.5396 14.5944 29.2094 14.7433C29.124 14.7817 29.0347 14.8 28.9467 14.8Z" fill="#00B1AC"/>
<path fill-rule="evenodd" clip-rule="evenodd" d="M31.3769 15.6C31.1371 15.6 30.909 15.4489 30.8059 15.1945L29.2531 11.3519C29.1143 11.0084 29.2572 10.6084 29.5722 10.4572C29.888 10.3074 30.2554 10.4617 30.3941 10.8048L31.947 14.6479C32.0858 14.9909 31.9425 15.3914 31.6279 15.5426C31.546 15.5815 31.4608 15.6 31.3769 15.6Z" fill="#00B1AC"/>
</svg>
