<svg width="41" height="40" viewBox="0 0 41 40" fill="none" xmlns="http://www.w3.org/2000/svg">
<path fill-rule="evenodd" clip-rule="evenodd" d="M31.5614 17.3842C31.5614 16.8344 31.1141 16.3894 30.5624 16.3894C30.0106 16.3894 29.5637 16.8344 29.5637 17.3842C29.5637 17.9336 30.0106 18.3786 30.5624 18.3786C31.1141 18.3786 31.5614 17.9336 31.5614 17.3842Z" fill="#00807B"/>
<path fill-rule="evenodd" clip-rule="evenodd" d="M38.4945 16.8907H36.3499C35.6736 14.9321 34.4296 13.167 32.7985 11.8537L32.8006 6.15805C32.8006 5.81108 32.5178 5.52948 32.1693 5.52948C29.5968 5.52948 27.3163 7.06655 26.3463 9.40232C26.1598 9.39226 25.9797 9.38765 25.8038 9.38765H24.5708C24.2219 9.38765 23.9395 9.66925 23.9395 10.0162C23.9395 10.3632 24.2219 10.6448 24.5708 10.6448H25.8038C26.0887 10.6448 26.3875 10.6595 26.717 10.6892C27.0091 10.7152 27.2835 10.5367 27.3748 10.2572C27.9854 8.38319 29.6149 7.06445 31.5381 6.82518L31.5385 11.78L31.5238 12.1224C31.5145 12.3281 31.6075 12.5259 31.7725 12.6504C33.4474 13.9171 34.6943 15.7094 35.2839 17.6974C35.363 17.9647 35.6092 18.1478 35.8891 18.1478H38.4945C38.7141 18.1478 38.893 18.3259 38.893 18.5447V23.7966C38.893 24.0158 38.7141 24.1939 38.4945 24.1939H35.3773C35.1299 24.1939 34.9052 24.3376 34.8029 24.5618C33.9002 26.5351 32.3368 28.1815 30.3993 29.1981C30.271 29.2656 30.17 29.3745 30.1131 29.507L27.4063 35.8132C27.2738 36.0353 27.0571 36.0592 26.9678 36.0592C26.879 36.0592 26.6623 36.0353 26.5298 35.8132L24.3406 30.7134C24.2413 30.4825 24.0127 30.3321 23.7602 30.3321H16.3435C16.0906 30.3321 15.8625 30.4825 15.7627 30.7134L13.5542 35.8589C13.4216 36.0806 13.2049 36.1049 13.1161 36.1049C13.0269 36.1053 12.8102 36.0806 12.6776 35.8589L9.89505 29.3758C9.84035 29.2484 9.74482 29.1428 9.62362 29.0749C6.5065 27.3317 4.57067 24.0413 4.57067 20.4886C4.57067 16.5995 6.8781 13.0661 10.4489 11.4867C10.7674 11.3459 10.9109 10.9746 10.7695 10.6574C10.6277 10.3401 10.2549 10.1964 9.9363 10.3376C6.99383 11.6392 4.8177 14.12 3.8561 17.0717C2.39622 16.8857 1.2625 15.6428 1.2625 14.1388C1.2625 13.7914 0.980121 13.5102 0.63125 13.5102C0.2828 13.5102 0 13.7914 0 14.1388C0 16.2257 1.53225 17.9589 3.53416 18.2928C3.38939 19.0077 3.30817 19.7415 3.30817 20.4886C3.30817 24.4235 5.41318 28.0721 8.81688 30.0635L11.53 36.3848C11.538 36.4024 11.5464 36.42 11.5557 36.4372C11.8667 37.0079 12.4642 37.3624 13.1161 37.362C13.768 37.362 14.366 37.0075 14.6761 36.4372C14.6854 36.42 14.6938 36.4024 14.7018 36.3848L16.7601 31.5892H23.3436L25.3821 36.3391C25.3901 36.3567 25.3986 36.3743 25.4078 36.3915C25.7184 36.9618 26.3164 37.3163 26.9678 37.3163C27.6197 37.3163 28.2177 36.9618 28.5283 36.3915C28.5375 36.3743 28.546 36.3567 28.5535 36.3391L31.1875 30.2034C33.1587 29.1168 34.7701 27.4453 35.775 25.451H38.4945C39.4106 25.451 40.1555 24.7089 40.1555 23.7966V18.5447C40.1555 17.6328 39.4106 16.8907 38.4945 16.8907Z" fill="#00807B"/>
<path fill-rule="evenodd" clip-rule="evenodd" d="M22.2992 15.9654C22.1329 15.9654 21.9671 15.9009 21.8434 15.7718C21.6023 15.5208 21.6107 15.1231 21.8623 14.883C23.1636 13.6414 23.8798 11.9698 23.8798 10.1763C23.8798 6.58128 20.9432 3.65717 17.3333 3.65717C13.7234 3.65717 10.7869 6.58128 10.7869 10.1763C10.7869 11.9179 11.4678 13.5547 12.7042 14.7858C12.9508 15.031 12.9508 15.4291 12.7042 15.6746C12.4576 15.9202 12.0582 15.9202 11.8116 15.6746C10.3366 14.2063 9.52435 12.2539 9.52435 10.1763C9.52435 5.88818 13.0274 2.40002 17.3333 2.40002C21.6393 2.40002 25.1423 5.88818 25.1423 10.1763C25.1423 12.3155 24.288 14.3098 22.736 15.7907C22.6135 15.9072 22.4566 15.9654 22.2992 15.9654Z" fill="#00B1AC"/>
<path fill-rule="evenodd" clip-rule="evenodd" d="M17.9078 12.345C18.3896 12.2436 18.6678 11.985 18.6678 11.5974C18.6678 11.1637 18.3526 10.9328 17.9078 10.7576V12.345ZM17.0922 9.3643V7.91523C16.6567 7.98857 16.3882 8.21066 16.3882 8.56141C16.3882 8.96704 16.6752 9.19794 17.0922 9.3643ZM17.9078 9.64087C18.8534 9.92666 19.8912 10.2774 19.8819 11.5417C19.8819 12.5662 19.0849 13.2401 17.9078 13.3784V14.6795H17.0922V13.3876C16.2026 13.3138 15.3777 12.9262 14.7848 12.3819L15.2574 11.4403C15.8133 11.9481 16.4807 12.262 17.0922 12.3538V10.5083C16.1655 10.2313 15.1644 9.8902 15.1644 8.66281C15.1644 7.67511 15.9248 7.02014 17.0922 6.89066V5.67249H17.9078V6.88144C18.6123 6.94597 19.289 7.18609 19.7986 7.52761L19.3445 8.48723C18.8437 8.18258 18.3341 8.00742 17.9078 7.93367V9.64087Z" fill="#00807B"/>
<path fill-rule="evenodd" clip-rule="evenodd" d="M24.5708 15.9642H10.1556C9.80673 15.9642 9.52435 15.6826 9.52435 15.3356C9.52435 14.9886 9.80673 14.707 10.1556 14.707H24.5708C24.9197 14.707 25.2021 14.9886 25.2021 15.3356C25.2021 15.6826 24.9197 15.9642 24.5708 15.9642Z" fill="#00807B"/>
</svg>
