<svg width="80" height="80" viewBox="0 0 80 80" fill="none" xmlns="http://www.w3.org/2000/svg">
<circle cx="40" cy="40" r="40" fill="#EFFAFB"/>
<path fill-rule="evenodd" clip-rule="evenodd" d="M36.0417 63.9468C35.603 63.9468 35.1997 63.6555 35.0784 63.2115C35.049 63.1055 32.1344 52.5368 29.573 46.9881C29.129 46.0248 28.845 45.2928 28.617 44.7041C28.4317 44.2241 28.285 43.8448 28.1117 43.4941C27.0257 41.2915 27.7944 39.7935 28.8764 39.1268C30.611 38.0568 33.8684 38.6208 35.7697 41.1395C36.233 41.7535 36.8137 42.7468 37.485 43.8968C38.3024 45.2948 39.823 47.8981 40.4184 48.2155C40.5257 48.2701 40.723 48.3528 40.837 48.2781C40.939 48.2121 41.0337 48.0195 41.0204 47.7801C40.9757 47.0201 41.0177 28.4408 41.023 26.3241C41.0197 26.0881 41.029 23.8261 42.4424 22.3941C43.151 21.6755 44.105 21.2948 45.199 21.2948C46.4457 21.2948 47.4697 21.6861 48.241 22.4595C49.195 23.4148 49.6784 24.8561 49.6757 26.7435V41.8495C52.4217 41.8528 59.6304 42.4508 63.089 48.3281C65.2597 52.0168 62.3524 62.0955 62.0137 63.2321C61.857 63.7615 61.3004 64.0655 60.7704 63.9055C60.241 63.7475 59.9397 63.1908 60.097 62.6615C61.279 58.6875 62.669 51.5581 61.365 49.3428C57.7744 43.2401 48.8497 43.8695 48.755 43.8768C48.4777 43.8961 48.2024 43.8035 47.9977 43.6141C47.793 43.4248 47.6757 43.1581 47.6757 42.8795V26.7735C47.6784 25.0755 47.215 24.2621 46.8257 23.8721C46.4384 23.4841 45.9057 23.2948 45.199 23.2948C44.639 23.2948 44.2037 23.4588 43.8704 23.7941C43.1664 24.5035 43.0197 25.8555 43.023 26.3168C43.003 34.5741 42.9864 47.0608 43.017 47.6648C43.0717 48.6035 42.6544 49.4821 41.9284 49.9548C41.2257 50.4115 40.343 50.4268 39.5024 49.9935C38.4757 49.4641 37.3537 47.6355 35.7584 44.9055C35.145 43.8555 34.5657 42.8648 34.173 42.3441C32.893 40.6495 30.7704 40.3075 29.9257 40.8288C29.357 41.1801 29.601 41.9908 29.9064 42.6101C30.1177 43.0401 30.287 43.4768 30.4824 43.9828C30.7117 44.5735 30.971 45.2441 31.389 46.1495C34.0197 51.8495 36.8864 62.2421 37.0064 62.6821C37.153 63.2141 36.8397 63.7655 36.307 63.9108C36.219 63.9355 36.1297 63.9468 36.0417 63.9468Z" fill="#00807B"/>
<path fill-rule="evenodd" clip-rule="evenodd" d="M20.5319 23.064C19.1359 23.064 17.9999 21.928 17.9999 20.532C17.9999 19.136 19.1359 18 20.5319 18C21.9279 18 23.0639 19.136 23.0639 20.532C23.0639 21.928 21.9279 23.064 20.5319 23.064ZM20.532 16C18.0333 16 16 18.0333 16 20.532C16 23.0307 18.0333 25.064 20.532 25.064C23.0307 25.064 25.064 23.0307 25.064 20.532C25.064 18.0333 23.0307 16 20.532 16Z" fill="#00B1AC"/>
<path fill-rule="evenodd" clip-rule="evenodd" d="M32.8678 18.0003C34.2638 18.0003 35.3998 19.1363 35.3998 20.5323C35.3998 21.9283 34.2638 23.0643 32.8678 23.0643C31.4718 23.0643 30.3358 21.9283 30.3358 20.5323C30.3358 19.1363 31.4718 18.0003 32.8678 18.0003ZM32.8679 25.0642C35.3665 25.0642 37.3999 23.0309 37.3999 20.5322C37.3999 18.0336 35.3665 16.0002 32.8679 16.0002C30.3692 16.0002 28.3359 18.0336 28.3359 20.5322C28.3359 23.0309 30.3692 25.0642 32.8679 25.0642Z" fill="#00B1AC"/>
<path fill-rule="evenodd" clip-rule="evenodd" d="M20.5319 35.555C19.1359 35.555 17.9999 34.419 17.9999 33.023C17.9999 31.627 19.1359 30.491 20.5319 30.491C21.9279 30.491 23.0639 31.627 23.0639 33.023C23.0639 34.419 21.9279 35.555 20.5319 35.555ZM20.532 28.491C18.0333 28.491 16 30.5243 16 33.023C16 35.5216 18.0333 37.555 20.532 37.555C23.0307 37.555 25.064 35.5216 25.064 33.023C25.064 30.5243 23.0307 28.491 20.532 28.491Z" fill="#00B1AC"/>
<path fill-rule="evenodd" clip-rule="evenodd" d="M32.8678 30.4911C34.2638 30.4911 35.3998 31.6271 35.3998 33.0231C35.3998 34.4191 34.2638 35.5551 32.8678 35.5551C31.4718 35.5551 30.3358 34.4191 30.3358 33.0231C30.3358 31.6271 31.4718 30.4911 32.8678 30.4911ZM32.8679 37.5551C35.3665 37.5551 37.3999 35.5218 37.3999 33.0231C37.3999 30.5244 35.3665 28.4911 32.8679 28.4911C30.3692 28.4911 28.3359 30.5244 28.3359 33.0231C28.3359 35.5218 30.3692 37.5551 32.8679 37.5551Z" fill="#00B1AC"/>
<path fill-rule="evenodd" clip-rule="evenodd" d="M20.5319 48.0458C19.1359 48.0458 17.9999 46.9098 17.9999 45.5138C17.9999 44.1178 19.1359 42.9818 20.5319 42.9818C21.9279 42.9818 23.0639 44.1178 23.0639 45.5138C23.0639 46.9098 21.9279 48.0458 20.5319 48.0458ZM20.532 40.9818C18.0333 40.9818 16 43.0151 16 45.5138C16 48.0125 18.0333 50.0458 20.532 50.0458C23.0307 50.0458 25.064 48.0125 25.064 45.5138C25.064 43.0151 23.0307 40.9818 20.532 40.9818Z" fill="#00B1AC"/>
<path fill-rule="evenodd" clip-rule="evenodd" d="M45.1993 21.2952C46.446 21.2952 47.4693 21.6865 48.2407 22.4592C48.4693 22.6885 48.6693 22.9472 48.8433 23.2305C49.418 22.4565 49.7367 21.5112 49.7367 20.5318C49.7367 18.0332 47.7033 16.0005 45.2047 16.0005C42.706 16.0005 40.6727 18.0332 40.6727 20.5318C40.6727 21.5992 41.0453 22.6092 41.7107 23.4132C41.8987 23.0545 42.136 22.7045 42.442 22.3938C43.1513 21.6752 44.1047 21.2952 45.1993 21.2952Z" fill="#00B1AC"/>
</svg>
