<svg width="40" height="40" viewBox="0 0 40 40" fill="none" xmlns="http://www.w3.org/2000/svg">
<path fill-rule="evenodd" clip-rule="evenodd" d="M5.76564 27.7913C5.37359 27.7913 4.99669 27.7498 4.63935 27.6717C4.611 27.6629 4.58264 27.6546 4.55331 27.6493C3.04574 27.291 1.91016 26.2727 1.57042 24.9435H28.4761C28.6775 26.0799 29.2798 27.0864 30.1509 27.8465L5.76564 27.7913ZM40 7.53225C40 7.12759 39.6715 6.80005 39.2667 6.80005H35.6315C35.2267 6.80005 34.8983 7.12759 34.8983 7.53225C34.8983 7.93643 35.2267 8.26445 35.6315 8.26445H38.5335V14.3779H5.16045V8.26445H8.54322C8.94847 8.26445 9.27648 7.93643 9.27648 7.53225C9.27648 7.12759 8.94847 6.80005 8.54322 6.80005H4.42719C4.02244 6.80005 3.69394 7.12759 3.69394 7.53225V21.1395C3.69394 21.5442 4.02244 21.8717 4.42719 21.8717C4.83244 21.8717 5.16045 21.5442 5.16045 21.1395V15.8423H38.5335V23.9429C38.5335 24 38.5413 24.0556 38.554 24.1093C38.5413 24.163 38.5335 24.2182 38.5335 24.2758C38.5335 26.2498 36.6045 27.8557 34.2361 27.8557H34.2087C31.8276 27.844 29.9245 26.239 29.8703 24.1918C29.86 23.7949 29.5349 23.4791 29.1375 23.4791H0.733528C0.535548 23.4791 0.346367 23.5587 0.208026 23.7003C0.0701735 23.8418 -0.00510769 24.0332 0.000269535 24.2304C0.0574637 26.3948 1.56749 28.1945 3.69394 28.915V35.6678C3.69394 36.072 4.02244 36.4001 4.42719 36.4001H39.2667C39.6715 36.4001 40 36.072 40 35.6678V29.8639C40 29.4593 39.6715 29.1317 39.2667 29.1317C38.8615 29.1317 38.5335 29.4593 38.5335 29.8639V34.9356H5.16045V29.2274C5.35892 29.2455 5.55983 29.2557 5.76417 29.2557L34.2034 29.3201H34.2341C37.4136 29.3201 40 27.0572 40 24.2758C40 24.2182 39.9917 24.163 39.979 24.1093C39.9917 24.0556 40 24 40 23.9429V7.53225Z" fill="#00807B"/>
<path fill-rule="evenodd" clip-rule="evenodd" d="M27.4431 8.40005H32.5569C32.9119 8.40005 33.2 8.04218 33.2 7.60005C33.2 7.15792 32.9119 6.80005 32.5569 6.80005H27.4431C27.0877 6.80005 26.8 7.15792 26.8 7.60005C26.8 8.04218 27.0877 8.40005 27.4431 8.40005Z" fill="#00807B"/>
<path fill-rule="evenodd" clip-rule="evenodd" d="M24.5569 8.40005C24.9119 8.40005 25.2 8.04218 25.2 7.60005C25.2 7.15792 24.9119 6.80005 24.5569 6.80005H19.4431C19.0877 6.80005 18.8 7.15792 18.8 7.60005C18.8 8.04218 19.0877 8.40005 19.4431 8.40005H24.5569Z" fill="#00807B"/>
<path fill-rule="evenodd" clip-rule="evenodd" d="M16.5569 8.40005C16.9123 8.40005 17.2 8.04218 17.2 7.60005C17.2 7.15792 16.9123 6.80005 16.5569 6.80005H11.4431C11.0877 6.80005 10.8 7.15792 10.8 7.60005C10.8 8.04218 11.0877 8.40005 11.4431 8.40005H16.5569Z" fill="#00807B"/>
<path fill-rule="evenodd" clip-rule="evenodd" d="M9.8 5.02813C9.60171 5.02813 9.44038 5.18807 9.44038 5.38466V9.41552C9.44038 9.61212 9.60171 9.77206 9.8 9.77206C9.99829 9.77206 10.1596 9.61212 10.1596 9.41552V5.38466C10.1596 5.18807 9.99829 5.02813 9.8 5.02813ZM9.8 11.2001C8.80758 11.2001 8 10.3994 8 9.41553V5.38466C8 4.40075 8.80758 3.6001 9.8 3.6001C10.7924 3.6001 11.6 4.40075 11.6 5.38466V9.41553C11.6 10.3994 10.7924 11.2001 9.8 11.2001Z" fill="#00B1AC"/>
<path fill-rule="evenodd" clip-rule="evenodd" d="M17.7998 5.02813C17.6015 5.02813 17.4402 5.18807 17.4402 5.38466V9.41552C17.4402 9.61212 17.6015 9.77206 17.7998 9.77206C17.998 9.77206 18.1598 9.61212 18.1598 9.41552V5.38466C18.1598 5.18807 17.998 5.02813 17.7998 5.02813ZM17.7998 11.2001C16.8075 11.2001 16 10.3994 16 9.41553V5.38466C16 4.40075 16.8075 3.6001 17.7998 3.6001C18.7921 3.6001 19.6 4.40075 19.6 5.38466V9.41553C19.6 10.3994 18.7921 11.2001 17.7998 11.2001Z" fill="#00B1AC"/>
<path fill-rule="evenodd" clip-rule="evenodd" d="M25.7998 5.02813C25.6015 5.02813 25.4402 5.18807 25.4402 5.38466V9.41552C25.4402 9.61212 25.6015 9.77206 25.7998 9.77206C25.998 9.77206 26.1598 9.61212 26.1598 9.41552V5.38466C26.1598 5.18807 25.998 5.02813 25.7998 5.02813ZM25.7998 11.2001C24.8075 11.2001 24 10.3994 24 9.41553V5.38466C24 4.40075 24.8075 3.6001 25.7998 3.6001C26.7921 3.6001 27.6 4.40075 27.6 5.38466V9.41553C27.6 10.3994 26.7921 11.2001 25.7998 11.2001Z" fill="#00B1AC"/>
<path fill-rule="evenodd" clip-rule="evenodd" d="M33.7998 5.02813C33.6015 5.02813 33.4402 5.18807 33.4402 5.38466V9.41552C33.4402 9.61212 33.6015 9.77206 33.7998 9.77206C33.998 9.77206 34.1598 9.61212 34.1598 9.41552V5.38466C34.1598 5.18807 33.998 5.02813 33.7998 5.02813ZM33.7998 11.2001C32.8075 11.2001 32 10.3994 32 9.41553V5.38466C32 4.40075 32.8075 3.6001 33.7998 3.6001C34.7921 3.6001 35.6 4.40075 35.6 5.38466V9.41553C35.6 10.3994 34.7921 11.2001 33.7998 11.2001Z" fill="#00B1AC"/>
</svg>
