<svg width="80" height="80" viewBox="0 0 80 80" fill="none" xmlns="http://www.w3.org/2000/svg">
<circle cx="40" cy="40" r="40" fill="#EFFAFB"/>
<path fill-rule="evenodd" clip-rule="evenodd" d="M20.2287 48.4498H60.2507V17.8209H20.2287V48.4498ZM61.1654 16H19.3147C18.8092 16 18.4 16.4077 18.4 16.9101V49.36C18.4 49.8624 18.8092 50.2701 19.3147 50.2701H33.5094L31.2795 62.9321C31.1923 63.4272 31.5252 63.8993 32.0228 63.986C32.0758 63.9951 32.1289 64 32.1813 64C32.6173 64 33.0033 63.6887 33.0813 63.2464L35.3667 50.2701H46.6054L48.9603 63.2513C49.0401 63.6912 49.4255 64 49.8591 64C49.9133 64 49.9682 63.9945 50.0231 63.9848C50.5201 63.8956 50.8505 63.4224 50.7609 62.9278L48.4639 50.2701H61.1654C61.6708 50.2701 62.08 49.8624 62.08 49.36V16.9101C62.08 16.4077 61.6708 16 61.1654 16Z" fill="#00807B"/>
<path fill-rule="evenodd" clip-rule="evenodd" d="M41.4987 35.68C41.3409 35.68 41.1819 35.639 41.0366 35.5533L35.1573 32.0579C34.7312 31.8044 34.5926 31.2557 34.8482 30.8332C35.1039 30.4101 35.6567 30.2745 36.0834 30.5268L41.9627 34.0216C42.3888 34.2757 42.5274 34.8237 42.2718 35.2462C42.1031 35.5253 41.8048 35.68 41.4987 35.68Z" fill="#00807B"/>
<path fill-rule="evenodd" clip-rule="evenodd" d="M27.9578 39.52C27.7668 39.52 27.5733 39.463 27.4086 39.3444C27.002 39.0531 26.9193 38.5009 27.223 38.1115L32.5862 31.2335C32.8899 30.8435 33.4655 30.7642 33.8714 31.0556C34.278 31.3469 34.3607 31.899 34.057 32.2884L28.6938 39.1664C28.5138 39.3978 28.2376 39.52 27.9578 39.52Z" fill="#00807B"/>
<path fill-rule="evenodd" clip-rule="evenodd" d="M26.7994 39.8099C26.307 39.8099 25.9016 40.205 25.8901 40.6998C25.8791 41.2009 26.2781 41.6184 26.7798 41.6293C27.0232 41.6236 27.2527 41.5452 27.4286 41.3773C27.6044 41.2095 27.7042 40.9835 27.7094 40.7401C27.7209 40.239 27.3219 39.8215 26.8202 39.8105C26.8133 39.8105 26.8064 39.8099 26.7994 39.8099ZM26.8006 43.36C26.781 43.36 26.7608 43.3594 26.7406 43.3588C25.2857 43.3265 24.1284 42.1161 24.1607 40.6605C24.1935 39.2056 25.4247 38.0511 26.8588 38.0805C28.3143 38.1134 29.4716 39.3238 29.4393 40.7793C29.4071 42.2141 28.2289 43.36 26.8006 43.36Z" fill="#00B1AC"/>
<path fill-rule="evenodd" clip-rule="evenodd" d="M33.9994 29.2505C33.7642 29.2505 33.5421 29.3399 33.3715 29.5025C33.1956 29.6708 33.0958 29.8974 33.09 30.1402C33.0791 30.6418 33.4781 31.0587 33.9798 31.0697C34.2243 31.0679 34.4527 30.9855 34.6286 30.8177C34.8044 30.6499 34.9042 30.4239 34.91 30.1805C34.9152 29.9378 34.8258 29.7072 34.658 29.5319C34.4896 29.356 34.2635 29.2563 34.0202 29.2505C34.0133 29.2505 34.0064 29.2505 33.9994 29.2505ZM34.0006 32.8C33.981 32.8 33.9608 32.7994 33.9406 32.7989C32.4857 32.7666 31.3284 31.5563 31.3607 30.1015C31.3768 29.3964 31.6663 28.7396 32.1755 28.253C32.6852 27.7652 33.353 27.4994 34.0594 27.5213C34.7641 27.5374 35.4209 27.8269 35.9081 28.3366C36.3954 28.8457 36.6549 29.5146 36.6393 30.2197C36.607 31.6543 35.4289 32.8 34.0006 32.8Z" fill="#00B1AC"/>
<path fill-rule="evenodd" clip-rule="evenodd" d="M56.3091 24.1154C56.3079 23.6093 55.9028 23.2 55.4035 23.2H55.4011L51.3981 23.211C50.8982 23.2122 50.4936 23.6246 50.4948 24.1313C50.4966 24.6374 50.9012 25.0468 51.4005 25.0468H51.4029L53.3102 25.0413L44.5948 33.6242C44.2356 33.9773 44.2277 34.558 44.5761 34.9221C44.7536 35.1069 44.9897 35.2 45.2257 35.2C45.4534 35.2 45.681 35.1137 45.8567 34.9405L54.5039 26.4254L54.5087 28.1774C54.5105 28.6835 54.915 29.0929 55.4143 29.0929H55.4168C55.9173 29.091 56.3218 28.6792 56.32 28.1725L56.3091 24.1154Z" fill="#00807B"/>
<path fill-rule="evenodd" clip-rule="evenodd" d="M43.5994 34.5303C43.3642 34.5303 43.1421 34.6196 42.9715 34.7822C42.7956 34.9506 42.6958 35.1767 42.69 35.4194C42.6791 35.9211 43.0781 36.3386 43.5798 36.3496C44.0936 36.3605 44.4984 35.9621 44.51 35.4604C44.5209 34.9593 44.1219 34.5418 43.6202 34.5303C43.6133 34.5303 43.6064 34.5303 43.5994 34.5303ZM43.6006 38.08C43.581 38.08 43.5608 38.0795 43.5406 38.0789C42.0857 38.0466 40.9284 36.8362 40.9607 35.3808C40.9935 33.9259 42.208 32.764 43.6594 32.8009C45.1143 32.8338 46.2716 34.0441 46.2393 35.4996C46.207 36.9343 45.0289 38.08 43.6006 38.08Z" fill="#00B1AC"/>
</svg>
