<svg width="40" height="40" viewBox="0 0 40 40" fill="none" xmlns="http://www.w3.org/2000/svg">
<path fill-rule="evenodd" clip-rule="evenodd" d="M34.3454 26.0934C34.5115 25.1592 35.5292 24.5473 36.6179 24.7273C37.7071 24.9069 38.455 25.8097 38.2885 26.7444C38.1224 27.6782 37.1052 28.2902 36.016 28.1105C34.9268 27.9309 34.1794 27.0281 34.3454 26.0934ZM16.0975 25.155L34.3467 29.0385C34.7642 29.2807 35.2415 29.4565 35.7614 29.5421C37.7716 29.8741 39.65 28.7443 39.9573 27.0197C40.2642 25.2947 38.8834 23.6273 36.8729 23.2957C34.8623 22.9637 32.9838 24.0931 32.677 25.8185L14.8 23.2L16.0975 25.155Z" fill="#00B1AC"/>
<path fill-rule="evenodd" clip-rule="evenodd" d="M5.90712 30.2524C5.24968 30.3914 4.60437 29.9667 4.46491 29.3008L2.37263 19.2958L10.6071 17.5168L17.0978 27.8352L5.90712 30.2524ZM2.26219 12.8264L7.01107 11.8014L8.39178 13.9954L1.57227 15.4689L1.32584 14.292C1.18682 13.6257 1.60649 12.9681 2.26219 12.8264ZM18.6977 27.9272L7.8634 10.705C7.71788 10.4735 7.4472 10.3564 7.18085 10.415L1.99238 11.5355C0.635925 11.8282 -0.232863 13.1878 0.0551451 14.5662L3.19421 29.575C3.44497 30.7748 4.49176 31.6 5.65419 31.6C5.82656 31.6 6.00153 31.582 6.17737 31.5437L18.2858 28.928C18.4941 28.8836 18.6674 28.7374 18.7497 28.5376C18.832 28.3374 18.8125 28.1094 18.6977 27.9272Z" fill="#00807B"/>
<path fill-rule="evenodd" clip-rule="evenodd" d="M8.40422 22.1003C8.27166 22.1003 8.13824 22.1142 8.00568 22.1423C6.98075 22.3602 6.32447 23.3711 6.54236 24.3955C6.76026 25.4194 7.77003 26.0734 8.79539 25.8586C9.81989 25.6407 10.4766 24.6298 10.2587 23.6055C10.153 23.1091 9.86061 22.6838 9.43521 22.4074C9.12332 22.2047 8.76723 22.1003 8.40422 22.1003ZM8.39382 27.2C7.78216 27.2 7.18305 27.0241 6.65802 26.6833C5.94109 26.2181 5.44855 25.5013 5.27094 24.6653C5.09334 23.8294 5.25188 22.9748 5.71713 22.258C6.18281 21.5416 6.89931 21.0491 7.73537 20.8715C8.57056 20.6927 9.42568 20.8521 10.143 21.3172C10.8595 21.7828 11.3521 22.4997 11.5297 23.3356C11.8966 25.0608 10.7911 26.7625 9.0657 27.129C8.84217 27.177 8.61735 27.2 8.39382 27.2Z" fill="#00B1AC"/>
<path fill-rule="evenodd" clip-rule="evenodd" d="M29.1059 19.927C28.8753 20.1588 28.5629 20.2994 28.2432 20.2854L19.7591 20.267L15.5322 8.84486L29.486 8.87466L29.4647 19.0584C29.4643 19.3871 29.3366 19.6956 29.1059 19.927ZM28.2806 2.54879C28.9525 2.55011 29.4986 3.10312 29.4968 3.78145L29.4946 4.97949L14.0901 4.94619L13.1909 2.51681L28.2806 2.54879ZM28.2832 1.23419L12.2531 1.20001H12.2514C12.0385 1.20001 11.8387 1.30518 11.7167 1.48178C11.5946 1.65881 11.5664 1.88492 11.6411 2.08693L18.6962 21.1535C18.7909 21.4103 19.0337 21.5803 19.3052 21.5807L28.2402 21.6H28.2459C28.9174 21.6 29.5494 21.3371 30.0255 20.8586C30.5029 20.3792 30.7665 19.7407 30.7678 19.0606L30.8 3.78408C30.803 2.38096 29.6741 1.23726 28.2832 1.23419Z" fill="#00807B"/>
<path fill-rule="evenodd" clip-rule="evenodd" d="M27.7426 11.6143L20.2599 11.6H20.2586C19.8955 11.6 19.6009 11.8649 19.6 12.1917C19.5991 12.519 19.8937 12.785 20.2573 12.7858L27.7396 12.8H27.7413C28.1045 12.8 28.3991 12.5352 28.4 12.2083C28.4009 11.8811 28.1062 11.6151 27.7426 11.6143Z" fill="#00807B"/>
<path fill-rule="evenodd" clip-rule="evenodd" d="M27.7426 14.0142L20.26 14H20.2587C19.8951 14 19.6004 14.2648 19.6 14.5917C19.5991 14.919 19.8933 15.185 20.2569 15.1858L27.7395 15.2H27.7413C28.1044 15.2 28.3991 14.9352 28.4 14.6083C28.4009 14.281 28.1062 14.015 27.7426 14.0142Z" fill="#00807B"/>
<path fill-rule="evenodd" clip-rule="evenodd" d="M27.7426 16.4143L20.26 16.4H20.2587C19.8951 16.4 19.6004 16.6648 19.6 16.9917C19.5991 17.319 19.8933 17.585 20.2569 17.5858L27.7395 17.6H27.7413C28.1044 17.6 28.3991 17.3352 28.4 17.0083C28.4009 16.6811 28.1062 16.415 27.7426 16.4143Z" fill="#00807B"/>
<path fill-rule="evenodd" clip-rule="evenodd" d="M30.7415 34.5264C31.1259 35.5606 30.6979 36.6794 29.7858 37.0255C28.8733 37.3715 27.8223 36.8137 27.4379 35.7794C27.0535 34.7452 27.4815 33.6263 28.3935 33.2803C29.3056 32.9342 30.3571 33.4921 30.7415 34.5264ZM21.6 14L27.8046 31.6956C26.1203 32.3345 25.3303 34.4004 26.0404 36.3098C26.7502 38.2192 28.6908 39.2496 30.3748 38.6106C32.0592 37.9717 32.8491 35.9058 32.1394 33.9959C31.9556 33.5021 31.6894 33.068 31.3671 32.7054L23.9018 15.2121C23.9018 15.2121 23.4643 14.0693 21.6 14Z" fill="#00B1AC"/>
</svg>
