<svg width="40" height="40" viewBox="0 0 40 40" fill="none" xmlns="http://www.w3.org/2000/svg">
<path fill-rule="evenodd" clip-rule="evenodd" d="M32.5838 26.8H35.1117C35.6023 26.8 36 27.2017 36 27.6973V31.1027C36 31.5982 35.6023 32 35.1117 32H28.0879C27.5978 32 27.2 31.5982 27.2 31.1027V27.9868L32.5838 26.8Z" fill="#00B1AC"/>
<path fill-rule="evenodd" clip-rule="evenodd" d="M6.03679 30.4684C5.64116 30.5308 5.24406 30.4353 4.91987 30.1983C4.59569 29.9612 4.38285 29.6119 4.32028 29.2141L2.43822 17.2221L30.6587 12.755L32.5408 24.747C32.6698 25.5684 32.1092 26.3413 31.2918 26.4709L6.03679 30.4684ZM1.49719 11.2246C1.36811 10.4032 1.92878 9.63034 2.74615 9.50071L28.0007 5.50271C28.0795 5.49084 28.1578 5.4844 28.2352 5.4844C28.9609 5.4844 29.6009 6.01533 29.7172 6.75753L29.9389 8.16821L1.71841 12.6353L1.49719 11.2246ZM37.0207 11.4047H34.5716C34.1637 11.4047 33.8326 11.7372 33.8326 12.1469C33.8326 12.5566 34.1637 12.8891 34.5716 12.8891H37.0207C37.8484 12.8891 38.5219 13.5655 38.5219 14.3968V32.6079C38.5219 33.4392 37.8484 34.1156 37.0207 34.1156H11.4543C10.6261 34.1156 9.95314 33.4392 9.95314 32.6079V31.3511L31.5219 27.937C33.1443 27.6802 34.2563 26.1458 34.0011 24.516L31.1775 6.52646C30.9218 4.89707 29.3935 3.78031 27.7706 4.03662L2.51607 8.03461C1.73023 8.15881 1.039 8.58335 0.570947 9.22956C0.102896 9.87577 -0.0867872 10.666 0.0368766 11.4557L2.85996 29.4452C2.98412 30.2344 3.40684 30.9286 4.05028 31.3986C4.56514 31.7752 5.17213 31.9716 5.79636 31.9716C5.95254 31.9716 6.10971 31.9597 6.26687 31.9345L8.47509 31.5852V32.6079C8.47509 34.2576 9.81125 35.6 11.4543 35.6H37.0207C38.6633 35.6 40 34.2576 40 32.6079V14.3968C40 12.7471 38.6633 11.4047 37.0207 11.4047Z" fill="#00807B"/>
<path fill-rule="evenodd" clip-rule="evenodd" d="M9.40574 20.678C9.28408 20.678 9.16143 20.6879 9.03878 20.7071C8.42603 20.8036 7.88765 21.1331 7.52315 21.6341C7.15816 22.1355 7.01039 22.7487 7.10693 23.3615C7.30593 24.6264 8.49646 25.4947 9.76187 25.2938C11.0263 25.0943 11.8927 23.9033 11.6937 22.6384C11.5972 22.0261 11.2676 21.4878 10.7662 21.1228C10.3653 20.8312 9.8924 20.678 9.40574 20.678ZM9.39787 26.8C7.56158 26.8 5.94201 25.4617 5.64697 23.5915C5.48935 22.5891 5.7312 21.5853 6.32819 20.7647C6.92518 19.9441 7.80589 19.4052 8.80876 19.2476C9.81015 19.0885 10.815 19.3314 11.6356 19.9283C12.4562 20.5248 12.9956 21.4065 13.1532 22.4089C13.4798 24.4781 12.0612 26.4271 9.99141 26.7532C9.79242 26.7847 9.59391 26.8 9.39787 26.8Z" fill="#00B1AC"/>
<path fill-rule="evenodd" clip-rule="evenodd" d="M19.5214 19.2C19.1719 19.2 18.8652 18.9457 18.8089 18.5885C18.7468 18.1937 19.0159 17.823 19.4102 17.7612L27.9654 16.4093C28.3607 16.3456 28.729 16.6164 28.7911 17.0117C28.8532 17.4065 28.5841 17.7772 28.1902 17.8394L19.6346 19.1909C19.5965 19.1971 19.559 19.2 19.5214 19.2Z" fill="#00807B"/>
<path fill-rule="evenodd" clip-rule="evenodd" d="M20.3214 22.4C19.9719 22.4 19.6652 22.1456 19.6089 21.7884C19.5468 21.3936 19.8159 21.0229 20.2102 20.9611L28.7654 19.6092C29.1592 19.5459 29.529 19.8162 29.5911 20.2115C29.6532 20.6064 29.384 20.9771 28.9897 21.0393L20.4346 22.3908C20.3965 22.3971 20.359 22.4 20.3214 22.4Z" fill="#00807B"/>
<path fill-rule="evenodd" clip-rule="evenodd" d="M20.7214 25.2C20.3719 25.2 20.0652 24.9456 20.0089 24.5884C19.9468 24.1936 20.2159 23.8228 20.6102 23.7611L29.1654 22.409C29.5607 22.3467 29.929 22.6161 29.9911 23.0114C30.0532 23.4063 29.7841 23.777 29.3903 23.8393L20.8346 25.1909C20.7965 25.1971 20.759 25.2 20.7214 25.2Z" fill="#00807B"/>
</svg>
