<svg width="41" height="40" viewBox="0 0 41 40" fill="none" xmlns="http://www.w3.org/2000/svg">
<path fill-rule="evenodd" clip-rule="evenodd" d="M20.201 8.40002C9.0621 8.40002 0 17.4442 0 28.5605C0 28.9579 0.322719 29.2805 0.721429 29.2805H14.9254C15.3241 29.2805 15.6468 28.9579 15.6468 28.5605C15.6468 28.1631 15.3241 27.8405 14.9254 27.8405H1.45632C1.59388 24.2391 2.7597 20.8983 4.66235 18.0936L7.27056 19.8984C7.39609 19.9853 7.53893 20.0271 7.68081 20.0271C7.90974 20.0271 8.13435 19.9186 8.27479 19.717C8.50131 19.3901 8.42003 18.9418 8.09251 18.7152L5.5146 16.9315C7.76786 14.1034 10.8224 11.941 14.3329 10.7837L15.2428 13.4837C15.3443 13.7842 15.6257 13.9738 15.9267 13.9738C16.0027 13.9738 16.0806 13.9618 16.1571 13.9363C16.5347 13.8096 16.7376 13.4011 16.6107 13.0243L15.7199 10.3819C17.1565 10.0291 18.6571 9.84002 20.201 9.84002C21.9358 9.84002 23.6148 10.0815 25.2106 10.5235L24.3675 13.0243C24.24 13.4011 24.4434 13.8096 24.821 13.9363C24.8975 13.9618 24.9749 13.9738 25.0509 13.9738C25.3524 13.9738 25.6333 13.7842 25.7348 13.4837L26.5861 10.9589C29.8825 12.1536 32.7495 14.2459 34.8926 16.9383L32.3238 18.7152C31.9963 18.9418 31.915 19.3901 32.142 19.717C32.282 19.9186 32.5066 20.0271 32.7355 20.0271C32.8769 20.0271 33.0203 19.9853 33.1458 19.8984L35.7444 18.1008C37.6446 20.9035 38.808 24.2424 38.9456 27.8405H25.5516C25.1533 27.8405 24.8301 28.1631 24.8301 28.5605C24.8301 28.9579 25.1533 29.2805 25.5516 29.2805H39.6805C40.0792 29.2805 40.4019 28.9579 40.4019 28.5605C40.4019 17.4442 31.3398 8.40002 20.201 8.40002Z" fill="#00807B"/>
<path fill-rule="evenodd" clip-rule="evenodd" d="M28.9225 17.4516C28.6084 17.2068 28.1553 17.2615 27.9096 17.5745L21.6702 25.5213C21.2258 25.3068 20.7285 25.1825 20.2009 25.1825C18.3319 25.1825 16.8169 26.6954 16.8169 28.5607C16.8169 30.426 18.3319 31.9385 20.2009 31.9385C22.0699 31.9385 23.5853 30.426 23.5853 28.5607C23.5853 27.7418 23.2934 26.9916 22.8081 26.4069L29.0451 18.462C29.2914 18.1495 29.236 17.6969 28.9225 17.4516Z" fill="#00B1AC"/>
</svg>
