<svg width="40" height="40" viewBox="0 0 40 40" fill="none" xmlns="http://www.w3.org/2000/svg">
<path fill-rule="evenodd" clip-rule="evenodd" d="M34.3454 26.0934C34.5115 25.1591 35.5292 24.5472 36.6179 24.7272C37.7071 24.9069 38.455 25.8097 38.2885 26.7443C38.1224 27.6782 37.1052 28.2901 36.016 28.1105C34.9268 27.9308 34.1794 27.028 34.3454 26.0934ZM16.0975 25.1549L34.3467 29.0384C34.7642 29.2806 35.2415 29.4564 35.7614 29.5421C37.7716 29.8741 39.65 28.7442 39.9573 27.0197C40.2642 25.2947 38.8834 23.6272 36.8729 23.2956C34.8623 22.9637 32.9838 24.0931 32.677 25.8185L14.8 23.2L16.0975 25.1549Z" fill="#00B1AC"/>
<path fill-rule="evenodd" clip-rule="evenodd" d="M5.90712 30.2522C5.24968 30.3913 4.60437 29.9666 4.46491 29.3007L2.37263 19.2957L10.6071 17.5167L17.0978 27.8351L5.90712 30.2522ZM2.26219 12.8263L7.01107 11.8012L8.39178 13.9953L1.57227 15.4688L1.32584 14.2919C1.18682 13.6256 1.60649 12.968 2.26219 12.8263ZM18.6977 27.927L7.8634 10.7049C7.71788 10.4734 7.4472 10.3563 7.18085 10.4148L1.99238 11.5354C0.635925 11.8281 -0.232863 13.1876 0.0551451 14.5661L3.19421 29.5749C3.44497 30.7747 4.49176 31.5999 5.65419 31.5999C5.82656 31.5999 6.00153 31.5819 6.17737 31.5436L18.2858 28.9279C18.4941 28.8834 18.6674 28.7373 18.7497 28.5375C18.832 28.3372 18.8125 28.1093 18.6977 27.927Z" fill="#00807B"/>
<path fill-rule="evenodd" clip-rule="evenodd" d="M8.40422 22.1004C8.27166 22.1004 8.13824 22.1143 8.00568 22.1424C6.98075 22.3603 6.32447 23.3712 6.54236 24.3955C6.76026 25.4195 7.77003 26.0735 8.79539 25.8587C9.81989 25.6408 10.4766 24.6299 10.2587 23.6055C10.153 23.1092 9.86061 22.6838 9.43521 22.4075C9.12332 22.2048 8.76723 22.1004 8.40422 22.1004ZM8.39382 27.2001C7.78216 27.2001 7.18305 27.0242 6.65802 26.6833C5.94109 26.2181 5.44855 25.5013 5.27094 24.6654C5.09334 23.8294 5.25188 22.9749 5.71713 22.2581C6.18281 21.5417 6.89931 21.0492 7.73537 20.8716C8.57056 20.6927 9.42568 20.8521 10.143 21.3173C10.8595 21.7829 11.3521 22.4997 11.5297 23.3357C11.8966 25.0608 10.7911 26.7626 9.0657 27.129C8.84217 27.1771 8.61735 27.2001 8.39382 27.2001Z" fill="#00B1AC"/>
<path fill-rule="evenodd" clip-rule="evenodd" d="M29.1059 19.9269C28.8753 20.1587 28.5629 20.2994 28.2432 20.2853L19.7591 20.2669L15.5322 8.8448L29.486 8.8746L29.4647 19.0584C29.4643 19.387 29.3366 19.6955 29.1059 19.9269ZM28.2806 2.54873C28.9525 2.55005 29.4986 3.10306 29.4968 3.78139L29.4946 4.97943L14.0901 4.94613L13.1909 2.51674L28.2806 2.54873ZM28.2832 1.23413L12.2531 1.19995H12.2514C12.0385 1.19995 11.8387 1.30512 11.7167 1.48171C11.5946 1.65875 11.5664 1.88486 11.6411 2.08687L18.6962 21.1534C18.7909 21.4102 19.0337 21.5802 19.3052 21.5807L28.2402 21.5999H28.2459C28.9174 21.5999 29.5494 21.337 30.0255 20.8585C30.5029 20.3791 30.7665 19.7407 30.7678 19.0606L30.8 3.78402C30.803 2.3809 29.6741 1.2372 28.2832 1.23413Z" fill="#00807B"/>
<path fill-rule="evenodd" clip-rule="evenodd" d="M27.7426 11.6141L20.2599 11.5999H20.2586C19.8955 11.5999 19.6009 11.8647 19.6 12.1916C19.5991 12.5188 19.8937 12.7848 20.2573 12.7856L27.7396 12.7999H27.7413C28.1045 12.7999 28.3991 12.535 28.4 12.2082C28.4009 11.8809 28.1062 11.6149 27.7426 11.6141Z" fill="#00807B"/>
<path fill-rule="evenodd" clip-rule="evenodd" d="M27.7426 14.0142L20.26 14H20.2587C19.8951 14 19.6004 14.2648 19.6 14.5917C19.5991 14.919 19.8933 15.185 20.2569 15.1858L27.7395 15.2H27.7413C28.1044 15.2 28.3991 14.9352 28.4 14.6083C28.4009 14.281 28.1062 14.015 27.7426 14.0142Z" fill="#00807B"/>
<path fill-rule="evenodd" clip-rule="evenodd" d="M27.7426 16.4141L20.26 16.3999H20.2587C19.8951 16.3999 19.6004 16.6647 19.6 16.9916C19.5991 17.3189 19.8933 17.5849 20.2569 17.5857L27.7395 17.5999H27.7413C28.1044 17.5999 28.3991 17.3351 28.4 17.0082C28.4009 16.6809 28.1062 16.4149 27.7426 16.4141Z" fill="#00807B"/>
<path fill-rule="evenodd" clip-rule="evenodd" d="M30.7415 34.5264C31.1259 35.5606 30.6979 36.6794 29.7859 37.0255C28.8733 37.3715 27.8223 36.8137 27.4379 35.7794C27.0535 34.7452 27.4815 33.6263 28.3936 33.2803C29.3057 32.9342 30.3571 33.4921 30.7415 34.5264ZM21.6 14L27.8047 31.6956C26.1203 32.3345 25.3303 34.4004 26.0405 36.3098C26.7502 38.2192 28.6909 39.2496 30.3748 38.6106C32.0592 37.9717 32.8492 35.9058 32.1394 33.9959C31.9556 33.5021 31.6894 33.068 31.3671 32.7054L23.9018 15.2121C23.9018 15.2121 23.4643 14.0693 21.6 14Z" fill="#00B1AC"/>
</svg>
