<svg width="41" height="40" viewBox="0 0 41 40" fill="none" xmlns="http://www.w3.org/2000/svg">
<path fill-rule="evenodd" clip-rule="evenodd" d="M33.4701 5.03029L31.0918 8.33285C31.0046 8.454 30.8657 8.52801 30.7162 8.53258C30.7111 8.53308 30.7055 8.53308 30.701 8.53308C30.5565 8.53308 30.4196 8.4682 30.3284 8.35617L28.9486 6.66966C28.7793 6.46385 28.8103 6.1602 29.0155 5.99191C29.2229 5.8231 29.5255 5.85352 29.6933 6.05983L30.6766 7.26072L32.6885 4.4671C32.8436 4.25065 33.1442 4.20198 33.3606 4.35761C33.5766 4.51323 33.6257 4.81434 33.4701 5.03029M31.1997 1.59998C28.5492 1.59998 26.4 3.7488 26.4 6.39998C26.4 9.05115 28.5492 11.2 31.1997 11.2C33.8508 11.2 36 9.05115 36 6.39998C36 3.7488 33.8508 1.59998 31.1997 1.59998" fill="#00B1AC"/>
<path fill-rule="evenodd" clip-rule="evenodd" d="M30.9997 36.8882C26.266 36.8882 23.1255 35.4691 23.1255 34.5303V20.8728C24.8936 21.9699 27.9543 22.5383 30.9997 22.5383C34.0452 22.5383 37.1064 21.9699 38.8745 20.8728V22.6346C38.8745 23.5729 35.7339 24.992 30.9997 24.992C29.3298 24.992 27.7229 24.8156 26.3525 24.482C25.9421 24.3812 25.5302 24.6306 25.4301 25.0358C25.3294 25.4415 25.5796 25.8506 25.9889 25.9499C27.4763 26.3122 29.2093 26.5037 30.9997 26.5037C34.0452 26.5037 37.1064 25.9353 38.8745 24.8383V26.6C38.8745 27.5383 35.7339 28.9574 30.9997 28.9574C29.3288 28.9574 27.7219 28.781 26.3525 28.4474C25.9421 28.3476 25.5302 28.5955 25.4301 29.0012C25.3294 29.4064 25.5796 29.8156 25.9889 29.9153C27.4748 30.2777 29.2078 30.4692 30.9997 30.4692C34.0452 30.4692 37.1064 29.9007 38.8745 28.8037V30.5654C38.8745 31.5037 35.7339 32.9228 30.9997 32.9228C29.3298 32.9228 27.7229 32.7464 26.3525 32.4128C25.9421 32.312 25.5302 32.5615 25.4301 32.9666C25.3294 33.3718 25.5796 33.7815 25.9889 33.8808C27.4763 34.2431 29.2093 34.4346 30.9997 34.4346C34.0452 34.4346 37.1064 33.8661 38.8745 32.7691V34.5303C38.8745 35.4691 35.7339 36.8882 30.9997 36.8882M30.9997 16.3118C35.7339 16.3118 38.8745 17.7308 38.8745 18.6692C38.8745 19.6075 35.7339 21.0265 30.9997 21.0265C26.266 21.0265 23.1255 19.6075 23.1255 18.6692C23.1255 17.7308 26.266 16.3118 30.9997 16.3118M40.3807 18.5049C40.1768 16.0739 35.5672 14.8 30.9998 14.8C26.4329 14.8 21.8227 16.0739 21.6193 18.5049C21.6071 18.5578 21.6 18.6122 21.6 18.6692V34.5303C21.6 34.5873 21.6071 34.6417 21.6193 34.6946C21.8227 37.1261 26.4329 38.4 30.9998 38.4C35.5672 38.4 40.1773 37.1261 40.3807 34.6946C40.3924 34.6417 40.4 34.5873 40.4 34.5303V18.6692C40.4 18.6122 40.3924 18.5578 40.3807 18.5049" fill="#00807B"/>
<path fill-rule="evenodd" clip-rule="evenodd" d="M9.40023 36.8949C9.03004 36.8949 8.66493 36.8833 8.30287 36.8658C8.19914 36.8613 8.09642 36.8552 7.9937 36.8487C7.71402 36.8317 7.4379 36.8091 7.16484 36.7815C7.05652 36.771 6.94669 36.7604 6.84041 36.7484C6.57141 36.7173 6.30902 36.6791 6.05019 36.638C5.89001 36.6129 5.73237 36.5853 5.5788 36.5562C5.441 36.5306 5.30777 36.502 5.17403 36.4734C2.89287 35.9833 1.5255 35.163 1.5255 34.5474V28.846C3.29357 29.9382 6.35478 30.5042 9.40023 30.5042C12.4457 30.5042 15.5064 29.9382 17.2745 28.846V30.6C17.2745 31.5342 14.1339 32.947 9.40023 32.947C7.72979 32.947 6.1229 32.7714 4.75299 32.4392C4.34313 32.3389 3.93073 32.5872 3.83005 32.9906C3.72987 33.394 3.97955 33.8019 4.3889 33.9007C5.87628 34.2614 7.60927 34.4521 9.40023 34.4521C12.4457 34.4521 15.5064 33.8862 17.2745 32.7939V34.5474C17.2745 35.4821 14.1339 36.8949 9.40023 36.8949M9.40023 24.3051C14.1339 24.3051 17.2745 25.7179 17.2745 26.6521C17.2745 27.5862 14.1339 28.999 9.40023 28.999C4.66603 28.999 1.5255 27.5862 1.5255 26.6521C1.5255 25.7179 4.66603 24.3051 9.40023 24.3051M9.40025 22.8C4.83285 22.8 0.223234 24.0683 0.0193233 26.488C0.0076276 26.5412 0 26.5959 0 26.6521V34.5474C0 34.6041 0.0076276 34.6583 0.0193233 34.711C0.162722 36.4152 2.4866 37.5461 5.44865 38.0669C5.52086 38.0794 5.59256 38.0914 5.66476 38.1035C6.0136 38.1602 6.36752 38.2119 6.72958 38.2525C6.75144 38.255 6.77229 38.2585 6.79416 38.261C7.16486 38.3012 7.54217 38.3292 7.92152 38.3523C8.02373 38.3583 8.12644 38.3639 8.22967 38.3689C8.61868 38.3874 9.00921 38.4 9.40025 38.4C13.9672 38.4 18.5773 37.1317 18.7807 34.711C18.7929 34.6583 18.8 34.6041 18.8 34.5474V26.6521C18.8 26.5959 18.7929 26.5412 18.7807 26.488C18.5773 24.0683 13.9672 22.8 9.40025 22.8" fill="#00807B"/>
<path fill-rule="evenodd" clip-rule="evenodd" d="M11.4701 13.0303L9.09175 16.3328C9.00406 16.4545 8.86517 16.5285 8.71564 16.5331H8.70094C8.55647 16.5331 8.41961 16.4687 8.32786 16.3562L6.94811 14.6697C6.77982 14.4638 6.81023 14.1602 7.01603 13.9919C7.22183 13.8236 7.52546 13.8535 7.69374 14.0598L8.6766 15.2612L10.6885 12.4671C10.8436 12.2517 11.1447 12.202 11.3606 12.3576C11.5765 12.5132 11.6257 12.8143 11.4701 13.0303M9.20025 9.59998C6.54921 9.59998 4.39999 11.7488 4.39999 14.4C4.39999 17.0512 6.54921 19.2 9.20025 19.2C11.8508 19.2 14 17.0512 14 14.4C14 11.7488 11.8508 9.59998 9.20025 9.59998" fill="#00B1AC"/>
</svg>
