<svg width="40" height="40" viewBox="0 0 40 40" fill="none" xmlns="http://www.w3.org/2000/svg">
<path fill-rule="evenodd" clip-rule="evenodd" d="M10.9497 12.8H2.65035C2.29136 12.8 2 12.5316 2 12.2C2 11.8684 2.29136 11.6 2.65035 11.6H10.9497C11.3091 11.6 11.6 11.8684 11.6 12.2C11.6 12.5316 11.3091 12.8 10.9497 12.8Z" fill="#00B1AC"/>
<path fill-rule="evenodd" clip-rule="evenodd" d="M12.9496 10H4.65038C4.29094 10 4 9.73165 4 9.40005C4 9.06845 4.29094 8.80005 4.65038 8.80005H12.9496C13.3091 8.80005 13.6 9.06845 13.6 9.40005C13.6 9.73165 13.3091 10 12.9496 10Z" fill="#00B1AC"/>
<path fill-rule="evenodd" clip-rule="evenodd" d="M8.94965 16H0.650348C0.291356 16 0 15.7316 0 15.4C0 15.0684 0.291356 14.8 0.650348 14.8H8.94965C9.30908 14.8 9.6 15.0684 9.6 15.4C9.6 15.7316 9.30908 16 8.94965 16Z" fill="#00B1AC"/>
<path fill-rule="evenodd" clip-rule="evenodd" d="M35.4859 25.0478L32.9455 9.00988L35.4426 9.15589L35.0816 15.3588C35.0606 15.7214 35.3367 16.0327 35.6986 16.0537C35.7117 16.0546 35.7244 16.055 35.7375 16.055C36.0823 16.055 36.372 15.7854 36.3921 15.4355L36.6122 11.6595L38.5531 12.1221L35.4859 25.0478ZM39.9821 11.7866C40.0657 11.4332 39.8478 11.0785 39.4956 10.9943L36.6896 10.3257L36.7916 8.57624C36.8016 8.40217 36.7425 8.23117 36.6266 8.10051C36.5107 7.97029 36.3483 7.89137 36.1746 7.88129L32.7346 7.68003L32.3032 4.95458C32.2756 4.7827 32.1811 4.62837 32.0402 4.52577C31.8994 4.42317 31.7239 4.38064 31.5519 4.40826L16.2019 6.85003C15.8453 6.90659 15.6016 7.24114 15.6559 7.59892L16.5699 13.6115C15.2875 13.6724 13.8716 14.2345 12.3353 15.2974C10.9881 16.2295 9.81771 17.58 8.7571 19.4263C8.43506 19.9871 8.14147 20.5672 7.88419 21.1508C7.86363 21.1977 7.83212 21.2898 7.79843 21.3994C7.78224 21.4516 7.75512 21.5401 7.73017 21.6098C7.06642 21.9996 4.28012 23.6351 2.72771 24.5357C2.41399 24.7181 2.30679 25.1201 2.48837 25.4345C2.61045 25.645 2.83053 25.7629 3.05718 25.7629C3.16876 25.7629 3.28208 25.734 3.38534 25.6743C6.32521 23.9687 8.05177 22.9546 8.53438 22.6499L8.54007 22.6591C8.8376 22.4841 8.94174 22.1461 9.05244 21.7879C9.06732 21.7396 9.08 21.6971 9.08482 21.6822C9.32372 21.1411 9.59587 20.6027 9.89515 20.0823C10.8556 18.4095 11.8978 17.1985 13.0809 16.3799C14.5913 15.3355 15.9189 14.8528 17.0447 14.9334C17.1637 14.9953 17.3019 15.0229 17.445 15.001C17.4485 15.0005 17.4516 14.9992 17.4555 14.9988C17.6852 15.0461 17.9097 15.1097 18.1206 15.2097C18.6903 15.4776 19.7465 16.3672 20.7682 17.227C21.9119 18.1899 23.0946 19.1856 24.1447 19.8323C24.6912 20.1691 24.5718 20.4238 24.514 20.5461C24.2318 21.146 23.0793 21.6835 22.2851 21.4117C21.0018 20.971 17.8252 19.2268 17.1715 18.2438C16.9703 17.9417 16.5629 17.8597 16.261 18.0614C15.9595 18.2631 15.8782 18.6717 16.079 18.9734C16.2956 19.2987 16.6517 19.6442 17.0814 19.9889C17.0775 20.016 17.0727 20.0428 17.0722 20.0713C17.0718 20.0937 17.0232 22.3026 15.2857 23.7166C14.8267 24.0902 14.3205 24.391 13.7814 24.6098C13.4454 24.7466 13.2835 25.1298 13.4196 25.4665C13.5233 25.7221 13.7688 25.8773 14.0282 25.8773C14.11 25.8773 14.1936 25.8616 14.2746 25.8291C14.9344 25.5608 15.5531 25.1938 16.1136 24.7378C17.6353 23.4992 18.1372 21.8159 18.303 20.8504C19.6271 21.6879 21.1335 22.4065 21.8599 22.6556C23.3694 23.1747 25.1642 22.2487 25.7011 21.1069C26.0292 20.4098 25.9732 19.4149 24.8321 18.7121C24.2152 18.3319 23.505 17.7843 22.7975 17.2068C23.3851 16.2813 24.3399 15.6442 25.4359 15.4701C27.5274 15.1369 29.5003 16.572 29.8324 18.6687C30.1645 20.7654 28.7324 22.7415 26.6405 23.0747C26.2826 23.1313 26.0384 23.4685 26.0953 23.8271L26.7 27.647C26.7516 27.971 27.0303 28.2016 27.3476 28.2016C27.3817 28.2016 27.4167 28.199 27.4513 28.1933C27.8092 28.1363 28.0533 27.7995 27.9964 27.4409L27.4871 24.2248C28.5784 23.9065 29.5305 23.2435 30.2091 22.307C31.0181 21.1902 31.3445 19.8249 31.1288 18.4621C30.7184 15.8704 28.4388 14.0385 25.8857 14.1144L25.376 10.8974C25.3191 10.5388 24.9835 10.2941 24.6247 10.3507C24.2668 10.4077 24.0226 10.7449 24.0795 11.1035L24.5884 14.3165C23.4429 14.6528 22.4575 15.3802 21.7863 16.3663C21.7286 16.3177 21.6695 16.2681 21.6122 16.2199C20.4269 15.2219 19.4035 14.3604 18.6793 14.0193C18.4326 13.9031 18.1783 13.8136 17.918 13.7465L17.0521 8.04658L31.1096 5.81045L31.5196 8.39867C31.52 8.40042 31.52 8.40173 31.5204 8.40305L35.0204 30.4987L20.9651 32.7344L20.5463 30.1295C20.5463 30.1278 20.5459 30.1264 20.5459 30.1247L19.6345 24.4546C19.5767 24.0959 19.2368 23.8499 18.8824 23.91C18.524 23.9679 18.2807 24.305 18.3385 24.6637L19.1637 29.7976C17.3488 30.4947 14.415 31.7597 11.7954 32.8896C9.87896 33.7165 8.22329 34.4308 7.45233 34.7289C7.11411 34.8592 6.94565 35.2402 7.07604 35.5791C7.17668 35.84 7.42521 36 7.68861 36C7.76693 36 7.847 35.986 7.92445 35.9557C8.71903 35.6488 10.3852 34.9306 12.3143 34.098C14.6819 33.0768 17.5513 31.8391 19.3772 31.1248L19.7732 33.5911C19.8253 33.9143 20.104 34.1445 20.4203 34.1445C20.4545 34.1445 20.4895 34.1418 20.5245 34.1361L35.8745 31.6944C36.2324 31.6374 36.4765 31.3006 36.4196 30.9415L36.025 28.4502C36.0263 28.4441 36.0302 28.4397 36.032 28.434L39.9821 11.7866Z" fill="#00807B"/>
<path fill-rule="evenodd" clip-rule="evenodd" d="M23.3051 29.3709C23.2482 29.0195 22.912 28.7803 22.5536 28.8357C22.1956 28.8915 21.9513 29.2214 22.0082 29.5732L22.2485 31.0571C22.2997 31.3741 22.579 31.6 22.8958 31.6C22.9304 31.6 22.965 31.5979 23 31.5923L33.4461 29.9649C33.8041 29.909 34.0483 29.5787 33.9919 29.2274L33.7516 27.7435C33.6951 27.3921 33.3599 27.1516 33.0001 27.2083C32.6421 27.2641 32.3979 27.594 32.4548 27.9458L32.5918 28.7932L23.4421 30.2187L23.3051 29.3709Z" fill="#00807B"/>
<path fill-rule="evenodd" clip-rule="evenodd" d="M29.4949 9.42952C29.5518 9.78089 29.8871 10.0206 30.2464 9.96474C30.6044 9.90889 30.8487 9.579 30.7918 9.22721L30.5519 7.74313C30.5243 7.57475 30.4298 7.42355 30.2889 7.32303C30.1479 7.22252 29.9729 7.18128 29.8004 7.20792L19.3539 8.83546C18.9959 8.8913 18.7516 9.22162 18.8081 9.57299L19.0484 11.0571C19.0996 11.3741 19.3788 11.6 19.6957 11.6C19.7299 11.6 19.7649 11.5974 19.7999 11.5923C20.1579 11.5364 20.4021 11.2061 20.3452 10.8548L20.2082 10.0073L29.3579 8.5816L29.4949 9.42952Z" fill="#00807B"/>
</svg>
