<svg width="40" height="40" viewBox="0 0 40 40" fill="none" xmlns="http://www.w3.org/2000/svg">
<path fill-rule="evenodd" clip-rule="evenodd" d="M11.4395 31.7606H16.9605V26.2394H11.4395V31.7606ZM17.6802 24.8H10.7198C10.322 24.8 10 25.1224 10 25.5197V32.4803C10 32.8776 10.322 33.2 10.7198 33.2H17.6802C18.078 33.2 18.4 32.8776 18.4 32.4803V25.5197C18.4 25.1224 18.078 24.8 17.6802 24.8Z" fill="#00807B"/>
<path fill-rule="evenodd" clip-rule="evenodd" d="M37.2854 19.2527L20.4658 4.98764C20.1969 4.75941 19.8032 4.75941 19.5343 4.98764L2.71413 19.2527L1.75714 18.2245L20 2.47279L38.2429 18.2245L37.2854 19.2527ZM32.8429 37.7585H29.5239V25.3366C29.5239 24.9388 29.2017 24.6159 28.8036 24.6159H21.8382C21.4401 24.6159 21.1179 24.9388 21.1179 25.3366V37.7585H7.36131V17.2702C7.36131 17.2486 7.35699 17.228 7.35507 17.2068L20.0001 6.48243L32.8429 17.3745V37.7585ZM22.5584 37.6543H28.0834V26.0573H22.5584V37.6543ZM7.36128 3.84264H11.2536V7.93973C11.2536 7.99642 11.2613 8.05072 11.2738 8.10357L7.36128 11.4819V3.84264ZM39.7502 17.6224L20.4706 0.975124C20.1998 0.741609 19.7998 0.741609 19.5295 0.975124L12.6941 6.87738V3.12192C12.6941 2.72408 12.3715 2.4012 11.9739 2.4012H6.64103C6.24344 2.4012 5.92076 2.72408 5.92076 3.12192V12.4121C5.92076 12.5067 5.94045 12.5971 5.97358 12.6797L0.249391 17.6224C0.101497 17.7507 0.0117035 17.9338 0.0011396 18.1289C-0.00990448 18.3244 0.0597212 18.5166 0.19273 18.6598L2.1288 20.7389C2.13409 20.7441 2.14177 20.7461 2.14705 20.7518C2.21092 20.8162 2.28198 20.8695 2.36025 20.9046C2.36169 20.9051 2.36265 20.9051 2.36409 20.9056C2.44284 20.9411 2.52735 20.9584 2.61234 20.9637C2.62147 20.9642 2.62963 20.9661 2.63827 20.9661C2.64404 20.9661 2.65028 20.968 2.65604 20.968C2.73911 20.968 2.82218 20.9536 2.90141 20.9248C2.90813 20.9224 2.91341 20.9166 2.92014 20.9137C2.9912 20.8854 3.05987 20.8494 3.12133 20.7975L5.92076 18.4229V38.4793C5.92076 38.8771 6.24344 39.2 6.64103 39.2H33.5631C33.9607 39.2 34.2834 38.8771 34.2834 38.4793V18.5964L36.8783 20.7975C36.9364 20.8465 37.0007 20.8816 37.0675 20.9089C37.078 20.9137 37.0881 20.919 37.0992 20.9229C37.1726 20.9493 37.249 20.9632 37.3253 20.9647C37.332 20.9647 37.3378 20.968 37.344 20.968C37.3532 20.968 37.3623 20.9656 37.3714 20.9652C37.3978 20.9647 37.4233 20.9618 37.4492 20.958C37.4699 20.9546 37.4905 20.9512 37.5112 20.9464C37.5371 20.9407 37.562 20.932 37.587 20.9234C37.6067 20.9161 37.6264 20.9089 37.6456 20.9003C37.6701 20.8888 37.6931 20.8753 37.7162 20.8609C37.7349 20.8498 37.7532 20.8393 37.7704 20.8263C37.7921 20.8104 37.8122 20.7912 37.8324 20.7725C37.8449 20.761 37.8593 20.7513 37.8713 20.7389L39.8069 18.6598C39.9404 18.5166 40.0095 18.3244 39.9989 18.1289C39.9884 17.9338 39.8986 17.7507 39.7502 17.6224Z" fill="#00807B"/>
<path fill-rule="evenodd" clip-rule="evenodd" d="M20.2 12.9958C18.8744 12.9958 17.7959 14.0742 17.7959 15.3997C17.7959 16.7257 18.8744 17.8042 20.2 17.8042C21.5256 17.8042 22.6042 16.7257 22.6042 15.3997C22.6042 14.0742 21.5256 12.9958 20.2 12.9958ZM20.2 19.2C18.1048 19.2 16.4 17.4953 16.4 15.3997C16.4 13.3047 18.1048 11.6 20.2 11.6C22.2952 11.6 24 13.3047 24 15.3997C24 17.4953 22.2952 19.2 20.2 19.2Z" fill="#00B1AC"/>
</svg>
