<svg width="40" height="40" viewBox="0 0 40 40" fill="none" xmlns="http://www.w3.org/2000/svg">
<path fill-rule="evenodd" clip-rule="evenodd" d="M23.5642 34.2872C23.4722 34.4128 23.3366 34.4956 23.1826 34.5192C23.0294 34.5436 22.8746 34.5056 22.7486 34.4132L20.0202 32.4148V31.6444C20.0202 31.3544 19.9562 31.0796 19.8458 30.8304C19.8646 30.8484 19.8822 30.8672 19.9042 30.8828L23.4386 33.4712C23.6978 33.6616 23.7546 34.0276 23.5642 34.2872ZM18.8202 33.966C18.8202 34.418 18.4522 34.7856 18.0002 34.7856C17.5482 34.7856 17.1806 34.418 17.1806 33.966V31.6444C17.1806 31.1924 17.5482 30.8244 18.0002 30.8244C18.4522 30.8244 18.8202 31.1924 18.8202 31.6444V33.966ZM14.621 32.6012V30.6876C14.621 30.0048 15.1762 29.4496 15.859 29.4496C16.2706 29.4496 16.641 29.6528 16.8678 29.9732C16.333 30.3368 15.9806 30.95 15.9806 31.6444V33.8268C15.9398 33.8308 15.9002 33.8396 15.859 33.8396C15.1762 33.8396 14.621 33.284 14.621 32.6012ZM12.2862 31.9028C12.025 31.7392 11.8514 31.4912 11.7674 31.2172C11.7658 31.2088 11.7662 31.2004 11.7646 31.1916C11.7578 31.1628 11.747 31.136 11.7366 31.1092C11.6734 30.8076 11.7202 30.4828 11.8962 30.202L12.6898 28.9364C13.0514 28.36 13.8138 28.1852 14.3902 28.5464C14.439 28.5768 14.4846 28.6112 14.5278 28.6476C13.8622 29.0832 13.421 29.8344 13.421 30.6876V31.9912C13.055 32.146 12.6342 32.1208 12.2862 31.9028ZM9.56741 29.8144C9.49381 29.4932 9.54981 29.1624 9.72501 28.8832L10.0514 28.3624C10.2266 28.0832 10.4998 27.8888 10.821 27.8152C11.143 27.7424 11.473 27.7976 11.7522 27.9728C11.789 27.996 11.8182 28.0272 11.8518 28.0536C11.7886 28.1308 11.7278 28.212 11.673 28.2988L10.8794 29.5644C10.6494 29.9316 10.531 30.3372 10.5126 30.7416C10.3734 30.712 10.2386 30.6616 10.1146 30.5836C9.83541 30.4088 9.64101 30.1356 9.56741 29.8144ZM39.559 23.0204C39.4054 22.7272 39.0438 22.6136 38.749 22.7664L30.8798 26.8784C30.871 26.87 30.8618 26.862 30.8526 26.854C30.8406 26.8452 30.8318 26.8332 30.8198 26.8244L30.8186 26.824L30.8174 26.8228L24.9006 22.5344C24.8186 22.4748 24.7234 22.4372 24.623 22.4248C21.3858 22.0184 21.1742 18.956 21.167 18.828C21.1578 18.6448 21.0654 18.4756 20.9158 18.3692C20.7666 18.2624 20.5766 18.23 20.4002 18.2816C19.6938 18.4868 19.1586 18.388 18.7682 18.3156C18.5898 18.2828 18.4366 18.2556 18.2846 18.2608C18.073 18.2704 17.8754 18.3612 17.729 18.5156C17.1046 19.1716 16.3278 19.9884 15.6866 20.1196C15.415 20.1756 15.239 20.0308 15.1578 19.9396C15.0038 19.7676 14.955 19.5332 15.0266 19.3124C15.193 18.7996 15.4902 18.1728 15.8858 17.5004C16.669 16.1692 18.5046 15.3424 19.8342 15.2404C20.761 15.17 23.8658 16.5244 26.3102 17.836C26.875 18.1396 27.5602 18.1584 28.1426 17.8868L35.0366 14.6696C35.337 14.5292 35.4666 14.172 35.3266 13.872C35.1866 13.5716 34.8298 13.442 34.5294 13.582L27.635 16.7992C27.3942 16.9116 27.111 16.904 26.8778 16.7788C25.9842 16.2996 21.4382 13.914 19.7422 14.044C18.6486 14.128 17.325 14.5944 16.2582 15.3804C15.5922 15.3276 13.767 15.314 11.5478 16.4068C11.3074 16.5252 11.0194 16.5144 10.777 16.3788L5.88781 13.6464C5.59781 13.4844 5.23261 13.5884 5.07141 13.8776C4.90981 14.1668 5.01301 14.5324 5.30221 14.694L10.1914 17.4264C10.5038 17.6008 10.849 17.6884 11.1934 17.6884C11.497 17.6884 11.7994 17.6204 12.0778 17.4832C13.2406 16.9108 14.2778 16.686 15.0374 16.6052C14.9718 16.6988 14.909 16.794 14.8514 16.892C14.4062 17.6492 14.081 18.3388 13.8854 18.9416C13.683 19.5632 13.8278 20.2524 14.2626 20.7392C14.6866 21.2136 15.3078 21.4204 15.927 21.2952C16.881 21.1 17.721 20.2624 18.4674 19.48C18.4934 19.4848 18.5206 19.4904 18.5498 19.4956C18.8906 19.5588 19.4054 19.654 20.0602 19.5736C20.373 21.0652 21.5114 23.1716 24.3178 23.594L30.111 27.7928C30.2874 27.9224 30.403 28.1124 30.4366 28.3288C30.4698 28.5452 30.417 28.7616 30.2878 28.9384C30.021 29.3028 29.507 29.3824 29.1418 29.1152L24.903 26.0108C24.8798 25.994 24.855 25.9812 24.8306 25.9684L24.8182 25.9592C24.551 25.7636 24.1754 25.8212 23.9798 26.0888C23.7838 26.356 23.8418 26.7316 24.1094 26.9272L28.3482 30.032C28.713 30.2992 28.7926 30.8128 28.5254 31.1776C28.3962 31.3544 28.2058 31.47 27.9894 31.5036C27.7726 31.5368 27.5562 31.484 27.3798 31.3548L26.8582 30.9732C26.8134 30.9336 26.7734 30.8892 26.7242 30.8532L22.485 27.7484C22.2178 27.5528 21.8422 27.6104 21.6466 27.878C21.4506 28.1456 21.5086 28.5208 21.7762 28.7164L22.331 29.1228C22.3602 29.1572 22.393 29.19 22.4314 29.218L26.1394 31.9336C26.2462 32.0512 26.3162 32.1972 26.341 32.3576C26.3746 32.574 26.3218 32.7904 26.1922 32.9668C26.063 33.144 25.8726 33.2596 25.6562 33.2928C25.439 33.3264 25.2234 33.2736 25.0466 33.144L20.8074 30.0392C20.7718 30.0132 20.7342 29.9924 20.6954 29.9752L20.613 29.9148C20.3458 29.7192 19.9702 29.7768 19.7746 30.0444C19.6722 30.1844 19.6406 30.3532 19.671 30.5112C19.3162 29.99 18.7234 29.6464 18.0506 29.6296C17.651 28.7996 16.8102 28.2496 15.859 28.2496C15.8274 28.2496 15.797 28.2532 15.7654 28.254C15.575 27.9644 15.3262 27.7168 15.0278 27.5296C14.3498 27.1052 13.5426 27.0588 12.8486 27.3292C12.7118 27.1872 12.5574 27.0612 12.3894 26.956C11.8394 26.6104 11.187 26.5008 10.553 26.6456C9.91941 26.7908 9.38021 27.174 9.03461 27.7248L8.97581 27.8184L0.930215 22.5216C0.653415 22.3388 0.281015 22.4156 0.0990146 22.6928C-0.0833854 22.9696 -0.00658541 23.3416 0.270215 23.524L8.42342 28.8912C8.31662 29.2756 8.30622 29.6824 8.39781 30.0824C8.54302 30.716 8.92622 31.2552 9.47702 31.6004C9.86901 31.8464 10.313 31.9732 10.765 31.9732C10.7706 31.9732 10.7762 31.9724 10.7818 31.9724C10.975 32.3476 11.2654 32.6788 11.6486 32.9192C12.0474 33.1692 12.4954 33.2936 12.9422 33.2936C13.131 33.2936 13.3186 33.2636 13.5034 33.2196C13.7782 34.2652 14.7286 35.0396 15.859 35.0396C15.9998 35.0396 16.1386 35.0248 16.275 35.0008C16.629 35.588 17.2662 35.9856 18.0002 35.9856C19.1142 35.9856 20.0202 35.0796 20.0202 33.966V33.902L22.0394 35.3812C22.3486 35.608 22.7138 35.7268 23.0894 35.7268C23.181 35.7268 23.2734 35.7192 23.3658 35.7052C23.837 35.6324 24.251 35.3804 24.5322 34.996C24.6742 34.8028 24.7694 34.5896 24.8234 34.37C25.0482 34.4548 25.2846 34.5028 25.5266 34.5028C25.6306 34.5028 25.735 34.4952 25.8394 34.4788C26.3726 34.396 26.8414 34.1116 27.1602 33.6764C27.3762 33.3812 27.4978 33.0404 27.5334 32.686C27.6406 32.7036 27.7498 32.7132 27.8598 32.7132C27.9634 32.7132 28.0678 32.7056 28.1726 32.6896C28.7058 32.6072 29.175 32.322 29.4934 31.8868C29.807 31.4588 29.921 30.9476 29.8634 30.4584C30.401 30.3948 30.9118 30.1172 31.2558 29.6472C31.643 29.1188 31.7274 28.4644 31.5542 27.88L39.305 23.83C39.5986 23.6768 39.7122 23.314 39.559 23.0204Z" fill="#00807B"/>
<path fill-rule="evenodd" clip-rule="evenodd" d="M25.9798 11.6741C25.845 11.6741 25.709 11.6289 25.597 11.5357C25.3418 11.3241 25.307 10.9457 25.5186 10.6909L28.121 7.55575C28.3326 7.30055 28.7102 7.26575 28.9658 7.47735C29.221 7.68895 29.2558 8.06735 29.0442 8.32215L26.4418 11.4573C26.323 11.6001 26.1522 11.6741 25.9798 11.6741Z" fill="#00B1AC"/>
<path fill-rule="evenodd" clip-rule="evenodd" d="M23.1252 11.0826C23.058 11.0826 22.99 11.0714 22.9232 11.0474C22.6108 10.9358 22.4488 10.5922 22.5604 10.2802L24.254 5.54857C24.3656 5.23577 24.7092 5.07337 25.0212 5.18577C25.3332 5.29737 25.4956 5.64097 25.3836 5.95257L23.69 10.6846C23.6024 10.9298 23.3716 11.0826 23.1252 11.0826Z" fill="#00B1AC"/>
<path fill-rule="evenodd" clip-rule="evenodd" d="M17.9961 11.0483C17.7525 11.0483 17.5229 10.8983 17.4333 10.6563L15.7037 5.98155C15.5885 5.67115 15.7473 5.32595 16.0581 5.21075C16.3689 5.09635 16.7141 5.25435 16.8293 5.56515L18.5589 10.2399C18.6737 10.5507 18.5149 10.8959 18.2045 11.0107C18.1357 11.0363 18.0653 11.0483 17.9961 11.0483Z" fill="#00B1AC"/>
<path fill-rule="evenodd" clip-rule="evenodd" d="M14.9318 11.6569C14.7614 11.6569 14.5926 11.5849 14.4738 11.4449L11.8658 8.37052C11.6514 8.11772 11.6826 7.73932 11.9354 7.52452C12.1882 7.31012 12.5666 7.34132 12.781 7.59412L15.389 10.6689C15.6034 10.9217 15.5722 11.3001 15.3194 11.5145C15.2066 11.6101 15.069 11.6569 14.9318 11.6569Z" fill="#00B1AC"/>
<path fill-rule="evenodd" clip-rule="evenodd" d="M20.5162 10.904C20.1862 10.904 19.9178 10.6372 19.9162 10.3068L19.8926 5.00282C19.891 4.67122 20.1586 4.40162 20.4898 4.40002H20.4926C20.8226 4.40002 21.091 4.66682 21.0926 4.99722L21.1162 10.3012C21.1178 10.6328 20.8502 10.9024 20.519 10.904H20.5162Z" fill="#00B1AC"/>
</svg>
