<svg width="40" height="40" viewBox="0 0 40 40" fill="none" xmlns="http://www.w3.org/2000/svg">
<path fill-rule="evenodd" clip-rule="evenodd" d="M24.0979 12.2236C24.0979 12.4839 23.8875 12.6947 23.6279 12.6947H20.8911V15.438C20.8911 15.6982 20.6808 15.9091 20.4211 15.9091H18.3787C18.119 15.9091 17.9087 15.6982 17.9087 15.438V12.6947H15.1719C14.9122 12.6947 14.7019 12.4839 14.7019 12.2236V10.1764C14.7019 9.91615 14.9122 9.70531 15.1719 9.70531H17.9087V6.96208C17.9087 6.70181 18.119 6.49097 18.3787 6.49097H20.4211C20.6808 6.49097 20.8911 6.70181 20.8911 6.96208V9.70531H23.6279C23.8875 9.70531 24.0979 9.91615 24.0979 10.1764V12.2236ZM29.5584 1.12875C25.4862 -1.99763 21.0286 2.21788 19.7566 3.58496C19.5621 3.79399 19.2377 3.79399 19.0432 3.58496C17.7712 2.21788 13.3136 -1.99763 9.24143 1.12875C5.05346 4.34445 6.73987 10.8348 10.6347 14.7392C13.6574 17.769 16.0255 19.6317 19.0717 22.2793C19.2572 22.4402 19.5426 22.4402 19.7281 22.2793C22.7743 19.6317 25.1424 17.769 28.1651 14.7392C32.0599 10.8348 33.7468 4.34445 29.5584 1.12875Z" fill="#00B1AC"/>
<path fill-rule="evenodd" clip-rule="evenodd" d="M3.97701 26.931C3.85038 26.931 3.7471 27.0322 3.7471 27.156V34.7465C3.7471 34.8707 3.85038 34.9714 3.97701 34.9714H6.93298C7.1795 34.9714 7.40626 35.1075 7.52436 35.3265C7.60563 35.4771 7.73181 35.5973 7.88897 35.6739C11.2576 37.3188 21.509 42.3243 36.0087 31.1551C36.0505 31.1233 36.0913 31.0952 36.1349 31.0694C36.134 31.0698 36.7985 30.6381 36.6073 30.292C36.1043 29.3814 33.7429 30.6331 30.7532 32.2177C30.2292 32.4957 29.6778 32.7877 29.0985 33.0889C28.4461 33.4277 27.8076 33.7596 27.1408 34.0998C24.7223 35.2712 22.1475 35.6027 19.0726 35.1342L18.857 35.102C17.8894 34.9587 16.4273 34.7424 15.6635 33.8707C15.25 33.3991 15.0986 32.7465 15.2675 32.1682C15.4287 31.6154 15.8467 31.2063 16.4143 31.0453C17.0137 30.8771 17.5611 31.1116 18.0007 31.3007C18.1763 31.376 18.3424 31.4472 18.4677 31.4739C19.0119 31.5896 19.4821 31.6667 20.0393 31.7315C21.0856 31.8531 22.0788 31.8553 22.9931 31.7415C24.0451 31.6095 25.0546 31.3129 25.9935 30.8594L26.0352 30.8394C26.3491 30.688 26.7393 30.4998 26.879 30.2739C26.9782 30.1134 26.8695 29.7818 26.6639 29.6172C26.3882 29.3968 25.9984 29.3846 25.5162 29.3891C24.9356 29.3959 24.355 29.3968 23.7744 29.3864C22.7371 29.3687 21.9006 29.322 21.1404 29.2403C20.284 29.1478 19.1695 28.9787 18.1399 28.4889C17.844 28.3474 17.5755 28.1918 17.2796 28.0177C16.2163 27.3932 15.0111 26.6843 8.21183 26.5632C8.19835 26.5628 8.17231 26.5619 8.15884 26.561C8.00752 26.5623 7.83015 26.6308 7.68511 26.7601C7.56208 26.8703 7.40312 26.931 7.23877 26.931H3.97701ZM18.0568 39.6C12.8337 39.6 9.11976 37.7869 7.30297 36.8993C7.02053 36.7615 6.77581 36.5687 6.58003 36.332H3.97699C3.10722 36.332 2.39999 35.6204 2.39999 34.7465V27.156C2.39999 26.2816 3.10722 25.5705 3.97699 25.5705H7.0102C7.37437 25.3211 7.81936 25.1732 8.26121 25.2041C15.3855 25.3301 16.752 26.1333 17.9572 26.8422C18.2257 27 18.4677 27.1401 18.7147 27.258C19.562 27.6608 20.5328 27.8063 21.2836 27.8875C22.0025 27.9651 22.8013 28.0091 23.7977 28.0258C24.3648 28.0358 24.9329 28.0363 25.5 28.0286C26.0316 28.0254 26.8278 28.0131 27.5004 28.5505C28.1686 29.0852 28.5462 30.1456 28.0218 30.9941C27.6742 31.5565 27.0626 31.8517 26.6158 32.0671L26.5745 32.0871C25.5045 32.6036 24.3554 32.9415 23.1587 33.0916C22.1385 33.2195 21.038 33.2163 19.8857 33.083C19.2845 33.0136 18.7771 32.9306 18.1893 32.805C17.9356 32.751 17.7003 32.6499 17.4735 32.5524C17.214 32.4408 16.9203 32.3152 16.7771 32.3555C16.6599 32.3887 16.5881 32.4535 16.5593 32.5528C16.5288 32.6571 16.5427 32.8209 16.672 32.9687C17.1098 33.468 18.3258 33.6485 19.0523 33.7556L19.2742 33.7887C22.0725 34.2163 24.3918 33.9224 26.5458 32.8789C27.1973 32.5465 27.8327 32.2163 28.447 31.8975C29.0577 31.5796 29.6064 31.2889 30.1273 31.0131C34.05 28.9347 36.6418 27.5614 37.7842 29.6295C38.354 30.6621 37.7128 31.6834 36.825 32.2376C29.4182 37.9429 23.0483 39.6 18.0568 39.6Z" fill="#00807B"/>
</svg>
