<svg width="40" height="40" viewBox="0 0 40 40" fill="none" xmlns="http://www.w3.org/2000/svg">
<path fill-rule="evenodd" clip-rule="evenodd" d="M20.3068 12.8671H17.9334V10.4932C17.9334 10.2212 17.7122 10 17.4397 10H15.7598C15.4878 10 15.2666 10.2212 15.2666 10.4932V12.8671H12.8932C12.6207 12.8671 12.4 13.0878 12.4 13.3603V15.0402C12.4 15.3122 12.6207 15.5334 12.8932 15.5334H15.2666V17.9068C15.2666 18.1793 15.4878 18.4 15.7598 18.4H17.4397C17.7122 18.4 17.9334 18.1793 17.9334 17.9068V15.5334H20.3068C20.5793 15.5334 20.8 15.3122 20.8 15.0402V13.3603C20.8 13.0878 20.5793 12.8671 20.3068 12.8671Z" fill="#00B1AC"/>
<path fill-rule="evenodd" clip-rule="evenodd" d="M20.8743 21.9314L20.1438 21.2271C18.1485 19.3648 15.074 19.4194 13.1511 21.3453L12.6191 21.8654L5.68423 17.5391V7.95101H27.9153V10.7231C27.9011 10.8042 27.9011 10.8835 27.9153 10.9646V15.5605C27.9153 15.9535 28.2331 16.2724 28.6259 16.2724C29.0181 16.2724 29.3365 15.9535 29.3365 15.5605V12.6257L31.7662 15.1363L20.8743 21.9314ZM1.42118 32.8198V16.5562L11.5722 22.8901L1.42118 32.8198ZM4.26308 12.61V16.6521L1.83144 15.1353L4.26308 12.61ZM14.1498 2.89286C15.5345 1.50517 17.742 1.46626 19.175 2.80364L23.1648 6.52725H10.5215L14.1498 2.89286ZM33.5953 15.2948C33.6005 15.1035 33.5337 14.917 33.3991 14.7789L29.3365 10.5807V7.23913C29.3365 6.84617 29.0181 6.52725 28.6259 6.52725H25.2496L20.1438 1.76192C18.1475 -0.100831 15.073 -0.0467282 13.145 1.88626L8.51192 6.52725H4.97365C4.58094 6.52725 4.26306 6.84617 4.26306 7.23913V10.5598L0.198965 14.7803C0.0653742 14.9184 -0.000947453 15.1049 0.00426354 15.2957C0.00331609 15.3109 0 15.3251 0 15.3408V33.2707C0 33.806 0.219335 34.2906 0.572735 34.6404C0.573209 34.6413 0.573209 34.6423 0.574156 34.6432C0.576525 34.6456 0.579841 34.6465 0.582684 34.6489C0.929451 34.9887 1.4027 35.1999 1.92522 35.1999H25.2482C25.6409 35.1999 25.9588 34.881 25.9588 34.488C25.9588 34.0951 25.6409 33.7761 25.2482 33.7761H2.47759L13.2009 23.2859C13.2018 23.2854 13.2023 23.2849 13.2028 23.2844L14.1497 22.3576C15.5349 20.9708 17.742 20.9319 19.167 22.2608L25.613 28.4774C25.8958 28.7493 26.3454 28.7412 26.6177 28.4579C26.8901 28.1746 26.8816 27.7242 26.5983 27.4513L21.9302 22.9499L32.1788 16.5562V24.9664C32.1788 25.3593 32.4967 25.6783 32.8894 25.6783C33.2817 25.6783 33.6 25.3593 33.6 24.9664V15.3408C33.6 15.3251 33.5962 15.3104 33.5953 15.2948Z" fill="#00807B"/>
<path fill-rule="evenodd" clip-rule="evenodd" d="M32.2002 25.8124C28.678 25.8124 25.8125 28.6778 25.8125 32.1997C25.8125 35.7219 28.678 38.5874 32.2002 38.5874C35.722 38.5874 38.5875 35.7219 38.5875 32.1997C38.5875 28.6778 35.722 25.8124 32.2002 25.8124ZM32.2002 39.9999C27.8992 39.9999 24.4 36.5007 24.4 32.1997C24.4 27.8991 27.8992 24.3999 32.2002 24.3999C36.5013 24.3999 40 27.8991 40 32.1997C40 36.5007 36.5013 39.9999 32.2002 39.9999Z" fill="#00B1AC"/>
<path fill-rule="evenodd" clip-rule="evenodd" d="M32.7861 34.5186C33.2774 34.4194 33.5612 34.1668 33.5612 33.7886C33.5612 33.365 33.24 33.1388 32.7861 32.9678V34.5186ZM31.9541 31.6065V30.191C31.5099 30.2628 31.2358 30.4793 31.2358 30.8218C31.2358 31.2185 31.5288 31.4438 31.9541 31.6065ZM32.7861 31.8772C33.7502 32.1562 34.8092 32.4992 34.7999 33.7344C34.7999 34.7351 33.9864 35.3933 32.7861 35.5286V36.8H31.9541V35.5374C31.0463 35.4656 30.205 35.0869 29.6 34.5548L30.0821 33.6352C30.6497 34.1312 31.3301 34.4375 31.9541 34.5279V32.7244C31.0088 32.4542 29.9878 32.1205 29.9878 30.921C29.9878 29.9564 30.7629 29.3159 31.9541 29.1903V28H32.7861V29.1805C33.5048 29.244 34.1944 29.4786 34.7144 29.8123L34.2513 30.7495C33.7405 30.4524 33.221 30.2809 32.7861 30.209V31.8772Z" fill="#00B1AC"/>
</svg>
