<svg width="40" height="40" viewBox="0 0 40 40" fill="none" xmlns="http://www.w3.org/2000/svg">
<mask id="mask0_689_49102" style="mask-type:alpha" maskUnits="userSpaceOnUse" x="8" y="0" width="24" height="24">
<path fill-rule="evenodd" clip-rule="evenodd" d="M8.4375 0.500122H31.362V23.4255H8.4375V0.500122Z" fill="white"/>
</mask>
<g mask="url(#mask0_689_49102)">
<path fill-rule="evenodd" clip-rule="evenodd" d="M19.9 2C14.407 2 9.9375 6.469 9.9375 11.963C9.9375 17.456 14.407 21.9255 19.9 21.9255C25.393 21.9255 29.862 17.456 29.862 11.963C29.862 6.469 25.393 2 19.9 2ZM19.9 23.4255C13.5795 23.4255 8.4375 18.283 8.4375 11.963C8.4375 5.642 13.5795 0.5 19.9 0.5C26.2205 0.5 31.362 5.642 31.362 11.963C31.362 18.283 26.2205 23.4255 19.9 23.4255Z" fill="#00B1AC"/>
</g>
<path fill-rule="evenodd" clip-rule="evenodd" d="M20.757 15.213C21.476 15.0605 21.891 14.6735 21.891 14.093C21.891 13.4425 21.421 13.097 20.757 12.834V15.213ZM19.5395 10.746V8.57495C18.89 8.68445 18.4885 9.01695 18.4885 9.54245C18.4885 10.1505 18.917 10.497 19.5395 10.746ZM20.757 11.161C22.168 11.589 23.7175 12.115 23.7035 14.0105C23.7035 15.5445 22.514 16.555 20.757 16.7625V18.712H19.5395V16.7765C18.212 16.6655 16.9815 16.0845 16.0955 15.268L16.801 13.857C17.6315 14.6185 18.6265 15.089 19.5395 15.227V12.4605C18.156 12.0455 16.663 11.5345 16.663 9.69445C16.663 8.21395 17.797 7.23295 19.5395 7.03845V5.21295H20.757V7.02495C21.8085 7.12195 22.817 7.48095 23.5785 7.99345L22.901 9.43145C22.154 8.97445 21.3935 8.71245 20.757 8.60145V11.161Z" fill="#00B1AC"/>
<mask id="mask1_689_49102" style="mask-type:alpha" maskUnits="userSpaceOnUse" x="0" y="24" width="40" height="16">
<path fill-rule="evenodd" clip-rule="evenodd" d="M0.400002 24.3599H39.4015V39.9966H0.400002V24.3599Z" fill="white"/>
</mask>
<g mask="url(#mask1_689_49102)">
<path fill-rule="evenodd" clip-rule="evenodd" d="M2.13925 26.2627C2.00725 26.2627 1.89975 26.3667 1.89975 26.4942V34.7227C1.89975 34.8502 2.00725 34.9537 2.13925 34.9537H5.37525C5.64975 34.9537 5.90175 35.1037 6.03325 35.3442C6.12175 35.5057 6.25775 35.6347 6.42775 35.7167C10.1147 37.5002 21.3333 42.9232 37.2023 30.8192C37.2562 30.7787 37.3038 30.7472 37.3568 30.7177V30.7182C37.3533 30.7182 38.0578 30.2637 37.8547 29.8997C37.3097 28.9237 34.7292 30.2782 31.4613 31.9927C30.8877 32.2937 30.2843 32.6102 29.6503 32.9367C28.9623 33.2907 28.2513 33.6567 27.5063 34.0317C24.8542 35.3047 22.0212 35.6637 18.6653 35.1547L18.4333 35.1202C17.3708 34.9647 15.7653 34.7302 14.9253 33.7812C14.4698 33.2672 14.3023 32.5552 14.4883 31.9237C14.6663 31.3202 15.1277 30.8737 15.7537 30.6982C16.4142 30.5142 17.0158 30.7697 17.4988 30.9752C17.6908 31.0567 17.8717 31.1332 18.0072 31.1622C18.6077 31.2887 19.1223 31.3722 19.7268 31.4412C20.8723 31.5727 21.9608 31.5767 22.9583 31.4527C24.1083 31.3097 25.2122 30.9877 26.2388 30.4967C26.6257 30.3132 27.0522 30.1097 27.2038 29.8672C27.3092 29.6977 27.1918 29.3467 26.9708 29.1717C26.6718 28.9352 26.2493 28.9222 25.7223 28.9277C25.0868 28.9342 24.4503 28.9352 23.8158 28.9247C22.6553 28.9042 21.7658 28.8552 20.9293 28.7657C19.9928 28.6662 18.7728 28.4822 17.6408 27.9497C17.3158 27.7962 17.0093 27.6212 16.6978 27.4397C15.5352 26.7622 14.2172 25.9947 6.77525 25.8637C6.76075 25.8632 6.73175 25.8617 6.71675 25.8607C6.55525 25.8622 6.36425 25.9357 6.20725 26.0747C6.07025 26.1957 5.89375 26.2627 5.71075 26.2627H2.13925ZM17.5553 39.9967C11.8337 39.9967 7.76575 38.0297 5.77575 37.0677C5.46625 36.9187 5.19825 36.7097 4.98325 36.4537H2.13925C1.18025 36.4537 0.39975 35.6772 0.39975 34.7227V26.4942C0.39975 25.5397 1.18025 24.7627 2.13925 24.7627H5.45675C5.85725 24.4922 6.34225 24.3277 6.83175 24.3652C14.6342 24.5017 16.1318 25.3742 17.4527 26.1437C17.7453 26.3142 18.0093 26.4652 18.2798 26.5922C19.2092 27.0302 20.2692 27.1867 21.0882 27.2742C21.8787 27.3587 22.7283 27.4052 23.8407 27.4247C24.4613 27.4347 25.0842 27.4352 25.7052 27.4277C26.2822 27.4187 27.1622 27.4102 27.9023 27.9962C28.6377 28.5787 29.0537 29.7347 28.4767 30.6612C28.0927 31.2757 27.4193 31.5962 26.9272 31.8307C25.7127 32.4112 24.4538 32.7777 23.1432 32.9407C22.0268 33.0797 20.8193 33.0757 19.5562 32.9317C18.9023 32.8567 18.3468 32.7667 17.6978 32.6297C17.4187 32.5707 17.1607 32.4612 16.9117 32.3557C16.6437 32.2417 16.3103 32.0997 16.1578 32.1427C16.0332 32.1777 15.9577 32.2447 15.9272 32.3482C15.8952 32.4577 15.9097 32.6302 16.0483 32.7872C16.5247 33.3252 17.8558 33.5202 18.6503 33.6362L18.8897 33.6712C21.9392 34.1342 24.4858 33.8172 26.8443 32.6862C27.5713 32.3187 28.2798 31.9547 28.9638 31.6027C29.5938 31.2782 30.1937 30.9632 30.7642 30.6647C35.0662 28.4072 37.9082 26.9162 39.1647 29.1692H39.1652C39.7897 30.2897 39.0873 31.4042 38.1138 32.0122C30.0008 38.1997 23.0227 39.9967 17.5553 39.9967Z" fill="#00807B"/>
</g>
</svg>
