<svg width="40" height="40" viewBox="0 0 40 40" fill="none" xmlns="http://www.w3.org/2000/svg">
<path fill-rule="evenodd" clip-rule="evenodd" d="M2.83559 26.708C2.69207 26.708 2.5756 26.8216 2.5756 26.9614V34.8685C2.5756 35.0083 2.69207 35.1218 2.83559 35.1218H5.93713C6.18841 35.1218 6.42043 35.2598 6.54102 35.4809C6.62814 35.6423 6.76341 35.7701 6.93215 35.852C10.4698 37.5669 21.2344 42.7834 36.4578 31.1425C36.5091 31.1044 36.5504 31.0754 36.594 31.051C36.5926 31.051 37.3024 30.5995 37.091 30.2193C36.5541 29.2552 34.0693 30.5623 30.9237 32.2166C30.3739 32.5062 29.7948 32.8106 29.1868 33.1246C28.5279 33.4644 27.8456 33.8165 27.1325 34.1775C24.5991 35.3968 21.8928 35.7407 18.6776 35.2533L18.4566 35.2207C17.4423 35.0717 15.9103 34.8474 15.1124 33.9434C14.6828 33.457 14.5251 32.7844 14.7002 32.1876C14.868 31.6184 15.3018 31.1968 15.891 31.0313C16.5128 30.8561 17.0842 31.1002 17.5431 31.2961C17.7284 31.3743 17.9031 31.4492 18.0361 31.4772C18.6125 31.5995 19.1063 31.6795 19.6868 31.7462C20.7859 31.8722 21.8305 31.8759 22.7911 31.7568C23.8971 31.6198 24.9581 31.3099 25.9454 30.8363L25.9903 30.8152C26.3214 30.6566 26.7331 30.4593 26.8822 30.2198C27.0037 30.0244 26.856 29.6717 26.6529 29.5103C26.3585 29.2763 25.9454 29.2657 25.4364 29.2685C24.827 29.2759 24.2181 29.2763 23.6091 29.2657C22.5027 29.2464 21.6507 29.1995 20.8469 29.1131C19.9518 29.0175 18.7853 28.8428 17.7046 28.332C17.3941 28.1853 17.1011 28.017 16.8031 27.8428C15.6847 27.1903 14.4173 26.4506 7.27927 26.3251C7.2701 26.3246 7.25772 26.3241 7.24488 26.3232C7.04816 26.3278 6.86521 26.4009 6.71389 26.5347C6.58825 26.6464 6.42593 26.708 6.25811 26.708H2.83559ZM17.6087 39.9048C12.1324 39.9048 8.239 38.0175 6.33378 37.0943C6.0371 36.9499 5.78078 36.7485 5.57627 36.5012H2.8356C1.93366 36.5012 1.2 35.7687 1.2 34.8685V26.9614C1.2 26.0612 1.93366 25.3287 2.8356 25.3287H6.02426C6.38926 25.0791 6.82028 24.9439 7.26415 24.9439C7.27974 24.9439 7.30221 24.9448 7.32192 24.9462C14.8043 25.08 16.2331 25.914 17.495 26.6501C17.7766 26.8152 18.0301 26.9614 18.2906 27.0837C19.1856 27.5067 20.205 27.6575 20.9932 27.7421C21.7548 27.8234 22.5687 27.868 23.633 27.8864C24.2291 27.897 24.8252 27.897 25.4199 27.8892C25.9738 27.886 26.8074 27.8736 27.5067 28.429C28.2009 28.9802 28.5939 30.074 28.0496 30.9499C27.6878 31.5306 27.0491 31.8363 26.5828 32.0598L26.5387 32.0809C25.4176 32.6179 24.214 32.9697 22.9608 33.1255C21.891 33.2584 20.7369 33.2552 19.5309 33.1163C18.905 33.0451 18.3731 32.9586 17.7518 32.8271C17.4881 32.771 17.2424 32.6662 17.0053 32.5651C16.7302 32.4483 16.4197 32.3172 16.2616 32.3595C16.1318 32.3963 16.0525 32.4676 16.0199 32.5779C15.9864 32.6915 16.0011 32.8694 16.1423 33.0294C16.6068 33.5559 17.8894 33.7434 18.6551 33.8556L18.8835 33.8892C21.8172 34.3356 24.2621 34.0294 26.525 32.9402C27.2224 32.5871 27.9015 32.2368 28.5572 31.8979C29.162 31.5857 29.7375 31.2832 30.2845 30.9954C34.3898 28.8359 37.1025 27.4078 38.2924 29.5476C38.8844 30.611 38.2167 31.6657 37.2928 32.2386C29.5243 38.1798 22.8434 39.9048 17.6087 39.9048Z" fill="#00807B"/>
<path fill-rule="evenodd" clip-rule="evenodd" d="M30.4604 14.7967C30.3504 14.639 30.1798 14.5346 29.9899 14.5084C29.8331 14.4886 26.1158 14.0045 23.5846 16.0873C22.5603 16.93 21.8858 18.062 21.5666 19.4606V13.8629C21.645 13.9452 21.7395 14.0132 21.8532 14.0486C22.4213 14.227 22.9665 14.3162 23.4861 14.3162C24.2266 14.3162 24.9153 14.1355 25.5444 13.7737C27.5368 12.6307 28.1453 10.0845 28.17 9.97691C28.2136 9.78932 28.1769 9.59254 28.0691 9.43346C27.9614 9.27438 27.7922 9.16771 27.6028 9.13875C25.4206 8.81001 23.758 9.15714 22.6602 10.1723C22.0618 10.7259 21.74 11.3843 21.5666 11.9654V7.64173C22.597 6.72173 23.1486 5.65001 23.1972 4.45323C23.2898 2.15346 21.4621 0.283113 21.3841 0.204492C21.2489 0.0679407 21.0664 -0.0111398 20.8715 0.00127404C20.6798 0.00863036 20.4996 0.0950672 20.3749 0.241274C18.9369 1.91898 18.3472 3.51622 18.6214 4.9884C18.8539 6.23576 19.6541 7.05231 20.191 7.47438V11.5948C19.8306 10.4528 19.2111 9.50748 18.3275 8.78059C15.7964 6.69829 12.079 7.18196 11.9218 7.20173C11.7319 7.22794 11.5614 7.33277 11.4513 7.49001C11.3417 7.64771 11.3023 7.84403 11.3431 8.03208C12.0194 11.1475 13.3235 13.2068 15.2196 14.153C16.0679 14.5764 16.9166 14.7148 17.6654 14.7148C19.0419 14.7148 20.0791 14.2459 20.1452 14.2151C20.1621 14.2077 20.1745 14.1939 20.191 14.1852V19.2151C19.9989 18.7548 19.705 18.2758 19.2524 17.8569C18.1542 16.8417 16.4925 16.4932 14.3094 16.8233C14.12 16.8523 13.9508 16.959 13.843 17.1181C13.7353 17.2771 13.6986 17.4739 13.7422 17.661C13.7669 17.7691 14.3754 20.3158 16.3677 21.4587C16.9973 21.8197 17.6856 22.0008 18.4257 22.0008C18.9456 22.0008 19.4908 21.9116 20.0594 21.7332C20.1071 21.7185 20.1484 21.6928 20.191 21.6689V25.9654C20.191 26.3461 20.4987 26.6551 20.8788 26.6551C21.2585 26.6551 21.5666 26.3461 21.5666 25.9654V21.3737C21.6239 21.433 21.6891 21.4859 21.767 21.5217C21.833 21.5521 22.8698 22.0215 24.2468 22.0215C24.9956 22.0215 25.8448 21.8827 26.6926 21.4592C28.5882 20.5135 29.8927 18.4537 30.5686 15.3387C30.6094 15.1507 30.57 14.9544 30.4604 14.7967Z" fill="#00B1AC"/>
</svg>
