<svg width="41" height="40" viewBox="0 0 41 40" fill="none" xmlns="http://www.w3.org/2000/svg">
<path fill-rule="evenodd" clip-rule="evenodd" d="M31.5614 17.384C31.5614 16.8342 31.1141 16.3892 30.5624 16.3892C30.0106 16.3892 29.5637 16.8342 29.5637 17.384C29.5637 17.9333 30.0106 18.3784 30.5624 18.3784C31.1141 18.3784 31.5614 17.9333 31.5614 17.384Z" fill="#00807B"/>
<path fill-rule="evenodd" clip-rule="evenodd" d="M38.4945 16.8905H36.3499C35.6736 14.9319 34.4296 13.1669 32.7985 11.8536L32.8006 6.15787C32.8006 5.8109 32.5178 5.5293 32.1693 5.5293C29.5968 5.5293 27.3163 7.06636 26.3463 9.40214C26.1598 9.39208 25.9797 9.38747 25.8038 9.38747H24.5708C24.2219 9.38747 23.9395 9.66907 23.9395 10.016C23.9395 10.363 24.2219 10.6446 24.5708 10.6446H25.8038C26.0887 10.6446 26.3875 10.6593 26.717 10.689C27.0091 10.715 27.2835 10.5365 27.3748 10.257C27.9854 8.38301 29.6149 7.06427 31.5381 6.82499L31.5385 11.7798L31.5238 12.1222C31.5145 12.3279 31.6075 12.5257 31.7725 12.6502C33.4474 13.917 34.6943 15.7092 35.2839 17.6972C35.363 17.9645 35.6092 18.1477 35.8891 18.1477H38.4945C38.7141 18.1477 38.893 18.3258 38.893 18.5445V23.7964C38.893 24.0156 38.7141 24.1937 38.4945 24.1937H35.3773C35.1299 24.1937 34.9052 24.3374 34.8029 24.5616C33.9002 26.5349 32.3368 28.1813 30.3993 29.1979C30.271 29.2654 30.17 29.3744 30.1131 29.5068L27.4063 35.813C27.2738 36.0351 27.0571 36.059 26.9678 36.059C26.879 36.059 26.6623 36.0351 26.5298 35.813L24.3406 30.7132C24.2413 30.4823 24.0127 30.3319 23.7602 30.3319H16.3435C16.0906 30.3319 15.8625 30.4823 15.7627 30.7132L13.5542 35.8587C13.4216 36.0804 13.2049 36.1047 13.1161 36.1047C13.0269 36.1051 12.8102 36.0804 12.6776 35.8587L9.89505 29.3756C9.84035 29.2482 9.74482 29.1426 9.62362 29.0747C6.5065 27.3315 4.57067 24.0411 4.57067 20.4885C4.57067 16.5993 6.8781 13.0659 10.4489 11.4865C10.7674 11.3457 10.9109 10.9744 10.7695 10.6572C10.6277 10.34 10.2549 10.1962 9.9363 10.3374C6.99383 11.639 4.8177 14.1198 3.8561 17.0715C2.39622 16.8855 1.2625 15.6426 1.2625 14.1386C1.2625 13.7912 0.980121 13.5101 0.63125 13.5101C0.2828 13.5101 0 13.7912 0 14.1386C0 16.2255 1.53225 17.9587 3.53416 18.2927C3.38939 19.0075 3.30817 19.7413 3.30817 20.4885C3.30817 24.4233 5.41318 28.072 8.81688 30.0633L11.53 36.3846C11.538 36.4022 11.5464 36.4198 11.5557 36.437C11.8667 37.0077 12.4642 37.3623 13.1161 37.3618C13.768 37.3618 14.366 37.0073 14.6761 36.437C14.6854 36.4198 14.6938 36.4022 14.7018 36.3846L16.7601 31.589H23.3436L25.3821 36.3389C25.3901 36.3565 25.3986 36.3741 25.4078 36.3913C25.7184 36.9616 26.3164 37.3162 26.9678 37.3162C27.6197 37.3162 28.2177 36.9616 28.5283 36.3913C28.5375 36.3741 28.546 36.3565 28.5535 36.3389L31.1875 30.2032C33.1587 29.1167 34.7701 27.4451 35.775 25.4508H38.4945C39.4106 25.4508 40.1555 24.7087 40.1555 23.7964V18.5445C40.1555 17.6326 39.4106 16.8905 38.4945 16.8905Z" fill="#00807B"/>
<path fill-rule="evenodd" clip-rule="evenodd" d="M22.2992 15.9653C22.1329 15.9653 21.9671 15.9008 21.8434 15.7717C21.6023 15.5207 21.6107 15.123 21.8623 14.8829C23.1635 13.6413 23.8798 11.9697 23.8798 10.1762C23.8798 6.58116 20.9432 3.65705 17.3333 3.65705C13.7234 3.65705 10.7868 6.58116 10.7868 10.1762C10.7868 11.9177 11.4677 13.5545 12.7042 14.7857C12.9508 15.0308 12.9508 15.4289 12.7042 15.6745C12.4575 15.9201 12.0582 15.9201 11.8116 15.6745C10.3365 14.2062 9.52434 12.2538 9.52434 10.1762C9.52434 5.88806 13.0274 2.3999 17.3333 2.3999C21.6393 2.3999 25.1423 5.88806 25.1423 10.1762C25.1423 12.3154 24.288 14.3097 22.736 15.7906C22.6135 15.9071 22.4565 15.9653 22.2992 15.9653Z" fill="#00B1AC"/>
<path fill-rule="evenodd" clip-rule="evenodd" d="M17.9078 12.3449C18.3896 12.2434 18.6678 11.9849 18.6678 11.5973C18.6678 11.1636 18.3526 10.9327 17.9078 10.7575V12.3449ZM17.0922 9.36418V7.91511C16.6566 7.98845 16.3881 8.21054 16.3881 8.56128C16.3881 8.96692 16.6751 9.19782 17.0922 9.36418ZM17.9078 9.64074C18.8534 9.92653 19.8911 10.2773 19.8819 11.5415C19.8819 12.5661 19.0848 13.2399 17.9078 13.3782V14.6794H17.0922V13.3874C16.2025 13.3137 15.3777 12.9261 14.7848 12.3817L15.2574 11.4401C15.8133 11.948 16.4807 12.2619 17.0922 12.3537V10.5082C16.1655 10.2312 15.1644 9.89008 15.1644 8.66269C15.1644 7.67499 15.9248 7.02002 17.0922 6.89053V5.67236H17.9078V6.88132C18.6122 6.94585 19.2889 7.18596 19.7986 7.52749L19.3445 8.48711C18.8437 8.18246 18.3341 8.0073 17.9078 7.93354V9.64074Z" fill="#00807B"/>
<path fill-rule="evenodd" clip-rule="evenodd" d="M24.5708 15.9642H10.1556C9.80672 15.9642 9.52434 15.6826 9.52434 15.3356C9.52434 14.9886 9.80672 14.707 10.1556 14.707H24.5708C24.9197 14.707 25.2021 14.9886 25.2021 15.3356C25.2021 15.6826 24.9197 15.9642 24.5708 15.9642Z" fill="#00807B"/>
</svg>
