<svg width="80" height="80" viewBox="0 0 80 80" fill="none" xmlns="http://www.w3.org/2000/svg">
<circle cx="40" cy="40" r="40" fill="#EFFAFB"/>
<path fill-rule="evenodd" clip-rule="evenodd" d="M25.8398 50.6861C24.5794 50.6861 23.5534 49.6607 23.5534 48.4002C23.5534 47.1392 24.5794 46.1137 25.8398 46.1137C27.1007 46.1137 28.1261 47.1392 28.1261 48.4002C28.1261 49.6607 27.1007 50.6861 25.8398 50.6861ZM25.8398 44.3199C23.5899 44.3199 21.7598 46.1502 21.7598 48.4002C21.7598 50.6497 23.5899 52.4799 25.8398 52.4799C28.0896 52.4799 29.9198 50.6497 29.9198 48.4002C29.9198 46.1502 28.0896 44.3199 25.8398 44.3199Z" fill="#00807B"/>
<path fill-rule="evenodd" clip-rule="evenodd" d="M53.2001 50.6861C51.9398 50.6861 50.9138 49.6607 50.9138 48.4002C50.9138 47.1392 51.9398 46.1137 53.2001 46.1137C54.4611 46.1137 55.4864 47.1392 55.4864 48.4002C55.4864 49.6607 54.4611 50.6861 53.2001 50.6861ZM53.2001 44.3199C50.9503 44.3199 49.1201 46.1502 49.1201 48.4002C49.1201 50.6497 50.9503 52.4799 53.2001 52.4799C55.45 52.4799 57.2801 50.6497 57.2801 48.4002C57.2801 46.1502 55.45 44.3199 53.2001 44.3199Z" fill="#00807B"/>
<path fill-rule="evenodd" clip-rule="evenodd" d="M45.8379 46.24H33.2017C32.7149 46.24 32.3198 46.6701 32.3198 47.2C32.3198 47.7299 32.7149 48.16 33.2017 48.16H45.8379C46.3253 48.16 46.7198 47.7299 46.7198 47.2C46.7198 46.6701 46.3253 46.24 45.8379 46.24Z" fill="#00807B"/>
<path fill-rule="evenodd" clip-rule="evenodd" d="M45.8379 49.12H33.2017C32.7149 49.12 32.3198 49.5501 32.3198 50.08C32.3198 50.6099 32.7149 51.04 33.2017 51.04H45.8379C46.3253 51.04 46.7198 50.6099 46.7198 50.08C46.7198 49.5501 46.3253 49.12 45.8379 49.12Z" fill="#00807B"/>
<path fill-rule="evenodd" clip-rule="evenodd" d="M60.2023 41.4468C60.1899 41.3859 60.1709 41.3262 60.146 41.2688L58.6701 37.9265H59.9628C60.9435 37.9265 61.7411 38.7216 61.7411 39.6987C61.7411 40.5943 61.0687 41.3291 60.2023 41.4468ZM58.4424 59.7042C58.4424 61.0951 57.3069 62.2266 55.9116 62.2266H55.5025C54.1072 62.2266 52.9717 61.0951 52.9717 59.7042V55.8009H58.4424V59.7042ZM26.2881 59.7042C26.2881 61.0951 25.1531 62.2266 23.7579 62.2266H23.3487C21.9534 62.2266 20.8179 61.0951 20.8179 59.7042V55.8009H26.2881V59.7042ZM17.7789 39.6987C17.7789 38.7216 18.5759 37.9265 19.5566 37.9265H20.5896L19.1143 41.2688C19.0965 41.3102 19.0852 41.3534 19.0734 41.3959C18.3286 41.1849 17.7789 40.508 17.7789 39.6987ZM39.6299 54.0274H27.1775H20.8179V43.3289H58.4424V54.0274H52.0822H39.6299ZM63.52 39.6987C63.52 37.7432 61.9243 36.1531 59.9628 36.1531H57.9342C57.9188 36.1531 57.9046 36.1566 57.8892 36.1578L54.8164 29.1959C53.723 26.7202 51.2627 25.12 48.5487 25.12H39.6298C39.1389 25.12 38.7404 25.5172 38.7404 26.0067C38.7404 26.4962 39.1389 26.8934 39.6298 26.8934H48.5487C50.5577 26.8934 52.3787 28.0781 53.1875 29.9106L58.3286 41.5555H20.9311L24.9331 32.4915C25.1311 32.0429 24.9266 31.5197 24.4771 31.3223C24.0282 31.1266 23.5028 31.3288 23.3048 31.7768L21.3729 36.1531H19.5566C17.5951 36.1531 16 37.7432 16 39.6987C16 41.4787 17.3229 42.9512 19.039 43.2024V54.9141V59.7042C19.039 62.0735 20.9721 64 23.3487 64H23.7578C26.1339 64 28.0669 62.0735 28.0669 59.7042V55.8009H39.6298H51.1928V59.7042C51.1928 62.0735 53.1258 64 55.5025 64H55.9116C58.2876 64 60.2213 62.0735 60.2213 59.7042V54.9141V43.2314C62.0619 43.0984 63.52 41.5667 63.52 39.6987Z" fill="#00807B"/>
<path fill-rule="evenodd" clip-rule="evenodd" d="M29.9198 17.7915C25.6142 17.7915 22.1113 21.2946 22.1113 25.6003C22.1113 29.906 25.6142 33.4084 29.9198 33.4084C34.2253 33.4084 37.7283 29.906 37.7283 25.6003C37.7283 21.2946 34.2253 17.7915 29.9198 17.7915ZM29.9198 35.2C24.6266 35.2 20.3198 30.8937 20.3198 25.6003C20.3198 20.3069 24.6266 16 29.9198 16C35.2131 16 39.5198 20.3069 39.5198 25.6003C39.5198 30.8937 35.2131 35.2 29.9198 35.2Z" fill="#00B1AC"/>
<path fill-rule="evenodd" clip-rule="evenodd" d="M30.3836 28.0182C30.9739 27.8938 31.3139 27.5771 31.3139 27.1022C31.3139 26.5702 30.928 26.2871 30.3836 26.0726V28.0182ZM29.3852 24.3643V22.5887C28.8516 22.6789 28.5231 22.9499 28.5231 23.3803C28.5231 23.8774 28.8746 24.1605 29.3852 24.3643ZM30.3836 24.7033C31.5405 25.0543 32.8114 25.4841 32.8 27.0337C32.8 28.2893 31.8245 29.1152 30.3836 29.2847V30.88H29.3852V29.2961C28.2958 29.206 27.2859 28.7311 26.5601 28.0633L27.1388 26.9092C27.8195 27.5314 28.6364 27.916 29.3852 28.0297V25.7672C28.2506 25.4276 27.0249 25.0092 27.0249 23.5047C27.0249 22.2942 27.9558 21.4911 29.3852 21.333V19.84H30.3836V21.321C31.2457 21.4004 32.0741 21.6943 32.6981 22.1132L32.1422 23.2896C31.5291 22.9169 30.9057 22.7011 30.3836 22.6109V24.7033Z" fill="#00B1AC"/>
</svg>
