<svg width="40" height="40" viewBox="0 0 40 40" fill="none" xmlns="http://www.w3.org/2000/svg">
<path fill-rule="evenodd" clip-rule="evenodd" d="M9.61554 37.8407C10.8889 36.3904 13.9321 33.8949 19.8 33.8949C25.6684 33.8949 28.7125 36.3914 29.9849 37.8407H9.61554ZM31.9175 38.1955C31.795 37.9699 28.8798 32.7908 20.4163 32.547C20.4552 32.4614 20.4783 32.3671 20.4783 32.2666V23.0796C20.4783 22.7044 20.1749 22.4 19.8 22.4C19.4251 22.4 19.1217 22.7044 19.1217 23.0796V32.2666C19.1217 32.3671 19.1448 32.4614 19.1837 32.547C10.7202 32.7908 7.80502 37.9699 7.68248 38.1955C7.56807 38.4062 7.57305 38.6617 7.69514 38.8679C7.81722 39.074 8.03879 39.2 8.278 39.2H31.322C31.5612 39.2 31.7828 39.074 31.9049 38.8679C32.027 38.6617 32.0319 38.4062 31.9175 38.1955Z" fill="#00B1AC"/>
<path fill-rule="evenodd" clip-rule="evenodd" d="M35.454 19.8188C33.9015 19.8188 32.6078 18.6868 32.3299 17.196L38.5758 17.2131C38.2915 18.6955 37.0005 19.8188 35.454 19.8188ZM27.727 19.8188C26.1672 19.8188 24.869 18.6762 24.5997 17.1753L30.852 17.1919C30.5759 18.6849 29.2808 19.8188 27.727 19.8188ZM20 19.8188C18.4334 19.8188 17.1306 18.6651 16.8695 17.1542L23.1277 17.1712C22.8598 18.6743 21.5611 19.8188 20 19.8188ZM12.273 19.8188C10.6991 19.8188 9.39229 18.655 9.13937 17.1334L15.4039 17.15C15.1446 18.6633 13.841 19.8188 12.273 19.8188ZM4.54601 19.8188C2.96486 19.8188 1.653 18.6439 1.40918 17.1122L7.68011 17.1293C7.42901 18.6527 6.12124 19.8188 4.54601 19.8188ZM16.3455 5.19572L8.33154 15.75L2.69471 15.7348L16.3455 5.19572ZM31.7181 15.8131L23.7204 5.24498L37.3053 15.8282L31.7181 15.8131ZM24.319 15.7933L21.5011 4.58433L29.9954 15.8085L24.319 15.7933ZM20.0164 4.27771L22.9103 15.7896L17.0965 15.7735L20.0164 4.27771ZM10.0491 15.7546L18.5289 4.5871L15.6887 15.7698L10.0491 15.7546ZM39.7339 15.977L20.4385 0.945929L20.4358 0.943627C20.4289 0.938563 20.4208 0.936721 20.4144 0.932118C20.3689 0.89897 20.3207 0.873189 20.2693 0.852471C20.2593 0.848788 20.2511 0.841422 20.2411 0.837739C20.232 0.835437 20.2229 0.835437 20.2142 0.832675C20.1524 0.813799 20.0892 0.800909 20.0232 0.800448C20.0223 0.800448 20.0218 0.799988 20.0209 0.799988H20.0205H20.02H20.0196C19.9531 0.799988 19.889 0.813339 19.8271 0.831754C19.8181 0.834516 19.8094 0.834516 19.8008 0.837739C19.7898 0.840962 19.7808 0.847868 19.7703 0.852471C19.7198 0.872728 19.6725 0.898049 19.6279 0.929816C19.6206 0.93488 19.6124 0.936261 19.6056 0.941786L19.6015 0.945008H19.6011L0.268377 15.8711C0.0768741 16.0188 -0.0136463 16.2555 0.010917 16.4912C0.00500364 16.5266 0 16.5621 0 16.5989C0 19.1361 2.03921 21.2 4.54603 21.2C6.17813 21.2 7.60735 20.3225 8.4093 19.0113C9.2117 20.3225 10.6409 21.2 12.273 21.2C13.9047 21.2 15.3348 20.3225 16.1363 19.0113C16.9382 20.3225 18.3679 21.2 20 21.2C21.6321 21.2 23.0613 20.3225 23.8637 19.0113C24.6657 20.3225 26.0949 21.2 27.727 21.2C29.3591 21.2 30.7888 20.3225 31.5907 19.0113C32.3926 20.3225 33.8223 21.2 35.454 21.2C37.9608 21.2 40 19.1361 40 16.5989C40 16.5851 39.9964 16.5718 39.9959 16.558C40.0064 16.3361 39.914 16.1174 39.7339 15.977Z" fill="#00807B"/>
</svg>
