<svg width="40" height="40" viewBox="0 0 40 40" fill="none" xmlns="http://www.w3.org/2000/svg">
<path fill-rule="evenodd" clip-rule="evenodd" d="M30.4 8.40002C30.4 6.77733 29.6181 5.33222 28.4 4.40002L30.4 8.40002Z" fill="white"/>
<path fill-rule="evenodd" clip-rule="evenodd" d="M30.1687 9.19998C29.8198 9.19998 29.5374 8.89851 29.5374 8.52707C29.5374 7.06506 28.9188 5.70757 27.8406 4.80094C27.5666 4.57125 27.5199 4.14776 27.7353 3.85617C27.9517 3.56458 28.3481 3.51433 28.6221 3.74447C30.0063 4.90726 30.8 6.65009 30.8 8.52707C30.8 8.89851 30.5176 9.19998 30.1687 9.19998Z" fill="#00807B"/>
<path fill-rule="evenodd" clip-rule="evenodd" d="M22.0872 15.0962C21.7814 14.9098 21.3842 15.0099 21.2003 15.3187C20.104 17.1585 18.2755 18.392 16.1834 18.7021C16.0029 18.7291 15.8418 18.8319 15.7401 18.9852C15.6389 19.1385 15.6062 19.3284 15.6505 19.5074L16.0025 20.9304H14.2976L14.6491 19.5074C14.6934 19.3284 14.6607 19.1385 14.559 18.9852C14.4578 18.8319 14.2967 18.7291 14.1162 18.7021C10.6819 18.1929 8.09224 15.1585 8.09224 11.6427C8.09224 7.70795 11.2582 4.50666 15.15 4.50666C16.211 4.50666 17.231 4.73881 18.1812 5.19657C18.5042 5.35163 18.8893 5.21356 19.0427 4.8882C19.196 4.56198 19.0595 4.17216 18.7373 4.0171C17.6122 3.47441 16.4052 3.20001 15.15 3.20001C10.5458 3.20001 6.8 6.98755 6.8 11.6427C6.8 15.5596 9.51844 18.9726 13.2302 19.8602L12.8434 21.4247C12.7947 21.6203 12.8382 21.8267 12.961 21.9853C13.0833 22.1442 13.2711 22.237 13.4701 22.237H14.4152C12.7667 26.2292 13.5093 28.5912 14.3019 31.0813C14.9911 33.2468 15.704 35.486 14.8274 39.1947C14.7447 39.5457 14.9588 39.8981 15.3055 39.9822C15.3563 39.9944 15.4067 40 15.4563 40C15.7483 40 16.0132 39.7984 16.0843 39.4983C17.0449 35.4337 16.2411 32.9084 15.5321 30.681C14.7555 28.2411 14.0848 26.1343 15.7841 22.3171C15.7957 22.291 15.8026 22.2636 15.8108 22.237H16.8299C17.0289 22.237 17.2167 22.1442 17.3395 21.9853C17.4618 21.8267 17.5053 21.6203 17.4567 21.4247L17.0699 19.8606C19.2516 19.3432 21.1344 17.9617 22.3073 15.9934C22.4912 15.6842 22.393 15.2826 22.0872 15.0962Z" fill="#00B1AC"/>
<path fill-rule="evenodd" clip-rule="evenodd" d="M26.2398 15.5332C26.0582 15.5603 25.8962 15.6633 25.7939 15.8164C25.6921 15.9705 25.6591 16.1603 25.7038 16.3401L26.0578 17.7654H24.3426L24.6962 16.3401C24.7413 16.1603 24.7079 15.9705 24.6061 15.8164C24.5038 15.6633 24.3422 15.5603 24.1602 15.5332C20.7057 15.0226 18.1 11.9817 18.1 8.45984C18.1 4.51729 21.285 1.30923 25.2002 1.30923C29.115 1.30923 32.3 4.51729 32.3 8.45984C32.3 11.9817 29.6948 15.0226 26.2398 15.5332ZM33.6 8.45985C33.6 3.79548 29.8321 0 25.2002 0C20.5683 0 16.8 3.79548 16.8 8.45985C16.8 12.3841 19.5348 15.8038 23.2688 16.6932L22.8797 18.2612C22.8307 18.4567 22.8745 18.664 22.998 18.8229C23.1211 18.9817 23.31 19.0747 23.5102 19.0747H24.6031C22.9833 23.0312 23.7273 25.3839 24.5199 27.864C25.2132 30.0339 25.9304 32.2775 25.0481 35.9935C24.9649 36.3448 25.1803 36.6983 25.5296 36.7821C25.5803 36.7948 25.631 36.8 25.6812 36.8C25.975 36.8 26.2415 36.5984 26.3126 36.2977C27.2789 32.2251 26.4708 29.6952 25.7571 27.463C24.9757 25.0182 24.3015 22.9068 26.0106 19.0825C26.0114 19.0799 26.0119 19.0773 26.0132 19.0747H26.8902C27.0904 19.0747 27.2794 18.9817 27.4024 18.8229C27.5259 18.664 27.5693 18.4567 27.5207 18.2612L27.1316 16.6932C30.8652 15.8038 33.6 12.3841 33.6 8.45985Z" fill="#00807B"/>
</svg>
