<svg width="40" height="41" viewBox="0 0 40 41" fill="none" xmlns="http://www.w3.org/2000/svg">
<path fill-rule="evenodd" clip-rule="evenodd" d="M30.1914 14.723C30.1986 14.8816 30.2254 15.0304 30.2704 15.1693C30.3154 15.3093 30.3872 15.4279 30.4849 15.5256C30.5831 15.6239 30.7218 15.6727 30.9028 15.6727C31.0756 15.6727 31.2133 15.6239 31.3153 15.5256C31.4167 15.4279 31.4919 15.3093 31.5407 15.1693C31.5895 15.0304 31.6197 14.8833 31.6317 14.729C31.6427 14.5742 31.6482 14.437 31.6482 14.3167C31.6482 14.2031 31.6427 14.0697 31.6317 13.9143C31.6197 13.7606 31.5923 13.6135 31.5462 13.474C31.5012 13.3346 31.4316 13.2144 31.3378 13.1117C31.244 13.0107 31.1134 12.9596 30.9478 12.9596C30.7679 12.9596 30.6258 13.0047 30.5238 13.0952C30.4229 13.1853 30.3456 13.2989 30.2924 13.4345C30.2403 13.5701 30.2079 13.7167 30.1969 13.8753C30.186 14.0335 30.1805 14.1773 30.1805 14.3047C30.1805 14.4254 30.1838 14.5649 30.1914 14.723ZM29.1406 13.4345C29.2162 13.171 29.3331 12.941 29.491 12.7444C29.649 12.549 29.8486 12.3947 30.0894 12.2816C30.3302 12.168 30.6171 12.1115 30.9478 12.1115C31.3016 12.1115 31.5961 12.1707 31.8292 12.2871C32.0617 12.4041 32.2521 12.5622 32.3991 12.762C32.5461 12.9618 32.6492 13.1973 32.71 13.4685C32.7704 13.7397 32.8 14.0296 32.8 14.3392C32.8 14.6478 32.7622 14.9343 32.6881 15.1978C32.6124 15.4619 32.4978 15.6919 32.3431 15.8879C32.189 16.0839 31.991 16.2365 31.7502 16.3452C31.5083 16.4545 31.2226 16.5094 30.8918 16.5094C30.5452 16.5094 30.2529 16.4528 30.0159 16.3397C29.779 16.2266 29.5865 16.0702 29.4406 15.8709C29.293 15.6711 29.1877 15.4356 29.1241 15.1644C29.0599 14.8932 29.0276 14.6027 29.0276 14.2937C29.0276 13.9846 29.0654 13.6986 29.1406 13.4345ZM30.5117 8.82469L26.3241 16.3831C26.2501 16.5171 26.1091 16.6 25.9566 16.6H25.9369C25.616 16.6 25.4137 16.2546 25.5694 15.9741L29.7773 8.41625C29.8514 8.28285 29.9918 8.19995 30.1443 8.19995C30.4646 8.19995 30.667 8.54416 30.5117 8.82469ZM24.3628 10.9591C24.3705 11.1096 24.3968 11.2512 24.4418 11.3824C24.4873 11.5142 24.5586 11.6256 24.6573 11.7156C24.7544 11.8068 24.8942 11.8518 25.0741 11.8518C25.248 11.8518 25.3851 11.8068 25.4871 11.7156C25.5892 11.6256 25.6638 11.5142 25.7131 11.3824C25.7619 11.2512 25.7921 11.1112 25.8036 10.9641C25.8146 10.817 25.8195 10.6841 25.8195 10.5633C25.8195 10.4502 25.8146 10.3124 25.8036 10.1499C25.7921 9.98799 25.7636 9.83208 25.7186 9.68111C25.6736 9.53014 25.604 9.40277 25.5091 9.29682C25.4153 9.19142 25.2859 9.13816 25.1202 9.13816C24.9392 9.13816 24.7977 9.18757 24.6962 9.28529C24.5942 9.38356 24.5174 9.50434 24.4648 9.64707C24.4116 9.79036 24.3803 9.94517 24.3683 10.1104C24.3573 10.2762 24.3518 10.4239 24.3518 10.5512C24.3518 10.672 24.3556 10.8076 24.3628 10.9591ZM23.3124 9.65805C23.3876 9.3874 23.5044 9.15024 23.6624 8.94656C23.8203 8.74234 24.02 8.58259 24.2619 8.4662C24.5026 8.34927 24.7884 8.29053 25.1202 8.29053C25.474 8.29053 25.7674 8.35092 26.0005 8.47114C26.2342 8.59192 26.4245 8.75607 26.5715 8.96303C26.7179 9.17055 26.8216 9.41375 26.8814 9.69208C26.9423 9.97097 26.9724 10.2652 26.9724 10.5738C26.9724 10.8834 26.9351 11.1672 26.8594 11.428C26.7843 11.6882 26.6691 11.9122 26.5144 12.1005C26.3603 12.2888 26.1629 12.4359 25.9215 12.5408C25.6808 12.6473 25.395 12.6994 25.0632 12.6994C24.7171 12.6994 24.4253 12.6451 24.1884 12.5358C23.9514 12.4266 23.7589 12.2756 23.6119 12.0835C23.4649 11.8913 23.3602 11.6618 23.296 11.3939C23.2313 11.126 23.2 10.8384 23.2 10.5287C23.2 10.2202 23.2367 9.92979 23.3124 9.65805Z" fill="#00B1AC"/>
<path fill-rule="evenodd" clip-rule="evenodd" d="M38.3015 21.4329C38.3015 22.0782 37.7721 22.6037 37.1221 22.6037H23.8628V20.1659C23.8628 18.5909 22.5713 17.3094 20.9849 17.3094H17.8358V3.4571C17.8358 2.81126 18.3652 2.28626 19.0151 2.28626H37.1221C37.7721 2.28626 38.3015 2.81126 38.3015 3.4571V21.4329ZM22.1642 38.1428C22.1642 38.7881 21.6348 39.3137 20.9849 39.3137H2.87789C2.22735 39.3137 1.69854 38.7881 1.69854 38.1428V20.1659C1.69854 19.5206 2.22735 18.9957 2.87789 18.9957H20.9849C21.6348 18.9957 22.1642 19.5206 22.1642 20.1659V38.1428ZM37.1221 0.599976H19.0151C17.4281 0.599976 16.1372 1.88155 16.1372 3.4571V17.3094H2.87789C1.29089 17.3094 0 18.5909 0 20.1659V38.1428C0 39.7178 1.29089 41 2.87789 41H20.9849C22.5713 41 23.8628 39.7178 23.8628 38.1428V24.29H37.1221C38.7091 24.29 40 23.0084 40 21.4329V3.4571C40 1.88155 38.7091 0.599976 37.1221 0.599976Z" fill="#00807B"/>
<path fill-rule="evenodd" clip-rule="evenodd" d="M12.2312 31.6077C12.7605 31.4951 13.0659 31.2081 13.0659 30.7778C13.0659 30.2963 12.7201 30.0401 12.2312 29.8455V31.6077ZM11.3353 28.2982V26.6899C10.8567 26.7718 10.5612 27.0175 10.5612 27.4072C10.5612 27.858 10.877 28.1146 11.3353 28.2982ZM12.2312 28.606C13.2697 28.9232 14.4103 29.3129 14.3999 30.7162C14.3999 31.8534 13.5242 32.6021 12.2312 32.7554V34.2H11.3353V32.7653C10.3574 32.6834 9.45171 32.2536 8.8 31.649L9.31897 30.6035C9.93026 31.1669 10.6628 31.5154 11.3353 31.6182V29.569C10.317 29.2612 9.21736 28.8825 9.21736 27.5199C9.21736 26.4233 10.0521 25.6961 11.3353 25.5527V24.2H12.2312V25.5428C13.0053 25.6142 13.7482 25.8808 14.3087 26.2601L13.8094 27.3253C13.2598 26.9873 12.6994 26.7922 12.2312 26.7108V28.606Z" fill="#00B1AC"/>
</svg>
