<svg width="39" height="39" viewBox="0 0 39 39" fill="none" xmlns="http://www.w3.org/2000/svg">
<path fill-rule="evenodd" clip-rule="evenodd" d="M38.9955 36.2429L38.3731 30.4716C38.3545 29.0701 37.4516 27.8816 36.2 27.4308C36.9117 26.5399 37.3242 25.4242 37.3242 24.2537C37.3242 21.4481 35.0424 19.166 32.2382 19.166C29.434 19.166 27.1522 21.4481 27.1522 24.2537C27.1522 25.4262 27.5627 26.5415 28.2743 27.4318C27.7777 27.6113 27.3368 27.9064 26.9841 28.2855C26.4292 27.308 25.4912 26.5781 24.3759 26.2954C25.4675 25.0899 26.1028 23.5052 26.1028 21.8396C26.1028 18.1838 23.1295 15.21 19.4755 15.21C15.8215 15.21 12.8482 18.1838 12.8482 21.8396C12.8482 23.5083 13.4819 25.092 14.5731 26.2959C13.4711 26.576 12.5434 27.2925 11.987 28.2535C11.6384 27.8888 11.2073 27.6051 10.7231 27.4308C11.4353 26.5399 11.8483 25.4236 11.8483 24.2537C11.8483 21.4481 9.5665 19.166 6.7618 19.166C3.95711 19.166 1.67529 21.4481 1.67529 24.2537C1.67529 25.4262 2.08628 26.5415 2.79789 27.4318C1.54741 27.8832 0.64551 29.0711 0.626946 30.4716L0.00453897 36.2429C-0.0413551 36.6679 0.265981 37.0491 0.690888 37.095C0.718734 37.0981 0.747095 37.0997 0.774426 37.0997C1.16478 37.0997 1.49997 36.8056 1.54277 36.409L2.16878 30.5991C2.17188 30.5712 2.17342 30.5434 2.17342 30.5155C2.17342 29.5602 2.95104 28.7823 3.90605 28.7823H4.5759C4.58725 28.7823 4.59808 28.7792 4.60942 28.7787C4.61819 28.7792 4.62747 28.7823 4.63624 28.7823C4.90541 28.7823 5.16685 28.6415 5.30969 28.3902C5.5206 28.0188 5.39014 27.5468 5.01834 27.3353C3.9107 26.7071 3.22228 25.5258 3.22228 24.2537C3.22228 22.3018 4.81053 20.7135 6.7618 20.7135C8.71308 20.7135 10.3013 22.3018 10.3013 24.2537C10.3013 25.5108 9.62426 26.6859 8.53517 27.3183C8.33097 27.4375 8.20463 27.6356 8.16544 27.8517C8.16544 27.8527 8.16544 27.8532 8.16493 27.8543C8.15822 27.8945 8.15358 27.9353 8.15307 27.976C8.15255 27.9869 8.14997 27.9977 8.14997 28.0085C8.14997 28.0286 8.1541 28.0477 8.15564 28.0678C8.15667 28.0771 8.15719 28.0859 8.15822 28.0941C8.20154 28.4805 8.52538 28.7823 8.92347 28.7823H9.61755C10.5726 28.7823 11.3502 29.5602 11.3502 30.5155C11.3502 30.5851 11.362 30.6512 11.3791 30.7151L10.5782 38.1432C10.5323 38.5683 10.8397 38.9495 11.2641 38.9954C11.2924 38.9985 11.3208 39 11.3481 39C11.738 39 12.0737 38.7055 12.1165 38.3093L12.9668 30.4226C12.9699 30.3948 12.9714 30.3669 12.9714 30.3396C12.9714 28.8896 14.1502 27.7104 15.5993 27.7104H16.5084C16.5238 27.7104 16.5388 27.7067 16.5543 27.7057C16.5661 27.7062 16.5785 27.7104 16.5904 27.7104C16.8601 27.7104 17.1215 27.5695 17.2638 27.3183C17.4747 26.9469 17.3448 26.4744 16.973 26.2634C15.3827 25.3607 14.3952 23.6657 14.3952 21.8396C14.3952 19.0376 16.6739 16.7575 19.4755 16.7575C22.2771 16.7575 24.5558 19.0376 24.5558 21.8396C24.5558 23.645 23.5848 25.3308 22.0219 26.2382C21.7759 26.3805 21.6413 26.6374 21.6392 26.9026C21.6387 26.9139 21.6361 26.9253 21.6361 26.9366C21.6361 26.9578 21.6408 26.9774 21.6423 26.998C21.6428 27.0016 21.6428 27.0052 21.6434 27.0083C21.68 27.4014 22.0069 27.7104 22.4096 27.7104H23.3518C24.8008 27.7104 25.9796 28.8896 25.9796 30.3396C25.9796 30.3669 25.9811 30.3948 25.9842 30.4226L26.8346 38.3093C26.8773 38.7055 27.2125 39 27.6029 39C27.6302 39 27.6586 38.9985 27.6869 38.9954C28.1113 38.9495 28.4187 38.5683 28.3728 38.1432L27.6024 30.9994L27.6457 30.5991C27.6488 30.5712 27.6503 30.5434 27.6503 30.5155C27.6503 29.5602 28.4274 28.7823 29.3824 28.7823H30.0523C30.0636 28.7823 30.0745 28.7792 30.0858 28.7787C30.0951 28.7792 30.1039 28.7823 30.1126 28.7823C30.3818 28.7823 30.6438 28.6415 30.7861 28.3902C30.997 28.0188 30.8665 27.5468 30.4953 27.3353C29.3871 26.7071 28.6992 25.5258 28.6992 24.2537C28.6992 22.3018 30.2864 20.7135 32.2382 20.7135C34.19 20.7135 35.7772 22.3018 35.7772 24.2537C35.7772 25.5113 35.1006 26.6859 34.0116 27.3183C33.7677 27.4607 33.6331 27.7155 33.6295 27.9786C33.6289 27.9884 33.6264 27.9982 33.6264 28.0085C33.6264 28.0271 33.6305 28.0446 33.632 28.0632C33.6331 28.0745 33.6336 28.0859 33.6351 28.0972C33.6795 28.4821 34.0028 28.7823 34.3999 28.7823H35.0939C36.0495 28.7823 36.8266 29.5602 36.8266 30.5155C36.8266 30.5434 36.8281 30.5712 36.8312 30.5991L37.4577 36.409C37.5005 36.8056 37.8352 37.0997 38.2256 37.0997C38.2534 37.0997 38.2813 37.0981 38.3091 37.095C38.734 37.0491 39.0414 36.6679 38.9955 36.2429Z" fill="#00807B"/>
<path fill-rule="evenodd" clip-rule="evenodd" d="M11.664 6.08315L10.0384 7.72542C8.61384 9.16491 8.61384 11.521 10.0384 12.9595L10.0399 12.9621C11.4639 14.3995 13.7952 14.3995 15.2182 12.961L18.8393 9.30113V9.30676C19.1438 9.05635 19.5799 9.05635 19.8849 9.30676H19.89L16.7714 6.15433C15.3656 4.73226 13.0997 4.70921 11.665 6.08366" fill="#00807B"/>
<path fill-rule="evenodd" clip-rule="evenodd" d="M28.9466 7.79707L22.1283 1.07227L22.1236 1.06822C22.0338 0.979108 21.9393 0.896579 21.8423 0.818101C20.389 -0.350462 18.2288 -0.266921 16.8766 1.06721C16.8525 1.0905 16.8294 1.11379 16.8078 1.13708L16.602 1.3396L11.7 6.17435H11.701C13.1548 4.81542 15.4505 4.8382 16.8756 6.24422L20.0363 9.36106L23.6976 12.9726C25.1411 14.3958 27.5026 14.3958 28.9472 12.9726C30.3917 11.5488 30.3902 9.2198 28.9466 7.79657" fill="#00B1AC"/>
</svg>
