<svg width="40" height="40" viewBox="0 0 40 40" fill="none" xmlns="http://www.w3.org/2000/svg">
<path fill-rule="evenodd" clip-rule="evenodd" d="M13.2661 13.1514C6.87001 13.1514 1.66667 18.3736 1.66667 24.793C1.66667 31.2124 6.87001 36.4346 13.2661 36.4346C19.6622 36.4346 24.8656 31.2124 24.8656 24.793C24.8656 18.3736 19.6622 13.1514 13.2661 13.1514ZM13.2661 38.1073C5.95111 38.1073 0 32.1346 0 24.793C0 17.4514 5.95111 11.4786 13.2661 11.4786C20.5811 11.4786 26.5322 17.4514 26.5322 24.793C26.5322 32.1346 20.5811 38.1073 13.2661 38.1073Z" fill="#00807B"/>
<path fill-rule="evenodd" clip-rule="evenodd" d="M26.2147 36.4345C19.8186 36.4345 14.6153 31.2123 14.6153 24.7929C14.6153 19.0638 18.7642 14.2988 24.2031 13.3386H26.2147H28.2264C33.6653 14.2988 37.8142 19.0638 37.8142 24.7929C37.8142 31.2123 32.6108 36.4345 26.2147 36.4345ZM23.5997 11.6659L20.6347 8.22565H22.0886L24.5247 11.5901C24.3519 11.6124 24.1803 11.6369 24.0097 11.6659H23.5997ZM22.4019 3.2727H23.5464L21.9875 6.55292H20.3275L22.4019 3.2727ZM32.1014 6.55292H29.8864L28.3275 3.2727H30.0275L32.1014 6.55292ZM27.7658 11.5728L29.8253 8.22565H31.7947L28.8297 11.6659H28.4192C28.2036 11.6296 27.9858 11.5984 27.7658 11.5728ZM24.5631 8.22565H27.8664L26.2147 10.9109L24.5631 8.22565ZM26.4808 3.2727L28.0397 6.55292H24.2592L25.4503 3.2727H26.2147H26.4808ZM30.5592 12.2151L34.2475 7.93682C34.3047 7.87047 34.3481 7.79632 34.3814 7.71881C34.3925 7.69261 34.3958 7.66584 34.4042 7.63908C34.4208 7.58611 34.4364 7.53258 34.4425 7.47627C34.4458 7.44449 34.4431 7.4127 34.4425 7.38036C34.4425 7.32907 34.4397 7.27888 34.4303 7.22815C34.4231 7.19413 34.4119 7.16124 34.4008 7.12778C34.3914 7.09935 34.3881 7.06924 34.3753 7.04136C34.3664 7.02184 34.3514 7.00679 34.3408 6.98783C34.3331 6.97278 34.3303 6.95605 34.3214 6.94099L31.1892 1.98861C31.0364 1.74662 30.7708 1.59998 30.4853 1.59998H26.2147H21.9436C21.6581 1.59998 21.3931 1.74662 21.2397 1.98861L18.1081 6.94099C18.1042 6.94657 18.1036 6.95382 18.1003 6.95995C18.0619 7.02352 18.0325 7.09321 18.0119 7.16681C18.0092 7.17796 18.0042 7.18856 18.0019 7.20027C17.9875 7.2616 17.9786 7.32405 17.9786 7.38929C17.9786 7.40322 17.9819 7.41605 17.9825 7.42999C17.9836 7.44672 17.9858 7.46288 17.9875 7.47905C17.9958 7.55656 18.0114 7.63072 18.0392 7.6993C18.0403 7.70264 18.0408 7.70599 18.0419 7.70878C18.0731 7.78405 18.1175 7.85207 18.1681 7.91508C18.1736 7.92121 18.1758 7.93013 18.1819 7.93682L21.8703 12.2151C16.6831 14.0261 12.9486 18.9779 12.9486 24.7929C12.9486 32.1345 18.8997 38.1073 26.2147 38.1073C33.5297 38.1073 39.4808 32.1345 39.4808 24.7929C39.4808 18.9779 35.7464 14.0261 30.5592 12.2151Z" fill="#00B1AC"/>
</svg>
