<?xml version="1.0" encoding="UTF-8"?>
<svg xmlns="http://www.w3.org/2000/svg" xmlns:xlink="http://www.w3.org/1999/xlink" id="Layer_1" data-name="Layer 1" viewBox="0 0 248.72 245.4">
  <defs>
    <style>
      .cls-1, .cls-2, .cls-3, .cls-4, .cls-5, .cls-6 {
        stroke-width: 0px;
      }

      .cls-1, .cls-2, .cls-3, .cls-5 {
        fill-rule: evenodd;
      }

      .cls-1, .cls-4 {
        fill: #fc3;
      }

      .cls-2 {
        fill: url(#linear-gradient);
      }

      .cls-3 {
        fill: url(#linear-gradient-2);
      }

      .cls-7 {
        opacity: .35;
      }

      .cls-5, .cls-6 {
        fill: #fff;
      }
    </style>
    <linearGradient id="linear-gradient" x1="126" y1="1314.41" x2="126" y2="1099.05" gradientTransform="translate(0 -1084)" gradientUnits="userSpaceOnUse">
      <stop offset=".03" stop-color="#0bc6c0"></stop>
      <stop offset=".33" stop-color="#00b1ac"></stop>
      <stop offset="1" stop-color="#00807b"></stop>
    </linearGradient>
    <linearGradient id="linear-gradient-2" x1="91.48" y1="1224.45" x2="31.93" y2="1258.83" gradientTransform="translate(0 -1084)" gradientUnits="userSpaceOnUse">
      <stop offset="0" stop-color="#c1e9e7"></stop>
      <stop offset="1" stop-color="#c1e9e7" stop-opacity=".35"></stop>
    </linearGradient>
  </defs>
  <path class="cls-2" d="M41,56.75c-14.6,18.9-22.6,42.1-22.6,66h62.7c0-24.8,20.1-44.9,44.9-44.9s44.9,20.1,44.9,44.9-20.1,44.9-44.9,44.9c-8.9,0-17.1-2.6-24.1-7l-33.6,53c20.2,12.8,44,18.5,67.8,16.3,23.8-2.2,46.1-12.3,63.6-28.7,17.4-16.4,28.9-38,32.6-61.6,3.7-23.6-.5-47.8-12-68.7-11.5-20.9-29.7-37.4-51.6-46.9-21.8-9.6-46.3-11.6-69.4-5.6-23.1,5.9-43.6,19.4-58.3,38.3h0Z"></path>
  <g class="cls-7">
    <path class="cls-5" d="M102,160.65c-5.9-3.8-11.1-9-14.8-15.5-4.1-7.1-6-14.8-6-22.5H18.5c0,18.1,4.6,36,13.3,51.9,8.7,15.9,21.3,29.3,36.7,39.1l33.5-53Z"></path>
    <path class="cls-3" d="M102,160.65c-5.9-3.8-11.1-9-14.8-15.5-4.1-7.1-6-14.8-6-22.5H18.5c0,18.1,4.6,36,13.3,51.9,8.7,15.9,21.3,29.3,36.7,39.1l33.5-53Z"></path>
  </g>
  <path class="cls-4" d="M4.3,130.75l-4.3-7.5h8.7s-4.4,7.5-4.4,7.5Z"></path>
  <path class="cls-1" d="M73.8,232.15l-.6,1.3h0c.4.2.9.4,1.3.6,23.7,11,50.2,14.1,75.8,8.9,26.1-5.3,49.7-18.9,67.4-38.7s28.4-45,30.6-71.5c2.2-26.5-4.3-53-18.5-75.5-14.1-22.5-35.2-39.8-60.1-49.3-24.9-9.4-52.1-10.5-77.7-3.1S44,27.75,28,48.95C12.3,69.85,3.7,95.15,3.4,121.15v1.5h1.5v-1.5h0v-1h0c.5-25.4,9-50,24.3-70.3C45,28.85,67.2,13.55,92.4,6.25,117.6-1.05,144.6.05,169.1,9.45c24.6,9.3,45.4,26.4,59.4,48.6s20.4,48.4,18.3,74.6c-2.2,26.2-12.8,51-30.2,70.6s-40.8,33.1-66.6,38.3c-25.2,5.1-51.4,2-74.7-8.7l-1.5-.7h0Z"></path>
  <g>
    <path class="cls-6" d="M116.19,112.64c1.4,1.63,2.1,3.96,2.1,7,0,2.14-.38,3.96-1.14,5.47s-1.82,2.66-3.19,3.45-2.95,1.18-4.75,1.18c-.95,0-1.85-.1-2.69-.31-.84-.21-1.57-.51-2.18-.91l1.27-2.66c.92.61,2.09.92,3.52.92,1.78,0,3.18-.56,4.18-1.68,1.01-1.12,1.51-2.74,1.51-4.86v-.03c-.55.65-1.24,1.15-2.09,1.48-.85.34-1.8.5-2.86.5-1.22,0-2.31-.24-3.28-.72-.97-.48-1.73-1.16-2.28-2.05-.55-.89-.82-1.91-.82-3.07,0-1.23.3-2.31.9-3.24.6-.93,1.41-1.65,2.43-2.16s2.17-.76,3.44-.76c2.54,0,4.51.81,5.92,2.44ZM113.25,118.5c.7-.62,1.05-1.39,1.05-2.34s-.34-1.69-1.02-2.29c-.68-.61-1.62-.91-2.82-.91-1.08,0-1.95.29-2.62.88-.67.59-1.01,1.37-1.01,2.35s.33,1.78,1.01,2.36c.67.58,1.57.87,2.7.87s2.02-.31,2.71-.92Z"></path>
    <path class="cls-6" d="M126.9,110.47v19.01h-3.44v-16.05h-3.92v-2.96h7.36Z"></path>
    <path class="cls-6" d="M131.5,119.26c-.81-.96-1.22-2.22-1.22-3.77s.41-2.81,1.22-3.77c.81-.96,1.88-1.44,3.2-1.44s2.4.48,3.22,1.43c.82.95,1.23,2.21,1.23,3.79s-.41,2.84-1.23,3.79c-.82.95-1.89,1.43-3.22,1.43s-2.39-.48-3.2-1.44ZM136.39,117.93c.4-.58.6-1.39.6-2.44s-.2-1.86-.6-2.44c-.4-.58-.96-.87-1.68-.87s-1.24.29-1.65.88c-.41.59-.62,1.4-.62,2.43s.21,1.84.62,2.43c.42.59.97.88,1.65.88.72,0,1.28-.29,1.68-.87ZM145.82,110.47h2.59l-12.65,19.01h-2.59l12.65-19.01ZM143.65,128.22c-.81-.96-1.22-2.22-1.22-3.77s.41-2.81,1.22-3.77,1.88-1.44,3.2-1.44,2.39.48,3.21,1.44c.82.96,1.23,2.22,1.23,3.77s-.41,2.81-1.23,3.77c-.82.96-1.89,1.44-3.21,1.44s-2.39-.48-3.2-1.44ZM148.52,126.88c.41-.59.61-1.4.61-2.43s-.2-1.84-.61-2.43c-.41-.59-.96-.88-1.67-.88s-1.26.29-1.67.87-.61,1.39-.61,2.44.2,1.86.61,2.44c.41.58.96.87,1.67.87s1.26-.29,1.67-.88Z"></path>
  </g>
</svg>
