<svg width="24" height="24" viewBox="0 0 24 24" fill="none" xmlns="http://www.w3.org/2000/svg">
<path d="M12 13.2L6.825 18.375C6.65833 18.5417 6.45833 18.625 6.225 18.625C5.99167 18.625 5.79167 18.5417 5.625 18.375C5.45833 18.2083 5.375 18.0083 5.375 17.775C5.375 17.5417 5.45833 17.3417 5.625 17.175L10.8 12L5.625 6.825C5.45833 6.65833 5.375 6.45833 5.375 6.225C5.375 5.99167 5.45833 5.79167 5.625 5.625C5.79167 5.45833 5.99167 5.375 6.225 5.375C6.45833 5.375 6.65833 5.45833 6.825 5.625L12 10.8L17.175 5.625C17.3417 5.45833 17.5417 5.375 17.775 5.375C18.0083 5.375 18.2083 5.45833 18.375 5.625C18.5417 5.79167 18.625 5.99167 18.625 6.225C18.625 6.45833 18.5417 6.65833 18.375 6.825L13.2 12L18.375 17.175C18.5417 17.3417 18.625 17.5417 18.625 17.775C18.625 18.0083 18.5417 18.2083 18.375 18.375C18.2083 18.5417 18.0083 18.625 17.775 18.625C17.5417 18.625 17.3417 18.5417 17.175 18.375L12 13.2Z" fill="#6E6E6E"/>
</svg>
