<svg width="1440" height="584" viewBox="0 0 1440 584" fill="none" xmlns="http://www.w3.org/2000/svg">
<g clip-path="url(#clip0_749_43348)">
<rect width="1440" height="584" fill="url(#paint0_linear_749_43348)"/>
<g opacity="0.25">
<path d="M1782.9 -127.668C1782.9 -127.668 1590.26 64.4515 1531.63 110.56C1473 156.669 1414.37 156.669 1355.74 110.56C1297.11 64.4515 1096.1 -127.668 1096.1 -127.668" stroke="#E7E7E7" stroke-width="3"/>
<path d="M1738.67 -127.668C1738.67 -127.668 1570.19 41.4627 1518.91 82.054C1467.64 122.645 1416.36 122.645 1365.08 82.054C1313.81 41.4627 1138 -127.668 1138 -127.668" stroke="#E7E7E7" stroke-width="3"/>
<path d="M1694.43 -127.668C1694.43 -127.668 1550.77 16.832 1507.05 51.512C1463.32 86.1919 1419.6 86.192 1375.87 51.512C1332.15 16.832 1182.24 -127.668 1182.24 -127.668" stroke="#E7E7E7" stroke-width="3"/>
<path d="M1654.85 -127.668C1654.85 -127.668 1534.05 -6.15683 1497.28 23.0059C1460.51 52.1686 1423.74 52.1686 1386.97 23.0059C1350.21 -6.15686 1224.15 -127.668 1224.15 -127.668" stroke="#E7E7E7" stroke-width="3"/>
<path d="M1610.62 -127.668C1610.62 -127.668 1514.63 -30.7873 1485.41 -7.53594C1456.19 15.7154 1426.98 15.7154 1397.76 -7.53594C1368.55 -30.7873 1268.38 -127.668 1268.38 -127.668" stroke="#E7E7E7" stroke-width="3"/>
<path d="M1824.81 -127.668C1824.81 -127.668 1608.66 89.082 1542.88 141.102C1477.09 193.122 1411.31 193.122 1345.52 141.102C1279.74 89.0819 1054.19 -127.668 1054.19 -127.668" stroke="#E7E7E7" stroke-width="3"/>
<path d="M1866.72 -127.668C1866.72 -127.668 1627.06 113.713 1554.12 171.644C1481.18 229.576 1408.24 229.576 1335.3 171.644C1262.36 113.713 1012.28 -127.668 1012.28 -127.668" stroke="#E7E7E7" stroke-width="3"/>
<path d="M1908.62 -130C1908.62 -130 1645.46 134.37 1565.36 197.819C1485.27 261.267 1405.17 261.267 1325.08 197.819C1244.99 134.37 970.376 -130 970.376 -130" stroke="#E7E7E7" stroke-width="3"/>
<path d="M1952.86 -130C1952.86 -130 1664.88 159.001 1577.23 228.361C1489.58 297.721 1401.94 297.721 1314.29 228.361C1226.64 159.001 926.142 -130 926.142 -130" stroke="#E7E7E7" stroke-width="3"/>
<path d="M1997.09 -130C1997.09 -130 1684.3 183.631 1589.1 258.902C1493.9 334.174 1398.7 334.174 1303.5 258.902C1208.3 183.631 881.907 -130 881.907 -130" stroke="#E7E7E7" stroke-width="3"/>
<path d="M2039 -130C2039 -130 1702.7 206.62 1600.34 287.408C1497.99 368.197 1395.63 368.197 1293.28 287.408C1190.93 206.62 840 -130 840 -130" stroke="#E7E7E7" stroke-width="3"/>
</g>
<g opacity="0.25">
<path d="M-343.903 610.668C-343.903 610.668 -151.262 418.548 -92.6324 372.44C-34.0027 326.331 24.6271 326.331 83.2568 372.44C141.887 418.549 342.903 610.668 342.903 610.668" stroke="#E7E7E7" stroke-width="3"/>
<path d="M-299.668 610.668C-299.668 610.668 -131.189 441.537 -79.9128 400.946C-28.6366 360.355 22.6396 360.355 73.9158 400.946C125.192 441.537 300.996 610.668 300.996 610.668" stroke="#E7E7E7" stroke-width="3"/>
<path d="M-255.433 610.668C-255.433 610.668 -111.769 466.168 -68.045 431.488C-24.3211 396.808 19.4028 396.808 63.1267 431.488C106.851 466.168 256.761 610.668 256.761 610.668" stroke="#E7E7E7" stroke-width="3"/>
<path d="M-215.854 610.668C-215.854 610.668 -95.0459 489.157 -58.2781 459.994C-21.5103 430.831 15.2575 430.831 52.0253 459.994C88.7931 489.157 214.854 610.668 214.854 610.668" stroke="#E7E7E7" stroke-width="3"/>
<path d="M-171.62 610.668C-171.62 610.668 -75.6258 513.787 -46.4103 490.536C-17.1948 467.285 12.0207 467.285 41.2362 490.536C70.4517 513.787 170.619 610.668 170.619 610.668" stroke="#E7E7E7" stroke-width="3"/>
<path d="M-129.712 610.668C-129.712 610.668 -57.2273 538.418 -35.1666 521.078C-13.1059 503.738 8.95481 503.738 31.0155 521.078C53.0762 538.418 128.713 610.668 128.713 610.668" stroke="#E7E7E7" stroke-width="3"/>
<path d="M-85.478 610.668C-85.478 610.668 -37.8076 561.407 -23.2993 549.584C-8.79087 537.761 5.71751 537.761 20.2259 549.584C34.7343 561.407 84.4773 610.668 84.4773 610.668" stroke="#E7E7E7" stroke-width="3"/>
<path d="M-41.2427 610.668C-41.2427 610.668 -18.387 586.038 -11.4309 580.126C-4.47484 574.215 2.48124 574.215 9.43731 580.126C16.3934 586.038 40.2428 610.668 40.2428 610.668" stroke="#E7E7E7" stroke-width="3"/>
<path d="M-385.81 610.668C-385.81 610.668 -169.66 393.918 -103.876 341.898C-38.091 289.878 27.6936 289.878 93.4782 341.898C159.263 393.918 384.81 610.668 384.81 610.668" stroke="#E7E7E7" stroke-width="3"/>
<path d="M-427.716 610.668C-427.716 610.668 -188.058 369.287 -115.119 311.356C-42.1795 253.424 30.7599 253.424 103.699 311.356C176.639 369.287 426.717 610.668 426.717 610.668" stroke="#E7E7E7" stroke-width="3"/>
<path d="M-469.624 613C-469.624 613 -206.457 348.63 -126.363 285.181C-46.2684 221.733 33.8259 221.733 113.92 285.181C194.014 348.63 468.623 613 468.623 613" stroke="#E7E7E7" stroke-width="3"/>
<path d="M-513.858 613C-513.858 613 -225.877 323.999 -138.23 254.639C-50.5839 185.279 37.0626 185.279 124.709 254.639C212.356 323.999 512.858 613 512.858 613" stroke="#E7E7E7" stroke-width="3"/>
<path d="M-558.093 613C-558.093 613 -245.297 299.369 -150.098 224.098C-54.8994 148.826 40.2995 148.826 135.498 224.098C230.697 299.369 557.093 613 557.093 613" stroke="#E7E7E7" stroke-width="3"/>
<path d="M-600 613C-600 613 -263.695 276.38 -161.341 195.591C-58.9878 114.803 43.3658 114.803 145.719 195.591C248.073 276.38 599 613 599 613" stroke="#E7E7E7" stroke-width="3"/>
</g>
</g>
<defs>
<linearGradient id="paint0_linear_749_43348" x1="720" y1="0" x2="720" y2="584" gradientUnits="userSpaceOnUse">
<stop offset="0.479167" stop-color="#F3F3F3" stop-opacity="0"/>
<stop offset="1" stop-color="#F3F3F3"/>
</linearGradient>
<clipPath id="clip0_749_43348">
<rect width="1440" height="584" fill="white"/>
</clipPath>
</defs>
</svg>
