<?xml version="1.0" encoding="utf-8"?>
<!-- Generator: Adobe Illustrator 26.4.0, SVG Export Plug-In . SVG Version: 6.00 Build 0)  -->
<svg version="1.1" id="Layer_1" xmlns="http://www.w3.org/2000/svg" xmlns:xlink="http://www.w3.org/1999/xlink" x="0px" y="0px"
	 viewBox="0 0 1440 416" style="enable-background:new 0 0 1440 416;" xml:space="preserve">
<style type="text/css">
	.st0{clip-path:url(#SVGID_00000075128324364026563950000006537841984218782092_);}
	.st1{fill:#C1E9E7;}
	.st2{fill:url(#SVGID_00000040556082377949784520000002247435682344119193_);}
	.st3{opacity:0.25;}
	.st4{fill:none;stroke:#FFFFFF;stroke-width:3;}
</style>
<g>
	<defs>
		<rect id="SVGID_1_" width="1440" height="416"/>
	</defs>
	<clipPath id="SVGID_00000165219411099558764940000004127144295823630510_">
		<use xlink:href="#SVGID_1_"  style="overflow:visible;"/>
	</clipPath>
	<g style="clip-path:url(#SVGID_00000165219411099558764940000004127144295823630510_);">
		<rect class="st1" width="1440" height="416"/>
		
			<radialGradient id="SVGID_00000114789061118690816350000006957605775936510879_" cx="470.06" cy="458.7945" r="1.0002" gradientTransform="matrix(4.185230e-14 683.5 2288.97 -1.401590e-13 -1049446.75 -321186.5)" gradientUnits="userSpaceOnUse">
			<stop  offset="0.1615" style="stop-color:#C1E9E7"/>
			<stop  offset="1" style="stop-color:#00B1AC"/>
		</radialGradient>
		<path style="fill:url(#SVGID_00000114789061118690816350000006957605775936510879_);" d="M0,0h1440v416H0V0z"/>
		<g class="st3">
			<path class="st4" d="M1127.1,499.7c0,0,192.6-192.1,251.3-238.2c58.6-46.1,117.3-46.1,175.9,0s259.6,238.2,259.6,238.2"/>
			<path class="st4" d="M1171.3,499.7c0,0,168.5-169.1,219.8-209.7c51.3-40.6,102.6-40.6,153.8,0c51.3,40.6,227.1,209.7,227.1,209.7
				"/>
			<path class="st4" d="M1215.6,499.7c0,0,143.7-144.5,187.4-179.2c43.7-34.7,87.5-34.7,131.2,0c43.7,34.7,193.6,179.2,193.6,179.2"
				/>
			<path class="st4" d="M1255.2,499.7c0,0,120.8-121.5,157.6-150.7c36.8-29.2,73.5-29.2,110.3,0c36.8,29.2,162.8,150.7,162.8,150.7"
				/>
			<path class="st4" d="M1299.4,499.7c0,0,96-96.9,125.2-120.1c29.2-23.3,58.4-23.3,87.7,0c29.2,23.3,129.4,120.1,129.4,120.1"/>
			<path class="st4" d="M1341.3,499.7c0,0,72.5-72.2,94.5-89.6c22.1-17.3,44.1-17.3,66.2,0c22.1,17.3,97.7,89.6,97.7,89.6"/>
			<path class="st4" d="M1085.2,499.7c0,0,216.2-216.8,281.9-268.8c65.8-52,131.6-52,197.4,0c65.8,52,291.3,268.8,291.3,268.8"/>
			<path class="st4" d="M1043.3,499.7c0,0,239.7-241.4,312.6-299.3c72.9-57.9,145.9-57.9,218.8,0c72.9,57.9,323,299.3,323,299.3"/>
			<path class="st4" d="M1001.4,502c0,0,263.2-264.4,343.3-327.8c80.1-63.4,160.2-63.4,240.3,0C1665,237.6,1939.6,502,1939.6,502"/>
			<path class="st4" d="M957.1,502c0,0,288-289,375.6-358.4c87.7-69.4,175.3-69.4,262.9,0C1683.4,213,1983.9,502,1983.9,502"/>
			<path class="st4" d="M912.9,502c0,0,312.8-313.6,408-388.9c95.2-75.3,190.4-75.3,285.6,0c95.2,75.3,421.6,388.9,421.6,388.9"/>
			<path class="st4" d="M871,502c0,0,336.3-336.6,438.7-417.4c102.3-80.8,204.7-80.8,307.1,0C1719.1,165.4,2070,502,2070,502"/>
		</g>
		<g class="st3">
			<path class="st4" d="M1723.9-238.7c0,0-192.6,192.1-251.3,238.2s-117.3,46.1-175.9,0s-259.6-238.2-259.6-238.2"/>
			<path class="st4" d="M1679.7-238.7c0,0-168.5,169.1-219.8,209.7c-51.3,40.6-102.6,40.6-153.8,0
				C1254.8-69.5,1079-238.7,1079-238.7"/>
			<path class="st4" d="M1765.8-238.7c0,0-216.2,216.8-281.9,268.8c-65.8,52-131.6,52-197.4,0c-65.8-52-291.3-268.8-291.3-268.8"/>
			<path class="st4" d="M1807.7-238.7c0,0-239.7,241.4-312.6,299.3c-72.9,57.9-145.9,57.9-218.8,0c-72.9-57.9-323-299.3-323-299.3"
				/>
			<path class="st4" d="M1849.6-241c0,0-263.2,264.4-343.3,327.8c-80.1,63.4-160.2,63.4-240.3,0C1186,23.4,911.4-241,911.4-241"/>
			<path class="st4" d="M1893.9-241c0,0-288,289-375.6,358.4c-87.7,69.4-175.3,69.4-262.9,0C1167.6,48,867.1-241,867.1-241"/>
			<path class="st4" d="M1938.1-241c0,0-312.8,313.6-408,388.9c-95.2,75.3-190.4,75.3-285.6,0C1149.3,72.6,822.9-241,822.9-241"/>
			<path class="st4" d="M1980-241c0,0-336.3,336.6-438.7,417.4c-102.3,80.8-204.7,80.8-307.1,0C1131.9,95.6,781-241,781-241"/>
		</g>
		<g class="st3">
			<path class="st4" d="M-365.9,499.7c0,0,192.6-192.1,251.3-238.2c58.6-46.1,117.3-46.1,175.9,0c58.6,46.1,259.6,238.2,259.6,238.2
				"/>
			<path class="st4" d="M-321.7,499.7c0,0,168.5-169.1,219.8-209.7c51.3-40.6,102.6-40.6,153.8,0C103.2,330.5,279,499.7,279,499.7"
				/>
			<path class="st4" d="M-277.4,499.7c0,0,143.7-144.5,187.4-179.2s87.4-34.7,131.2,0s193.6,179.2,193.6,179.2"/>
			<path class="st4" d="M-237.9,499.7c0,0,120.8-121.5,157.6-150.7c36.8-29.2,73.5-29.2,110.3,0c36.8,29.2,162.8,150.7,162.8,150.7"
				/>
			<path class="st4" d="M-193.6,499.7c0,0,96-96.9,125.2-120.1c29.2-23.3,58.4-23.3,87.6,0c29.2,23.3,129.4,120.1,129.4,120.1"/>
			<path class="st4" d="M-151.7,499.7c0,0,72.5-72.2,94.5-89.6s44.1-17.3,66.2,0c22.1,17.3,97.7,89.6,97.7,89.6"/>
			<path class="st4" d="M-407.8,499.7c0,0,216.1-216.8,281.9-268.8c65.8-52,131.6-52,197.4,0c65.8,52,291.3,268.8,291.3,268.8"/>
			<path class="st4" d="M-449.7,499.7c0,0,239.7-241.4,312.6-299.3c72.9-57.9,145.9-57.9,218.8,0c72.9,57.9,323,299.3,323,299.3"/>
			<path class="st4" d="M-491.6,502c0,0,263.2-264.4,343.3-327.8c80.1-63.4,160.2-63.4,240.3,0C172,237.6,446.6,502,446.6,502"/>
			<path class="st4" d="M-535.9,502c0,0,288-289,375.6-358.4c87.6-69.4,175.3-69.4,262.9,0C190.4,213,490.9,502,490.9,502"/>
			<path class="st4" d="M-580.1,502c0,0,312.8-313.6,408-388.9c95.2-75.3,190.4-75.3,285.6,0C208.7,188.4,535.1,502,535.1,502"/>
			<path class="st4" d="M-622,502c0,0,336.3-336.6,438.7-417.4C-81,3.8,21.4,3.8,123.7,84.6C226.1,165.4,577,502,577,502"/>
		</g>
		<g class="st3">
			<path class="st4" d="M390.9-238.7c0,0-192.6,192.1-251.3,238.2C81,45.7,22.4,45.7-36.3-0.4c-58.6-46.1-259.6-238.2-259.6-238.2"
				/>
			<path class="st4" d="M346.7-238.7c0,0-168.5,169.1-219.8,209.7c-51.3,40.6-102.6,40.6-153.8,0C-78.2-69.5-254-238.7-254-238.7"/>
			<path class="st4" d="M432.8-238.7c0,0-216.1,216.8-281.9,268.8c-65.8,52-131.6,52-197.4,0c-65.8-52-291.3-268.8-291.3-268.8"/>
			<path class="st4" d="M474.7-238.7c0,0-239.7,241.4-312.6,299.3c-72.9,57.9-145.9,57.9-218.8,0c-72.9-57.9-323-299.3-323-299.3"/>
			<path class="st4" d="M516.6-241c0,0-263.2,264.4-343.3,327.8c-80.1,63.4-160.2,63.4-240.3,0C-147,23.4-421.6-241-421.6-241"/>
			<path class="st4" d="M560.9-241c0,0-288,289-375.6,358.4c-87.6,69.4-175.3,69.4-262.9,0C-165.4,48-465.9-241-465.9-241"/>
			<path class="st4" d="M605.1-241c0,0-312.8,313.6-408,388.9c-95.2,75.3-190.4,75.3-285.6,0C-183.7,72.6-510.1-241-510.1-241"/>
			<path class="st4" d="M647-241c0,0-336.3,336.6-438.7,417.4c-102.4,80.8-204.7,80.8-307.1,0C-201.1,95.6-552-241-552-241"/>
		</g>
	</g>
</g>
</svg>
