<svg xmlns="http://www.w3.org/2000/svg" xmlns:xlink="http://www.w3.org/1999/xlink" viewBox="0 0 197.36 134.35"><defs><style>      .st0 {        fill: #d3dbf9;        mix-blend-mode: multiply;      }      .st1 {        fill: #a0aaba;      }      .st2 {        fill: url(#linear-gradient2);      }      .st3 {        fill: url(#linear-gradient1);      }      .st4 {        fill: url(#linear-gradient9);      }      .st5 {        fill: url(#linear-gradient3);      }      .st6 {        fill: url(#linear-gradient6);      }      .st7 {        fill: url(#linear-gradient8);      }      .st8 {        fill: url(#linear-gradient7);      }      .st9 {        fill: url(#linear-gradient5);      }      .st10 {        fill: url(#linear-gradient4);      }      .st11 {        fill: #e6e6e6;      }      .st12 {        fill: url(#linear-gradient18);      }      .st13 {        fill: url(#linear-gradient13);      }      .st14 {        fill: url(#linear-gradient12);      }      .st15 {        fill: url(#linear-gradient15);      }      .st16 {        fill: url(#linear-gradient16);      }      .st17 {        fill: url(#linear-gradient11);      }      .st18 {        fill: url(#linear-gradient10);      }      .st19 {        fill: url(#linear-gradient17);      }      .st20 {        fill: url(#linear-gradient14);      }      .st21 {        fill: url(#linear-gradient19);      }      .st22 {        fill: url(#linear-gradient23);      }      .st23 {        fill: url(#linear-gradient22);      }      .st24 {        fill: url(#linear-gradient24);      }      .st25 {        fill: url(#linear-gradient21);      }      .st26 {        fill: url(#linear-gradient20);      }      .st27 {        fill: #534841;      }      .st28 {        fill: #4caeab;      }      .st29 {        fill: url(#linear-gradient);      }      .st30 {        fill: #c79247;      }      .st31 {        isolation: isolate;      }      .st32 {        fill: #dedede;      }      .st33 {        fill: #fff;      }      .st34 {        fill: #8fffe9;      }      .st35 {        fill: #994242;      }      .st36 {        fill: #8a8a8a;      }      .st37 {        fill: #b3b3b3;      }      .st38 {        fill: #4ec4b0;      }      .st39 {        fill: #6d3232;      }      .st40 {        fill: #e85d5d;      }      .st41 {        fill: #ffd96e;      }    </style><linearGradient id="linear-gradient" x1="162.9" y1="105.26" x2="190.26" y2="105.26" gradientUnits="userSpaceOnUse"><stop offset="0" stop-color="#ebf4ff"></stop><stop offset=".49" stop-color="#f1f7ff"></stop><stop offset="1" stop-color="#fff"></stop></linearGradient><linearGradient id="linear-gradient1" x1="181.96" y1="91.44" x2="157.32" y2="107.09" gradientUnits="userSpaceOnUse"><stop offset="0" stop-color="#cfd7e0"></stop><stop offset=".38" stop-color="#c8d0dd"></stop><stop offset=".94" stop-color="#b4bfd5"></stop><stop offset="1" stop-color="#b2bdd4"></stop></linearGradient><linearGradient id="linear-gradient2" x1="183.74" y1="94.25" x2="159.1" y2="109.89" xlink:href="#linear-gradient1"></linearGradient><linearGradient id="linear-gradient3" x1="185.56" y1="97.12" x2="160.92" y2="112.76" xlink:href="#linear-gradient1"></linearGradient><linearGradient id="linear-gradient4" x1="187.16" y1="99.64" x2="162.52" y2="115.28" xlink:href="#linear-gradient1"></linearGradient><linearGradient id="linear-gradient5" x1="188.76" y1="102.16" x2="164.12" y2="117.81" xlink:href="#linear-gradient1"></linearGradient><linearGradient id="linear-gradient6" x1="190.37" y1="104.69" x2="165.73" y2="120.33" xlink:href="#linear-gradient1"></linearGradient><linearGradient id="linear-gradient7" x1="191.97" y1="107.22" x2="167.33" y2="122.86" xlink:href="#linear-gradient1"></linearGradient><linearGradient id="linear-gradient8" x1="8.9" y1="97.3" x2="36.31" y2="118.9" xlink:href="#linear-gradient"></linearGradient><linearGradient id="linear-gradient9" x1="-167.11" y1="93.69" x2="-191.75" y2="109.33" gradientTransform="translate(-148.76) rotate(-180) scale(1 -1)" xlink:href="#linear-gradient1"></linearGradient><linearGradient id="linear-gradient10" x1="-165.33" y1="96.49" x2="-189.97" y2="112.14" gradientTransform="translate(-148.76) rotate(-180) scale(1 -1)" xlink:href="#linear-gradient1"></linearGradient><linearGradient id="linear-gradient11" x1="-163.51" y1="99.36" x2="-188.15" y2="115.01" gradientTransform="translate(-148.76) rotate(-180) scale(1 -1)" xlink:href="#linear-gradient1"></linearGradient><linearGradient id="linear-gradient12" x1="-161.91" y1="101.88" x2="-186.55" y2="117.52" gradientTransform="translate(-148.76) rotate(-180) scale(1 -1)" xlink:href="#linear-gradient1"></linearGradient><linearGradient id="linear-gradient13" x1="-160.31" y1="104.41" x2="-184.95" y2="120.05" gradientTransform="translate(-148.76) rotate(-180) scale(1 -1)" xlink:href="#linear-gradient1"></linearGradient><linearGradient id="linear-gradient14" x1="-158.7" y1="106.93" x2="-183.34" y2="122.58" gradientTransform="translate(-148.76) rotate(-180) scale(1 -1)" xlink:href="#linear-gradient1"></linearGradient><linearGradient id="linear-gradient15" x1="-157.1" y1="109.46" x2="-181.74" y2="125.1" gradientTransform="translate(-148.76) rotate(-180) scale(1 -1)" xlink:href="#linear-gradient1"></linearGradient><linearGradient id="linear-gradient16" x1="18.71" y1="26.84" x2="46.07" y2="26.84" xlink:href="#linear-gradient"></linearGradient><linearGradient id="linear-gradient17" x1="37.76" y1="13.02" x2="13.12" y2="28.67" xlink:href="#linear-gradient1"></linearGradient><linearGradient id="linear-gradient18" x1="39.55" y1="15.83" x2="14.91" y2="31.47" xlink:href="#linear-gradient1"></linearGradient><linearGradient id="linear-gradient19" x1="41.37" y1="18.7" x2="16.73" y2="34.34" xlink:href="#linear-gradient1"></linearGradient><linearGradient id="linear-gradient20" x1="42.96" y1="21.22" x2="18.32" y2="36.86" xlink:href="#linear-gradient1"></linearGradient><linearGradient id="linear-gradient21" x1="44.57" y1="23.74" x2="19.93" y2="39.39" xlink:href="#linear-gradient1"></linearGradient><linearGradient id="linear-gradient22" x1="46.17" y1="26.27" x2="21.53" y2="41.91" xlink:href="#linear-gradient1"></linearGradient><linearGradient id="linear-gradient23" x1="47.78" y1="28.8" x2="23.14" y2="44.44" xlink:href="#linear-gradient1"></linearGradient><linearGradient id="linear-gradient24" x1="180.63" y1="40.88" x2="150.73" y2="24.45" gradientUnits="userSpaceOnUse"><stop offset="0" stop-color="#f7fbff"></stop><stop offset=".21" stop-color="#f0f4fa"></stop><stop offset=".52" stop-color="#dce3ee"></stop><stop offset=".89" stop-color="#bcc6da"></stop><stop offset="1" stop-color="#b2bdd4"></stop></linearGradient></defs><g class="st31"><g id="Layer_1"><g><path class="st32" d="M196.61,68.61l-2.12.15c-.2-.93-.45-1.87-.74-2.79l2.1-.22c.29.94.54,1.9.75,2.86Z"></path><path class="st32" d="M194.86,62.92l-2.08.28c-.37-.92-.78-1.84-1.22-2.74l2.05-.34c.45.92.87,1.86,1.25,2.8Z"></path><path class="st32" d="M192.12,57.36l-2.02.4c-.53-.89-1.1-1.78-1.7-2.65l1.98-.46c.61.89,1.2,1.8,1.74,2.71Z"></path><path class="st32" d="M188.41,51.99l-1.94.51c-.68-.85-1.41-1.71-2.16-2.54l1.89-.57c.77.85,1.51,1.72,2.21,2.6Z"></path><path class="st32" d="M183.77,46.87l-1.84.63c-.83-.81-1.7-1.61-2.59-2.4l1.78-.68c.91.8,1.81,1.62,2.65,2.45Z"></path><path class="st32" d="M178.26,42.06l-1.72.73c-.96-.75-1.97-1.5-3-2.23l1.65-.78c1.06.74,2.09,1.51,3.07,2.28Z"></path><path class="st32" d="M171.93,37.59l-1.58.83c-1.09-.7-2.22-1.38-3.37-2.05l-.15-.09,1.51-.87.15.09c1.17.68,2.33,1.38,3.45,2.09Z"></path><path class="st32" d="M163.28,34.34c-1.21-.63-2.46-1.25-3.72-1.84l1.35-.96c1.28.6,2.56,1.23,3.8,1.88l-1.43.92Z"></path><path class="st32" d="M155.69,30.78c-1.3-.55-2.66-1.09-4.02-1.61l1.17-1.03c1.39.53,2.77,1.08,4.11,1.65l-1.26.99Z"></path><path class="st32" d="M147.52,27.67c-1.4-.48-2.84-.94-4.28-1.37l.98-1.09c1.47.44,2.94.91,4.38,1.4l-1.08,1.06Z"></path><path class="st32" d="M138.84,25.07c-1.47-.39-2.99-.76-4.49-1.11l.79-1.14c1.54.35,3.08.73,4.59,1.13l-.89,1.12Z"></path><path class="st32" d="M129.77,22.99c-1.53-.3-3.1-.58-4.66-.84l.58-1.18c1.6.26,3.21.55,4.77.86l-.68,1.17Z"></path><path class="st32" d="M120.37,21.45c-1.58-.21-3.19-.4-4.79-.56l.37-1.21c1.63.17,3.28.36,4.9.57l-.48,1.2Z"></path><path class="st32" d="M110.75,20.47c-1.61-.12-3.25-.21-4.87-.28l.16-1.23c1.65.07,3.33.17,4.97.29l-.27,1.22Z"></path><path class="st32" d="M91.22,20.2c-1.62.07-3.25.17-4.87.29l-.27-1.22c1.65-.12,3.32-.22,4.98-.29l.16,1.23Z"></path><path class="st32" d="M2.86,68.8l-2.12-.15c.21-.95.46-1.91.75-2.85l2.1.21c-.28.92-.53,1.86-.73,2.79Z"></path><path class="st32" d="M81.51,20.92c-1.6.17-3.21.36-4.8.57l-.48-1.2c1.62-.22,3.27-.41,4.9-.58l.38,1.21Z"></path><path class="st32" d="M4.57,63.25l-2.08-.28c.37-.93.79-1.87,1.24-2.79l2.05.34c-.44.9-.85,1.82-1.22,2.73Z"></path><path class="st32" d="M71.97,22.2c-1.56.26-3.13.54-4.67.85l-.69-1.17c1.57-.31,3.18-.6,4.78-.87l.59,1.18Z"></path><path class="st32" d="M7.24,57.82l-2.02-.4c.53-.91,1.11-1.82,1.72-2.7l1.98.45c-.6.87-1.17,1.76-1.69,2.65Z"></path><path class="st32" d="M62.71,24.03c-1.51.35-3.02.73-4.5,1.12l-.89-1.12c1.51-.4,3.06-.79,4.6-1.14l.79,1.14Z"></path><path class="st32" d="M10.84,52.58l-1.94-.51c.69-.87,1.43-1.74,2.2-2.59l1.89.57c-.75.83-1.47,1.69-2.15,2.54Z"></path><path class="st32" d="M53.81,26.41c-1.43.43-2.87.9-4.27,1.38l-1.09-1.06c1.43-.49,2.9-.96,4.37-1.41l.99,1.09Z"></path><path class="st32" d="M15.36,47.58l-1.84-.62c.84-.83,1.73-1.65,2.64-2.45l1.78.68c-.89.78-1.76,1.59-2.58,2.4Z"></path><path class="st32" d="M45.39,29.28c-1.35.52-2.7,1.06-4.01,1.62l-1.27-.99c1.34-.57,2.72-1.13,4.1-1.66l1.18,1.03Z"></path><path class="st32" d="M20.74,42.86l-1.72-.73c.98-.77,2.01-1.54,3.06-2.28l1.65.78c-1.03.73-2.03,1.48-2.99,2.23Z"></path><path class="st32" d="M37.53,32.64c-1.26.6-2.5,1.22-3.7,1.85l-1.43-.91c1.23-.64,2.5-1.28,3.78-1.89l1.35.95Z"></path><path class="st32" d="M26.92,38.48l-1.58-.82c1.11-.71,2.27-1.42,3.44-2.09l1.51.87c-1.15.66-2.28,1.35-3.37,2.05Z"></path></g><path class="st0" d="M91.22,125.74L22.3,88.63c-1.5-.87-1.5-3.03,0-3.9l71.2-41.11c.7-.4,1.56-.4,2.25,0l73.09,39.52c1.5.87,1.5,3.03,0,3.9l-67.03,38.7c-3.28,1.89-7.32,1.89-10.59,0Z"></path><path class="st28" d="M90.98,118.62L22.05,81.51c-1.5-.87-1.5-3.03,0-3.9l71.2-41.11c.7-.4,1.56-.4,2.25,0l73.09,39.52c1.5.87,1.5,3.03,0,3.9l-67.03,38.7c-3.28,1.89-7.32,1.89-10.59,0Z"></path><g><polygon class="st33" points="129.02 61.8 127.94 69.32 129.02 76.11 129.77 77.4 130.8 77.14 132.58 69.94 130.8 62.74 129.02 61.8 129.02 61.8"></polygon><polygon class="st40" points="129.02 76.11 129.02 84.34 130.8 85.37 131.58 80.8 130.8 77.14 129.02 76.11 129.02 76.11"></polygon><polygon class="st27" points="114.76 69.94 114.76 92.57 129.02 84.34 129.02 61.71 114.76 69.94 114.76 69.94"></polygon><path class="st41" d="M125.43,75.85c.12-.21.29-.39.47-.5.18-.11.35-.12.47-.05l.89.51-.94,1.64-.89-.51c-.12-.07-.2-.22-.2-.43s.07-.45.2-.66h0Z"></path><path class="st30" d="M126.79,75.87c.18-.11.35-.12.47-.05.12.07.2.22.2.43s-.07.45-.2.66c-.12.21-.29.39-.47.5-.18.11-.35.12-.47.05-.12-.07-.2-.22-.2-.43s.08-.45.2-.66c.12-.21.29-.39.47-.5h0Z"></path><polygon class="st38" points="68.44 55.54 67.67 64.83 68.44 72 74.41 76.22 82.69 80.22 82.69 63.77 68.44 55.54 68.44 55.54"></polygon><polygon class="st34" points="77.35 79.2 66.66 73.02 66.66 60.68 77.35 79.2 77.35 79.2"></polygon><polygon class="st34" points="77.35 60.68 75.57 59.65 82.69 72 82.69 69.94 77.35 60.68 77.35 60.68"></polygon><polygon class="st11" points="68.44 72 67.49 71.47 66.66 73.02 72.34 77.82 80.91 81.25 82.69 80.22 68.44 72 68.44 72"></polygon><polygon class="st37" points="66.66 56.57 65.26 65.68 66.66 73.02 68.44 72 68.44 55.54 66.66 56.57 66.66 56.57"></polygon><path class="st33" d="M73.78,35.99l-21.38,12.34v24.69l21.47,15.94,21.29,8.75,2.4-9.62-2.4-15.07-21.38-37.03h0ZM80.91,81.25l-14.25-8.23v-16.46l14.25,8.23v16.46h0Z"></path><polygon class="st40" points="52.4 73.02 52.4 81.25 95.17 105.94 96.95 100.8 95.17 97.71 52.4 73.02 52.4 73.02"></polygon><polygon class="st37" points="95.17 73.02 95.17 97.71 107.25 93.27 116.55 85.37 116.54 70.97 130.8 62.74 130.8 77.14 134.76 76.88 137.92 73.02 137.92 48.34 95.17 73.02 95.17 73.02"></polygon><polygon class="st35" points="95.17 97.71 95.17 105.94 116.54 93.6 116.54 85.37 95.17 97.71 95.17 97.71"></polygon><polygon class="st35" points="130.8 77.14 130.8 85.37 137.92 81.25 137.92 73.02 130.8 77.14 130.8 77.14"></polygon><polygon class="st40" points="52.4 48.34 45.28 44.22 73.78 27.76 91.6 50.39 102.29 77.14 95.17 73.02 73.78 35.99 52.4 48.34 52.4 48.34"></polygon><polygon class="st35" points="116.54 3.08 73.78 27.76 102.29 77.14 145.05 52.45 116.54 3.08 116.54 3.08"></polygon><polygon class="st39" points="116.54 35.99 111.99 36.57 109.42 40.11 112.98 46.28 120.11 42.16 116.54 35.99 116.54 35.99"></polygon><polygon class="st33" points="102.29 19.53 102.29 27.76 109.42 40.11 111.2 30.85 109.42 23.65 106.76 21.07 102.29 19.53 102.29 19.53"></polygon><polygon class="st37" points="109.42 23.65 109.42 40.11 116.54 35.99 116.54 19.53 112.33 21.22 109.42 23.65 109.42 23.65"></polygon><polygon class="st11" points="109.42 15.42 102.29 19.53 109.42 23.65 116.54 19.53 109.42 15.42 109.42 15.42"></polygon><polygon class="st37" points="105.85 19.53 109.42 17.48 110.31 20.05 109.42 21.59 105.85 19.53 105.85 19.53"></polygon><polygon class="st33" points="112.98 19.53 109.42 17.48 109.42 21.59 112.98 19.53 112.98 19.53"></polygon></g><path class="st32" d="M168.52,116.08l-1.51-.87c1.15-.67,2.28-1.36,3.37-2.05l1.58.83c-1.11.71-2.27,1.41-3.44,2.09ZM164.9,118.07c-1.23.64-2.51,1.28-3.79,1.88l-1.35-.95c1.25-.59,2.5-1.21,3.71-1.84l1.43.91ZM175.22,111.79l-1.65-.78c1.03-.73,2.03-1.48,3-2.23l1.72.73c-.98.77-2.01,1.54-3.06,2.28ZM157.17,121.72c-1.34.57-2.72,1.13-4.1,1.65l-1.18-1.03c1.35-.52,2.7-1.06,4.01-1.62l1.27.99ZM181.15,107.14l-1.78-.68c.9-.78,1.77-1.59,2.59-2.4l1.84.62c-.84.82-1.73,1.65-2.65,2.45ZM148.83,124.91c-1.43.49-2.9.96-4.37,1.4l-.99-1.09c1.44-.44,2.88-.9,4.27-1.37l1.08,1.06ZM186.22,102.17l-1.89-.57c.75-.83,1.48-1.69,2.15-2.54l1.94.51c-.69.87-1.43,1.74-2.2,2.59ZM139.96,127.59c-1.5.4-3.05.78-4.6,1.14l-.79-1.14c1.52-.35,3.03-.73,4.5-1.12l.89,1.12ZM190.38,96.93l-1.98-.46c.6-.87,1.17-1.75,1.69-2.64l2.02.4c-.54.91-1.12,1.82-1.73,2.7ZM130.66,129.73c-1.58.31-3.19.6-4.78.86l-.59-1.18c1.56-.26,3.13-.54,4.67-.85l.69,1.17ZM193.6,91.48l-2.05-.34c.44-.9.85-1.82,1.22-2.73l2.08.28c-.38.94-.79,1.88-1.25,2.79ZM121.03,131.32c-1.61.21-3.26.41-4.9.58l-.38-1.21c1.61-.17,3.22-.36,4.8-.57l.48,1.2ZM195.85,85.86l-2.1-.22c.28-.92.53-1.86.74-2.79l2.12.15c-.21.95-.46,1.91-.75,2.85ZM111.18,132.33c-1.65.12-3.32.22-4.98.29l-.16-1.23c1.62-.07,3.25-.17,4.87-.28l.27,1.22ZM197.11,80.14l-2.13-.09c.12-.94.21-1.89.25-2.82l2.13.03c-.04.96-.13,1.93-.25,2.88ZM101.21,132.77c-1.66.02-3.34.02-5,0l.05-1.23c1.63.02,3.27.02,4.89,0l.05,1.23ZM197.36,74.37l-2.13.03c-.04-.94-.12-1.89-.24-2.82l2.13-.09c.13.96.21,1.93.25,2.88ZM91.22,132.63c-1.65-.07-3.32-.17-4.97-.29l.27-1.22c1.62.12,3.25.21,4.87.28l-.16,1.23ZM81.31,131.91c-1.63-.17-3.28-.36-4.89-.58l.48-1.2c1.58.21,3.19.4,4.79.56l-.37,1.21ZM71.58,130.61c-1.59-.26-3.2-.55-4.77-.86l.69-1.17c1.54.3,3.11.58,4.66.84l-.58,1.18ZM62.13,128.75c-1.54-.35-3.08-.74-4.59-1.13l.89-1.12c1.47.39,2.98.76,4.49,1.11l-.79,1.14ZM53.05,126.35c-1.47-.44-2.94-.91-4.37-1.4l1.08-1.06c1.4.47,2.84.94,4.28,1.37l-.99,1.09ZM44.43,123.43c-1.39-.53-2.77-1.08-4.1-1.65l1.26-.99c1.31.55,2.66,1.1,4.01,1.61l-1.17,1.03ZM36.38,120.01c-1.29-.61-2.56-1.24-3.79-1.88l1.43-.91c1.2.63,2.45,1.25,3.71,1.84l-1.35.95ZM30.47,115.27l-1.51.87-.06-.03c-1.17-.67-2.3-1.36-3.39-2.05l1.58-.83c1.06.68,2.18,1.35,3.3,2l.08.04ZM23.89,111.09l-1.65.78c-1.05-.74-2.08-1.51-3.07-2.28l1.72-.73c.97.75,1.98,1.5,3,2.23ZM18.09,106.54l-1.78.68c-.92-.8-1.81-1.63-2.65-2.45l1.84-.63c.82.8,1.7,1.61,2.6,2.39ZM13.11,101.68l-1.89.57c-.77-.85-1.52-1.72-2.21-2.6l1.94-.52c.68.85,1.41,1.71,2.17,2.54ZM9.01,96.54l-1.98.46c-.61-.89-1.2-1.8-1.74-2.71l2.02-.4c.53.89,1.1,1.78,1.7,2.65ZM5.84,91.19l-2.05.34c-.45-.92-.88-1.86-1.25-2.8l2.08-.28c.37.92.78,1.84,1.23,2.74ZM3.63,85.68l-2.1.22c-.29-.94-.55-1.9-.76-2.86l2.12-.16c.21.93.45,1.87.74,2.79ZM2.39,80.08l-2.13.09c-.13-.96-.21-1.93-.26-2.88l2.13-.03c.04.94.13,1.89.25,2.82ZM2.13,74.43l-2.13-.03c.04-.96.12-1.93.25-2.88l2.13.09c-.12.93-.2,1.88-.24,2.82Z"></path><g><g><polygon class="st29" points="190.26 78.42 190.26 119.27 168.03 132.11 162.9 129.15 162.9 94.21 190.26 78.42"></polygon><polygon class="st3" points="186.94 89.91 166.98 101.44 166.98 99.32 186.94 87.79 186.94 89.91"></polygon><polygon class="st2" points="186.94 93.85 166.98 105.38 166.98 103.26 186.94 91.73 186.94 93.85"></polygon><polygon class="st5" points="186.9 97.9 167.05 109.36 167.05 107.24 186.9 95.78 186.9 97.9"></polygon><polygon class="st10" points="167.11 112.68 186.91 101.25 186.91 99.47 167.11 110.9 167.11 112.68"></polygon><polygon class="st9" points="167.11 116.23 186.91 104.8 186.91 103.02 167.11 114.45 167.11 116.23"></polygon><polygon class="st6" points="167.11 119.77 186.91 108.34 186.91 106.56 167.11 117.99 167.11 119.77"></polygon><polygon class="st8" points="167.11 123.32 186.91 111.89 186.91 110.11 167.11 121.54 167.11 123.32"></polygon></g><polygon class="st1" points="162.91 129.15 168.03 126.19 168.03 132.1 162.91 129.15"></polygon></g><g><g><polygon class="st7" points="10.05 80.66 10.05 121.51 32.29 134.35 37.41 131.39 37.41 96.46 10.05 80.66"></polygon><polygon class="st4" points="13.37 92.16 33.33 103.68 33.33 101.56 13.37 90.03 13.37 92.16"></polygon><polygon class="st18" points="13.37 96.1 33.33 107.62 33.33 105.5 13.37 93.97 13.37 96.1"></polygon><polygon class="st17" points="13.41 100.14 33.27 111.61 33.27 109.48 13.41 98.02 13.41 100.14"></polygon><polygon class="st14" points="33.2 114.92 13.4 103.49 13.4 101.72 33.2 113.15 33.2 114.92"></polygon><polygon class="st13" points="33.2 118.47 13.4 107.04 13.4 105.26 33.2 116.69 33.2 118.47"></polygon><polygon class="st20" points="33.2 122.01 13.4 110.59 13.4 108.81 33.2 120.24 33.2 122.01"></polygon><polygon class="st15" points="33.2 125.56 13.4 114.13 13.4 112.35 33.2 123.78 33.2 125.56"></polygon></g><polygon class="st1" points="37.41 131.39 32.28 128.43 32.28 134.35 37.41 131.39"></polygon></g><g><g><polygon class="st16" points="46.06 0 46.07 40.85 23.83 53.69 18.71 50.73 18.71 15.79 46.06 0"></polygon><polygon class="st19" points="42.75 11.49 22.78 23.02 22.78 20.9 42.75 9.37 42.75 11.49"></polygon><polygon class="st12" points="42.75 15.43 22.78 26.96 22.78 24.84 42.75 13.31 42.75 15.43"></polygon><polygon class="st21" points="42.71 19.48 22.85 30.94 22.85 28.82 42.71 17.36 42.71 19.48"></polygon><polygon class="st26" points="22.92 34.26 42.72 22.83 42.72 21.05 22.92 32.48 22.92 34.26"></polygon><polygon class="st25" points="22.92 37.81 42.72 26.38 42.72 24.6 22.92 36.03 22.92 37.81"></polygon><polygon class="st23" points="22.92 41.35 42.72 29.92 42.72 28.15 22.92 39.57 22.92 41.35"></polygon><polygon class="st22" points="22.92 44.9 42.72 33.47 42.72 31.69 22.92 43.12 22.92 44.9"></polygon></g><polygon class="st1" points="18.71 50.73 23.83 47.77 23.83 53.68 18.71 50.73"></polygon></g><g><g><polygon class="st24" points="147.25 1.8 147.25 42.65 169.48 55.49 174.6 52.53 174.6 17.6 147.25 1.8"></polygon><polygon class="st1" points="150.56 13.3 170.53 24.82 170.53 22.7 150.56 11.17 150.56 13.3"></polygon><polygon class="st1" points="150.56 17.23 170.53 28.76 170.53 26.64 150.56 15.11 150.56 17.23"></polygon><polygon class="st1" points="150.61 21.28 170.46 32.75 170.46 30.62 150.61 19.16 150.61 21.28"></polygon><polygon class="st1" points="170.39 36.06 150.6 24.63 150.6 22.86 170.39 34.29 170.39 36.06"></polygon><polygon class="st1" points="170.39 39.61 150.6 28.18 150.6 26.4 170.39 37.83 170.39 39.61"></polygon><polygon class="st1" points="170.39 43.15 150.6 31.73 150.6 29.95 170.39 41.38 170.39 43.15"></polygon><polygon class="st1" points="170.39 46.7 150.6 35.27 150.6 33.49 170.39 44.92 170.39 46.7"></polygon></g><polygon class="st36" points="174.6 52.53 169.48 49.57 169.48 55.49 174.6 52.53"></polygon></g></g></g></svg>