<?xml version="1.0" encoding="UTF-8"?>
<svg width="580px" height="800px" viewBox="0 0 580 800" version="1.1" xmlns="http://www.w3.org/2000/svg" xmlns:xlink="http://www.w3.org/1999/xlink">
    <!-- Generator: Sketch 58 (84663) - https://sketch.com -->
    <title>homepage-hero-580x800</title>
    <desc>Created with Sketch.</desc>
    <defs>
        <polygon id="path-1" points="0 9.09494702e-13 867 9.09494702e-13 867 1015 0 1015"></polygon>
        <polygon id="path-3" points="0 0 252 0 252 252 0 252"></polygon>
    </defs>
    <g id="homepage-hero-580x800" stroke="none" stroke-width="1" fill="none" fill-rule="evenodd">
        <g id="vector" transform="translate(-86.000000, -50.000000)">
            <g id="Group-3" transform="translate(68.000000, 0.000000)">
                <mask id="mask-2" fill="white">
                    <use xlink:href="#path-1"></use>
                </mask>
                <g id="Clip-2"></g>
                <path d="M844.971242,182.387068 L230.365912,796.99445 C181.146093,846.261153 101.207688,846.377954 51.9177888,797.087891 C2.67460986,747.821187 2.69797001,667.835795 51.964509,618.592452 L666.569839,3.96170978 C715.883099,-45.3517141 795.798144,-45.2816335 845.041323,3.93834956 C894.354582,53.2284132 894.307862,133.050284 844.971242,182.387068 Z" id="Fill-1" fill="#F8F8F8" mask="url(#mask-2)"></path>
            </g>
            <path d="M1052.4592,95.5160439 C1078.52184,121.590973 1078.50948,163.86696 1052.44685,189.917173 L514.918972,727.45616 C488.85634,753.518731 446.629687,753.518731 420.54234,727.431444 C394.479708,701.368873 394.492066,659.142317 420.54234,633.079746 L958.082572,95.5407594 C984.132846,69.5152616 1026.39657,69.4658304 1052.4592,95.5160439" id="Fill-1" fill="#C1E9E7"></path>
            <g id="Group-3" transform="translate(0.000000, 198.000000)">
                <mask id="mask-4" fill="white">
                    <use xlink:href="#path-3"></use>
                </mask>
                <g id="Clip-2"></g>
                <path d="M235.201058,16.7731104 C257.585491,39.1691003 257.606718,75.4697094 235.222285,97.855085 L97.8695382,235.234846 C75.463878,257.598994 39.1754117,257.588379 16.7803652,235.203004 C-5.58284003,212.828242 -5.60406756,176.538247 16.7803652,154.152872 L154.15434,16.7731104 C176.549386,-5.5910368 212.827239,-5.5910368 235.201058,16.7731104" id="Fill-1" fill="#FFF3CF" mask="url(#mask-4)"></path>
            </g>
        </g>
    </g>
</svg>