<?xml version="1.0" encoding="UTF-8"?>
<svg width="750px" height="1334px" viewBox="0 0 750 1334" version="1.1" xmlns="http://www.w3.org/2000/svg" xmlns:xlink="http://www.w3.org/1999/xlink">
    <!-- Generator: Sketch 58 (84663) - https://sketch.com -->
    <title>homepage-hero-750x1334</title>
    <desc>Created with Sketch.</desc>
    <defs>
        <polygon id="path-1" points="0 0 1314 0 1314 1314 0 1314"></polygon>
        <polygon id="path-3" points="0 0 382 0 382 382 0 382"></polygon>
    </defs>
    <g id="homepage-hero-750x1334" stroke="none" stroke-width="1" fill="none" fill-rule="evenodd">
        <g id="vector" transform="translate(-93.000000, 55.000000)">
            <g id="Group-3" transform="translate(12.000000, 84.000000)">
                <mask id="mask-2" fill="white">
                    <use xlink:href="#path-1"></use>
                </mask>
                <g id="Clip-2"></g>
                <path d="M1198.24649,163.983676 L266.768513,1095.46476 C192.172387,1170.13194 71.0200633,1170.30896 -3.68227523,1095.60638 C-78.3138059,1020.93919 -78.2784019,899.715656 -3.61146733,825.083876 L927.866508,-106.432611 C1002.60425,-181.170603 1123.72117,-181.064391 1198.3527,-106.468015 C1273.09044,-31.7654274 1273.01963,89.21028 1198.24649,163.983676 Z" id="Fill-1" fill="#F8F8F8" mask="url(#mask-2)"></path>
            </g>
            <path d="M1436.3539,29.5794584 C1475.89453,69.0998799 1475.87578,133.175407 1436.33516,172.658368 L620.83087,987.378412 C581.290245,1026.8801 517.226559,1026.8801 477.648438,987.340952 C438.107814,947.839261 438.126562,883.838654 477.648438,844.336963 L1293.17147,29.6169185 C1332.69335,-9.82858271 1396.81328,-9.90350294 1436.3539,29.5794584" id="Fill-1" fill="#C1E9E7"></path>
            <g id="Group-3" transform="translate(0.000000, 66.000000)">
                <mask id="mask-4" fill="white">
                    <use xlink:href="#path-3"></use>
                </mask>
                <g id="Clip-2"></g>
                <path d="M356.534937,25.4259055 C390.466895,59.3753821 390.499073,114.402496 356.567115,148.335883 L148.357792,356.586156 C114.393656,390.487363 59.3849494,390.471274 25.4369027,356.537887 C-8.46287655,322.62059 -8.4950548,267.609566 25.4369027,233.676179 L233.678404,25.4259055 C267.626451,-8.47530182 322.619069,-8.47530182 356.534937,25.4259055" id="Fill-1" fill="#FFF3CF" mask="url(#mask-4)"></path>
            </g>
        </g>
    </g>
</svg>