<svg width="24" height="24" viewBox="0 0 24 24" fill="none" xmlns="http://www.w3.org/2000/svg">
<path d="M19.275 20.525L13.275 14.55C12.7916 14.9667 12.2166 15.2917 11.55 15.525C10.8833 15.7583 10.175 15.875 9.42498 15.875C7.59164 15.875 6.03748 15.2417 4.76248 13.975C3.48748 12.7083 2.84998 11.175 2.84998 9.375C2.84998 7.575 3.48748 6.04167 4.76248 4.775C6.03748 3.50833 7.57498 2.875 9.37498 2.875C11.175 2.875 12.7083 3.50833 13.975 4.775C15.2416 6.04167 15.875 7.575 15.875 9.375C15.875 10.0917 15.7583 10.7833 15.525 11.45C15.2916 12.1167 14.95 12.7417 14.5 13.325L20.55 19.3C20.7166 19.4667 20.8 19.6667 20.8 19.9C20.8 20.1333 20.7083 20.3417 20.525 20.525C20.3416 20.6917 20.1291 20.775 19.8875 20.775C19.6458 20.775 19.4416 20.6917 19.275 20.525ZM9.39998 14.175C10.7166 14.175 11.8375 13.7042 12.7625 12.7625C13.6875 11.8208 14.15 10.6917 14.15 9.375C14.15 8.05833 13.6875 6.92917 12.7625 5.9875C11.8375 5.04583 10.7166 4.575 9.39998 4.575C8.04998 4.575 6.90831 5.04583 5.97498 5.9875C5.04164 6.92917 4.57498 8.05833 4.57498 9.375C4.57498 10.6917 5.04164 11.8208 5.97498 12.7625C6.90831 13.7042 8.04998 14.175 9.39998 14.175Z" fill="#00A19A"/>
</svg>
