<?xml version="1.0" encoding="UTF-8"?><svg id="uuid-ee487290-4641-48f4-b9ef-42efeffb548b" xmlns="http://www.w3.org/2000/svg" xmlns:xlink="http://www.w3.org/1999/xlink" viewBox="0 0 272 144"><defs><style>.uuid-b96105e2-0254-4c91-9c20-dc9eb5979f98{fill:none;stroke:#f3f3f3;stroke-linejoin:round;stroke-width:16px;}.uuid-fb9ac850-5406-4ebb-a805-f715e691f778{fill:#fff;}.uuid-bc3ac863-3f6d-4ccb-b8ec-8f6d642f8be6{fill:#49aba8;}.uuid-b38b6929-fadd-49a4-b355-3563fbf014ef{fill:#84c6c5;}.uuid-2d8e96ad-4923-4874-890c-9ad66510c187{mask:url(#uuid-47447b2f-fc10-434c-8b58-c0d7e18c8607);}.uuid-09dcb15c-a31a-43ef-bd75-49ffed3861b3{fill:#00a19a;}.uuid-6fa1735a-e4f7-4b4b-b34b-d562fa9ba942{fill:#00625f;}.uuid-b22546b5-9f36-4a81-b2ef-ee95de0a75a5{fill:#00807b;}.uuid-ff240e28-6362-40db-8e89-aa365eac596f{fill:#f3f3f3;}.uuid-f2a6f9ea-19ab-4d92-a68d-28379a75da4a{fill:#d9d9d9;}</style><mask id="uuid-47447b2f-fc10-434c-8b58-c0d7e18c8607" width="272" height="144" maskUnits="userSpaceOnUse"/></defs><path class="uuid-f2a6f9ea-19ab-4d92-a68d-28379a75da4a" d="M264,136c0-16.81-3.31-33.45-9.74-48.98-6.43-15.53-15.86-29.64-27.75-41.53-11.89-11.89-26-21.31-41.53-27.75-15.53-6.43-32.17-9.74-48.98-9.74s-33.45,3.31-48.98,9.74c-15.53,6.43-29.64,15.86-41.53,27.75-11.89,11.89-21.31,26-27.75,41.53-6.43,15.53-9.74,32.17-9.74,48.98H264Z"/><g class="uuid-2d8e96ad-4923-4874-890c-9ad66510c187"><path class="uuid-b96105e2-0254-4c91-9c20-dc9eb5979f98" d="M264,136c0-16.81-3.31-33.45-9.74-48.98-6.43-15.53-15.86-29.64-27.75-41.53-11.89-11.89-26-21.31-41.53-27.75-15.53-6.43-32.17-9.74-48.98-9.74s-33.45,3.31-48.98,9.74c-15.53,6.43-29.64,15.86-41.53,27.75-11.89,11.89-21.31,26-27.75,41.53-6.43,15.53-9.74,32.17-9.74,48.98H264Z"/></g><path class="uuid-6fa1735a-e4f7-4b4b-b34b-d562fa9ba942" d="M248.48,75.34c9.97,18.49,15.23,39.16,15.31,60.17l-127.79,.49,112.48-60.66Z"/><path class="uuid-b22546b5-9f36-4a81-b2ef-ee95de0a75a5" d="M206.24,29.24c17.71,11.65,32.24,27.52,42.29,46.19l-112.53,60.57L206.24,29.24Z"/><path class="uuid-09dcb15c-a31a-43ef-bd75-49ffed3861b3" d="M145.69,8.57c21.66,1.65,42.54,8.79,60.67,20.74l-70.36,106.68,9.69-127.43Z"/><path class="uuid-bc3ac863-3f6d-4ccb-b8ec-8f6d642f8be6" d="M83.82,19.34c19.65-8.79,41.2-12.47,62.65-10.71l-10.48,127.36L83.82,19.34Z"/><path class="uuid-b38b6929-fadd-49a4-b355-3563fbf014ef" d="M8.21,134.54c.28-24.47,7.58-48.35,21.04-68.8,13.46-20.45,32.5-36.6,54.87-46.53l51.88,116.79-127.79-1.46Z"/><path class="uuid-ff240e28-6362-40db-8e89-aa365eac596f" d="M227.88,136.4c0-24.4-9.69-47.81-26.95-65.06-17.25-17.26-40.66-26.95-65.06-26.95s-47.81,9.69-65.06,26.95c-17.25,17.26-26.95,40.66-26.95,65.06H227.88Z"/><path class="uuid-b22546b5-9f36-4a81-b2ef-ee95de0a75a5" d="M221.35,115.85l-8.02,8.02-2.94-10.96,10.96,2.94Z"/><path class="uuid-fb9ac850-5406-4ebb-a805-f715e691f778" d="M207.43,136.4c0-18.98-7.54-37.18-20.96-50.6s-31.62-20.96-50.6-20.96-37.18,7.54-50.6,20.96c-13.42,13.42-20.96,31.62-20.96,50.6H207.43Z"/><path class="uuid-6fa1735a-e4f7-4b4b-b34b-d562fa9ba942" d="M88.63,122.62c-1.41,0-2.64-.21-3.7-.62-1.06-.43-1.88-1.03-2.47-1.8-.59-.78-.89-1.7-.89-2.74s.29-1.92,.86-2.64c.59-.74,1.42-1.29,2.47-1.66,1.06-.38,2.3-.58,3.72-.58s2.69,.19,3.74,.58c1.07,.37,1.9,.92,2.47,1.66,.59,.72,.89,1.6,.89,2.64s-.3,1.95-.89,2.74c-.59,.77-1.42,1.37-2.5,1.8-1.06,.42-2.3,.62-3.72,.62Zm0-2.86c.98,0,1.74-.22,2.3-.65,.58-.43,.86-1.02,.86-1.78s-.29-1.34-.86-1.75c-.56-.43-1.33-.65-2.3-.65s-1.72,.22-2.28,.65c-.56,.42-.84,1-.84,1.75s.28,1.34,.84,1.78c.56,.43,1.32,.65,2.28,.65Zm0-5.21c-1.3,0-2.43-.18-3.41-.53-.96-.35-1.71-.86-2.26-1.54-.53-.69-.79-1.5-.79-2.45,0-.99,.27-1.84,.82-2.54,.54-.72,1.3-1.27,2.28-1.66,.98-.4,2.1-.6,3.36-.6s2.42,.2,3.38,.6c.98,.38,1.74,.94,2.28,1.66,.56,.7,.84,1.55,.84,2.54s-.27,1.76-.82,2.45c-.53,.67-1.28,1.18-2.26,1.54-.98,.35-2.12,.53-3.43,.53Zm0-2.28c.82,0,1.46-.18,1.92-.55,.48-.37,.72-.87,.72-1.51,0-.67-.25-1.19-.74-1.56-.48-.37-1.11-.55-1.9-.55s-1.39,.18-1.87,.55-.72,.89-.72,1.56,.23,1.14,.7,1.51c.46,.37,1.1,.55,1.9,.55Zm16.08,10.34c-1.38,0-2.61-.34-3.7-1.01-1.09-.69-1.94-1.68-2.57-2.98-.62-1.3-.94-2.86-.94-4.7s.31-3.41,.94-4.7c.62-1.3,1.48-2.28,2.57-2.95,1.09-.69,2.32-1.03,3.7-1.03s2.62,.34,3.7,1.03c1.09,.67,1.94,1.66,2.57,2.95,.62,1.3,.94,2.86,.94,4.7s-.31,3.41-.94,4.7c-.62,1.3-1.48,2.29-2.57,2.98-1.07,.67-2.3,1.01-3.7,1.01Zm0-3.29c.66,0,1.22-.18,1.7-.55,.5-.37,.88-.95,1.15-1.75,.29-.8,.43-1.83,.43-3.1s-.14-2.3-.43-3.1c-.27-.8-.66-1.38-1.15-1.75-.48-.37-1.05-.55-1.7-.55s-1.21,.18-1.7,.55c-.48,.37-.86,.95-1.15,1.75-.27,.8-.41,1.83-.41,3.1s.14,2.3,.41,3.1c.29,.8,.67,1.38,1.15,1.75,.5,.37,1.06,.55,1.7,.55Zm16.29,3.29c-1.38,0-2.61-.34-3.7-1.01-1.09-.69-1.94-1.68-2.57-2.98-.62-1.3-.94-2.86-.94-4.7s.31-3.41,.94-4.7c.62-1.3,1.48-2.28,2.57-2.95,1.09-.69,2.32-1.03,3.7-1.03s2.62,.34,3.7,1.03c1.09,.67,1.94,1.66,2.57,2.95,.62,1.3,.94,2.86,.94,4.7s-.31,3.41-.94,4.7c-.62,1.3-1.48,2.29-2.57,2.98-1.07,.67-2.3,1.01-3.7,1.01Zm0-3.29c.66,0,1.22-.18,1.7-.55,.5-.37,.88-.95,1.15-1.75,.29-.8,.43-1.83,.43-3.1s-.14-2.3-.43-3.1c-.27-.8-.66-1.38-1.15-1.75-.48-.37-1.05-.55-1.7-.55s-1.21,.18-1.7,.55c-.48,.37-.86,.95-1.15,1.75-.27,.8-.41,1.83-.41,3.1s.14,2.3,.41,3.1c.29,.8,.67,1.38,1.15,1.75,.5,.37,1.06,.55,1.7,.55Zm16.2-2.26v-3h6.79v3h-6.79Zm22.7,5.54c-1.41,0-2.64-.21-3.7-.62-1.06-.43-1.88-1.03-2.47-1.8-.59-.78-.89-1.7-.89-2.74s.29-1.92,.86-2.64c.59-.74,1.42-1.29,2.47-1.66,1.06-.38,2.3-.58,3.72-.58s2.69,.19,3.74,.58c1.07,.37,1.9,.92,2.47,1.66,.59,.72,.89,1.6,.89,2.64s-.3,1.95-.89,2.74c-.59,.77-1.42,1.37-2.5,1.8-1.06,.42-2.3,.62-3.72,.62Zm0-2.86c.98,0,1.74-.22,2.3-.65,.58-.43,.86-1.02,.86-1.78s-.29-1.34-.86-1.75c-.56-.43-1.33-.65-2.3-.65s-1.72,.22-2.28,.65c-.56,.42-.84,1-.84,1.75s.28,1.34,.84,1.78c.56,.43,1.32,.65,2.28,.65Zm0-5.21c-1.3,0-2.43-.18-3.41-.53-.96-.35-1.71-.86-2.26-1.54-.53-.69-.79-1.5-.79-2.45,0-.99,.27-1.84,.82-2.54,.54-.72,1.3-1.27,2.28-1.66,.98-.4,2.1-.6,3.36-.6s2.42,.2,3.38,.6c.98,.38,1.74,.94,2.28,1.66,.56,.7,.84,1.55,.84,2.54s-.27,1.76-.82,2.45c-.53,.67-1.28,1.18-2.26,1.54-.98,.35-2.12,.53-3.43,.53Zm0-2.28c.82,0,1.46-.18,1.92-.55,.48-.37,.72-.87,.72-1.51,0-.67-.25-1.19-.74-1.56-.48-.37-1.11-.55-1.9-.55s-1.39,.18-1.87,.55-.72,.89-.72,1.56,.23,1.14,.7,1.51c.46,.37,1.1,.55,1.9,.55Zm14.6,10.34c-1.17,0-2.33-.15-3.48-.46-1.14-.32-2.11-.77-2.93-1.34l1.54-2.98c.64,.46,1.38,.83,2.21,1.1,.85,.27,1.7,.41,2.57,.41,.98,0,1.74-.19,2.3-.58,.56-.38,.84-.92,.84-1.61,0-.43-.11-.82-.34-1.15s-.62-.59-1.2-.77c-.56-.18-1.35-.26-2.38-.26h-4.3l.86-9.46h10.25v3.12h-8.86l2.02-1.78-.6,6.74-2.02-1.78h3.55c1.66,0,3,.23,4.01,.7,1.02,.45,1.77,1.06,2.23,1.85,.46,.78,.7,1.67,.7,2.66s-.25,1.91-.74,2.76c-.5,.83-1.26,1.51-2.3,2.04-1.02,.51-2.34,.77-3.94,.77Zm15.76,0c-1.38,0-2.61-.34-3.7-1.01-1.09-.69-1.94-1.68-2.57-2.98-.62-1.3-.94-2.86-.94-4.7s.31-3.41,.94-4.7c.62-1.3,1.48-2.28,2.57-2.95,1.09-.69,2.32-1.03,3.7-1.03s2.62,.34,3.7,1.03c1.09,.67,1.94,1.66,2.57,2.95,.62,1.3,.94,2.86,.94,4.7s-.31,3.41-.94,4.7c-.62,1.3-1.48,2.29-2.57,2.98-1.07,.67-2.3,1.01-3.7,1.01Zm0-3.29c.66,0,1.22-.18,1.7-.55,.5-.37,.88-.95,1.15-1.75,.29-.8,.43-1.83,.43-3.1s-.14-2.3-.43-3.1c-.27-.8-.66-1.38-1.15-1.75-.48-.37-1.05-.55-1.7-.55s-1.21,.18-1.7,.55c-.48,.37-.86,.95-1.15,1.75-.27,.8-.41,1.83-.41,3.1s.14,2.3,.41,3.1c.29,.8,.67,1.38,1.15,1.75,.5,.37,1.06,.55,1.7,.55Z"/></svg>