<?xml version="1.0" encoding="UTF-8"?><svg id="uuid-745da6a1-ac0b-4155-8bc0-53161a2d2427" xmlns="http://www.w3.org/2000/svg" xmlns:xlink="http://www.w3.org/1999/xlink" viewBox="0 0 272 144"><defs><style>.uuid-4bd81856-b287-47df-9ac3-d611113bf50b{fill:none;stroke:#f3f3f3;stroke-linejoin:round;stroke-width:16px;}.uuid-f7158db4-65bc-4dfe-b8f2-95d0228f93b3{fill:#fff;}.uuid-a777c3f5-6653-46bc-927c-71b7bd4e3a62{fill:#f7d47b;}.uuid-28d2bf97-dd6d-40c6-a358-4ee8460f694c{fill:#fac938;}.uuid-944bbef7-b81f-4e6f-9e91-77b40efa15bf{fill:#00625f;}.uuid-e06103a6-7444-4ea9-96ac-9f6f79b89d27{mask:url(#uuid-bf055c1c-1d04-4efa-9871-80d325575cc1);}.uuid-cf51d3c9-0774-44a9-8c11-2350e2ddc096{fill:#7e5700;}.uuid-93e38164-738c-46d5-ae45-0b14c724971a{fill:#00807b;}.uuid-624dee75-803c-42f3-862e-0581b5f35908{fill:#e4b935;}.uuid-683f8ff1-ca22-47a1-91c8-6b193134d1e2{fill:#f3f3f3;}.uuid-3931377e-c553-4ad6-81ee-14e871e88f2e{fill:#d9d9d9;}.uuid-179b5f7d-4965-4bcb-91ce-cc96593103bc{fill:#d3a825;}</style><mask id="uuid-bf055c1c-1d04-4efa-9871-80d325575cc1" width="272" height="144" maskUnits="userSpaceOnUse"/></defs><path class="uuid-3931377e-c553-4ad6-81ee-14e871e88f2e" d="M264,136c0-16.81-3.31-33.45-9.74-48.98-6.43-15.53-15.86-29.64-27.75-41.53-11.89-11.89-26-21.31-41.53-27.75-15.53-6.43-32.17-9.74-48.98-9.74s-33.45,3.31-48.98,9.74c-15.53,6.43-29.64,15.86-41.53,27.75-11.89,11.89-21.31,26-27.75,41.53-6.43,15.53-9.74,32.17-9.74,48.98H264Z"/><g class="uuid-e06103a6-7444-4ea9-96ac-9f6f79b89d27"><path class="uuid-4bd81856-b287-47df-9ac3-d611113bf50b" d="M264,136c0-16.81-3.31-33.45-9.74-48.98-6.43-15.53-15.86-29.64-27.75-41.53-11.89-11.89-26-21.31-41.53-27.75-15.53-6.43-32.17-9.74-48.98-9.74s-33.45,3.31-48.98,9.74c-15.53,6.43-29.64,15.86-41.53,27.75-11.89,11.89-21.31,26-27.75,41.53-6.43,15.53-9.74,32.17-9.74,48.98H264Z"/></g><path class="uuid-cf51d3c9-0774-44a9-8c11-2350e2ddc096" d="M248.48,75.34c9.97,18.49,15.23,39.16,15.31,60.17l-127.79,.49,112.48-60.66Z"/><path class="uuid-179b5f7d-4965-4bcb-91ce-cc96593103bc" d="M206.24,29.24c17.71,11.65,32.24,27.52,42.29,46.19l-112.53,60.57L206.24,29.24Z"/><path class="uuid-624dee75-803c-42f3-862e-0581b5f35908" d="M145.69,8.57c21.66,1.65,42.54,8.79,60.67,20.74l-70.36,106.68,9.69-127.43Z"/><path class="uuid-28d2bf97-dd6d-40c6-a358-4ee8460f694c" d="M83.82,19.34c19.65-8.79,41.2-12.47,62.65-10.71l-10.48,127.36L83.82,19.34Z"/><path class="uuid-a777c3f5-6653-46bc-927c-71b7bd4e3a62" d="M8.21,134.54c.28-24.47,7.58-48.35,21.04-68.8,13.46-20.45,32.5-36.6,54.87-46.53l51.88,116.79-127.79-1.46Z"/><path class="uuid-683f8ff1-ca22-47a1-91c8-6b193134d1e2" d="M227.88,136.4c0-24.4-9.69-47.81-26.95-65.06-17.25-17.26-40.66-26.95-65.06-26.95s-47.81,9.69-65.06,26.95c-17.25,17.26-26.95,40.66-26.95,65.06H227.88Z"/><path class="uuid-93e38164-738c-46d5-ae45-0b14c724971a" d="M122.44,50.22l7.4,8.6-11.15,2.11,3.75-10.71Z"/><path class="uuid-f7158db4-65bc-4dfe-b8f2-95d0228f93b3" d="M207.43,136.4c0-18.98-7.54-37.18-20.96-50.6s-31.62-20.96-50.6-20.96-37.18,7.54-50.6,20.96c-13.42,13.42-20.96,31.62-20.96,50.6H207.43Z"/><path class="uuid-944bbef7-b81f-4e6f-9e91-77b40efa15bf" d="M87.38,122.62c-1.17,0-2.33-.15-3.48-.46-1.14-.32-2.11-.77-2.93-1.34l1.54-2.98c.64,.46,1.38,.83,2.21,1.1,.85,.27,1.7,.41,2.57,.41,.98,0,1.74-.19,2.3-.58,.56-.38,.84-.92,.84-1.61,0-.43-.11-.82-.34-1.15s-.62-.59-1.2-.77c-.56-.18-1.35-.26-2.38-.26h-4.3l.86-9.46h10.25v3.12h-8.86l2.02-1.78-.6,6.74-2.02-1.78h3.55c1.66,0,3,.23,4.01,.7,1.02,.45,1.77,1.06,2.23,1.85,.46,.78,.7,1.67,.7,2.66s-.25,1.91-.74,2.76c-.5,.83-1.26,1.51-2.3,2.04-1.02,.51-2.34,.77-3.94,.77Zm15.52,0c-1.41,0-2.64-.21-3.7-.62-1.06-.43-1.88-1.03-2.47-1.8-.59-.78-.89-1.7-.89-2.74s.29-1.92,.86-2.64c.59-.74,1.42-1.29,2.47-1.66,1.06-.38,2.3-.58,3.72-.58s2.69,.19,3.74,.58c1.07,.37,1.9,.92,2.47,1.66,.59,.72,.89,1.6,.89,2.64s-.3,1.95-.89,2.74c-.59,.77-1.42,1.37-2.5,1.8-1.06,.42-2.3,.62-3.72,.62Zm0-2.86c.98,0,1.74-.22,2.3-.65,.58-.43,.86-1.02,.86-1.78s-.29-1.34-.86-1.75c-.56-.43-1.33-.65-2.3-.65s-1.72,.22-2.28,.65c-.56,.42-.84,1-.84,1.75s.28,1.34,.84,1.78c.56,.43,1.32,.65,2.28,.65Zm0-5.21c-1.3,0-2.43-.18-3.41-.53-.96-.35-1.71-.86-2.26-1.54-.53-.69-.79-1.5-.79-2.45,0-.99,.27-1.84,.82-2.54,.54-.72,1.3-1.27,2.28-1.66,.98-.4,2.1-.6,3.36-.6s2.42,.2,3.38,.6c.98,.38,1.74,.94,2.28,1.66,.56,.7,.84,1.55,.84,2.54s-.27,1.76-.82,2.45c-.53,.67-1.28,1.18-2.26,1.54-.98,.35-2.12,.53-3.43,.53Zm0-2.28c.82,0,1.46-.18,1.92-.55,.48-.37,.72-.87,.72-1.51,0-.67-.25-1.19-.74-1.56-.48-.37-1.11-.55-1.9-.55s-1.39,.18-1.87,.55-.72,.89-.72,1.56,.23,1.14,.7,1.51c.46,.37,1.1,.55,1.9,.55Zm16.08,10.34c-1.38,0-2.61-.34-3.7-1.01-1.09-.69-1.94-1.68-2.57-2.98-.62-1.3-.94-2.86-.94-4.7s.31-3.41,.94-4.7c.62-1.3,1.48-2.28,2.57-2.95,1.09-.69,2.32-1.03,3.7-1.03s2.62,.34,3.7,1.03c1.09,.67,1.94,1.66,2.57,2.95,.62,1.3,.94,2.86,.94,4.7s-.31,3.41-.94,4.7c-.62,1.3-1.48,2.29-2.57,2.98-1.07,.67-2.3,1.01-3.7,1.01Zm0-3.29c.66,0,1.22-.18,1.7-.55,.5-.37,.88-.95,1.15-1.75,.29-.8,.43-1.83,.43-3.1s-.14-2.3-.43-3.1c-.27-.8-.66-1.38-1.15-1.75-.48-.37-1.05-.55-1.7-.55s-1.21,.18-1.7,.55c-.48,.37-.86,.95-1.15,1.75-.27,.8-.41,1.83-.41,3.1s.14,2.3,.41,3.1c.29,.8,.67,1.38,1.15,1.75,.5,.37,1.06,.55,1.7,.55Zm16.2-2.26v-3h6.79v3h-6.79Zm23.26,5.54c-1.54,0-2.87-.32-4.01-.96-1.12-.64-1.98-1.58-2.59-2.81s-.91-2.75-.91-4.56c0-1.94,.36-3.58,1.08-4.92,.74-1.34,1.74-2.37,3.02-3.07,1.3-.7,2.78-1.06,4.46-1.06,.9,0,1.75,.1,2.57,.29,.82,.19,1.52,.48,2.11,.86l-1.44,2.86c-.46-.32-.96-.54-1.49-.65-.53-.13-1.08-.19-1.66-.19-1.46,0-2.61,.44-3.46,1.32-.85,.88-1.27,2.18-1.27,3.91v.96c.02,.35,.06,.7,.14,1.06l-1.08-1.01c.3-.62,.7-1.14,1.18-1.56,.48-.43,1.05-.75,1.7-.96,.67-.22,1.41-.34,2.21-.34,1.09,0,2.06,.22,2.93,.65,.86,.43,1.55,1.04,2.06,1.82,.53,.78,.79,1.7,.79,2.76,0,1.14-.29,2.13-.86,2.98-.56,.83-1.32,1.48-2.28,1.94-.94,.45-2.02,.67-3.22,.67Zm-.22-2.9c.54,0,1.02-.1,1.44-.29,.43-.21,.77-.5,1.01-.89s.36-.82,.36-1.32c0-.77-.26-1.38-.79-1.82-.51-.46-1.2-.7-2.06-.7-.58,0-1.08,.11-1.51,.34-.43,.21-.78,.5-1.03,.89-.24,.37-.36,.8-.36,1.3s.12,.91,.36,1.3c.24,.37,.58,.66,1.01,.89,.43,.21,.96,.31,1.58,.31Zm15.5,2.9c-1.54,0-2.87-.32-4.01-.96-1.12-.64-1.98-1.58-2.59-2.81s-.91-2.75-.91-4.56c0-1.94,.36-3.58,1.08-4.92,.74-1.34,1.74-2.37,3.02-3.07,1.3-.7,2.78-1.06,4.46-1.06,.9,0,1.75,.1,2.57,.29,.82,.19,1.52,.48,2.11,.86l-1.44,2.86c-.46-.32-.96-.54-1.49-.65-.53-.13-1.08-.19-1.66-.19-1.46,0-2.61,.44-3.46,1.32-.85,.88-1.27,2.18-1.27,3.91v.96c.02,.35,.06,.7,.14,1.06l-1.08-1.01c.3-.62,.7-1.14,1.18-1.56,.48-.43,1.05-.75,1.7-.96,.67-.22,1.41-.34,2.21-.34,1.09,0,2.06,.22,2.93,.65,.86,.43,1.55,1.04,2.06,1.82,.53,.78,.79,1.7,.79,2.76,0,1.14-.29,2.13-.86,2.98-.56,.83-1.32,1.48-2.28,1.94-.94,.45-2.02,.67-3.22,.67Zm-.22-2.9c.54,0,1.02-.1,1.44-.29,.43-.21,.77-.5,1.01-.89,.24-.38,.36-.82,.36-1.32,0-.77-.26-1.38-.79-1.82-.51-.46-1.2-.7-2.06-.7-.58,0-1.08,.11-1.51,.34-.43,.21-.78,.5-1.03,.89-.24,.37-.36,.8-.36,1.3s.12,.91,.36,1.3c.24,.37,.58,.66,1.01,.89,.43,.21,.96,.31,1.58,.31Zm13.89-14.47c1.55,0,2.89,.32,4.01,.96,1.12,.64,1.98,1.58,2.59,2.81,.61,1.22,.91,2.74,.91,4.56,0,1.94-.37,3.58-1.1,4.92-.72,1.34-1.72,2.37-3,3.07-1.28,.7-2.77,1.06-4.46,1.06-.88,0-1.73-.1-2.54-.29-.82-.19-1.52-.48-2.11-.86l1.44-2.86c.46,.32,.96,.54,1.49,.67,.53,.11,1.08,.17,1.66,.17,1.44,0,2.58-.44,3.43-1.32,.86-.88,1.3-2.18,1.3-3.91,0-.29,0-.61-.02-.96-.02-.35-.06-.7-.12-1.06l1.06,1.01c-.27,.62-.66,1.15-1.15,1.58-.5,.42-1.07,.74-1.73,.96-.66,.21-1.39,.31-2.21,.31-1.07,0-2.05-.22-2.93-.65-.86-.43-1.56-1.04-2.09-1.82-.51-.78-.77-1.7-.77-2.76,0-1.15,.28-2.14,.84-2.98,.58-.83,1.34-1.47,2.3-1.92,.98-.46,2.05-.7,3.22-.7Zm.24,2.9c-.56,0-1.05,.1-1.46,.31-.42,.19-.74,.48-.98,.86-.24,.37-.36,.81-.36,1.32,0,.77,.26,1.38,.77,1.85,.53,.45,1.22,.67,2.09,.67,.56,0,1.06-.1,1.49-.31,.45-.22,.79-.53,1.03-.91,.24-.38,.36-.82,.36-1.3s-.12-.9-.36-1.27c-.22-.38-.55-.68-.98-.89-.43-.22-.96-.34-1.58-.34Z"/></svg>