<?xml version="1.0" encoding="UTF-8"?><svg id="uuid-1d956544-d4bf-471e-804b-466cbddca309" xmlns="http://www.w3.org/2000/svg" xmlns:xlink="http://www.w3.org/1999/xlink" viewBox="0 0 272 144"><defs><style>.uuid-5045862a-b83b-451c-86d6-873755f0e708{fill:none;stroke:#f3f3f3;stroke-linejoin:round;stroke-width:16px;}.uuid-991fd32b-dd7c-41ea-8901-9fa95fcd2b05{fill:#fff;}.uuid-ea56c06d-1350-47a7-b3fe-a3fd8044764f{fill:#178f33;}.uuid-16f014f0-7a28-464f-b84b-43039e64b8a2{fill:#4abe65;}.uuid-0eb84ece-a0f9-4b83-8b94-13cdceef6491{fill:#92dfa3;}.uuid-49779590-163d-45f6-8f35-ecf3167fb6ed{fill:#3dad57;}.uuid-659b2d47-b395-478f-8a72-f2f8b7284635{fill:#00625f;}.uuid-43b9b7b2-0e09-4ccc-b62e-ab0976e3b0c3{fill:#69d282;}.uuid-77d9ec6d-c374-43c7-8ad7-f67847303c37{fill:#00807b;}.uuid-0a316840-1d56-480a-9902-c81b9bf63360{fill:#f3f3f3;}.uuid-b10f12a1-d65c-4bd9-86d5-8cca63d2ab2b{fill:#d9d9d9;}.uuid-6b8fa97f-6207-4f0d-9897-2ac3054aee57{mask:url(#uuid-c492341e-66fa-450f-84ef-1e798f1fdb03);}</style><mask id="uuid-c492341e-66fa-450f-84ef-1e798f1fdb03" width="272" height="144" maskUnits="userSpaceOnUse"/></defs><path class="uuid-b10f12a1-d65c-4bd9-86d5-8cca63d2ab2b" d="M264,136c0-16.81-3.31-33.45-9.74-48.98-6.43-15.53-15.86-29.64-27.75-41.53-11.89-11.89-26-21.31-41.53-27.75-15.53-6.43-32.17-9.74-48.98-9.74s-33.45,3.31-48.98,9.74c-15.53,6.43-29.64,15.86-41.53,27.75-11.89,11.89-21.31,26-27.75,41.53-6.43,15.53-9.74,32.17-9.74,48.98H264Z"/><g class="uuid-6b8fa97f-6207-4f0d-9897-2ac3054aee57"><path class="uuid-5045862a-b83b-451c-86d6-873755f0e708" d="M264,136c0-16.81-3.31-33.45-9.74-48.98-6.43-15.53-15.86-29.64-27.75-41.53-11.89-11.89-26-21.31-41.53-27.75-15.53-6.43-32.17-9.74-48.98-9.74s-33.45,3.31-48.98,9.74c-15.53,6.43-29.64,15.86-41.53,27.75-11.89,11.89-21.31,26-27.75,41.53-6.43,15.53-9.74,32.17-9.74,48.98H264Z"/></g><path class="uuid-ea56c06d-1350-47a7-b3fe-a3fd8044764f" d="M248.48,75.34c9.97,18.49,15.23,39.16,15.31,60.17l-127.79,.49,112.48-60.66Z"/><path class="uuid-49779590-163d-45f6-8f35-ecf3167fb6ed" d="M206.24,29.24c17.71,11.65,32.24,27.52,42.29,46.19l-112.53,60.57L206.24,29.24Z"/><path class="uuid-16f014f0-7a28-464f-b84b-43039e64b8a2" d="M145.69,8.57c21.66,1.65,42.54,8.79,60.67,20.74l-70.36,106.68,9.69-127.43Z"/><path class="uuid-43b9b7b2-0e09-4ccc-b62e-ab0976e3b0c3" d="M83.82,19.34c19.65-8.79,41.2-12.47,62.65-10.71l-10.48,127.36L83.82,19.34Z"/><path class="uuid-0eb84ece-a0f9-4b83-8b94-13cdceef6491" d="M8.21,134.54c.28-24.47,7.58-48.35,21.04-68.8,13.46-20.45,32.5-36.6,54.87-46.53l51.88,116.79-127.79-1.46Z"/><path class="uuid-0a316840-1d56-480a-9902-c81b9bf63360" d="M227.88,136.4c0-24.4-9.69-47.81-26.95-65.06-17.25-17.26-40.66-26.95-65.06-26.95s-47.81,9.69-65.06,26.95c-17.25,17.26-26.95,40.66-26.95,65.06H227.88Z"/><path class="uuid-77d9ec6d-c374-43c7-8ad7-f67847303c37" d="M164.48,52.77l.98,11.31-10.28-4.8,9.3-6.5Z"/><path class="uuid-991fd32b-dd7c-41ea-8901-9fa95fcd2b05" d="M207.43,136.4c0-18.98-7.54-37.18-20.96-50.6s-31.62-20.96-50.6-20.96-37.18,7.54-50.6,20.96c-13.42,13.42-20.96,31.62-20.96,50.6H207.43Z"/><path class="uuid-659b2d47-b395-478f-8a72-f2f8b7284635" d="M89.18,122.62c-1.54,0-2.87-.32-4.01-.96-1.12-.64-1.98-1.58-2.59-2.81s-.91-2.75-.91-4.56c0-1.94,.36-3.58,1.08-4.92,.74-1.34,1.74-2.37,3.02-3.07,1.3-.7,2.78-1.06,4.46-1.06,.9,0,1.75,.1,2.57,.29,.82,.19,1.52,.48,2.11,.86l-1.44,2.86c-.46-.32-.96-.54-1.49-.65-.53-.13-1.08-.19-1.66-.19-1.46,0-2.61,.44-3.46,1.32-.85,.88-1.27,2.18-1.27,3.91v.96c.02,.35,.06,.7,.14,1.06l-1.08-1.01c.3-.62,.7-1.14,1.18-1.56,.48-.43,1.05-.75,1.7-.96,.67-.22,1.41-.34,2.21-.34,1.09,0,2.06,.22,2.93,.65,.86,.43,1.55,1.04,2.06,1.82,.53,.78,.79,1.7,.79,2.76,0,1.14-.29,2.13-.86,2.98-.56,.83-1.32,1.48-2.28,1.94-.94,.45-2.02,.67-3.22,.67Zm-.22-2.9c.54,0,1.02-.1,1.44-.29,.43-.21,.77-.5,1.01-.89,.24-.38,.36-.82,.36-1.32,0-.77-.26-1.38-.79-1.82-.51-.46-1.2-.7-2.06-.7-.58,0-1.08,.11-1.51,.34-.43,.21-.78,.5-1.03,.89-.24,.37-.36,.8-.36,1.3s.12,.91,.36,1.3c.24,.37,.58,.66,1.01,.89,.43,.21,.96,.31,1.58,.31Zm10.6,2.62l6.77-15.31,1.01,1.68h-9.05l1.73-1.82v4.56h-3.46v-5.9h13.46v2.52l-6.24,14.28h-4.22Zm18.93,.29c-1.38,0-2.61-.34-3.7-1.01-1.09-.69-1.94-1.68-2.57-2.98-.62-1.3-.94-2.86-.94-4.7s.31-3.41,.94-4.7c.62-1.3,1.48-2.28,2.57-2.95,1.09-.69,2.32-1.03,3.7-1.03s2.62,.34,3.7,1.03c1.09,.67,1.94,1.66,2.57,2.95,.62,1.3,.94,2.86,.94,4.7s-.31,3.41-.94,4.7c-.62,1.3-1.48,2.29-2.57,2.98-1.07,.67-2.3,1.01-3.7,1.01Zm0-3.29c.66,0,1.22-.18,1.7-.55,.5-.37,.88-.95,1.15-1.75,.29-.8,.43-1.83,.43-3.1s-.14-2.3-.43-3.1c-.27-.8-.66-1.38-1.15-1.75-.48-.37-1.05-.55-1.7-.55s-1.21,.18-1.7,.55c-.48,.37-.86,.95-1.15,1.75-.27,.8-.41,1.83-.41,3.1s.14,2.3,.41,3.1c.29,.8,.67,1.38,1.15,1.75,.5,.37,1.06,.55,1.7,.55Zm16.2-2.26v-3h6.79v3h-6.79Zm18.43,5.26l6.77-15.31,1.01,1.68h-9.05l1.73-1.82v4.56h-3.46v-5.9h13.46v2.52l-6.24,14.28h-4.22Zm17.48,.29c-1.17,0-2.33-.15-3.48-.46-1.15-.32-2.13-.77-2.93-1.34l1.51-2.98c.64,.46,1.38,.83,2.23,1.1,.85,.27,1.7,.41,2.57,.41,.98,0,1.74-.19,2.3-.58,.56-.38,.84-.91,.84-1.58s-.25-1.14-.74-1.51-1.3-.55-2.4-.55h-1.78v-2.57l4.68-5.3,.43,1.39h-8.81v-3.12h11.76v2.52l-4.66,5.3-1.97-1.13h1.13c2.06,0,3.62,.46,4.68,1.39,1.06,.93,1.58,2.12,1.58,3.58,0,.94-.25,1.83-.74,2.66-.5,.82-1.26,1.48-2.28,1.99s-2.34,.77-3.94,.77Zm14.66-17.38c1.55,0,2.89,.32,4.01,.96,1.12,.64,1.98,1.58,2.59,2.81,.61,1.22,.91,2.74,.91,4.56,0,1.94-.37,3.58-1.1,4.92-.72,1.34-1.72,2.37-3,3.07-1.28,.7-2.77,1.06-4.46,1.06-.88,0-1.73-.1-2.54-.29-.82-.19-1.52-.48-2.11-.86l1.44-2.86c.46,.32,.96,.54,1.49,.67,.53,.11,1.08,.17,1.66,.17,1.44,0,2.58-.44,3.43-1.32,.86-.88,1.3-2.18,1.3-3.91,0-.29,0-.61-.02-.96-.02-.35-.06-.7-.12-1.06l1.06,1.01c-.27,.62-.66,1.15-1.15,1.58-.5,.42-1.07,.74-1.73,.96-.66,.21-1.39,.31-2.21,.31-1.07,0-2.05-.22-2.93-.65-.86-.43-1.56-1.04-2.09-1.82-.51-.78-.77-1.7-.77-2.76,0-1.15,.28-2.14,.84-2.98,.58-.83,1.34-1.47,2.3-1.92,.98-.46,2.05-.7,3.22-.7Zm.24,2.9c-.56,0-1.05,.1-1.46,.31-.42,.19-.74,.48-.98,.86-.24,.37-.36,.81-.36,1.32,0,.77,.26,1.38,.77,1.85,.53,.45,1.22,.67,2.09,.67,.56,0,1.06-.1,1.49-.31,.45-.22,.79-.53,1.03-.91,.24-.38,.36-.82,.36-1.3s-.12-.9-.36-1.27c-.22-.38-.55-.68-.98-.89-.43-.22-.96-.34-1.58-.34Z"/></svg>