<?xml version="1.0" encoding="UTF-8"?><svg id="uuid-9861c5c2-c47a-489b-9449-b8c32cc51132" xmlns="http://www.w3.org/2000/svg" xmlns:xlink="http://www.w3.org/1999/xlink" viewBox="0 0 272 144"><defs><style>.uuid-2ccbe9cd-1ed7-40ba-bf47-a744ef14d971{fill:none;stroke:#f3f3f3;stroke-linejoin:round;stroke-width:16px;}.uuid-31288327-eeba-40ca-b8c8-55b3ceb31cdc{fill:#fff;}.uuid-b76bbec3-748f-4836-b2f4-da4b0406e72a{fill:#95260b;}.uuid-56d3fbf1-fe5f-4031-9dc4-249a6a8a87a9{fill:#a8381c;}.uuid-a03f7eab-7154-4b88-8bde-c7f8fd145f47{fill:#d6502d;}.uuid-487e67ea-0c65-4d44-8f3e-7cb4d0c02f11{fill:#00625f;}.uuid-eec4b58a-4bf8-4c01-88f4-9aaf9b3af333{fill:#e95833;}.uuid-bd20c610-99f0-46df-9ecd-e57a75a87ef0{mask:url(#uuid-c4e87334-ed77-4719-8a19-e34bf83e6dfb);}.uuid-65b2fd1d-6c51-4e3e-a6ed-979493f07b9f{fill:#00807b;}.uuid-8a9e256e-aaf8-4e67-9d32-980caf9fa46f{fill:#f3f3f3;}.uuid-82362c3a-1f01-40ec-aa92-2ca58a3ed9d6{fill:#d9d9d9;}.uuid-80beedc3-c312-47d1-9c5c-9734f788a3cc{fill:#b64225;}</style><mask id="uuid-c4e87334-ed77-4719-8a19-e34bf83e6dfb" width="272" height="144" maskUnits="userSpaceOnUse"/></defs><path class="uuid-82362c3a-1f01-40ec-aa92-2ca58a3ed9d6" d="M264,136c0-16.81-3.31-33.45-9.74-48.98-6.43-15.53-15.86-29.64-27.75-41.53-11.89-11.89-26-21.31-41.53-27.75-15.53-6.43-32.17-9.74-48.98-9.74s-33.45,3.31-48.98,9.74c-15.53,6.43-29.64,15.86-41.53,27.75-11.89,11.89-21.31,26-27.75,41.53-6.43,15.53-9.74,32.17-9.74,48.98H264Z"/><g class="uuid-bd20c610-99f0-46df-9ecd-e57a75a87ef0"><path class="uuid-2ccbe9cd-1ed7-40ba-bf47-a744ef14d971" d="M264,136c0-16.81-3.31-33.45-9.74-48.98-6.43-15.53-15.86-29.64-27.75-41.53-11.89-11.89-26-21.31-41.53-27.75-15.53-6.43-32.17-9.74-48.98-9.74s-33.45,3.31-48.98,9.74c-15.53,6.43-29.64,15.86-41.53,27.75-11.89,11.89-21.31,26-27.75,41.53-6.43,15.53-9.74,32.17-9.74,48.98H264Z"/></g><path class="uuid-b76bbec3-748f-4836-b2f4-da4b0406e72a" d="M248.48,75.34c9.97,18.49,15.23,39.16,15.31,60.17l-127.79,.49,112.48-60.66Z"/><path class="uuid-56d3fbf1-fe5f-4031-9dc4-249a6a8a87a9" d="M206.24,29.24c17.71,11.65,32.24,27.52,42.29,46.19l-112.53,60.57L206.24,29.24Z"/><path class="uuid-80beedc3-c312-47d1-9c5c-9734f788a3cc" d="M145.69,8.57c21.66,1.65,42.54,8.79,60.67,20.74l-70.36,106.68,9.69-127.43Z"/><path class="uuid-a03f7eab-7154-4b88-8bde-c7f8fd145f47" d="M83.82,19.34c19.65-8.79,41.2-12.47,62.65-10.71l-10.48,127.36L83.82,19.34Z"/><path class="uuid-eec4b58a-4bf8-4c01-88f4-9aaf9b3af333" d="M8.21,134.54c.28-24.47,7.58-48.35,21.04-68.8,13.46-20.45,32.5-36.6,54.87-46.53l51.88,116.79-127.79-1.46Z"/><path class="uuid-8a9e256e-aaf8-4e67-9d32-980caf9fa46f" d="M227.88,136.4c0-24.4-9.69-47.81-26.95-65.06-17.25-17.26-40.66-26.95-65.06-26.95s-47.81,9.69-65.06,26.95c-17.25,17.26-26.95,40.66-26.95,65.06H227.88Z"/><path class="uuid-65b2fd1d-6c51-4e3e-a6ed-979493f07b9f" d="M67.04,83.16l11.24,1.6-7,8.93-4.23-10.53Z"/><path class="uuid-31288327-eeba-40ca-b8c8-55b3ceb31cdc" d="M207.43,136.4c0-18.98-7.54-37.18-20.96-50.6s-31.62-20.96-50.6-20.96-37.18,7.54-50.6,20.96c-13.42,13.42-20.96,31.62-20.96,50.6H207.43Z"/><path class="uuid-487e67ea-0c65-4d44-8f3e-7cb4d0c02f11" d="M87.12,122.62c-1.17,0-2.33-.15-3.48-.46-1.15-.32-2.13-.77-2.93-1.34l1.51-2.98c.64,.46,1.38,.83,2.23,1.1,.85,.27,1.7,.41,2.57,.41,.98,0,1.74-.19,2.3-.58,.56-.38,.84-.91,.84-1.58s-.25-1.14-.74-1.51-1.3-.55-2.4-.55h-1.78v-2.57l4.68-5.3,.43,1.39h-8.81v-3.12h11.76v2.52l-4.66,5.3-1.97-1.13h1.13c2.06,0,3.62,.46,4.68,1.39,1.06,.93,1.58,2.12,1.58,3.58,0,.94-.25,1.83-.74,2.66-.5,.82-1.26,1.48-2.28,1.99s-2.34,.77-3.94,.77Zm15.96,0c-1.38,0-2.61-.34-3.7-1.01-1.09-.69-1.94-1.68-2.57-2.98-.62-1.3-.94-2.86-.94-4.7s.31-3.41,.94-4.7c.62-1.3,1.48-2.28,2.57-2.95,1.09-.69,2.32-1.03,3.7-1.03s2.62,.34,3.7,1.03c1.09,.67,1.94,1.66,2.57,2.95,.62,1.3,.94,2.86,.94,4.7s-.31,3.41-.94,4.7c-.62,1.3-1.48,2.29-2.57,2.98-1.07,.67-2.3,1.01-3.7,1.01Zm0-3.29c.66,0,1.22-.18,1.7-.55,.5-.37,.88-.95,1.15-1.75,.29-.8,.43-1.83,.43-3.1s-.14-2.3-.43-3.1c-.27-.8-.66-1.38-1.15-1.75-.48-.37-1.05-.55-1.7-.55s-1.21,.18-1.7,.55c-.48,.37-.86,.95-1.15,1.75-.27,.8-.41,1.83-.41,3.1s.14,2.3,.41,3.1c.29,.8,.67,1.38,1.15,1.75,.5,.37,1.06,.55,1.7,.55Zm16.29,3.29c-1.38,0-2.61-.34-3.7-1.01-1.09-.69-1.94-1.68-2.57-2.98-.62-1.3-.94-2.86-.94-4.7s.31-3.41,.94-4.7c.62-1.3,1.48-2.28,2.57-2.95,1.09-.69,2.32-1.03,3.7-1.03s2.62,.34,3.7,1.03c1.09,.67,1.94,1.66,2.57,2.95,.62,1.3,.94,2.86,.94,4.7s-.31,3.41-.94,4.7c-.62,1.3-1.48,2.29-2.57,2.98-1.07,.67-2.3,1.01-3.7,1.01Zm0-3.29c.66,0,1.22-.18,1.7-.55,.5-.37,.88-.95,1.15-1.75,.29-.8,.43-1.83,.43-3.1s-.14-2.3-.43-3.1c-.27-.8-.66-1.38-1.15-1.75-.48-.37-1.05-.55-1.7-.55s-1.21,.18-1.7,.55c-.48,.37-.86,.95-1.15,1.75-.27,.8-.41,1.83-.41,3.1s.14,2.3,.41,3.1c.29,.8,.67,1.38,1.15,1.75,.5,.37,1.06,.55,1.7,.55Zm16.2-2.26v-3h6.79v3h-6.79Zm21.46,5.54c-1.17,0-2.33-.15-3.48-.46-1.14-.32-2.11-.77-2.93-1.34l1.54-2.98c.64,.46,1.38,.83,2.21,1.1,.85,.27,1.7,.41,2.57,.41,.98,0,1.74-.19,2.3-.58,.56-.38,.84-.92,.84-1.61,0-.43-.11-.82-.34-1.15s-.62-.59-1.2-.77c-.56-.18-1.35-.26-2.38-.26h-4.3l.86-9.46h10.25v3.12h-8.86l2.02-1.78-.6,6.74-2.02-1.78h3.55c1.66,0,3,.23,4.01,.7,1.02,.45,1.77,1.06,2.23,1.85,.46,.78,.7,1.67,.7,2.66s-.25,1.91-.74,2.76c-.5,.83-1.26,1.51-2.3,2.04-1.02,.51-2.34,.77-3.94,.77Zm10.97-.29l6.77-15.31,1.01,1.68h-9.05l1.73-1.82v4.56h-3.46v-5.9h13.46v2.52l-6.24,14.28h-4.22Zm18.1-17.09c1.55,0,2.89,.32,4.01,.96s1.98,1.58,2.59,2.81c.61,1.22,.91,2.74,.91,4.56,0,1.94-.37,3.58-1.1,4.92-.72,1.34-1.72,2.37-3,3.07-1.28,.7-2.77,1.06-4.46,1.06-.88,0-1.73-.1-2.54-.29-.82-.19-1.52-.48-2.11-.86l1.44-2.86c.46,.32,.96,.54,1.49,.67,.53,.11,1.08,.17,1.66,.17,1.44,0,2.58-.44,3.43-1.32,.86-.88,1.3-2.18,1.3-3.91,0-.29,0-.61-.02-.96-.02-.35-.06-.7-.12-1.06l1.06,1.01c-.27,.62-.66,1.15-1.15,1.58-.5,.42-1.07,.74-1.73,.96-.66,.21-1.39,.31-2.21,.31-1.07,0-2.05-.22-2.93-.65-.86-.43-1.56-1.04-2.09-1.82-.51-.78-.77-1.7-.77-2.76,0-1.15,.28-2.14,.84-2.98,.58-.83,1.34-1.47,2.3-1.92,.98-.46,2.05-.7,3.22-.7Zm.24,2.9c-.56,0-1.05,.1-1.46,.31-.42,.19-.74,.48-.98,.86-.24,.37-.36,.81-.36,1.32,0,.77,.26,1.38,.77,1.85,.53,.45,1.22,.67,2.09,.67,.56,0,1.06-.1,1.49-.31,.45-.22,.79-.53,1.03-.91s.36-.82,.36-1.3-.12-.9-.36-1.27c-.22-.38-.55-.68-.98-.89-.43-.22-.96-.34-1.58-.34Z"/></svg>