<?xml version="1.0" encoding="UTF-8"?><svg id="uuid-e9eec7b5-1f58-44e8-b5a6-40667db15596" xmlns="http://www.w3.org/2000/svg" xmlns:xlink="http://www.w3.org/1999/xlink" viewBox="0 0 272 144"><defs><style>.uuid-8acfc9ab-7df0-4f07-ace5-72fe9770189e{fill:none;stroke:#f3f3f3;stroke-linejoin:round;stroke-width:16px;}.uuid-984677d1-03e1-46c2-ace7-23902cad9fe4{fill:#fff;}.uuid-8c1ad64a-9d1b-4499-b4a2-2a02f74433b2{fill:#49aba8;}.uuid-0af93f83-568f-4f6b-a179-438eea937300{fill:#84c6c5;}.uuid-9f762a6c-d6f1-4d76-b1e3-83b777dad3b5{mask:url(#uuid-4cb22eac-7099-4ffb-920b-83e84abcfdc1);}.uuid-19efd2ad-6d52-424c-93c1-1bbd877a7978{fill:#00a19a;}.uuid-0f69f2a5-e7b1-43ad-9615-4b6123858737{fill:#00625f;}.uuid-88f60556-79b0-471a-8827-e379704db648{fill:#00807b;}.uuid-916a2b15-6a7a-4681-abae-ed33871768c9{fill:#f3f3f3;}.uuid-b88ac8df-255e-4fc1-b539-d5d65615c2e4{fill:#d9d9d9;}</style><mask id="uuid-4cb22eac-7099-4ffb-920b-83e84abcfdc1" width="272" height="144" maskUnits="userSpaceOnUse"/></defs><path class="uuid-b88ac8df-255e-4fc1-b539-d5d65615c2e4" d="M264,136c0-16.81-3.31-33.45-9.74-48.98-6.43-15.53-15.86-29.64-27.75-41.53-11.89-11.89-26-21.31-41.53-27.75-15.53-6.43-32.17-9.74-48.98-9.74s-33.45,3.31-48.98,9.74c-15.53,6.43-29.64,15.86-41.53,27.75-11.89,11.89-21.31,26-27.75,41.53-6.43,15.53-9.74,32.17-9.74,48.98H264Z"/><g class="uuid-9f762a6c-d6f1-4d76-b1e3-83b777dad3b5"><path class="uuid-8acfc9ab-7df0-4f07-ace5-72fe9770189e" d="M264,136c0-16.81-3.31-33.45-9.74-48.98-6.43-15.53-15.86-29.64-27.75-41.53-11.89-11.89-26-21.31-41.53-27.75-15.53-6.43-32.17-9.74-48.98-9.74s-33.45,3.31-48.98,9.74c-15.53,6.43-29.64,15.86-41.53,27.75-11.89,11.89-21.31,26-27.75,41.53-6.43,15.53-9.74,32.17-9.74,48.98H264Z"/></g><path class="uuid-0f69f2a5-e7b1-43ad-9615-4b6123858737" d="M248.48,75.34c9.97,18.49,15.23,39.16,15.31,60.17l-127.79,.49,112.48-60.66Z"/><path class="uuid-88f60556-79b0-471a-8827-e379704db648" d="M206.24,29.24c17.71,11.65,32.24,27.52,42.29,46.19l-112.53,60.57L206.24,29.24Z"/><path class="uuid-19efd2ad-6d52-424c-93c1-1bbd877a7978" d="M145.69,8.57c21.66,1.65,42.54,8.79,60.67,20.74l-70.36,106.68,9.69-127.43Z"/><path class="uuid-8c1ad64a-9d1b-4499-b4a2-2a02f74433b2" d="M83.82,19.34c19.65-8.79,41.2-12.47,62.65-10.71l-10.48,127.36L83.82,19.34Z"/><path class="uuid-0af93f83-568f-4f6b-a179-438eea937300" d="M8.21,134.54c.28-24.47,7.58-48.35,21.04-68.8,13.46-20.45,32.5-36.6,54.87-46.53l51.88,116.79-127.79-1.46Z"/><path class="uuid-916a2b15-6a7a-4681-abae-ed33871768c9" d="M227.88,136.4c0-24.4-9.69-47.81-26.95-65.06-17.25-17.26-40.66-26.95-65.06-26.95s-47.81,9.69-65.06,26.95c-17.25,17.26-26.95,40.66-26.95,65.06H227.88Z"/><path class="uuid-88f60556-79b0-471a-8827-e379704db648" d="M202.1,77.85l-3.46,10.81-7.63-8.4,11.09-2.41Z"/><path class="uuid-984677d1-03e1-46c2-ace7-23902cad9fe4" d="M207.43,136.4c0-18.98-7.54-37.18-20.96-50.6s-31.62-20.96-50.6-20.96-37.18,7.54-50.6,20.96c-13.42,13.42-20.96,31.62-20.96,50.6H207.43Z"/><path class="uuid-0f69f2a5-e7b1-43ad-9615-4b6123858737" d="M84.36,122.33l6.77-15.31,1.01,1.68h-9.05l1.73-1.82v4.56h-3.46v-5.9h13.46v2.52l-6.24,14.28h-4.22Zm10.43-3.53v-2.62l7.92-10.66h4.08l-7.75,10.66-1.9-.55h13.22v3.17h-15.58Zm9.05,3.53v-3.53l.12-3.17v-3.14h3.67v9.84h-3.79Zm14.89,.29c-1.38,0-2.61-.34-3.7-1.01-1.09-.69-1.94-1.68-2.57-2.98-.62-1.3-.94-2.86-.94-4.7s.31-3.41,.94-4.7c.62-1.3,1.48-2.28,2.57-2.95,1.09-.69,2.32-1.03,3.7-1.03s2.62,.34,3.7,1.03c1.09,.67,1.94,1.66,2.57,2.95,.62,1.3,.94,2.86,.94,4.7s-.31,3.41-.94,4.7c-.62,1.3-1.48,2.29-2.57,2.98-1.07,.67-2.3,1.01-3.7,1.01Zm0-3.29c.66,0,1.22-.18,1.7-.55,.5-.37,.88-.95,1.15-1.75,.29-.8,.43-1.83,.43-3.1s-.14-2.3-.43-3.1c-.27-.8-.66-1.38-1.15-1.75-.48-.37-1.05-.55-1.7-.55s-1.21,.18-1.7,.55c-.48,.37-.86,.95-1.15,1.75-.27,.8-.41,1.83-.41,3.1s.14,2.3,.41,3.1c.29,.8,.67,1.38,1.15,1.75,.5,.37,1.06,.55,1.7,.55Zm16.2-2.26v-3h6.79v3h-6.79Zm18.43,5.26l6.77-15.31,1.01,1.68h-9.05l1.73-1.82v4.56h-3.46v-5.9h13.46v2.52l-6.24,14.28h-4.22Zm18.1-17.09c1.55,0,2.89,.32,4.01,.96s1.98,1.58,2.59,2.81c.61,1.22,.91,2.74,.91,4.56,0,1.94-.37,3.58-1.1,4.92-.72,1.34-1.72,2.37-3,3.07-1.28,.7-2.77,1.06-4.46,1.06-.88,0-1.73-.1-2.54-.29-.82-.19-1.52-.48-2.11-.86l1.44-2.86c.46,.32,.96,.54,1.49,.67,.53,.11,1.08,.17,1.66,.17,1.44,0,2.58-.44,3.43-1.32,.86-.88,1.3-2.18,1.3-3.91,0-.29,0-.61-.02-.96-.02-.35-.06-.7-.12-1.06l1.06,1.01c-.27,.62-.66,1.15-1.15,1.58-.5,.42-1.07,.74-1.73,.96-.66,.21-1.39,.31-2.21,.31-1.07,0-2.05-.22-2.93-.65-.86-.43-1.56-1.04-2.09-1.82-.51-.78-.77-1.7-.77-2.76,0-1.15,.28-2.14,.84-2.98,.58-.83,1.34-1.47,2.3-1.92,.98-.46,2.05-.7,3.22-.7Zm.24,2.9c-.56,0-1.05,.1-1.46,.31-.42,.19-.74,.48-.98,.86-.24,.37-.36,.81-.36,1.32,0,.77,.26,1.38,.77,1.85,.53,.45,1.22,.67,2.09,.67,.56,0,1.06-.1,1.49-.31,.45-.22,.79-.53,1.03-.91s.36-.82,.36-1.3-.12-.9-.36-1.27c-.22-.38-.55-.68-.98-.89-.43-.22-.96-.34-1.58-.34Zm15.04-2.9c1.55,0,2.89,.32,4.01,.96,1.12,.64,1.98,1.58,2.59,2.81,.61,1.22,.91,2.74,.91,4.56,0,1.94-.37,3.58-1.1,4.92-.72,1.34-1.72,2.37-3,3.07-1.28,.7-2.77,1.06-4.46,1.06-.88,0-1.73-.1-2.54-.29s-1.52-.48-2.11-.86l1.44-2.86c.46,.32,.96,.54,1.49,.67,.53,.11,1.08,.17,1.66,.17,1.44,0,2.58-.44,3.43-1.32,.86-.88,1.3-2.18,1.3-3.91,0-.29,0-.61-.02-.96-.02-.35-.06-.7-.12-1.06l1.06,1.01c-.27,.62-.66,1.15-1.15,1.58-.5,.42-1.07,.74-1.73,.96-.66,.21-1.39,.31-2.21,.31-1.07,0-2.05-.22-2.93-.65-.86-.43-1.56-1.04-2.09-1.82-.51-.78-.77-1.7-.77-2.76,0-1.15,.28-2.14,.84-2.98,.58-.83,1.34-1.47,2.3-1.92,.98-.46,2.05-.7,3.22-.7Zm.24,2.9c-.56,0-1.05,.1-1.46,.31-.42,.19-.74,.48-.98,.86-.24,.37-.36,.81-.36,1.32,0,.77,.26,1.38,.77,1.85,.53,.45,1.22,.67,2.09,.67,.56,0,1.06-.1,1.49-.31,.45-.22,.79-.53,1.03-.91,.24-.38,.36-.82,.36-1.3s-.12-.9-.36-1.27c-.22-.38-.55-.68-.98-.89-.43-.22-.96-.34-1.58-.34Z"/></svg>