<?xml version="1.0" encoding="utf-8"?>
<!-- Generator: Adobe Illustrator 26.4.0, SVG Export Plug-In . SVG Version: 6.00 Build 0)  -->
<svg version="1.1" id="Layer_1" xmlns="http://www.w3.org/2000/svg" xmlns:xlink="http://www.w3.org/1999/xlink" x="0px" y="0px"
	 viewBox="0 0 375 184" style="enable-background:new 0 0 375 184;" xml:space="preserve">
<style type="text/css">
	.st0{fill:#565656;filter:url(#Adobe_OpacityMaskFilter);}
	.st1{mask:url(#mask0_1262_46542_00000128478321632508476900000011663915457259062660_);}
	.st2{opacity:0.2;}
	.st3{fill:#E95833;fill-opacity:0.4;}
	.st4{opacity:0.5;fill:#E95833;enable-background:new    ;}
	.st5{fill:#E95833;}
	.st6{fill:#BE2600;fill-opacity:0.8;}
	.st7{fill:#FFF2EE;}
</style>
<defs>
	<filter id="Adobe_OpacityMaskFilter" filterUnits="userSpaceOnUse" x="-37" y="-34" width="477.6" height="236">
		<feColorMatrix  type="matrix" values="1 0 0 0 0  0 1 0 0 0  0 0 1 0 0  0 0 0 1 0"/>
	</filter>
</defs>
<mask maskUnits="userSpaceOnUse" x="-37" y="-34" width="477.6" height="236" id="mask0_1262_46542_00000128478321632508476900000011663915457259062660_">
	<rect x="-1.4" class="st0" width="375" height="184"/>
</mask>
<g class="st1">
	<g class="st2">
		<path class="st3" d="M59.2-23.3L59.2-23.3c-6.9-7-18.2-7.1-25.2-0.2L-31.7,41c-7,6.9-7.1,18.2-0.2,25.2l0,0
			c6.9,7,18.2,7.1,25.2,0.2L59,2C66-4.9,66.1-16.2,59.2-23.3z"/>
		<path class="st4" d="M58.5,41.9L58.5,41.9c-3.8-3.8-9.9-3.9-13.7-0.1L27.9,58.3c-3.8,3.8-3.9,9.9-0.1,13.7l0,0
			c3.8,3.8,9.9,3.9,13.7,0.1l16.8-16.5C62.2,51.9,62.3,45.7,58.5,41.9z"/>
	</g>
	<g class="st2">
		<path class="st5" d="M415.1-10L415.1-10c-6.9-7-18.2-7.1-25.2-0.2l-48.4,47.5c-7,6.9-7.1,18.2-0.2,25.2l0,0
			c6.9,7,18.2,7.1,25.2,0.2l48.4-47.5C421.9,8.3,422-3,415.1-10z"/>
		<path class="st6" d="M316.3,34.5L316.3,34.5c-2.7-2.7-7.1-2.8-9.8-0.1l-12.1,11.8c-2.7,2.7-2.8,7.1-0.1,9.8l0,0
			c2.7,2.7,7.1,2.8,9.8,0.1l12.1-11.8C319,41.6,319,37.2,316.3,34.5z"/>
		<path class="st4" d="M354.5-31.1L354.5-31.1c-3.8-3.8-9.9-3.9-13.7-0.1l-16.8,16.5c-3.8,3.8-3.9,9.9-0.1,13.7l0,0
			c3.8,3.8,9.9,3.9,13.7,0.1l16.8-16.5C358.2-21.1,358.3-27.3,354.5-31.1z"/>
	</g>
	<path class="st7" d="M440,200.9c0,0,9.8-103.5-50.2-122.5c-60.1-19-75.8,23.3-105.4,4.2c-29.5-19.1-46.9-52.2-88.6-70.6
		c-56.1-24.8-83.7,51.5-114.2,50.5c-36.4-1.2-85.4-29-102.4,51.6c-9,42.8,2,87.9,2,87.9L440,200.9L440,200.9z"/>
</g>
</svg>
