<svg xmlns="http://www.w3.org/2000/svg" xmlns:xlink="http://www.w3.org/1999/xlink" id="Layer_2" x="0px" y="0px" viewBox="0 0 1514.2 882.7" style="enable-background:new 0 0 1514.2 882.7;" xml:space="preserve"><style type="text/css">	.st0{clip-path:url(#SVGID_00000088835988726228932320000010419318037472052670_);}	.st1{fill:none;stroke:url(#SVGID_00000075884399639711430100000016149813591135236760_);stroke-width:2;}	.st2{fill:none;stroke:url(#SVGID_00000112593499601348689940000001317869989012767361_);stroke-width:2;}	.st3{fill:none;stroke:url(#SVGID_00000013164734581593187110000001694217650382614151_);stroke-width:2;}	.st4{fill:none;stroke:url(#SVGID_00000056411279313111208440000014300742435073890697_);stroke-width:2;}	.st5{fill:none;stroke:url(#SVGID_00000178885196646114121580000017913175037188817078_);stroke-width:2;}	.st6{fill:none;stroke:url(#SVGID_00000139294943015475661140000005867937987354044825_);stroke-width:2;}	.st7{fill:none;stroke:url(#SVGID_00000037690055820234202820000002193481158923462281_);stroke-width:2;}	.st8{fill:none;stroke:url(#SVGID_00000168105341931184592780000006051323192231926921_);stroke-width:2;}	.st9{fill:none;stroke:url(#SVGID_00000083062038443178825630000001586395578150838702_);stroke-width:2;}	.st10{fill:none;stroke:url(#SVGID_00000093163080232193793550000013919593709879071892_);stroke-width:2;}	.st11{fill:none;stroke:url(#SVGID_00000137121810102780174820000016891764831830620564_);stroke-width:2;}	.st12{fill:none;stroke:url(#SVGID_00000059268864299534842060000004091812631821089159_);stroke-width:2;}	.st13{fill:none;stroke:url(#SVGID_00000152982790738967770890000017365492410799651203_);stroke-width:2;}	.st14{fill:none;stroke:url(#SVGID_00000134232681902700885080000006986578988474862495_);stroke-width:2;}</style><defs>	<rect id="SVGID_1_" width="1514.2" height="882.7"></rect></defs><clipPath id="SVGID_00000132056379568131839150000007860210507438673553_">	<use xlink:href="#SVGID_1_" style="overflow:visible;"></use></clipPath><g style="clip-path:url(#SVGID_00000132056379568131839150000007860210507438673553_);">			<linearGradient id="SVGID_00000065052765696091719800000011526840026149853064_" gradientUnits="userSpaceOnUse" x1="1113.9923" y1="-11.541" x2="1113.9923" y2="494.698" gradientTransform="matrix(1 0 0 1 0 388)">		<stop offset="0" style="stop-color:#FFFFFF"></stop>		<stop offset="1" style="stop-color:#FFFFFF;stop-opacity:0"></stop>	</linearGradient>	<path style="fill:none;stroke:url(#SVGID_00000065052765696091719800000011526840026149853064_);stroke-width:2;" d="M475.9,882.7   c0,0,358-356.5,466.9-442.1s217.9-85.6,326.8,0s482.5,442.1,482.5,442.1"></path>			<linearGradient id="SVGID_00000025436289165427740470000013313169691338934932_" gradientUnits="userSpaceOnUse" x1="1116.1925" y1="49.035" x2="1116.1925" y2="494.698" gradientTransform="matrix(1 0 0 1 0 388)">		<stop offset="0" style="stop-color:#FFFFFF"></stop>		<stop offset="1" style="stop-color:#FFFFFF;stop-opacity:0"></stop>	</linearGradient>	<path style="fill:none;stroke:url(#SVGID_00000025436289165427740470000013313169691338934932_);stroke-width:2;" d="M558.1,882.7   c0,0,313.1-313.8,408.4-389.2c95.3-75.3,190.6-75.3,285.8,0c95.3,75.3,422,389.2,422,389.2"></path>			<linearGradient id="SVGID_00000021110105127897957690000005257683657058785937_" gradientUnits="userSpaceOnUse" x1="1116.1425" y1="113.937" x2="1116.1425" y2="494.698" gradientTransform="matrix(1 0 0 1 0 388)">		<stop offset="0" style="stop-color:#FFFFFF"></stop>		<stop offset="1" style="stop-color:#FFFFFF;stop-opacity:0"></stop>	</linearGradient>	<path style="fill:none;stroke:url(#SVGID_00000021110105127897957690000005257683657058785937_);stroke-width:2;" d="M640.3,882.7   c0,0,267-268.1,348.2-332.5c81.3-64.4,162.5-64.4,243.7,0S1592,882.7,1592,882.7"></path>			<linearGradient id="SVGID_00000131326481535381089160000000282473496361992582_" gradientUnits="userSpaceOnUse" x1="1113.9923" y1="174.513" x2="1113.9923" y2="494.698" gradientTransform="matrix(1 0 0 1 0 388)">		<stop offset="0" style="stop-color:#FFFFFF"></stop>		<stop offset="1" style="stop-color:#FFFFFF;stop-opacity:0"></stop>	</linearGradient>	<path style="fill:none;stroke:url(#SVGID_00000131326481535381089160000000282473496361992582_);stroke-width:2;" d="M713.8,882.7   c0,0,224.5-225.5,292.8-279.6c68.3-54.1,136.6-54.1,205,0c68.3,54.1,302.6,279.6,302.6,279.6"></path>			<linearGradient id="SVGID_00000122686558419336161440000010351334376509735839_" gradientUnits="userSpaceOnUse" x1="1113.9924" y1="239.415" x2="1113.9924" y2="494.698" gradientTransform="matrix(1 0 0 1 0 388)">		<stop offset="0" style="stop-color:#FFFFFF"></stop>		<stop offset="1" style="stop-color:#FFFFFF;stop-opacity:0"></stop>	</linearGradient>	<path style="fill:none;stroke:url(#SVGID_00000122686558419336161440000010351334376509735839_);stroke-width:2;" d="M796,882.7   c0,0,178.4-179.8,232.7-222.9c54.3-43.1,108.6-43.1,162.9,0S1432,882.7,1432,882.7"></path>			<linearGradient id="SVGID_00000178201463350529437250000006994225765360275367_" gradientUnits="userSpaceOnUse" x1="1113.9923" y1="304.318" x2="1113.9923" y2="494.698" gradientTransform="matrix(1 0 0 1 0 388)">		<stop offset="0" style="stop-color:#FFFFFF"></stop>		<stop offset="1" style="stop-color:#FFFFFF;stop-opacity:0"></stop>	</linearGradient>	<path style="fill:none;stroke:url(#SVGID_00000178201463350529437250000006994225765360275367_);stroke-width:2;" d="M873.9,882.7   c0,0,134.7-134.1,175.7-166.2c41-32.2,82-32.2,123,0s181.5,166.2,181.5,166.2"></path>			<linearGradient id="SVGID_00000031901265118240336000000016290690337769914545_" gradientUnits="userSpaceOnUse" x1="1113.9928" y1="364.893" x2="1113.9928" y2="494.698" gradientTransform="matrix(1 0 0 1 0 388)">		<stop offset="0" style="stop-color:#FFFFFF"></stop>		<stop offset="1" style="stop-color:#FFFFFF;stop-opacity:0"></stop>	</linearGradient>	<path style="fill:none;stroke:url(#SVGID_00000031901265118240336000000016290690337769914545_);stroke-width:2;" d="M956.1,882.7   c0,0,88.6-91.4,115.5-113.4c27-21.9,53.9-21.9,80.9,0s119.4,113.4,119.4,113.4"></path>			<linearGradient id="SVGID_00000029754239426916691770000008257888821440913796_" gradientUnits="userSpaceOnUse" x1="1113.9929" y1="429.796" x2="1113.9929" y2="494.698" gradientTransform="matrix(1 0 0 1 0 388)">		<stop offset="0" style="stop-color:#FFFFFF"></stop>		<stop offset="1" style="stop-color:#FFFFFF;stop-opacity:0"></stop>	</linearGradient>	<path style="fill:none;stroke:url(#SVGID_00000029754239426916691770000008257888821440913796_);stroke-width:2;" d="M1038.3,882.7   c0,0,42.5-45.7,55.4-56.7s25.9-11,38.8,0s57.2,56.7,57.2,56.7"></path>			<linearGradient id="SVGID_00000098908334032913384880000017768374607053174412_" gradientUnits="userSpaceOnUse" x1="1113.9924" y1="-76.443" x2="1113.9924" y2="494.6979" gradientTransform="matrix(1 0 0 1 0 388)">		<stop offset="0" style="stop-color:#FFFFFF"></stop>		<stop offset="1" style="stop-color:#FFFFFF;stop-opacity:0"></stop>	</linearGradient>	<path style="fill:none;stroke:url(#SVGID_00000098908334032913384880000017768374607053174412_);stroke-width:2;" d="M398,882.7   c0,0,401.7-402.2,523.9-498.7s244.5-96.5,366.7,0S1830,882.7,1830,882.7"></path>			<linearGradient id="SVGID_00000005971884998016661450000007694326580158998192_" gradientUnits="userSpaceOnUse" x1="1113.9424" y1="-141.346" x2="1113.9424" y2="494.6979" gradientTransform="matrix(1 0 0 1 0 388)">		<stop offset="0" style="stop-color:#FFFFFF"></stop>		<stop offset="1" style="stop-color:#FFFFFF;stop-opacity:0"></stop>	</linearGradient>	<path style="fill:none;stroke:url(#SVGID_00000005971884998016661450000007694326580158998192_);stroke-width:2;" d="M320.1,882.7   c0,0,445.3-447.9,580.9-555.4s271.1-107.5,406.6,0s600.2,555.4,600.2,555.4"></path>			<linearGradient id="SVGID_00000155146620626216344820000007751291273410052029_" gradientUnits="userSpaceOnUse" x1="1113.9924" y1="-197.595" x2="1113.9924" y2="499.025" gradientTransform="matrix(1 0 0 1 0 388)">		<stop offset="0" style="stop-color:#FFFFFF"></stop>		<stop offset="1" style="stop-color:#FFFFFF;stop-opacity:0"></stop>	</linearGradient>	<path style="fill:none;stroke:url(#SVGID_00000155146620626216344820000007751291273410052029_);stroke-width:2;" d="M242.3,887   c0,0,489-490.6,637.9-608.3c148.8-117.7,297.7-117.7,446.5,0c148.7,117.7,659,608.3,659,608.3"></path>			<linearGradient id="SVGID_00000121958873694335457640000001436418229230584477_" gradientUnits="userSpaceOnUse" x1="1114.0424" y1="-262.497" x2="1114.0424" y2="499.025" gradientTransform="matrix(1 0 0 1 0 388)">		<stop offset="0" style="stop-color:#FFFFFF"></stop>		<stop offset="1" style="stop-color:#FFFFFF;stop-opacity:0"></stop>	</linearGradient>	<path style="fill:none;stroke:url(#SVGID_00000121958873694335457640000001436418229230584477_);stroke-width:2;" d="M160.1,887   c0,0,535.1-536.3,698-665s325.7-128.7,488.6,0S2068,887,2068,887"></path>			<linearGradient id="SVGID_00000087383014298264028170000002288574370839566760_" gradientUnits="userSpaceOnUse" x1="1113.9924" y1="-327.3992" x2="1113.9924" y2="499.025" gradientTransform="matrix(1 0 0 1 0 388)">		<stop offset="0" style="stop-color:#FFFFFF"></stop>		<stop offset="1" style="stop-color:#FFFFFF;stop-opacity:0"></stop>	</linearGradient>	<path style="fill:none;stroke:url(#SVGID_00000087383014298264028170000002288574370839566760_);stroke-width:2;" d="M77.9,887   c0,0,581.2-582,758.1-721.7s353.8-139.7,530.7,0S2150.1,887,2150.1,887"></path>			<linearGradient id="SVGID_00000125565508851446237690000002379882022830900621_" gradientUnits="userSpaceOnUse" x1="1113.9924" y1="-387.975" x2="1113.9924" y2="499.025" gradientTransform="matrix(1 0 0 1 0 388)">		<stop offset="0" style="stop-color:#FFFFFF"></stop>		<stop offset="1" style="stop-color:#FFFFFF;stop-opacity:0"></stop>	</linearGradient>	<path style="fill:none;stroke:url(#SVGID_00000125565508851446237690000002379882022830900621_);stroke-width:2;" d="M0,887   c0,0,624.9-624.6,815.1-774.6c190.2-149.9,380.4-149.9,570.6,0C1575.9,262.4,2228,887,2228,887"></path></g></svg>