<svg xmlns="http://www.w3.org/2000/svg" width="51" height="37" viewBox="0 0 51 37" fill="none"><path d="M24.7072 0.289062L18.3409 15.5984C21.524 17.8721 23.0398 21.2068 23.0398 24.9962C23.0398 31.9688 18.0377 36.8193 11.3683 36.8193C5.30522 36.8193 0 32.5751 0 24.9962C0 21.3584 1.21262 18.3268 3.18313 15.5984L13.3388 0.289062H24.7072ZM50.9301 0.289062L44.5638 15.5984C47.747 17.8721 49.2627 21.2068 49.2627 24.9962C49.2627 31.9688 44.2607 36.8193 37.5913 36.8193C31.5282 36.8193 26.2229 32.5751 26.2229 24.9962C26.2229 21.3584 27.4356 18.3268 29.4061 15.5984L39.5618 0.289062H50.9301Z" fill="#0A73D4"></path></svg>