<svg xmlns="http://www.w3.org/2000/svg" width="161" height="109" viewBox="0 0 161 109" fill="none"><path d="M20.8719 47.9297L8.27597 60.5214C-2.75866 71.5756 -2.75866 89.6547 8.27597 100.682V100.709C19.3106 111.737 37.3576 111.737 48.3658 100.709L76.4155 72.6095V72.6625C77.5269 71.7612 78.9294 71.231 80.4641 71.231C81.9989 71.231 83.4014 71.7612 84.5128 72.6625H84.5658L60.406 48.4599C49.5037 37.5647 31.9594 37.3791 20.8719 47.9297Z" fill="#00807B"></path><path d="M152.649 60.5219L100.545 8.32587L100.519 8.29936C99.8307 7.61013 99.1162 6.97391 98.3753 6.36421C87.2613 -2.72834 70.749 -2.06562 60.4024 8.27285C60.2172 8.45841 60.0584 8.64397 59.8732 8.82953L58.3119 10.3936L20.8418 47.9301C31.9558 37.3796 49.5001 37.5652 60.3759 48.4868L84.5357 72.6895L112.532 100.709C123.567 111.764 141.614 111.764 152.649 100.709C163.683 89.6551 163.683 71.5761 152.649 60.5219Z" fill="#00B1AC"></path></svg>