<svg width="24" height="24" viewBox="0 0 24 24" fill="none" xmlns="http://www.w3.org/2000/svg">
<mask id="mask0_748_3372" style="mask-type:alpha" maskUnits="userSpaceOnUse" x="0" y="0" width="24" height="24">
<rect width="24" height="24" fill="#D9D9D9"/>
</mask>
<g mask="url(#mask0_748_3372)">
<path d="M10.8996 17.1504H13.1496V11.0004H10.8996V17.1504ZM12 8.87524C12.3 8.87524 12.5584 8.76284 12.7752 8.53804C12.992 8.31244 13.1004 8.04964 13.1004 7.74964C13.1004 7.46644 12.992 7.21244 12.7752 6.98764C12.5584 6.76284 12.3 6.65044 12 6.65044C11.7 6.65044 11.4416 6.75884 11.2248 6.97564C11.008 7.19164 10.8996 7.44964 10.8996 7.74964C10.8996 8.04964 11.008 8.31244 11.2248 8.53804C11.4416 8.76284 11.7 8.87524 12 8.87524ZM12 22.2996C10.5664 22.2996 9.22478 22.0288 7.97518 21.4872C6.72478 20.9456 5.63718 20.2124 4.71238 19.2876C3.78758 18.3628 3.05438 17.2752 2.51278 16.0248C1.97118 14.7752 1.70038 13.4336 1.70038 12C1.70038 10.5664 1.97118 9.22044 2.51278 7.96204C3.05438 6.70364 3.78758 5.61204 4.71238 4.68724C5.63718 3.76244 6.72478 3.03324 7.97518 2.49964C9.22478 1.96684 10.5664 1.70044 12 1.70044C13.4336 1.70044 14.7796 1.96684 16.038 2.49964C17.2964 3.03324 18.388 3.76244 19.3128 4.68724C20.2376 5.61204 20.9668 6.70364 21.5004 7.96204C22.0332 9.22044 22.2996 10.5664 22.2996 12C22.2996 13.4336 22.0332 14.7752 21.5004 16.0248C20.9668 17.2752 20.2376 18.3628 19.3128 19.2876C18.388 20.2124 17.2964 20.9456 16.038 21.4872C14.7796 22.0288 13.4336 22.2996 12 22.2996ZM12 20.0496C14.2336 20.0496 16.1336 19.2664 17.7 17.7C19.2664 16.1336 20.0496 14.2336 20.0496 12C20.0496 9.76644 19.2664 7.86644 17.7 6.30004C16.1336 4.73364 14.2336 3.95044 12 3.95044C9.76638 3.95044 7.86638 4.73364 6.29998 6.30004C4.73358 7.86644 3.95038 9.76644 3.95038 12C3.95038 14.2336 4.73358 16.1336 6.29998 17.7C7.86638 19.2664 9.76638 20.0496 12 20.0496Z" fill="#00807B"/>
</g>
</svg>
