<?xml version="1.0" encoding="UTF-8"?>
<svg xmlns="http://www.w3.org/2000/svg" width="213" height="143" viewBox="0 0 213 143" fill="none">
  <path d="M28.4195 62.9763V62.9763L11.8698 79.364C-2.62849 93.7507 -2.62849 117.28 11.8698 131.632V131.667C26.3682 146.019 50.08 146.019 64.5436 131.667L101.398 95.0962V95.1652C102.858 93.9922 104.701 93.3022 106.717 93.3022C108.734 93.3022 110.577 93.9922 112.037 95.1652H112.106L80.3631 63.6663C66.0386 49.4866 42.9873 49.2451 28.4195 62.9763" fill="#00807B"></path>
  <path d="M201.563 79.3647L133.105 11.4333L133.07 11.3988C132.166 10.5017 131.227 9.67373 130.254 8.88022C115.651 -2.95343 93.9556 -2.09092 80.3612 11.3643C80.1178 11.6058 79.9092 11.8473 79.6658 12.0888L77.6145 14.1243L28.3828 62.9769V62.9769C42.9854 49.2458 66.0367 49.4873 80.3264 63.7014L112.07 95.2004L148.854 131.667C163.353 146.054 187.065 146.054 201.563 131.667C216.061 117.281 216.061 93.7513 201.563 79.3647" fill="#00B1AC"></path>
</svg>
