<svg xmlns="http://www.w3.org/2000/svg" xmlns:xlink="http://www.w3.org/1999/xlink" id="Layer_1" x="0px" y="0px" viewBox="0 0 187 1" style="enable-background:new 0 0 187 1;" xml:space="preserve"><style type="text/css">	.st0{fill:#00B1AC;}</style><g>	<path class="st0" d="M187,1h-1V0h1V1z M179.2,1h-1V0h1V1z M171.5,1h-1V0h1V1z M163.8,1h-1V0h1V1z M156,1h-1V0h1V1z M148.2,1h-1V0h1   V1z M140.5,1h-1V0h1V1z M132.8,1h-1V0h1V1z M125,1h-1V0h1V1z M117.2,1h-1V0h1V1z M109.5,1h-1V0h1V1z M101.8,1h-1V0h1V1z M94,1h-1V0   h1V1z M86.2,1h-1V0h1V1z M78.5,1h-1V0h1V1z M70.8,1h-1V0h1V1z M63,1h-1V0h1V1z M55.2,1h-1V0h1V1z M47.5,1h-1V0h1V1z M39.8,1h-1V0h1   V1z M32,1h-1V0h1V1z M24.2,1h-1V0h1V1z M16.5,1h-1V0h1V1z M8.8,1h-1V0h1V1z M1,1H0V0h1V1z"></path></g></svg>