<svg xmlns="http://www.w3.org/2000/svg" xmlns:xlink="http://www.w3.org/1999/xlink" id="Layer_1" x="0px" y="0px" viewBox="0 0 42 42" style="enable-background:new 0 0 42 42;" xml:space="preserve"><style type="text/css">	.st0{fill:#046360;}	.st1{fill:#FFFFFF;}	.st2{fill:#DDDDDD;}</style><circle class="st0" cx="21" cy="21" r="21"></circle><path class="st1" d="M32.5,10.8H9.6c-0.3,0-0.5,0.2-0.4,0.4v16c0,0.2,0.2,0.4,0.4,0.4h9.5v3.1h-5c-0.2,0-0.4,0.2-0.4,0.4  c0,0.2,0.2,0.4,0.4,0.4h13.8c0.2,0,0.4-0.2,0.4-0.4c0-0.2-0.2-0.4-0.4-0.4h-5v-3.1h9.6c0.2,0,0.4-0.2,0.4-0.4v-16  C32.9,11,32.7,10.8,32.5,10.8z M32,26.8H10V11.7h22V26.8z"></path><g>	<path id="Path_5_" class="st2" d="M17.3,19.3L17.3,19.3L16.5,20c-0.7,0.7-0.7,1.8,0,2.5l0,0c0.7,0.7,1.8,0.7,2.5,0l1.8-1.8l0,0   c0.1-0.1,0.2-0.1,0.2-0.1c0.1,0,0.2,0,0.2,0.1l0,0l-1.5-1.5C19.1,18.6,18,18.6,17.3,19.3"></path>	<path id="Path_6_" class="st1" d="M25.5,20l-3.3-3.3l0,0c-0.1-0.1-0.1-0.1-0.1-0.1c-0.7-0.6-1.7-0.5-2.4,0.1l0,0l-0.1,0.1l-2.4,2.4   l0,0c0.7-0.7,1.8-0.6,2.5,0l1.5,1.5l1.8,1.7c0.7,0.7,1.8,0.7,2.5,0S26.2,20.7,25.5,20"></path></g></svg>