<svg xmlns="http://www.w3.org/2000/svg" xmlns:xlink="http://www.w3.org/1999/xlink" id="Layer_1" x="0px" y="0px" viewBox="0 0 42 42" style="enable-background:new 0 0 42 42;" xml:space="preserve"><style type="text/css">	.st0{fill:#046360;}	.st1{fill-rule:evenodd;clip-rule:evenodd;fill:#FFFFFF;}</style><circle class="st0" cx="21" cy="21" r="21"></circle><g>	<path class="st1" d="M18.2,13.9c0,1.1,0.9,1.9,1.9,1.9c1.1,0,1.9-0.8,1.9-1.9c0-1.1-0.9-1.9-1.9-1.9C19,12,18.2,12.8,18.2,13.9z    M21,13.8c0,0.5-0.4,0.9-0.9,0.9s-0.9-0.4-0.9-0.9s0.4-0.9,0.9-0.9S21,13.3,21,13.8z"></path>	<path class="st1" d="M32.9,16.9l-12-8c-0.2-0.1-0.4-0.1-0.5,0l-12,8C8,17,8,17.2,8,17.4c0.1,0.2,0.3,0.3,0.5,0.3h2v8.4   c0,0.3,0.2,0.5,0.5,0.5s0.5-0.2,0.5-0.5v-8.4h3.1v10.1h-5c-0.3,0-0.5,0.2-0.5,0.5s0.2,0.5,0.5,0.5h22.2c0.3,0,0.5-0.2,0.5-0.5   s-0.2-0.5-0.5-0.5h-1.4V17.7h2.3c0.2,0,0.4-0.1,0.4-0.3C33.2,17.2,33.1,17,32.9,16.9z M25.3,27.8h-2.6v-6.4c0-1.2-1-2.2-2.1-2.2   c-1.2,0-2.1,1-2.1,2.2v4.8c0,0.3,0.2,0.5,0.5,0.5s0.5-0.2,0.5-0.5v-4.8c0-0.7,0.5-1.2,1.2-1.2s1.2,0.5,1.2,1.2v6.4h-6.3V17.7h9.7   V27.8z M29.3,27.8h-3.1V17.7h3.1V27.8z M10,16.8l10.5-7l10.5,7H10z"></path>	<path class="st1" d="M32.5,29.5h-24C8.2,29.5,8,29.7,8,30s0.2,0.5,0.5,0.5h24.1c0.3,0,0.5-0.2,0.5-0.5C33,29.7,32.8,29.5,32.5,29.5   z"></path></g></svg>