<?xml version="1.0" encoding="utf-8"?>
<!-- Generator: Adobe Illustrator 26.4.0, SVG Export Plug-In . SVG Version: 6.00 Build 0)  -->
<svg version="1.1" id="Layer_1" xmlns="http://www.w3.org/2000/svg" xmlns:xlink="http://www.w3.org/1999/xlink" x="0px" y="0px"
	 viewBox="0 0 375 184" style="enable-background:new 0 0 375 184;" xml:space="preserve">
<style type="text/css">
	.st0{fill:#565656;filter:url(#Adobe_OpacityMaskFilter);}
	.st1{mask:url(#mask0_1262_46542_00000016053520417789490270000009705675148659491738_);}
	.st2{opacity:0.2;}
	.st3{fill:#4ABE65;fill-opacity:0.4;}
	.st4{opacity:0.5;fill:#4ABE65;enable-background:new    ;}
	.st5{fill:#4ABE65;}
	.st6{fill:#0C7F29;fill-opacity:0.8;}
	.st7{opacity:0.5;fill:#00A19A;enable-background:new    ;}
	.st8{fill:#EBFCEE;}
</style>
<defs>
	<filter id="Adobe_OpacityMaskFilter" filterUnits="userSpaceOnUse" x="-35.6" y="-28.6" width="477.6" height="230.6">
		<feColorMatrix  type="matrix" values="1 0 0 0 0  0 1 0 0 0  0 0 1 0 0  0 0 0 1 0"/>
	</filter>
</defs>
<mask maskUnits="userSpaceOnUse" x="-35.6" y="-28.6" width="477.6" height="230.6" id="mask0_1262_46542_00000016053520417789490270000009705675148659491738_">
	<rect class="st0" width="375" height="184"/>
</mask>
<g class="st1">
	<g class="st2">
		<path class="st3" d="M60.6-23.3L60.6-23.3c-6.9-7-18.2-7.1-25.2-0.2L-30.3,41c-7,6.9-7.1,18.2-0.2,25.2l0,0
			c6.9,7,18.2,7.1,25.2,0.2L60.4,2C67.4-4.9,67.5-16.2,60.6-23.3z"/>
		<path class="st4" d="M59.9,41.9L59.9,41.9c-3.8-3.8-9.9-3.9-13.7-0.1L29.4,58.3c-3.8,3.8-3.9,9.9-0.1,13.7l0,0
			c3.8,3.8,9.9,3.9,13.7,0.1l16.8-16.5C63.6,51.9,63.7,45.7,59.9,41.9z"/>
	</g>
	<g class="st2">
		<path class="st5" d="M416.5-10L416.5-10c-6.9-7-18.2-7.1-25.2-0.2l-48.4,47.5c-7,6.9-7.1,18.2-0.2,25.2l0,0
			c6.9,7,18.2,7.1,25.2,0.2l48.4-47.5C423.3,8.3,423.4-3,416.5-10z"/>
		<path class="st6" d="M317.7,34.5L317.7,34.5c-2.7-2.7-7.1-2.8-9.8-0.1l-12.1,11.8c-2.7,2.7-2.8,7.1-0.1,9.8l0,0
			c2.7,2.7,7.1,2.8,9.8,0.1l12.1-11.8C320.4,41.6,320.4,37.2,317.7,34.5z"/>
		<path class="st7" d="M375.7,87.1L375.7,87.1c-1.7-1.8-4.5-1.8-6.3-0.1l-7.7,7.6c-1.8,1.7-1.8,4.5-0.1,6.3l0,0
			c1.7,1.8,4.5,1.8,6.3,0.1l7.7-7.6C377.4,91.7,377.4,88.9,375.7,87.1z"/>
	</g>
	<path class="st8" d="M441.4,200.9c0,0,9.8-103.5-50.2-122.5c-60.1-19-75.8,23.3-105.4,4.2c-29.5-19.1-46.9-52.2-88.6-70.6
		C141.1-12.8,113.5,63.5,83,62.5c-36.4-1.2-85.4-29-102.4,51.6c-9,42.8,2,87.9,2,87.9L441.4,200.9L441.4,200.9z"/>
</g>
</svg>
