<svg width="76" height="80" viewBox="0 0 76 80" fill="none" xmlns="http://www.w3.org/2000/svg">
<path fill-rule="evenodd" clip-rule="evenodd" d="M61.5221 17.1443C62.3009 17.1443 62.9313 17.7868 62.9313 18.5784V25.2683L70.9913 33.771C71.2563 34.0492 71.3878 34.425 71.3775 34.8093C71.3788 34.8318 71.3828 34.8533 71.3847 34.8756L71.3859 34.9002V54.292C71.3859 54.2983 71.3859 54.3047 71.3858 54.311L71.3859 71.0219C71.3859 72.1004 70.9509 73.0766 70.2501 73.7813C70.2491 73.7832 70.2491 73.7851 70.2472 73.787C70.2425 73.7918 70.236 73.7937 70.2303 73.7985C69.5426 74.4831 68.604 74.9085 67.5678 74.9085H8.56813C7.53186 74.9085 6.5933 74.4831 5.90558 73.7985C5.89995 73.7937 5.89337 73.7918 5.88867 73.787C5.8868 73.7851 5.8868 73.7832 5.88586 73.7813C5.18499 73.0766 4.75 72.1004 4.75 71.0219V34.9002C4.75 34.8686 4.75658 34.8399 4.75846 34.8093C4.74812 34.425 4.87965 34.0492 5.14459 33.771L13.2046 25.2683V18.5784C13.2046 17.7868 13.835 17.1443 14.6138 17.1443H21.3106L26.0058 12.6918L30.8192 7.79449C32.8229 5.75393 35.4508 4.75269 38.0682 4.80177C40.6857 4.75291 43.3133 5.75416 45.3167 7.79449L50.1293 12.6918L54.8253 17.1443H61.5221ZM33.3737 48.8412L20.59 61.3653C20.442 61.5098 20.271 61.6151 20.0895 61.6813L9.66358 72.0402H66.4723L56.0464 61.6813C55.8649 61.6151 55.6939 61.5098 55.5459 61.3653L42.7622 48.8412C41.4393 47.5881 39.7767 46.9387 38.1004 46.889H38.0355C36.3592 46.9387 34.6966 47.5881 33.3737 48.8412ZM7.5685 37.3488V70.1136L27.7001 50.109L7.5685 37.3488ZM68.5674 37.3488L48.4358 50.109L68.5674 70.1136V37.3488ZM60.1119 20.0126H16.024V25.5972C16.0522 25.7607 16.0522 25.9204 16.024 26.0839V35.3428L16.0225 35.3643V39.3269L29.7772 48.0435L30.8315 46.9969C32.829 44.9645 35.4532 43.9666 38.0682 44.0162C40.6833 43.9668 43.3071 44.9647 45.3044 46.9969L46.3578 48.0435L60.1125 39.3269V35.3643L60.1119 35.3428V26.0839C60.0837 25.9204 60.0837 25.7607 60.1119 25.5972V20.0126ZM13.2037 29.4318L8.3868 34.4881L13.2037 37.5408V29.4318ZM62.9313 29.4318V37.5408L67.7491 34.4881L62.9313 29.4318ZM33.3578 9.64265L27.9476 14.7709L25.6163 17.1443H50.5196L48.1875 14.7709L42.7781 9.64265C41.4478 8.38148 39.781 7.72782 38.1025 7.67599H38.0334C36.3549 7.72782 34.6881 8.38148 33.3578 9.64265Z" fill="#00807B"/>
<path fill-rule="evenodd" clip-rule="evenodd" d="M39.845 28.7524C39.5702 28.4662 39.2076 28.3311 38.7632 28.3486C37.9035 28.3805 37.1843 28.9412 36.6039 30.0278C36.0264 31.1144 35.7545 32.1546 35.794 33.1467C35.8159 33.7467 35.9738 34.2275 36.2632 34.5863C36.5542 34.9451 36.9518 35.1151 37.4562 35.0948C38.3407 35.0628 39.0395 34.367 39.5555 33.0131C40.0701 31.6563 40.3128 30.5973 40.285 29.8332C40.2675 29.3974 40.1213 29.0371 39.845 28.7524ZM34.1931 35.9591C33.5002 35.2691 33.1303 34.2842 33.0806 33.0029C33.025 31.5168 33.4797 30.1063 34.4475 28.7713C35.4139 27.4348 36.6375 26.739 38.1155 26.6823C38.9825 26.6504 39.6666 26.8625 40.1637 27.3215C40.5423 27.6774 40.8011 28.0914 40.9429 28.5621L41.3303 26.9932L43.6724 26.9061L42.2908 32.31C42.1841 32.7501 42.1066 33.077 42.0613 33.2876C42.0145 33.4997 41.9955 33.6828 42.0014 33.8382C42.0101 34.0852 42.1022 34.3132 42.2747 34.5253C42.4487 34.736 42.7177 34.8347 43.0817 34.8217C43.7922 34.7955 44.4881 34.306 45.1679 33.3559C45.8463 32.4059 46.1562 31.1653 46.0977 29.6385C46.0129 27.3811 44.9749 25.7962 42.9867 24.8839C41.7411 24.3043 40.3538 24.0457 38.8246 24.1039C36.0147 24.2084 33.7911 25.1483 32.1537 26.9191C30.6772 28.5214 29.9784 30.4026 30.0617 32.5613C30.1523 34.9597 31.1245 36.8278 32.9812 38.1628C34.6229 39.3424 36.5922 39.8886 38.8904 39.8014C40.4605 39.7433 41.9151 39.4005 43.2572 38.7744C43.9896 38.4432 44.7425 37.9827 45.5129 37.3943L45.8024 37.1735L46.76 38.5202C45.6211 39.4673 44.377 40.2024 43.0276 40.7253C41.6783 41.2497 40.2675 41.5403 38.7968 41.5955C35.3671 41.7248 32.6698 40.766 30.7049 38.7163C29.0763 37.0181 28.2153 34.9669 28.1232 32.5613C28.0208 29.868 28.9097 27.5481 30.7883 25.603C32.7619 23.546 35.3481 22.458 38.5453 22.3374C41.149 22.2401 43.3317 22.8357 45.0934 24.1256C46.9486 25.4868 47.9222 27.3491 48.0129 29.7141C48.0845 31.5778 47.5743 33.199 46.4851 34.5762C45.396 35.9533 44.1197 36.6695 42.6578 36.7247C41.8961 36.7537 41.304 36.562 40.8786 36.1509C40.4532 35.7397 40.2324 35.3083 40.2149 34.8551C40.2134 34.7984 40.2134 34.7345 40.2149 34.6648C40.2163 34.5936 40.2193 34.5195 40.2236 34.4367C39.9327 35.0396 39.5994 35.5248 39.2237 35.8923C38.5453 36.5503 37.7149 36.899 36.7325 36.9367C35.7326 36.9731 34.8846 36.6491 34.1931 35.9591Z" fill="#00B1AC"/>
</svg>
