<svg width="375" height="252" viewBox="0 0 375 252" fill="none" xmlns="http://www.w3.org/2000/svg">
<g clip-path="url(#clip0_689_49793)">
<rect width="375" height="252" fill="white"/>
<rect width="375" height="812" fill="url(#paint0_radial_689_49793)"/>
<g opacity="0.25">
<path d="M275.272 181.361C275.272 181.361 328.132 128.709 344.219 116.073C360.307 103.436 376.395 103.436 392.483 116.073C408.57 128.709 463.728 181.361 463.728 181.361" stroke="white" stroke-width="1.5"/>
<path d="M287.41 181.361C287.41 181.361 333.64 135.009 347.709 123.885C361.779 112.76 375.849 112.76 389.919 123.885C403.989 135.009 452.229 181.361 452.229 181.361" stroke="white" stroke-width="1.5"/>
<path d="M299.547 181.361C299.547 181.361 338.968 141.759 350.966 132.255C362.963 122.751 374.961 122.751 386.959 132.255C398.956 141.759 440.091 181.361 440.091 181.361" stroke="white" stroke-width="1.5"/>
<path d="M310.408 181.361C310.408 181.361 343.557 148.06 353.646 140.067C363.735 132.075 373.824 132.075 383.913 140.067C394.002 148.06 428.592 181.361 428.592 181.361" stroke="white" stroke-width="1.5"/>
<path d="M322.545 181.361C322.545 181.361 348.886 154.81 356.902 148.438C364.919 142.065 372.935 142.065 380.952 148.438C388.969 154.81 416.454 181.361 416.454 181.361" stroke="white" stroke-width="1.5"/>
<path d="M334.044 181.361C334.044 181.361 353.934 161.56 359.987 156.808C366.041 152.056 372.094 152.056 378.147 156.808C384.201 161.56 404.955 181.361 404.955 181.361" stroke="white" stroke-width="1.5"/>
<path d="M346.183 181.361C346.183 181.361 359.263 167.86 363.244 164.62C367.225 161.38 371.206 161.38 375.187 164.62C379.168 167.86 392.818 181.361 392.818 181.361" stroke="white" stroke-width="1.5"/>
<path d="M358.32 181.361C358.32 181.361 364.592 174.611 366.501 172.991C368.409 171.371 370.318 171.371 372.227 172.991C374.135 174.611 380.68 181.361 380.68 181.361" stroke="white" stroke-width="1.5"/>
<path d="M263.773 181.361C263.773 181.361 323.083 121.959 341.134 107.702C359.185 93.4456 377.236 93.4456 395.287 107.702C413.338 121.959 475.227 181.361 475.227 181.361" stroke="white" stroke-width="1.5"/>
<path d="M252.274 181.361C252.274 181.361 318.035 115.208 338.049 99.3318C358.063 83.4552 378.078 83.4552 398.092 99.3318C418.106 115.208 486.726 181.361 486.726 181.361" stroke="white" stroke-width="1.5"/>
<path d="M240.775 182C240.775 182 312.987 109.547 334.964 92.1584C356.942 74.7698 378.919 74.7698 400.897 92.1584C422.874 109.547 498.225 182 498.225 182" stroke="white" stroke-width="1.5"/>
<path d="M228.637 182C228.637 182 307.657 102.797 331.707 83.7883C355.757 64.7796 379.807 64.7796 403.857 83.7883C427.906 102.797 510.363 182 510.363 182" stroke="white" stroke-width="1.5"/>
<path d="M216.499 182C216.499 182 302.329 96.0466 328.451 75.4179C354.573 54.7891 380.695 54.7891 406.817 75.4179C432.939 96.0466 522.501 182 522.501 182" stroke="white" stroke-width="1.5"/>
<path d="M205 182C205 182 297.28 89.7464 325.366 67.6056C353.451 45.4648 381.537 45.4648 409.622 67.6056C437.707 89.7464 534 182 534 182" stroke="white" stroke-width="1.5"/>
</g>
<g opacity="0.25">
<path d="M463.728 -42.361C463.728 -42.361 410.868 10.291 394.781 22.9274C378.693 35.5639 362.605 35.5639 346.517 22.9274C330.43 10.291 275.272 -42.361 275.272 -42.361" stroke="white" stroke-width="1.5"/>
<path d="M451.59 -42.361C451.59 -42.361 405.36 3.99078 391.291 15.1152C377.221 26.2396 363.151 26.2396 349.081 15.1152C335.011 3.99077 286.771 -42.361 286.771 -42.361" stroke="white" stroke-width="1.5"/>
<path d="M439.453 -42.3608C439.453 -42.3608 400.032 -2.75932 388.034 6.74503C376.037 16.2494 364.039 16.2494 352.041 6.74503C340.044 -2.75933 298.909 -42.3608 298.909 -42.3608" stroke="white" stroke-width="1.5"/>
<path d="M428.592 -42.361C428.592 -42.361 395.443 -9.05975 385.354 -1.06746C375.265 6.92483 365.176 6.92483 355.087 -1.06747C344.998 -9.05976 310.408 -42.361 310.408 -42.361" stroke="white" stroke-width="1.5"/>
<path d="M475.227 -42.361C475.227 -42.361 415.917 17.0413 397.866 31.2978C379.815 45.5544 361.764 45.5544 343.713 31.2978C325.662 17.0413 263.773 -42.361 263.773 -42.361" stroke="white" stroke-width="1.5"/>
<path d="M486.726 -42.3608C486.726 -42.3608 420.965 23.7917 400.951 39.6682C380.937 55.5448 360.922 55.5448 340.908 39.6682C320.894 23.7917 252.274 -42.3609 252.274 -42.3609" stroke="white" stroke-width="1.5"/>
<path d="M498.225 -42.9998C498.225 -42.9998 426.013 29.4529 404.036 46.8416C382.058 64.2302 360.081 64.2302 338.103 46.8416C316.126 29.4529 240.775 -42.9998 240.775 -42.9998" stroke="white" stroke-width="1.5"/>
<path d="M510.363 -43C510.363 -43 431.343 36.203 407.293 55.2117C383.243 74.2204 359.193 74.2204 335.143 55.2117C311.094 36.203 228.637 -43 228.637 -43" stroke="white" stroke-width="1.5"/>
<path d="M522.501 -42.9999C522.501 -42.9999 436.671 42.9534 410.549 63.5821C384.427 84.2109 358.305 84.2109 332.183 63.5821C306.061 42.9534 216.499 -42.9999 216.499 -42.9999" stroke="white" stroke-width="1.5"/>
<path d="M534 -42.9999C534 -42.9999 441.72 49.2536 413.634 71.3944C385.549 93.5352 357.463 93.5352 329.378 71.3944C301.293 49.2536 205 -43 205 -43" stroke="white" stroke-width="1.5"/>
</g>
<g opacity="0.25">
<path d="M463.728 182.639C463.728 182.639 410.868 235.291 394.781 247.927C378.693 260.564 362.605 260.564 346.517 247.927C330.43 235.291 275.272 182.639 275.272 182.639" stroke="white" stroke-width="1.5"/>
<path d="M451.59 182.639C451.59 182.639 405.36 228.991 391.291 240.115C377.221 251.24 363.151 251.24 349.081 240.115C335.011 228.991 286.771 182.639 286.771 182.639" stroke="white" stroke-width="1.5"/>
<path d="M439.453 182.639C439.453 182.639 400.032 222.241 388.034 231.745C376.037 241.249 364.039 241.249 352.041 231.745C340.044 222.241 298.909 182.639 298.909 182.639" stroke="white" stroke-width="1.5"/>
<path d="M428.592 182.639C428.592 182.639 395.443 215.94 385.354 223.933C375.265 231.925 365.176 231.925 355.087 223.933C344.998 215.94 310.408 182.639 310.408 182.639" stroke="white" stroke-width="1.5"/>
<path d="M416.455 182.639C416.455 182.639 390.114 209.19 382.098 215.562C374.081 221.935 366.065 221.935 358.048 215.562C350.031 209.19 322.546 182.639 322.546 182.639" stroke="white"/>
<path d="M404.956 182.639C404.956 182.639 385.066 202.44 379.013 207.192C372.959 211.944 366.906 211.944 360.853 207.192C354.799 202.44 334.045 182.639 334.045 182.639" stroke="white"/>
<path d="M392.817 182.639C392.817 182.639 379.737 196.14 375.756 199.38C371.775 202.62 367.794 202.62 363.813 199.38C359.832 196.14 346.182 182.639 346.182 182.639" stroke="white"/>
<path d="M380.68 182.639C380.68 182.639 374.408 189.389 372.499 191.009C370.591 192.629 368.682 192.629 366.773 191.009C364.865 189.389 358.32 182.639 358.32 182.639" stroke="white" stroke-width="1.5"/>
<path d="M475.227 182.639C475.227 182.639 415.917 242.041 397.866 256.298C379.815 270.554 361.764 270.554 343.713 256.298C325.662 242.041 263.773 182.639 263.773 182.639" stroke="white" stroke-width="1.5"/>
<path d="M486.726 182.639C486.726 182.639 420.965 248.792 400.951 264.668C380.937 280.545 360.922 280.545 340.908 264.668C320.894 248.792 252.274 182.639 252.274 182.639" stroke="white" stroke-width="1.5"/>
<path d="M498.225 182C498.225 182 426.013 254.453 404.036 271.842C382.058 289.23 360.081 289.23 338.103 271.842C316.126 254.453 240.775 182 240.775 182" stroke="white" stroke-width="1.5"/>
<path d="M510.363 182C510.363 182 431.343 261.203 407.293 280.212C383.243 299.22 359.193 299.22 335.143 280.212C311.094 261.203 228.637 182 228.637 182" stroke="white" stroke-width="1.5"/>
<path d="M522.501 182C522.501 182 436.671 267.953 410.549 288.582C384.427 309.211 358.305 309.211 332.183 288.582C306.061 267.953 216.499 182 216.499 182" stroke="white" stroke-width="1.5"/>
<path d="M534 182C534 182 441.72 274.254 413.634 296.394C385.549 318.535 357.463 318.535 329.378 296.394C301.293 274.254 205 182 205 182" stroke="white" stroke-width="1.5"/>
</g>
<g opacity="0.25">
<path d="M-91.728 181.361C-91.728 181.361 -38.8683 128.709 -22.7806 116.073C-6.69286 103.436 9.39488 103.436 25.4826 116.073C41.5703 128.709 96.7283 181.361 96.7283 181.361" stroke="white" stroke-width="1.5"/>
<path d="M-79.5903 181.361C-79.5903 181.361 -33.3605 135.009 -19.2905 123.885C-5.22059 112.76 8.84936 112.76 22.9193 123.885C36.9893 135.009 85.2291 181.361 85.2291 181.361" stroke="white" stroke-width="1.5"/>
<path d="M-67.4526 181.361C-67.4526 181.361 -28.0318 141.759 -16.0342 132.255C-4.03658 122.751 7.96105 122.751 19.9587 132.255C31.9563 141.759 73.0911 181.361 73.0911 181.361" stroke="white" stroke-width="1.5"/>
<path d="M-56.5923 181.361C-56.5923 181.361 -23.443 148.06 -13.3541 140.067C-3.26515 132.075 6.82377 132.075 16.9127 140.067C27.0016 148.06 61.5922 181.361 61.5922 181.361" stroke="white" stroke-width="1.5"/>
<path d="M-44.4546 181.361C-44.4546 181.361 -18.1143 154.81 -10.0977 148.438C-2.08114 142.065 5.93546 142.065 13.9521 148.438C21.9687 154.81 49.4541 181.361 49.4541 181.361" stroke="white" stroke-width="1.5"/>
<path d="M-32.9556 181.361C-32.9556 181.361 -13.066 161.56 -7.01264 156.808C-0.959286 152.056 5.09406 152.056 11.1474 156.808C17.2008 161.56 37.9551 181.361 37.9551 181.361" stroke="white" stroke-width="1.5"/>
<path d="M-20.8174 181.361C-20.8174 181.361 -7.73685 167.86 -3.75582 164.62C0.225217 161.38 4.20625 161.38 8.18728 164.62C12.1683 167.86 25.8176 181.361 25.8176 181.361" stroke="white" stroke-width="1.5"/>
<path d="M-8.67969 181.361C-8.67969 181.361 -2.4082 174.611 -0.499484 172.991C1.40923 171.371 3.31794 171.371 5.22666 172.991C7.13537 174.611 13.6795 181.361 13.6795 181.361" stroke="white" stroke-width="1.5"/>
<path d="M-103.227 181.361C-103.227 181.361 -43.9167 121.959 -25.8657 107.702C-7.81472 93.4456 10.2363 93.4456 28.2872 107.702C46.3382 121.959 108.227 181.361 108.227 181.361" stroke="white" stroke-width="1.5"/>
<path d="M-114.726 181.361C-114.726 181.361 -48.965 115.208 -28.9508 99.3318C-8.93657 83.4552 11.0777 83.4552 31.0919 99.3318C51.1061 115.208 119.726 181.361 119.726 181.361" stroke="white" stroke-width="1.5"/>
<path d="M-126.225 182C-126.225 182 -54.0134 109.547 -32.0359 92.1584C-10.0584 74.7698 11.9191 74.7698 33.8965 92.1584C55.874 109.547 131.225 182 131.225 182" stroke="white" stroke-width="1.5"/>
<path d="M-138.363 182C-138.363 182 -59.3425 102.797 -35.2927 83.7883C-11.2429 64.7796 12.8069 64.7796 36.8567 83.7883C60.9065 102.797 143.363 182 143.363 182" stroke="white" stroke-width="1.5"/>
<path d="M-150.501 182C-150.501 182 -64.6712 96.0466 -38.549 75.4179C-12.4269 54.7891 13.6952 54.7891 39.8173 75.4179C65.9394 96.0466 155.501 182 155.501 182" stroke="white" stroke-width="1.5"/>
<path d="M-162 182C-162 182 -69.7195 89.7464 -41.6341 67.6056C-13.5488 45.4648 14.5366 45.4648 42.6219 67.6056C70.7073 89.7464 167 182 167 182" stroke="white" stroke-width="1.5"/>
</g>
<g opacity="0.25">
<path d="M96.728 -42.361C96.728 -42.361 43.8683 10.291 27.7806 22.9274C11.6929 35.5639 -4.39488 35.5639 -20.4826 22.9274C-36.5703 10.291 -91.7283 -42.361 -91.7283 -42.361" stroke="white" stroke-width="1.5"/>
<path d="M84.5903 -42.361C84.5903 -42.361 38.3605 3.99078 24.2905 15.1152C10.2206 26.2396 -3.84936 26.2396 -17.9193 15.1152C-31.9893 3.99077 -80.2291 -42.361 -80.2291 -42.361" stroke="white" stroke-width="1.5"/>
<path d="M72.4526 -42.3608C72.4526 -42.3608 33.0318 -2.75932 21.0342 6.74503C9.03658 16.2494 -2.96106 16.2494 -14.9587 6.74503C-26.9563 -2.75933 -68.0911 -42.3608 -68.0911 -42.3608" stroke="white" stroke-width="1.5"/>
<path d="M61.5923 -42.361C61.5923 -42.361 28.443 -9.05975 18.3541 -1.06746C8.26515 6.92483 -1.82377 6.92483 -11.9127 -1.06747C-22.0016 -9.05976 -56.5922 -42.361 -56.5922 -42.361" stroke="white" stroke-width="1.5"/>
<path d="M108.227 -42.361C108.227 -42.361 48.9167 17.0413 30.8657 31.2978C12.8147 45.5544 -5.23627 45.5544 -23.2872 31.2978C-41.3382 17.0413 -103.227 -42.361 -103.227 -42.361" stroke="white" stroke-width="1.5"/>
<path d="M119.726 -42.3608C119.726 -42.3608 53.965 23.7917 33.9508 39.6682C13.9366 55.5448 -6.07767 55.5448 -26.0919 39.6682C-46.1061 23.7917 -114.726 -42.3609 -114.726 -42.3609" stroke="white" stroke-width="1.5"/>
<path d="M131.225 -42.9998C131.225 -42.9998 59.0134 29.4529 37.0359 46.8416C15.0584 64.2302 -6.91906 64.2302 -28.8965 46.8416C-50.874 29.4529 -126.225 -42.9998 -126.225 -42.9998" stroke="white" stroke-width="1.5"/>
<path d="M143.363 -43C143.363 -43 64.3425 36.203 40.2927 55.2117C16.2429 74.2204 -7.80688 74.2204 -31.8567 55.2117C-55.9065 36.203 -138.363 -43 -138.363 -43" stroke="white" stroke-width="1.5"/>
<path d="M155.501 -42.9999C155.501 -42.9999 69.6712 42.9534 43.549 63.5821C17.4269 84.2109 -8.6952 84.2109 -34.8173 63.5821C-60.9394 42.9534 -150.501 -42.9999 -150.501 -42.9999" stroke="white" stroke-width="1.5"/>
<path d="M167 -42.9999C167 -42.9999 74.7195 49.2536 46.6341 71.3944C18.5488 93.5352 -9.53658 93.5352 -37.6219 71.3944C-65.7073 49.2536 -162 -43 -162 -43" stroke="white" stroke-width="1.5"/>
</g>
<g opacity="0.25">
<path d="M96.728 182.639C96.728 182.639 43.8683 235.291 27.7806 247.927C11.6929 260.564 -4.39488 260.564 -20.4826 247.927C-36.5703 235.291 -91.7283 182.639 -91.7283 182.639" stroke="white" stroke-width="1.5"/>
<path d="M84.5903 182.639C84.5903 182.639 38.3605 228.991 24.2905 240.115C10.2206 251.24 -3.84936 251.24 -17.9193 240.115C-31.9893 228.991 -80.2291 182.639 -80.2291 182.639" stroke="white" stroke-width="1.5"/>
<path d="M72.4526 182.639C72.4526 182.639 33.0318 222.241 21.0342 231.745C9.03658 241.249 -2.96106 241.249 -14.9587 231.745C-26.9563 222.241 -68.0911 182.639 -68.0911 182.639" stroke="white" stroke-width="1.5"/>
<path d="M61.5923 182.639C61.5923 182.639 28.443 215.94 18.3541 223.933C8.26515 231.925 -1.82377 231.925 -11.9127 223.933C-22.0016 215.94 -56.5922 182.639 -56.5922 182.639" stroke="white" stroke-width="1.5"/>
<path d="M49.4546 182.639C49.4546 182.639 23.1143 209.19 15.0977 215.562C7.08114 221.935 -0.935459 221.935 -8.95206 215.562C-16.9687 209.19 -44.4541 182.639 -44.4541 182.639" stroke="white" stroke-width="1.5"/>
<path d="M37.9556 182.639C37.9556 182.639 18.066 202.44 12.0126 207.192C5.95929 211.944 -0.0940643 211.944 -6.14741 207.192C-12.2008 202.44 -32.9551 182.639 -32.9551 182.639" stroke="white" stroke-width="1.5"/>
<path d="M25.8174 182.639C25.8174 182.639 12.7368 196.14 8.75582 199.38C4.77478 202.62 0.793751 202.62 -3.18728 199.38C-7.16831 196.14 -20.8176 182.639 -20.8176 182.639" stroke="white" stroke-width="1.5"/>
<path d="M13.6797 182.639C13.6797 182.639 7.4082 189.389 5.49948 191.009C3.59077 192.629 1.68206 192.629 -0.226659 191.009C-2.13537 189.389 -8.67954 182.639 -8.67954 182.639" stroke="white" stroke-width="1.5"/>
<path d="M108.227 182.639C108.227 182.639 48.9167 242.041 30.8657 256.298C12.8147 270.554 -5.23627 270.554 -23.2872 256.298C-41.3382 242.041 -103.227 182.639 -103.227 182.639" stroke="white" stroke-width="1.5"/>
<path d="M119.726 182.639C119.726 182.639 53.965 248.792 33.9508 264.668C13.9366 280.545 -6.07767 280.545 -26.0919 264.668C-46.1061 248.792 -114.726 182.639 -114.726 182.639" stroke="white" stroke-width="1.5"/>
<path d="M131.225 182C131.225 182 59.0134 254.453 37.0359 271.842C15.0584 289.23 -6.91906 289.23 -28.8965 271.842C-50.874 254.453 -126.225 182 -126.225 182" stroke="white" stroke-width="1.5"/>
<path d="M143.363 182C143.363 182 64.3425 261.203 40.2927 280.212C16.2429 299.22 -7.80688 299.22 -31.8567 280.212C-55.9065 261.203 -138.363 182 -138.363 182" stroke="white" stroke-width="1.5"/>
<path d="M155.501 182C155.501 182 69.6712 267.953 43.549 288.582C17.4269 309.211 -8.6952 309.211 -34.8173 288.582C-60.9394 267.953 -150.501 182 -150.501 182" stroke="white" stroke-width="1.5"/>
<path d="M167 182C167 182 74.7195 274.254 46.6341 296.394C18.5488 318.535 -9.53658 318.535 -37.6219 296.394C-65.7073 274.254 -162 182 -162 182" stroke="white" stroke-width="1.5"/>
</g>
</g>
<defs>
<radialGradient id="paint0_radial_689_49793" cx="0" cy="0" r="1" gradientUnits="userSpaceOnUse" gradientTransform="translate(187.5 61) rotate(90) scale(743.5 672.781)">
<stop stop-color="#C1E9E7"/>
<stop offset="1" stop-color="#00B1AC"/>
</radialGradient>
<clipPath id="clip0_689_49793">
<rect width="375" height="252" fill="white"/>
</clipPath>
</defs>
</svg>
