<?xml version="1.0" encoding="utf-8"?>
<!-- Generator: Adobe Illustrator 23.0.3, SVG Export Plug-In . SVG Version: 6.00 Build 0)  -->
<svg version="1.1" xmlns="http://www.w3.org/2000/svg" xmlns:xlink="http://www.w3.org/1999/xlink" x="0px" y="0px"
	 viewBox="0 0 280 60" style="enable-background:new 0 0 280 60;" xml:space="preserve">
<style type="text/css">
	.st0{fill:#222929;}
	.st1{fill:#00807B;}
	.st2{fill:#00B1AC;}
</style>
<g id="Layer_3">
</g>
<g id="Layer_5">
	<g>
		<g>
			<path class="st0" d="M110.78,28.08c0,12.16-6.86,18.27-17.51,18.27c-10.59,0-17.33-6.11-17.33-17.92V4.99h7.15v23.15
				c0,7.56,3.9,11.63,10.3,11.63c6.34,0,10.24-3.84,10.24-11.34V4.99h7.15V28.08z"/>
			<path class="st0" d="M134.64,46.35c-5.06,0-8.26-2.56-10.41-5.41v14.08h-7.04V14.99h7.04v5.12c2.27-3.2,5.47-5.76,10.41-5.76
				c7.27,0,14.31,5.76,14.31,16S141.97,46.35,134.64,46.35z M133.01,20.46c-4.77,0-8.96,3.9-8.96,9.89s4.19,9.89,8.96,9.89
				c4.83,0,8.78-3.78,8.78-9.89C141.79,24.3,137.78,20.46,133.01,20.46z"/>
			<path class="st0" d="M165.43,46.29c-4.36,0-9.19-1.57-13.03-4.59l3.14-4.77c3.32,2.5,6.92,3.78,10.06,3.78
				c3.03,0,4.77-1.28,4.77-3.32v-0.12c0-2.38-3.26-3.2-6.86-4.3c-4.54-1.28-9.6-3.14-9.6-9.02v-0.12c0-5.82,4.83-9.36,10.93-9.36
				c3.84,0,8.03,1.34,11.28,3.49l-2.79,5c-2.96-1.8-6.11-2.91-8.67-2.91c-2.73,0-4.3,1.28-4.3,3.08v0.12c0,2.21,3.32,3.14,6.92,4.3
				c4.48,1.4,9.54,3.43,9.54,8.96v0.12C176.83,43.09,171.83,46.29,165.43,46.29z"/>
			<path class="st0" d="M191.03,36.11c0,2.73,1.4,3.84,3.78,3.84c1.57,0,2.97-0.35,4.36-1.05v5.76c-1.75,0.99-3.72,1.57-6.34,1.57
				c-5.18,0-8.84-2.27-8.84-9.02V21.04h-3.9v-6.05h3.9V6.56h7.04v8.43h8.26v6.05h-8.26V36.11z"/>
			<path class="st0" d="M224.47,45.71v-3.78c-2.09,2.5-5.29,4.42-9.95,4.42c-5.82,0-10.93-3.32-10.93-9.48v-0.12
				c0-6.63,5.29-9.89,12.45-9.89c3.72,0,6.11,0.52,8.49,1.28v-0.76c0-4.25-2.68-6.57-7.56-6.57c-3.43,0-5.99,0.76-8.78,1.92
				l-1.92-5.64c3.37-1.51,6.69-2.56,11.69-2.56c9.08,0,13.5,4.77,13.5,12.97v18.21H224.47z M224.65,32.68
				c-1.8-0.7-4.3-1.22-7.04-1.22c-4.42,0-7.04,1.8-7.04,4.94v0.12c0,2.91,2.62,4.54,5.93,4.54c4.65,0,8.14-2.62,8.14-6.46V32.68z"/>
			<path class="st0" d="M243.68,45.71h-7.04V14.99h7.04v6.92c1.92-4.6,5.47-7.74,10.88-7.5v7.45h-0.41
				c-6.17,0-10.47,4.01-10.47,12.16V45.71z"/>
			<path class="st0" d="M269.57,36.11c0,2.73,1.4,3.84,3.78,3.84c1.57,0,2.97-0.35,4.36-1.05v5.76c-1.75,0.99-3.72,1.57-6.34,1.57
				c-5.18,0-8.84-2.27-8.84-9.02V21.04h-3.9v-6.05h3.9V6.56h7.04v8.43h8.26v6.05h-8.26V36.11z"/>
		</g>
		<g>
			<g>
				<path class="st1" d="M10.06,23.07L10.06,23.07L5.3,27.82c-4.17,4.17-4.17,10.99,0,15.15l0,0.01c4.17,4.16,10.99,4.16,15.15,0
					l10.6-10.6v0.02c0.42-0.34,0.95-0.54,1.53-0.54c0.58,0,1.11,0.2,1.53,0.54h0.02L25,23.27C20.88,19.16,14.25,19.09,10.06,23.07"
					/>
				<path class="st2" d="M59.86,27.82L40.17,8.13l-0.01-0.01c-0.26-0.26-0.53-0.5-0.81-0.73C35.15,3.96,28.91,4.21,25,8.11
					c-0.07,0.07-0.13,0.14-0.2,0.21l-0.59,0.59L10.05,23.07l0,0c4.2-3.98,10.83-3.91,14.94,0.21l9.13,9.13L44.7,42.98
					c4.17,4.17,10.99,4.17,15.16,0C64.03,38.81,64.03,31.99,59.86,27.82"/>
			</g>
		</g>
	</g>
</g>
</svg>
