<svg width="48" height="48" viewBox="0 0 48 48" fill="none" xmlns="http://www.w3.org/2000/svg">
<circle cx="24" cy="24" r="24" fill="#EBF9FA" fill-opacity="0.8"/>
<path fill-rule="evenodd" clip-rule="evenodd" d="M14.3482 25.3977C13.5246 25.3977 12.8545 26.1094 12.8545 26.9849V27.0948C12.8545 27.9699 13.5246 28.6823 14.3482 28.6823H14.452C15.2757 28.6823 15.9458 27.9699 15.9458 27.0948V26.9849C15.9458 26.1094 15.2757 25.3977 14.452 25.3977H14.3482ZM14.452 29.76H14.3482C12.9653 29.76 11.8401 28.5641 11.8401 27.0948V26.9849C11.8401 25.5156 12.9653 24.32 14.3482 24.32H14.452C15.8349 24.32 16.9601 25.5156 16.9601 26.9849V27.0948C16.9601 28.5641 15.8349 29.76 14.452 29.76V29.76Z" fill="#00B1AC"/>
<path fill-rule="evenodd" clip-rule="evenodd" d="M32.908 25.3977C32.0844 25.3977 31.4143 26.1094 31.4143 26.9849V27.0948C31.4143 27.9699 32.0844 28.6823 32.908 28.6823H33.0115C33.8355 28.6823 34.5056 27.9699 34.5056 27.0948V26.9849C34.5056 26.1094 33.8355 25.3977 33.0115 25.3977H32.908ZM33.0115 29.76H32.908C31.5251 29.76 30.3999 28.5641 30.3999 27.0948V26.9849C30.3999 25.5156 31.5251 24.32 32.908 24.32H33.0115C34.3943 24.32 35.5199 25.5156 35.5199 26.9849V27.0948C35.5199 28.5641 34.3943 29.76 33.0115 29.76V29.76Z" fill="#00B1AC"/>
<path fill-rule="evenodd" clip-rule="evenodd" d="M27.9564 26.56H19.4033C19.1144 26.56 18.8799 26.3449 18.8799 26.08C18.8799 25.815 19.1144 25.6 19.4033 25.6H27.9564C28.2457 25.6 28.4799 25.815 28.4799 26.08C28.4799 26.3449 28.2457 26.56 27.9564 26.56" fill="#00807B"/>
<path fill-rule="evenodd" clip-rule="evenodd" d="M27.9564 28.48H19.4033C19.1144 28.48 18.8799 28.265 18.8799 28C18.8799 27.7351 19.1144 27.52 19.4033 27.52H27.9564C28.2457 27.52 28.4799 27.7351 28.4799 28C28.4799 28.265 28.2457 28.48 27.9564 28.48" fill="#00807B"/>
<path fill-rule="evenodd" clip-rule="evenodd" d="M37.7642 22.1033C37.7596 22.0434 37.7476 21.9843 37.7237 21.9295L36.6797 19.5282H37.6678C38.372 19.5282 38.9447 20.1076 38.9447 20.8202C38.9447 21.5 38.4227 22.052 37.7642 22.1033V22.1033ZM36.713 34.8521C36.713 35.6901 36.0397 36.3717 35.212 36.3717H34.3653C33.5376 36.3717 32.8639 35.6901 32.8639 34.8521V31.8077H36.713V34.8521ZM14.9605 34.8521C14.9605 35.6901 14.2869 36.3717 13.4591 36.3717H12.6124C11.7847 36.3717 11.1114 35.6901 11.1114 34.8521V31.8077H14.9605V34.8521ZM9.05532 20.8202C9.05532 20.1076 9.62835 19.5282 10.3322 19.5282H11.1448L10.1008 21.9295C10.0797 21.9779 10.0688 22.0303 10.0624 22.0826C9.488 21.9569 9.05532 21.4395 9.05532 20.8202V20.8202ZM23.9124 30.7394H15.4882H11.1114V23.2393H36.713V30.7394H32.3363H23.9124ZM14.6724 14.0665C15.2317 12.7795 16.49 11.9483 17.8788 11.9483H23.9124H29.946C31.3344 11.9483 32.5927 12.7795 33.1521 14.0665L36.6758 22.1709H11.1487L14.6724 14.0665ZM40 20.8202C40 19.5186 38.9538 18.4599 37.6678 18.4599H36.2951C36.2691 18.4599 36.2438 18.4638 36.2188 18.4674L34.118 13.636C33.3902 11.9615 31.7527 10.88 29.946 10.88H23.9124H17.8788C16.0718 10.88 14.4343 11.9615 13.7064 13.636L11.6092 18.4599H10.3322C9.04617 18.4599 8 19.5186 8 20.8202C8 22.0274 8.90018 23.0245 10.0561 23.1634V31.2735V34.8521C10.0561 36.2794 11.2029 37.44 12.6124 37.44H13.4592C14.8691 37.44 16.0158 36.2794 16.0158 34.8521V31.8077H23.9124H31.8086V34.8521C31.8086 36.2794 32.9558 37.44 34.3653 37.44H35.212C36.6216 37.44 37.7684 36.2794 37.7684 34.8521V31.2735V23.1762C39.0076 23.1221 40 22.0876 40 20.8202V20.8202Z" fill="#00807B"/>
<path fill-rule="evenodd" clip-rule="evenodd" d="M31.1573 19.84C30.9562 19.84 30.7645 19.7209 30.6784 19.5204L28.5244 14.5111C28.408 14.2403 28.5283 13.9246 28.7925 13.8055C29.0563 13.6863 29.3651 13.8094 29.4815 14.0798L31.6355 19.0895C31.752 19.3599 31.6317 19.6756 31.3675 19.7947C31.2992 19.8254 31.2277 19.84 31.1573 19.84" fill="#00B1AC"/>
<path fill-rule="evenodd" clip-rule="evenodd" d="M33.1016 20.48C32.9098 20.48 32.7273 20.3591 32.6449 20.1556L31.4025 17.0815C31.2915 16.8067 31.4059 16.4867 31.6579 16.3658C31.9105 16.2459 32.2044 16.3694 32.3154 16.6438L33.5577 19.7183C33.6688 19.9927 33.5541 20.3131 33.3024 20.434C33.2369 20.4652 33.1688 20.48 33.1016 20.48" fill="#00B1AC"/>
</svg>
