<svg width="48" height="48" viewBox="0 0 48 48" fill="none" xmlns="http://www.w3.org/2000/svg">
<circle cx="24" cy="24" r="24" fill="#EBF9FA" fill-opacity="0.8"/>
<path fill-rule="evenodd" clip-rule="evenodd" d="M35.9696 18.2863L35.9424 33.4421L9.59509 33.3949L9.62191 18.2394L35.9696 18.2863ZM38.9818 14.786L11.4851 14.7369H11.4843C11.4445 14.7369 11.4062 14.7411 11.3686 14.7484C11.1069 14.8021 10.91 15.0336 10.9096 15.3115L10.9058 17.09L9.04916 17.0866H9.04839C8.89629 17.0866 8.75032 17.1469 8.64266 17.2543C8.535 17.3622 8.4737 17.5089 8.4737 17.6612L8.44458 33.9687C8.4442 34.2869 8.70089 34.5449 9.01812 34.5453L36.5152 34.5948H36.5163C36.6684 34.5948 36.814 34.5345 36.9217 34.4271C37.0297 34.3196 37.0906 34.1729 37.091 34.0202L37.1198 17.7127C37.1205 17.3945 36.8635 17.1365 36.5462 17.1357L12.0556 17.092L12.0579 15.8897L38.4052 15.9365L38.3772 31.6681C38.3768 31.986 38.6335 32.2443 38.9507 32.2451H38.9519C39.2687 32.2451 39.5262 31.9879 39.5266 31.6704L39.5557 15.363C39.5561 15.0447 39.2994 14.7868 38.9818 14.786Z" fill="#00807B"/>
<path fill-rule="evenodd" clip-rule="evenodd" d="M31.5155 26.4319H31.5147L27.4727 26.4246C27.1555 26.4242 26.8984 26.1662 26.8992 25.848C26.8996 25.5301 27.157 25.2729 27.4739 25.2729H27.4746L31.5162 25.2802C31.8339 25.2806 32.0906 25.539 32.0902 25.8572C32.0898 26.1747 31.8323 26.4319 31.5155 26.4319Z" fill="#00B1AC"/>
<path fill-rule="evenodd" clip-rule="evenodd" d="M18.0526 26.4079H18.0518L14.0098 26.4007C13.6926 26.4003 13.4355 26.1423 13.4363 25.8241C13.4367 25.5062 13.6941 25.249 14.011 25.249H14.0117L18.0534 25.2563C18.371 25.2567 18.6277 25.515 18.6273 25.8333C18.6269 26.1507 18.3694 26.4079 18.0526 26.4079Z" fill="#00B1AC"/>
<path fill-rule="evenodd" clip-rule="evenodd" d="M22.7624 21.6969C21.6605 21.6969 20.6242 22.1257 19.8437 22.905C19.061 23.6866 18.6292 24.7265 18.6273 25.8332C18.6231 28.1184 20.4751 29.9806 22.7555 29.9848H22.7628C25.0401 29.9848 26.8948 28.1307 26.8987 25.8478C26.901 24.7415 26.4726 23.7 25.6926 22.9158C24.9129 22.1319 23.875 21.6989 22.7705 21.6969H22.7624ZM22.7629 31.1364H22.7537C19.8393 31.1307 17.4727 28.751 17.478 25.8313C17.4803 24.4167 18.0324 23.0877 19.0324 22.0892C20.03 21.0935 21.3545 20.5453 22.7625 20.5453H22.7725C24.1839 20.548 25.5103 21.1008 26.5068 22.1031C27.5033 23.105 28.0508 24.4359 28.0481 25.8501C28.0432 28.7668 25.6727 31.1364 22.7629 31.1364Z" fill="#00B1AC"/>
<path fill-rule="evenodd" clip-rule="evenodd" d="M33.9209 31.9833H33.9197L32.3167 31.9802C31.9995 31.9794 31.7428 31.7211 31.7432 31.4032C31.7439 31.0857 32.001 30.8286 32.3179 30.8286H32.319L33.3469 30.8305L33.3649 20.8873L32.3366 20.8858C32.0194 20.8854 31.7623 20.627 31.7631 20.3088C31.7635 19.9913 32.0209 19.7341 32.3378 19.7341H32.3385L33.9416 19.7368C34.094 19.7372 34.24 19.7979 34.3477 19.9061C34.4553 20.014 34.5155 20.1606 34.5151 20.3138L34.4956 31.4086C34.4956 31.561 34.4343 31.7076 34.3266 31.8155C34.2186 31.923 34.073 31.9833 33.9209 31.9833Z" fill="#00807B"/>
<path fill-rule="evenodd" clip-rule="evenodd" d="M13.223 31.9468H13.2218L11.6192 31.9437C11.302 31.943 11.0449 31.685 11.0457 31.3668L11.0652 20.2724C11.066 19.9549 11.323 19.6977 11.6399 19.6977H11.641L13.2437 19.7004C13.5613 19.7008 13.818 19.9587 13.8176 20.2773C13.8168 20.5948 13.5597 20.852 13.2429 20.852H13.2417L12.2138 20.8505L12.1958 30.7933L13.2241 30.7952C13.5413 30.7959 13.798 31.0543 13.7977 31.3721C13.7973 31.6896 13.5398 31.9468 13.223 31.9468Z" fill="#00807B"/>
</svg>
