<svg width="48" height="48" viewBox="0 0 48 48" fill="none" xmlns="http://www.w3.org/2000/svg">
<circle cx="24" cy="24" r="24" fill="#EBF9FA" fill-opacity="0.8"/>
<path fill-rule="evenodd" clip-rule="evenodd" d="M14.7111 38.1308C14.3803 38.1308 14.1125 37.8613 14.1125 37.5291V14.6589C14.1125 14.3267 14.3803 14.0572 14.7111 14.0572C15.0419 14.0572 15.3097 14.3267 15.3097 14.6589V37.5291C15.3097 37.8613 15.0419 38.1308 14.7111 38.1308Z" fill="#00B1AC"/>
<path fill-rule="evenodd" clip-rule="evenodd" d="M33.6257 38.1308C33.2949 38.1308 33.0271 37.8613 33.0271 37.5291V33.8083C33.0271 33.4762 33.2949 33.2066 33.6257 33.2066C33.9565 33.2066 34.2243 33.4762 34.2243 33.8083V37.5291C34.2243 37.8613 33.9565 38.1308 33.6257 38.1308Z" fill="#00B1AC"/>
<path fill-rule="evenodd" clip-rule="evenodd" d="M33.6257 24.0714C33.2949 24.0714 33.0271 23.8019 33.0271 23.4698V14.659C33.0271 14.3269 33.2949 14.0573 33.6257 14.0573C33.9565 14.0573 34.2243 14.3269 34.2243 14.659V23.4698C34.2243 23.8019 33.9565 24.0714 33.6257 24.0714Z" fill="#00B1AC"/>
<path fill-rule="evenodd" clip-rule="evenodd" d="M38.804 34.8544C38.804 35.9976 37.879 36.9274 36.7421 36.9274H11.2591C10.1222 36.9274 9.19716 35.9976 9.19716 34.8544V17.3332C9.19716 16.1908 10.1222 15.2606 11.2591 15.2606H36.7421C37.879 15.2606 38.804 16.1908 38.804 17.3332V34.8544ZM19.0258 12.9549C19.0258 11.9453 19.8435 11.1234 20.8483 11.1234H27.1529C28.1577 11.1234 28.975 11.9453 28.975 12.9549V14.0572H19.0258V12.9549ZM36.7421 14.0572H30.1721V12.9549C30.1721 11.2814 28.8178 9.91998 27.1529 9.91998H20.8483C19.1834 9.91998 17.8287 11.2814 17.8287 12.9549V14.0572H11.2591C9.46213 14.0572 8 15.5269 8 17.3332V34.8544C8 36.6611 9.46213 38.1308 11.2591 38.1308H36.7421C38.5391 38.1308 40.0012 36.6611 40.0012 34.8544V17.3332C40.0012 15.5269 38.5391 14.0572 36.7421 14.0572Z" fill="#00807B"/>
<path fill-rule="evenodd" clip-rule="evenodd" d="M26.4175 27.5155L25.5496 28.3875C24.789 29.1517 24.7886 30.4028 25.5496 31.1669L25.5504 31.1677C26.311 31.9315 27.5556 31.9315 28.3154 31.1673L30.2492 29.2243V29.2275C30.4117 29.0943 30.6447 29.0943 30.8071 29.2275H30.8103L29.1451 27.5532C28.3944 26.7983 27.1841 26.7862 26.4183 27.5155" fill="#00807B"/>
<path fill-rule="evenodd" clip-rule="evenodd" d="M35.5053 28.3866L31.9126 24.7749L31.9098 24.7729C31.8627 24.7251 31.8128 24.6806 31.7617 24.6385C30.996 24.0111 29.8575 24.0557 29.1452 24.7721C29.1324 24.7849 29.1204 24.7973 29.1088 24.8098L29.0003 24.9185L26.4172 27.515H26.4176C27.1838 26.7853 28.3933 26.7978 29.1444 27.5527L30.8096 29.227L32.7394 31.1664C33.5 31.9306 34.7443 31.9306 35.5057 31.1664C36.267 30.4015 36.2658 29.1508 35.5053 28.3866Z" fill="#00B1AC"/>
</svg>
