<svg xmlns="http://www.w3.org/2000/svg" xmlns:xlink="http://www.w3.org/1999/xlink" width="81px" height="64px" viewBox="0 0 81 64"><title>Upstart | Icons | New | LP | Speed</title><g id="Page-1" stroke="none" stroke-width="1" fill="none" fill-rule="evenodd" stroke-linecap="round" stroke-linejoin="round"><g id="CDAPI" transform="translate(-265.000000, -4402.000000)" stroke-width="3"><g id="Group-5" transform="translate(229.000000, 4384.000000)"><g id="Group" transform="translate(26.000000, 0.000000)"><g id="Group-24" transform="translate(12.000000, 19.000000)"><polyline id="Stroke-1" stroke="#00807B" points="70.2444444 11.6 77 13.2708543 69 46.6"></polyline><polyline id="Stroke-3" stroke="#00807B" points="63 6.6 71 7.03478261 70.2079121 20.6"></polyline><polyline id="Stroke-4" stroke="#00807B" points="36.3460674 39.6561583 39.2382022 57.6 70 52.6748777 61.7617978 0.6 31 5.43803762 33.1033708 19.2484359"></polyline><line x1="52" y1="37.6" x2="53" y2="45.6" id="Stroke-6" stroke="#00807B"></line><line x1="48" y1="11.6" x2="49" y2="19.6" id="Stroke-7" stroke="#00807B"></line><polyline id="Stroke-8" stroke="#00807B" points="64.4836066 45.6 65 48.4767123 44.4303279 51.6 44 48.7232877"></polyline><polyline id="Stroke-9" stroke="#00807B" points="37.4303455 12.6 37 9.68333333 57.4844461 6.6 58 9.43333333"></polyline><line x1="4" y1="15.1" x2="21" y2="15.1" id="Stroke-10" stroke="#00B1AC"></line><line x1="8" y1="9.1" x2="25" y2="9.1" id="Stroke-12" stroke="#00B1AC"></line><g id="Group-23" transform="translate(0.000000, 18.600000)"><line x1="0.434956522" y1="2.54489796" x2="17.0436522" y2="2.54489796" id="Stroke-13" stroke="#00B1AC"></line><path d="M52.4347826,19.2183673 C57.3043478,18.4285714 60.6086957,13.777551 59.826087,8.86326531 C59.0434783,3.94897959 54.4347826,0.614285714 49.5652174,1.40408163 C46.5217391,1.93061224 44.0869565,3.86122449 42.8695652,6.49387755" id="Stroke-15" stroke="#00807B"></path><path d="M5.39121739,22.0267061 C8.86947826,20.0083388 15.652087,15.9716041 15.652087,15.9716041 C15.9129565,15.883849 16.0868696,14.8307878 16.1738261,14.6552776 C16.6955652,13.5144612 17.2173043,12.3736449 17.826,11.3205837 C19.5651304,8.3369102 21.7390435,5.44099184 24.5216522,3.51037959 C27.5651304,1.40425714 31.9129565,-0.789620408 35.826,1.05323673 C38.3477391,2.28180816 43.9129565,7.89813469 47.9129565,10.3552776 C51.9129565,12.8124204 46.6955652,17.1115429 43.1303478,15.883849 C40.6955652,15.006298 33.9129565,11.4960939 32.3477391,9.03895102" id="Stroke-17" stroke="#00807B"></path><path d="M38.8694783,32.2942286 C33.1303478,34.3994735 18.4346957,41.0697388 14.6086087,42.560698" id="Stroke-19" stroke="#00807B"></path><path d="M34.5216522,11.9348694 C34.5216522,11.9348694 34.4346957,17.0246653 30.5216522,20.2716041 C29.3912174,21.1491551 28.2607826,21.8511959 27.2173043,22.2899714" id="Stroke-21" stroke="#00807B"></path></g></g></g></g></g></g></svg>