<svg xmlns="http://www.w3.org/2000/svg" xmlns:xlink="http://www.w3.org/1999/xlink" width="67px" height="68px" viewBox="0 0 67 68"><title>Upstart | Icons | New | LP | Personal Loan</title><defs><polygon id="path-1" points="0.06375 0.00595 39.0354 0.00595 39.0354 38.97913 0.06375 38.97913"></polygon><polygon id="path-3" points="0 0.61760888 66.30255 0.61760888 66.30255 27.2 0 27.2"></polygon></defs><g id="Page-1" stroke="none" stroke-width="1" fill="none" fill-rule="evenodd"><g id="CDAPI" transform="translate(-1139.000000, -4398.000000)"><g id="Group-9" transform="translate(1076.000000, 4398.000000)"><g id="Group" transform="translate(62.500000, 0.000000)"><g id="Group-9" transform="translate(0.680000, 0.000000)"><g id="Group-3" transform="translate(13.600000, 0.844220)"><mask id="mask-2" fill="white"><use xlink:href="#path-1"></use></mask><g id="Clip-2"></g><path d="M19.55,2.55578 C10.2119,2.55578 2.61375,10.15308 2.61375,19.49288 C2.61375,28.83098 10.2119,36.42913 19.55,36.42913 C28.8881,36.42913 36.4854,28.83098 36.4854,19.49288 C36.4854,10.15308 28.8881,2.55578 19.55,2.55578 M19.55,38.97913 C8.80515,38.97913 0.06375,30.23688 0.06375,19.49288 C0.06375,8.74718 8.80515,0.00578 19.55,0.00578 C30.29485,0.00578 39.0354,8.74718 39.0354,19.49288 C39.0354,30.23688 30.29485,38.97913 19.55,38.97913" id="Fill-1" fill="#00B1AC" mask="url(#mask-2)"></path></g><path d="M34.606815,25.86193 C35.829115,25.60268 36.534615,24.94478 36.534615,23.95793 C36.534615,22.85208 35.735615,22.26473 34.606815,21.81763 L34.606815,25.86193 Z M32.537065,18.26803 L32.537065,14.57733 C31.432915,14.76348 30.750365,15.32873 30.750365,16.22208 C30.750365,17.25568 31.478815,17.84473 32.537065,18.26803 L32.537065,18.26803 Z M34.606815,18.97353 C37.005515,19.70113 39.639665,20.59533 39.615865,23.81768 C39.615865,26.42548 37.593715,28.14333 34.606815,28.49608 L34.606815,31.81023 L32.537065,31.81023 L32.537065,28.51988 C30.280315,28.33118 28.188465,27.34348 26.682265,25.95543 L27.881615,23.55673 C29.293465,24.85128 30.984965,25.65113 32.537065,25.88573 L32.537065,21.18268 C30.185115,20.47718 27.647015,19.60848 27.647015,16.48048 C27.647015,13.96363 29.574815,12.29593 32.537065,11.96528 L32.537065,8.86193 L34.606815,8.86193 L34.606815,11.94233 C36.394365,12.10723 38.108815,12.71753 39.403365,13.58878 L38.251615,16.03338 C36.981715,15.25648 35.688865,14.81108 34.606815,14.62238 L34.606815,18.97353 Z" id="Fill-4" fill="#00B1AC"></path><g id="Group-8" transform="translate(0.000000, 40.794220)"><mask id="mask-4" fill="white"><use xlink:href="#path-3"></use></mask><g id="Clip-7"></g><path d="M2.956725,3.85237 C2.732325,3.85237 2.549575,4.02917 2.549575,4.24592 L2.549575,18.23437 C2.549575,18.45112 2.732325,18.62707 2.956725,18.62707 L8.457925,18.62707 C8.924575,18.62707 9.352975,18.88207 9.576525,19.29092 C9.726975,19.56547 9.958175,19.78477 10.247175,19.92417 C16.515075,22.95612 35.586525,32.17522 62.563825,11.59842 C62.655625,11.52957 62.736375,11.47602 62.826475,11.42587 L62.826475,11.42672 C62.820525,11.42672 64.018175,10.65407 63.673075,10.03527 C62.746575,8.37607 58.359725,10.67872 52.804125,13.59337 C51.829175,14.10507 50.803225,14.64312 49.725425,15.19817 C48.555825,15.79997 47.347125,16.42217 46.080625,17.05967 C41.572225,19.22377 36.756125,19.83407 31.050925,18.96877 L30.656525,18.91012 C28.850275,18.64577 26.120925,18.24712 24.692925,16.63382 C23.918575,15.76002 23.633825,14.54962 23.950025,13.47607 C24.252625,12.45012 25.037175,11.69107 26.101375,11.39272 C27.224225,11.07992 28.246775,11.51427 29.067875,11.86362 C29.394275,12.00217 29.701975,12.13222 29.932325,12.18152 C30.953175,12.39657 31.827825,12.53852 32.855475,12.65582 C34.802825,12.87937 36.653275,12.88617 38.349025,12.67537 C40.304025,12.43227 42.180825,11.88487 43.925875,11.05017 C44.583775,10.73822 45.308825,10.39227 45.566375,9.98002 C45.745725,9.69187 45.545975,9.09517 45.170275,8.79767 C44.661975,8.39562 43.943725,8.37352 43.047825,8.38287 C41.967475,8.39392 40.885425,8.39562 39.806775,8.37777 C37.833925,8.34292 36.321775,8.25962 34.899725,8.10747 C33.307675,7.93832 31.233675,7.62552 29.309275,6.72027 C28.756775,6.45932 28.235725,6.16182 27.706175,5.85327 C25.729925,4.70152 23.489325,3.39677 10.837925,3.17407 C10.813275,3.17322 10.763975,3.17067 10.738475,3.16897 C10.463925,3.17152 10.139225,3.29647 9.872325,3.53277 C9.639425,3.73847 9.339375,3.85237 9.028275,3.85237 L2.956725,3.85237 Z M29.163925,27.20017 C19.437375,27.20017 12.521775,23.85627 9.138775,22.22087 C8.612625,21.96757 8.157025,21.61227 7.791525,21.17707 L2.956725,21.17707 C1.326425,21.17707 -0.000425,19.85702 -0.000425,18.23437 L-0.000425,4.24592 C-0.000425,2.62327 1.326425,1.30237 2.956725,1.30237 L8.596475,1.30237 C9.277325,0.84252 10.101825,0.56287 10.933975,0.62662 C24.198225,0.85867 26.743975,2.34192 28.989675,3.65007 C29.486925,3.93992 29.935725,4.19662 30.395575,4.41252 C31.975725,5.15712 33.777725,5.42317 35.170025,5.57192 C36.513875,5.71557 37.958025,5.79462 39.849275,5.82777 C40.904125,5.84477 41.963225,5.84562 43.018925,5.83287 C43.999825,5.81757 45.495825,5.80312 46.753825,6.79932 C48.004175,7.78957 48.711375,9.75477 47.730475,11.32982 C47.077675,12.37447 45.932725,12.91932 45.096325,13.31797 C43.031675,14.30482 40.891375,14.92787 38.663525,15.20497 C36.765475,15.44127 34.712725,15.43447 32.565625,15.18967 C31.453825,15.06217 30.509475,14.90917 29.406175,14.67627 C28.931875,14.57597 28.493275,14.38982 28.069975,14.21047 C27.614375,14.01667 27.047425,13.77527 26.788175,13.84837 C26.576525,13.90787 26.448175,14.02177 26.396325,14.19772 C26.341925,14.38387 26.366575,14.67712 26.602025,14.94402 C27.412075,15.85862 29.674775,16.19012 31.025425,16.38732 L31.432575,16.44682 C36.616725,17.23392 40.945775,16.69502 44.955225,14.77232 C46.191125,14.14757 47.395575,13.52877 48.558375,12.93037 C49.629375,12.37872 50.649375,11.84322 51.619225,11.33577 C58.932625,7.49802 63.764025,4.96332 65.900075,8.79342 L65.900925,8.79342 C66.962575,10.69827 65.768325,12.59292 64.113375,13.62652 C50.321275,24.14527 38.458675,27.20017 29.163925,27.20017 L29.163925,27.20017 Z" id="Fill-6" fill="#00807B" mask="url(#mask-4)"></path></g></g></g></g></g></g></svg>