<svg xmlns="http://www.w3.org/2000/svg" xmlns:xlink="http://www.w3.org/1999/xlink" width="68px" height="68px" viewBox="0 0 68 68"><title>Upstart | Icons | New | LP | Computer</title><g id="Page-1" stroke="none" stroke-width="1" fill="none" fill-rule="evenodd"><g id="CDAPI" transform="translate(-555.000000, -4399.000000)"><g id="Group-12" transform="translate(533.000000, 4399.000000)"><g id="Group-15" transform="translate(22.000000, 0.000000)"><path d="M13.94,49.1387821 C12.1545018,49.1387821 10.7010317,47.6860526 10.7010317,45.9004235 C10.7010317,44.1139474 12.1545018,42.6612179 13.94,42.6612179 C15.7263453,42.6612179 17.1789683,44.1139474 17.1789683,45.9004235 C17.1789683,47.6860526 15.7263453,49.1387821 13.94,49.1387821 M13.94,40.12 C10.7526993,40.12 8.16,42.7128893 8.16,45.9004235 C8.16,49.0871107 10.7526993,51.68 13.94,51.68 C17.1273007,51.68 19.72,49.0871107 19.72,45.9004235 C19.72,42.7128893 17.1273007,40.12 13.94,40.12" id="Fill-81" fill="#00807B"></path><path d="M52.7,49.1387821 C50.9145018,49.1387821 49.4610317,47.6860526 49.4610317,45.9004235 C49.4610317,44.1139474 50.9145018,42.6612179 52.7,42.6612179 C54.4863453,42.6612179 55.9389683,44.1139474 55.9389683,45.9004235 C55.9389683,47.6860526 54.4863453,49.1387821 52.7,49.1387821 M52.7,40.12 C49.5126993,40.12 46.92,42.7128893 46.92,45.9004235 C46.92,49.0871107 49.5126993,51.68 52.7,51.68 C55.8873007,51.68 58.48,49.0871107 58.48,45.9004235 C58.48,42.7128893 55.8873007,40.12 52.7,40.12" id="Fill-82" fill="#00807B"></path><path d="M42.2706635,42.84 L24.3693365,42.84 C23.6797028,42.84 23.12,43.44928 23.12,44.2 C23.12,44.95072 23.6797028,45.56 24.3693365,45.56 L42.2706635,45.56 C42.9611301,45.56 43.52,44.95072 43.52,44.2 C43.52,43.44928 42.9611301,42.84 42.2706635,42.84" id="Fill-83" fill="#00807B"></path><path d="M42.2706635,46.92 L24.3693365,46.92 C23.6797028,46.92 23.12,47.52928 23.12,48.28 C23.12,49.03072 23.6797028,49.64 24.3693365,49.64 L42.2706635,49.64 C42.9611301,49.64 43.52,49.03072 43.52,48.28 C43.52,47.52928 42.9611301,46.92 42.2706635,46.92" id="Fill-84" fill="#00807B"></path><path d="M62.6199738,36.0495635 C62.6023329,35.963306 62.5754517,35.8787234 62.54017,35.7974907 L60.4493093,31.0625418 L62.2805975,31.0625418 C63.6700243,31.0625418 64.7998787,32.1889137 64.7998787,33.5732204 C64.7998787,34.8419589 63.8472729,35.8829107 62.6199738,36.0495635 L62.6199738,36.0495635 Z M60.1267338,61.9142424 C60.1267338,63.884765 58.5180564,65.4876465 56.5414412,65.4876465 L55.9618133,65.4876465 C53.9851982,65.4876465 52.3765208,63.884765 52.3765208,61.9142424 L52.3765208,56.3845525 L60.1267338,56.3845525 L60.1267338,61.9142424 Z M14.5747015,61.9142424 C14.5747015,63.884765 12.9668641,65.4876465 10.9902489,65.4876465 L10.410621,65.4876465 C8.43400591,65.4876465 6.82532849,63.884765 6.82532849,61.9142424 L6.82532849,56.3845525 L14.5747015,56.3845525 L14.5747015,61.9142424 Z M2.52012129,33.5732204 C2.52012129,32.1889137 3.64913563,31.0625418 5.0385625,31.0625418 L6.50191293,31.0625418 L4.41189234,35.7974907 C4.38669112,35.8561123 4.37073036,35.9172462 4.35392955,35.9775427 C3.29883877,35.6785726 2.52012129,34.719691 2.52012129,33.5732204 L2.52012129,33.5732204 Z M33.4756111,53.872199 L15.8347621,53.872199 L6.82532849,53.872199 L6.82532849,38.716008 L60.1267338,38.716008 L60.1267338,53.872199 L51.1164602,53.872199 L33.4756111,53.872199 Z M67.32,33.5732204 C67.32,30.802932 65.0594512,28.5501884 62.2805975,28.5501884 L59.4068192,28.5501884 C59.3849781,28.5501884 59.3648171,28.5552131 59.3429761,28.556888 L54.9898866,18.6942257 C53.440852,15.1869803 49.9555243,12.92 46.1106592,12.92 L33.4756111,12.92 C32.7800576,12.92 32.2155505,13.4827672 32.2155505,14.1761767 C32.2155505,14.8695863 32.7800576,15.4323535 33.4756111,15.4323535 L46.1106592,15.4323535 C48.9567162,15.4323535 51.5364804,17.1106056 52.6822955,19.7067042 L59.965446,36.2036545 L6.98577621,36.2036545 L12.6552091,23.3630159 C12.9357826,22.7273905 12.6459686,21.9862462 12.009218,21.7065375 C11.3733074,21.4293412 10.6290316,21.7157495 10.3484581,22.3505375 L7.61160633,28.5501884 L5.0385625,28.5501884 C2.25970876,28.5501884 0,30.802932 0,33.5732204 C0,36.0947858 1.8741302,38.1808767 4.3052072,38.5367934 L4.3052072,55.1283757 L4.3052072,61.9142424 C4.3052072,65.2707467 7.043739,68 10.410621,68 L10.9902489,68 C14.3562909,68 17.0948227,65.2707467 17.0948227,61.9142424 L17.0948227,56.3845525 L33.4756111,56.3845525 L49.8563995,56.3845525 L49.8563995,61.9142424 C49.8563995,65.2707467 52.5949313,68 55.9618133,68 L56.5414412,68 C59.9074832,68 62.6468551,65.2707467 62.6468551,61.9142424 L62.6468551,55.1283757 L62.6468551,38.5778285 C65.2543406,38.389402 67.32,36.2195661 67.32,33.5732204 L67.32,33.5732204 Z" id="Fill-85" fill="#00807B"></path><path d="M19.72,2.5380237 C13.6204728,2.5380237 8.65794476,7.50070604 8.65794476,13.600423 C8.65794476,19.70014 13.6204728,24.6619763 19.72,24.6619763 C25.8195272,24.6619763 30.7820552,19.70014 30.7820552,13.600423 C30.7820552,7.50070604 25.8195272,2.5380237 19.72,2.5380237 M19.72,27.2 C12.2212192,27.2 6.12,21.099437 6.12,13.600423 C6.12,6.10140898 12.2212192,0 19.72,0 C27.2187808,0 33.32,6.10140898 33.32,13.600423 C33.32,21.099437 27.2187808,27.2 19.72,27.2" id="Fill-86" fill="#00B1AC"></path><path d="M20.3766753,17.025879 C21.2128351,16.8496129 21.6945451,16.4008581 21.6945451,15.7281516 C21.6945451,14.97455 21.1479238,14.5734807 20.3766753,14.2694855 L20.3766753,17.025879 Z M18.9622927,11.8494452 L18.9622927,9.33403387 C18.206418,9.46176294 17.7409358,9.84580171 17.7409358,10.4554952 C17.7409358,11.1597082 18.2388736,11.5607775 18.9622927,11.8494452 L18.9622927,11.8494452 Z M20.3766753,12.3297065 C22.0156851,12.8269984 23.8161189,13.4358404 23.7998911,15.6310775 C23.7998911,17.4099178 22.4179642,18.5799162 20.3766753,18.8200468 L20.3766753,21.08 L18.9622927,21.08 L18.9622927,18.8362258 C17.4189417,18.7084968 15.9883313,18.0357903 14.96,17.0897436 L15.7799319,15.4548113 C16.744206,16.336142 17.9015058,16.8811194 18.9622927,17.042058 L18.9622927,13.8369097 C17.3548845,13.3557968 15.6185078,12.7631339 15.6185078,10.6317613 C15.6185078,8.91678554 16.9372317,7.77914521 18.9622927,7.55519355 L18.9622927,5.44 L20.3766753,5.44 L20.3766753,7.53816301 C21.5980322,7.6505646 22.7715598,8.0669614 23.6555489,8.66047585 L22.8680726,10.3269146 C21.9994572,9.79896771 21.1163222,9.49326945 20.3766753,9.36554037 L20.3766753,12.3297065 Z" id="Fill-87" fill="#00B1AC"></path></g></g></g></g></svg>