<svg xmlns="http://www.w3.org/2000/svg" xmlns:xlink="http://www.w3.org/1999/xlink" width="256px" height="127px" viewBox="0 0 256 127"><title>Large US Banks Copy 2</title><desc>Created with Sketch.</desc><g id="Page-1" stroke="none" stroke-width="1" fill="none" fill-rule="evenodd"><g id="Overview" transform="translate(-445.000000, -4414.000000)"><g id="Large-US-Banks-Copy-2" transform="translate(445.000000, 4413.000000)"><text font-family="Helvetica" font-size="12" font-weight="normal" fill="#000000"><tspan x="6.80957031" y="121">Large US Banks</tspan></text><g id="Group-3-Copy" stroke-width="1" fill-rule="evenodd"><polygon id="Rectangle" fill-opacity="0.5" fill="#7FD2CF" points="100 1 156 76 156 100.739294 100 100.739294"></polygon><g id="Arrow-07" transform="translate(145.181849, 30.615797) rotate(50.000000) translate(-145.181849, -30.615797) translate(112.681849, 23.115797)"><line x1="0.550596596" y1="5.72470987" x2="55.9767988" y2="8.34220769" id="Stroke-07" stroke="#E6B658" stroke-width="4" stroke-linecap="square"></line><polyline id="Arrow-head-07" fill="#E6B658" points="52.5601146 14.8536589 64.5601146 7.85400987 52.5601146 0.853658908 52.5601146 14.8536589"></polyline></g><rect id="Rectangle" fill="#979797" x="0" y="1" width="100" height="100"></rect></g><g id="Group-7-Copy" stroke-width="1" fill-rule="evenodd" transform="translate(0.000000, 1.000000)"><g id="Group-3" fill="#C2C2C2"><rect id="Rectangle" x="0" y="0" width="100" height="100"></rect></g><g id="Upstart-|-Logos-|-Standard-Copy-2" transform="translate(156.000000, 108.000000)" fill-rule="nonzero"><g id="Group" transform="translate(26.416460, 0.000000)" fill="#222929"><path d="M12.947684,8.71381307 C12.947684,13.1141439 10.4652605,15.3251654 6.61135236,15.3251654 C2.77915633,15.3251654 0.340157155,13.1141439 0.340157155,8.84046733 L0.340157155,0.35825062 L2.92752275,0.35825062 L2.92752275,8.73552523 C2.92752275,11.4712572 4.33881307,12.9440653 6.65477667,12.9440653 C8.94902812,12.9440653 10.3603184,11.5544872 10.3603184,8.84046733 L10.3603184,0.35825062 L12.947684,0.35825062 L12.947684,8.71381307 Z" id="Path"></path><path d="M21.5818859,15.3251654 C19.7508271,15.3251654 18.5928453,14.39878 17.8148263,13.3674524 L17.8148263,18.4625724 L15.2672663,18.4625724 L15.2672663,3.97694376 L17.8148263,3.97694376 L17.8148263,5.82971464 C18.6362696,4.67173284 19.7942514,3.74534739 21.5818859,3.74534739 C24.2126758,3.74534739 26.7602357,5.82971464 26.7602357,9.53525641 C26.7602357,13.2407982 24.2343879,15.3251654 21.5818859,15.3251654 Z M20.9920389,5.9563689 C19.2659222,5.9563689 17.7496898,7.36765922 17.7496898,9.53525641 C17.7496898,11.7028536 19.2659222,13.1141439 20.9920389,13.1141439 C22.7398677,13.1141439 24.1692514,11.7462779 24.1692514,9.53525641 C24.1692514,7.34594706 22.7181555,5.9563689 20.9920389,5.9563689 Z" id="Shape"></path><path d="M32.723842,15.3034533 C31.1460918,15.3034533 29.398263,14.7353184 28.0086849,13.6424731 L29.1449545,11.9163565 C30.3463606,12.8210298 31.6490902,13.2842225 32.7853598,13.2842225 C33.8818238,13.2842225 34.5114764,12.8210298 34.5114764,12.0828164 L34.5114764,12.0393921 C34.5114764,11.1781431 33.3317825,10.8814103 32.0290529,10.483354 C30.3861663,10.0201613 28.5551075,9.34708437 28.5551075,7.2192928 L28.5551075,7.17586849 C28.5551075,5.06978908 30.3029363,3.78877171 32.5103391,3.78877171 C33.8999173,3.78877171 35.4161497,4.27367659 36.592225,5.05169562 L35.5826096,6.86104218 C34.5114764,6.20967742 33.3715881,5.80800248 32.4452026,5.80800248 C31.4572994,5.80800248 30.8891646,6.2711952 30.8891646,6.92255997 L30.8891646,6.96598428 C30.8891646,7.76571547 32.0905707,8.10225393 33.3933002,8.52202233 C35.0144748,9.02863937 36.8455389,9.76323408 36.8455389,11.7643714 L36.8455389,11.8077957 C36.8491522,14.1454715 35.0398056,15.3034533 32.723842,15.3034533 Z" id="Path"></path><path d="M41.9876964,11.6196237 C41.9876964,12.6075269 42.4943135,13.0092018 43.3555624,13.0092018 C43.9236973,13.0092018 44.4303143,12.8825476 44.9333127,12.629239 L44.9333127,14.7136063 C44.3000414,15.0718569 43.5871588,15.2817411 42.6390612,15.2817411 C40.7645782,15.2817411 39.4401365,14.4602978 39.4401365,12.0176799 L39.4401365,6.1662531 L38.0288462,6.1662531 L38.0288462,3.97694376 L39.4401365,3.97694376 L39.4401365,0.926385443 L41.9876964,0.926385443 L41.9876964,3.97694376 L44.976737,3.97694376 L44.976737,6.1662531 L41.9876964,6.1662531 L41.9876964,11.6196237 Z" id="Path"></path><path d="M54.0886063,15.0935691 L54.0886063,13.7257031 C53.3322994,14.6303763 52.1743176,15.3251654 50.4880066,15.3251654 C48.3819272,15.3251654 46.532775,14.1237593 46.532775,11.8946443 L46.532775,11.85122 C46.532775,9.45202647 48.4470637,8.27233251 51.038048,8.27233251 C52.3842018,8.27233251 53.2490695,8.46050455 54.1103184,8.73552523 L54.1103184,8.46050455 C54.1103184,6.92255997 53.1405087,6.08302316 51.3745864,6.08302316 C50.1333747,6.08302316 49.2069892,6.35804384 48.1973739,6.77781224 L47.5025848,4.73686931 C48.7220844,4.19044665 49.9234905,3.81048387 51.7328371,3.81048387 C55.0186104,3.81048387 56.6180728,5.5366005 56.6180728,8.50392887 L56.6180728,15.0935691 L54.0886063,15.0935691 L54.0886063,15.0935691 Z M54.1537428,10.3784119 C53.502378,10.1251034 52.5977047,9.93693135 51.6061828,9.93693135 C50.0067204,9.93693135 49.0586228,10.5882961 49.0586228,11.7245658 L49.0586228,11.7679901 C49.0586228,12.8210298 50.0067204,13.4108768 51.2045079,13.4108768 C52.8872002,13.4108768 54.1501241,12.4627792 54.1501241,11.073201 L54.1501241,10.3784119 L54.1537428,10.3784119 Z" id="Shape"></path><path d="M61.0401158,15.0935691 L58.4925558,15.0935691 L58.4925558,3.97694376 L61.0401158,3.97694376 L61.0401158,6.4810794 C61.7349049,4.81648056 63.0195409,3.68021092 64.9772539,3.76705955 L64.9772539,6.46298594 L64.8288875,6.46298594 C62.5961538,6.46298594 61.0401158,7.91408189 61.0401158,10.8633168 L61.0401158,15.0935691 Z" id="Path"></path><path d="M70.4089123,11.6196237 C70.4089123,12.6075269 70.9155294,13.0092018 71.7767783,13.0092018 C72.3449132,13.0092018 72.8515302,12.8825476 73.3545285,12.629239 L73.3545285,14.7136063 C72.7212572,15.0718569 72.0083747,15.2817411 71.0602771,15.2817411 C69.185794,15.2817411 67.8613524,14.4602978 67.8613524,12.0176799 L67.8613524,6.1662531 L66.450062,6.1662531 L66.450062,3.97694376 L67.8613524,3.97694376 L67.8613524,0.926385443 L70.4089123,0.926385443 L70.4089123,3.97694376 L73.3979529,3.97694376 L73.3979529,6.1662531 L70.4089123,6.1662531 L70.4089123,11.6196237 L70.4089123,11.6196237 Z" id="Path"></path></g><g id="Group" transform="translate(0.000000, 0.268817)"><path d="M2.91666667,6.6320306 L2.91666667,6.6320306 L1.19416873,8.35090984 C-0.314826303,9.85990488 -0.314826303,12.3278536 1.19416873,13.8332299 L1.19416873,13.8368486 C2.70316377,15.342225 5.17111249,15.342225 6.67648883,13.8368486 L10.5123036,10.0010339 L10.5123036,10.0082713 C10.6642887,9.88523573 10.8560794,9.81286187 11.0659636,9.81286187 C11.2758478,9.81286187 11.4676385,9.88523573 11.6196237,10.0082713 L11.626861,10.0082713 L8.32299421,6.70440447 C6.83209264,5.21712159 4.43289909,5.19179074 2.91666667,6.6320306" id="Path" fill="#00807B"></path><path d="M20.9377585,8.35090984 L13.8125517,1.22570306 L13.808933,1.22208437 C13.714847,1.12799835 13.6171423,1.04114971 13.5158189,0.957919768 C11.9959677,-0.283291977 9.73790323,-0.192824648 8.32299421,1.21846567 C8.29766336,1.24379653 8.2759512,1.26912738 8.25062035,1.29445823 L8.03711745,1.50796112 L2.91304797,6.6320306 L2.91304797,6.6320306 C4.43289909,5.19179074 6.83209264,5.21712159 8.31937552,6.70802316 L11.6232423,10.01189 L15.4518197,13.8368486 C16.9608147,15.3458437 19.4287634,15.3458437 20.9377585,13.8368486 C22.4467535,12.3278536 22.4467535,9.85990488 20.9377585,8.35090984" id="Path" fill="#00B1AC"></path></g></g></g><rect id="Rectangle-Copy-2" fill="#00B1AC" fill-rule="evenodd" x="156" y="76" width="100" height="25"></rect></g></g></g></svg>