<svg xmlns="http://www.w3.org/2000/svg" xmlns:xlink="http://www.w3.org/1999/xlink" width="137px" height="44px" viewBox="0 0 137 44"><title>Group 10</title><desc>Created with Sketch.</desc><g id="Page-1" stroke="none" stroke-width="1" fill="none" fill-rule="evenodd"><g id="Overview_Mobile" transform="translate(-48.000000, -4026.000000)"><g id="Group-24" transform="translate(42.000000, 4026.000000)"><g id="Group-10" transform="translate(6.000000, 0.000000)"><text id="Traditional-Model" font-family="Helvetica" font-size="12" font-weight="normal" fill="#3C3648"><tspan x="32" y="13">Traditional Model</tspan></text><rect id="Rectangle-Copy-18" fill="#C2C2C2" x="0" y="0" width="18" height="18"></rect><rect id="Rectangle-Copy-19" fill="#00B1AC" x="0" y="26" width="18" height="18"></rect><g id="Upstart-|-Logos-|-Standard-Copy" transform="translate(32.000000, 29.000000)" fill-rule="nonzero"><g id="Group" transform="translate(19.653846, 0.000000)" fill="#222929"><path d="M9.63307692,6.48307692 C9.63307692,9.75692308 7.78615385,11.4019231 4.91884615,11.4019231 C2.06769231,11.4019231 0.253076923,9.75692308 0.253076923,6.57730769 L0.253076923,0.266538462 L2.17807692,0.266538462 L2.17807692,6.49923077 C2.17807692,8.53461538 3.22807692,9.63038462 4.95115385,9.63038462 C6.65807692,9.63038462 7.70807692,8.59653846 7.70807692,6.57730769 L7.70807692,0.266538462 L9.63307692,0.266538462 L9.63307692,6.48307692 Z" id="Path"></path><path d="M16.0569231,11.4019231 C14.6946154,11.4019231 13.8330769,10.7126923 13.2542308,9.94538462 L13.2542308,13.7361538 L11.3588462,13.7361538 L11.3588462,2.95884615 L13.2542308,2.95884615 L13.2542308,4.33730769 C13.8653846,3.47576923 14.7269231,2.78653846 16.0569231,2.78653846 C18.0142308,2.78653846 19.9096154,4.33730769 19.9096154,7.09423077 C19.9096154,9.85115385 18.0303846,11.4019231 16.0569231,11.4019231 Z M15.6180769,4.43153846 C14.3338462,4.43153846 13.2057692,5.48153846 13.2057692,7.09423077 C13.2057692,8.70692308 14.3338462,9.75692308 15.6180769,9.75692308 C16.9184615,9.75692308 17.9819231,8.73923077 17.9819231,7.09423077 C17.9819231,5.46538462 16.9023077,4.43153846 15.6180769,4.43153846 Z" id="Shape"></path><path d="M24.3465385,11.3857692 C23.1726923,11.3857692 21.8723077,10.9630769 20.8384615,10.15 L21.6838462,8.86576923 C22.5776923,9.53884615 23.5469231,9.88346154 24.3923077,9.88346154 C25.2080769,9.88346154 25.6765385,9.53884615 25.6765385,8.98961538 L25.6765385,8.95730769 C25.6765385,8.31653846 24.7988462,8.09576923 23.8296154,7.79961538 C22.6073077,7.455 21.245,6.95423077 21.245,5.37115385 L21.245,5.33884615 C21.245,3.77192308 22.5453846,2.81884615 24.1876923,2.81884615 C25.2215385,2.81884615 26.3496154,3.17961538 27.2246154,3.75846154 L26.4734615,5.10461538 C25.6765385,4.62 24.8284615,4.32115385 24.1392308,4.32115385 C23.4042308,4.32115385 22.9815385,4.66576923 22.9815385,5.15038462 L22.9815385,5.18269231 C22.9815385,5.77769231 23.8753846,6.02807692 24.8446154,6.34038462 C26.0507692,6.71730769 27.413081,7.26384615 27.413081,8.75269231 L27.413081,8.785 C27.4157692,10.5242308 26.0696154,11.3857692 24.3465385,11.3857692 Z" id="Path"></path><path d="M31.2388462,8.645 C31.2388462,9.38 31.6157692,9.67884615 32.2565385,9.67884615 C32.6792308,9.67884615 33.0561538,9.58461538 33.4303846,9.39615385 L33.4303846,10.9469231 C32.9592308,11.2134615 32.4288462,11.3696154 31.7234615,11.3696154 C30.3288462,11.3696154 29.3434615,10.7584615 29.3434615,8.94115385 L29.3434615,4.58769231 L28.2934615,4.58769231 L28.2934615,2.95884615 L29.3434615,2.95884615 L29.3434615,0.689230769 L31.2388462,0.689230769 L31.2388462,2.95884615 L33.4626923,2.95884615 L33.4626923,4.58769231 L31.2388462,4.58769231 L31.2388462,8.645 Z" id="Path"></path><path d="M40.2419231,11.2296154 L40.2419231,10.2119231 C39.6792308,10.885 38.8176923,11.4019231 37.5630769,11.4019231 C35.9961538,11.4019231 34.6203846,10.5080769 34.6203846,8.84961538 L34.6203846,8.81730769 C34.6203846,7.03230769 36.0446154,6.15461538 37.9723077,6.15461538 C38.9738462,6.15461538 39.6173077,6.29461538 40.2580769,6.49923077 L40.2580769,6.29461538 C40.2580769,5.15038462 39.5365385,4.52576923 38.2226923,4.52576923 C37.2992308,4.52576923 36.61,4.73038462 35.8588462,5.04269231 L35.3419231,3.52423077 C36.2492308,3.11769231 37.1430769,2.835 38.4892308,2.835 C40.9338462,2.835 42.1238462,4.11923077 42.1238462,6.32692308 L42.1238462,11.2296154 L40.2419231,11.2296154 L40.2419231,11.2296154 Z M40.2903846,7.72153846 C39.8057692,7.53307692 39.1326923,7.39307692 38.395,7.39307692 C37.205,7.39307692 36.4996154,7.87769231 36.4996154,8.72307692 L36.4996154,8.75538462 C36.4996154,9.53884615 37.205,9.97769231 38.0961538,9.97769231 C39.3480769,9.97769231 40.2876923,9.27230769 40.2876923,8.23846154 L40.2876923,7.72153846 L40.2903846,7.72153846 Z" id="Shape"></path><path d="M45.4138462,11.2296154 L43.5184615,11.2296154 L43.5184615,2.95884615 L45.4138462,2.95884615 L45.4138462,4.82192308 C45.9307692,3.58346154 46.8865385,2.73807692 48.3430769,2.80269231 L48.3430769,4.80846154 L48.2326923,4.80846154 C46.5715385,4.80846154 45.4138462,5.88807692 45.4138462,8.08230769 L45.4138462,11.2296154 Z" id="Path"></path><path d="M52.3842308,8.645 C52.3842308,9.38 52.7611538,9.67884615 53.4019231,9.67884615 C53.8246154,9.67884615 54.2015385,9.58461538 54.5757692,9.39615385 L54.5757692,10.9469231 C54.1046154,11.2134615 53.5742308,11.3696154 52.8688462,11.3696154 C51.4742308,11.3696154 50.4888462,10.7584615 50.4888462,8.94115385 L50.4888462,4.58769231 L49.4388462,4.58769231 L49.4388462,2.95884615 L50.4888462,2.95884615 L50.4888462,0.689230769 L52.3842308,0.689230769 L52.3842308,2.95884615 L54.6080769,2.95884615 L54.6080769,4.58769231 L52.3842308,4.58769231 L52.3842308,8.645 L52.3842308,8.645 Z" id="Path"></path></g><g id="Group" transform="translate(0.000000, 0.200000)"><path d="M2.17,4.93423077 L2.17,4.93423077 L0.888461538,6.21307692 C-0.234230769,7.33576923 -0.234230769,9.17192308 0.888461538,10.2919231 L0.888461538,10.2946154 C2.01115385,11.4146154 3.84730769,11.4146154 4.96730769,10.2946154 L7.82115385,7.44076923 L7.82115385,7.44615385 C7.93423077,7.35461538 8.07692308,7.30076923 8.23307692,7.30076923 C8.38923077,7.30076923 8.53192308,7.35461538 8.645,7.44615385 L8.65038462,7.44615385 L6.19230769,4.98807692 C5.08307692,3.88153846 3.29807692,3.86269231 2.17,4.93423077" id="Path" fill="#00807B"></path><path d="M15.5776923,6.21307692 L10.2765385,0.911923077 L10.2738462,0.909230769 C10.2038462,0.839230769 10.1311538,0.774615385 10.0557692,0.712692308 C8.925,-0.210769231 7.245,-0.143461538 6.19230769,0.906538462 C6.17346154,0.925384615 6.15730769,0.944230769 6.13846154,0.963076923 L5.97961538,1.12192308 L2.16730769,4.93423077 L2.16730769,4.93423077 C3.29807692,3.86269231 5.08307692,3.88153846 6.18961538,4.99076923 L8.64769231,7.44884615 L11.4961538,10.2946154 C12.6188462,11.4173077 14.455,11.4173077 15.5776923,10.2946154 C16.7003846,9.17192308 16.7003846,7.33576923 15.5776923,6.21307692" id="Path" fill="#00B1AC"></path></g></g></g></g></g></g></svg>