<svg width="221" height="217" viewBox="0 0 221 217" fill="none" xmlns="http://www.w3.org/2000/svg">
<path opacity="0.33" d="M175.425 65.2389L54.128 62.3984C49.3423 62.2839 45.3167 66.0705 45.1408 70.8457L44.7918 80.2138L44.1024 98.5895L42.4468 142.693C42.2669 147.471 46.0041 151.436 50.7869 151.546L172.084 154.387C176.867 154.497 180.896 150.714 181.072 145.939L182.726 101.842L183.415 83.4668L183.764 74.0986C183.944 69.3206 180.207 65.3562 175.424 65.2457L175.425 65.2389Z" fill="#1A1A1A" fill-opacity="0.5"/>
<path d="M178.51 73.9927L175.817 145.833C175.637 150.611 171.616 154.395 166.83 154.281L45.5286 151.443C40.7429 151.328 37.0086 147.368 37.1885 142.59L39.8813 70.7494C40.0612 65.9714 44.0828 62.1877 48.8685 62.3021L170.166 65.1426C174.952 65.257 178.686 69.2175 178.506 73.9955L178.51 73.9927Z" fill="#6EAEAC"/>
<path d="M178.154 83.3597L177.468 101.739L38.8429 98.4933L39.5323 80.1176L178.154 83.3597Z" fill="#606060"/>
<path d="M164.845 133.692L137.119 133.044C135.239 133.002 133.771 131.441 133.84 129.565C133.91 127.689 135.492 126.201 137.372 126.243L165.098 126.892C166.978 126.934 168.446 128.494 168.376 130.37C168.307 132.246 166.725 133.735 164.845 133.692Z" fill="#FAC938"/>
<path d="M112.626 116.343L73.3179 115.426C70.5135 115.36 68.3182 113.036 68.4261 110.232L68.4363 109.882C68.5402 107.08 70.9005 104.859 73.7089 104.922L113.017 105.84C115.821 105.905 118.017 108.23 117.909 111.034L117.898 111.384C117.795 114.185 115.434 116.406 112.626 116.343Z" fill="#FAC938"/>
<path d="M106.075 110.877C106.04 111.768 105.295 112.471 104.402 112.449C103.51 112.427 102.816 111.687 102.848 110.799C102.883 109.909 103.628 109.206 104.521 109.228C105.414 109.25 106.107 109.99 106.075 110.877Z" fill="#CECECE"/>
<path d="M109.821 112.152C110.494 111.561 110.566 110.543 109.982 109.878C109.398 109.213 108.379 109.153 107.706 109.745C107.033 110.336 106.961 111.354 107.545 112.019C108.129 112.684 109.148 112.744 109.821 112.152Z" fill="#CECECE"/>
<path d="M114.124 112.249C114.797 111.658 114.869 110.639 114.285 109.975C113.701 109.31 112.682 109.25 112.009 109.842C111.336 110.433 111.264 111.451 111.848 112.116C112.432 112.781 113.451 112.841 114.124 112.249Z" fill="#CECECE"/>
</svg>
