<svg width="188" height="293" viewBox="0 0 188 293" fill="none" xmlns="http://www.w3.org/2000/svg">
<path d="M139.092 123.191C139.092 161.581 107.953 192.706 69.5461 192.706C31.1388 192.706 0.000244141 161.587 0.000244141 123.191C0.000244141 84.7953 31.1388 0 69.5461 0C107.953 0 139.092 84.8014 139.092 123.191Z" fill="#C5E7E9"/>
<path d="M72.675 292.02V59.5571" stroke="#757575" stroke-width="3.97" stroke-miterlimit="10"/>
<path d="M72.9957 129.755L37.3301 103.64" stroke="#757575" stroke-width="3.97" stroke-miterlimit="10"/>
<path d="M72.9958 91.9096L91.443 77.5059" stroke="#757575" stroke-width="3.97" stroke-miterlimit="10"/>
<path d="M140.401 228.759C166.58 228.759 187.802 207.546 187.802 181.379C187.802 155.212 166.58 134 140.401 134C114.222 134 93.0002 155.212 93.0002 181.379C93.0002 207.546 114.222 228.759 140.401 228.759Z" fill="#DCF7FB"/>
<path d="M142.531 287.154V161.761" stroke="#757575" stroke-width="3.97" stroke-miterlimit="10"/>
<path d="M142.749 205.946L118.444 188.149" stroke="#757575" stroke-width="3.97" stroke-miterlimit="10"/>
<path d="M142.75 178.33L155.326 168.512" stroke="#757575" stroke-width="3.97" stroke-miterlimit="10"/>
</svg>
