<svg width="155" height="149" viewBox="0 0 155 149" fill="none" xmlns="http://www.w3.org/2000/svg">
<path fill-rule="evenodd" clip-rule="evenodd" d="M76.7644 53.7528C73.8629 48.1986 74.5648 41.4017 78.6598 36.4767C79.2129 35.8116 80.2009 35.7108 80.8626 36.2601L91.7103 45.2649C96.7981 44.2259 102.146 44.6344 106.953 46.4365L110.366 42.3324C111.825 40.5775 114.415 40.3239 116.154 41.7672L126.157 50.0708C127.896 51.5142 128.128 54.111 126.669 55.8659L122.338 61.074C124.532 66.1484 125.149 71.8748 124.082 77.3644L131.578 92.1029C131.596 92.1533 131.619 92.1967 131.643 92.24C132.233 93.7343 131.955 95.4417 130.914 96.6941C129.873 97.9466 128.249 98.5249 126.671 98.2194C126.624 98.2043 126.577 98.1893 126.524 98.1813L114.237 94.5713L103.758 107.174L109.618 118.7C109.618 118.7 109.652 118.788 109.675 118.832C110.265 120.326 109.988 122.033 108.952 123.279C107.917 124.524 106.288 125.109 104.709 124.804C104.657 124.796 104.617 124.787 104.57 124.772L88.2138 119.973C79.0008 123.341 68.6992 121.606 61.2023 115.383C59.7804 114.203 58.509 112.884 57.3858 111.473C53.5633 114.783 47.8201 114.979 43.8429 111.677C43.1812 111.128 43.0992 110.139 43.6523 109.474C44.2054 108.809 45.1934 108.708 45.8551 109.257C48.7201 111.635 52.8916 111.426 55.5747 108.929C51.48 102.421 50.2221 94.3318 52.4277 86.6422L76.7644 53.7528ZM97.087 60.2056C96.0381 59.3349 95.9054 57.7774 96.782 56.7231C97.6587 55.6687 99.2153 55.5137 100.264 56.3844C101.313 57.2551 101.446 58.8125 100.569 59.8669C99.6925 60.9212 98.1359 61.0762 97.087 60.2056Z" fill="#6EAEAC"/>
<ellipse rx="19.2132" ry="18.8937" transform="matrix(0.502655 -0.857029 0.86794 0.507574 58.581 67.3852)" fill="#FAC938"/>
<path fill-rule="evenodd" clip-rule="evenodd" d="M64.0441 69.4422C64.5154 68.1505 64.3145 67.1116 63.399 66.5401C62.3771 65.9062 61.362 66.3173 60.2971 67.1181L64.0441 69.4422ZM55.7985 67.0107L52.3744 64.8875C51.9089 66.0271 52.0368 66.9873 52.8636 67.507C53.8234 68.1045 54.7879 67.7595 55.7985 67.0107ZM57.6606 65.4798C59.7322 63.6526 62.0886 61.705 65.0641 63.5777C67.4841 65.0774 67.9047 67.9559 66.4906 70.9575L69.5652 72.8642L68.3578 74.802L65.3098 72.9109C63.8258 74.9143 61.6924 76.2984 59.5333 76.9137L58.0072 74.4174C60.0254 73.8393 61.7532 72.7204 62.8721 71.4008L58.5148 68.6957C56.496 70.4939 54.2095 72.3628 51.3122 70.5599C48.981 69.112 48.5524 66.3485 49.9686 63.3841L47.0979 61.5968L48.3054 59.6589L51.1635 61.4269C52.3509 59.8483 53.917 58.5989 55.4787 57.8853L57.07 60.3719C55.6127 61.1106 54.4449 62.0666 53.6403 62.9719L57.6747 65.4761L57.6606 65.4798Z" fill="#FDF2D1"/>
<path d="M60.6609 88.5701L86.457 58.8464L91.2796 77.9688L74.0048 87.3174L60.6609 88.5701Z" fill="#6EAEAC"/>
</svg>
